<svg width="200" height="200" viewBox="0 0 200 200" fill="none" xmlns="http://www.w3.org/2000/svg">
<path d="M191.939 143.508L188.719 96.0282L184.659 91.4521L179.023 69.9481L174.223 65.3761L173.395 57.4161L168.987 53.9281L166.827 37.8481L163.251 39.0401L162.283 45.7361L158.355 47.2161L153.743 63.0281L147.987 66.2481L143.239 81.6361L136.999 85.8361L118.227 144.12L191.939 143.508Z" fill="#E0E0E0"/>
<path d="M190.266 118.864L181.046 112.08L176.99 97.3843L171.918 96.5363L168.53 84.2763L164.742 85.1243L161.618 91.4523L155.71 92.5923L150.778 77.3883L146.27 77.7923L142.938 68.0923L140.206 71.0803L138.094 76.9483L133.442 78.6403L129.922 86.3523L122.874 87.6523L108.602 144.12L191.938 143.508L190.266 118.864Z" fill="#F0F0F0"/>
<path d="M35.0118 182.036C-0.884155 161.316 -0.884155 127.716 35.0118 106.996C70.9078 86.2761 129.096 86.2721 164.988 106.996C200.88 127.72 200.884 161.316 164.988 182.036C129.092 202.756 70.9038 202.76 35.0118 182.036Z" fill="#FAFAFA"/>
<path d="M132.136 192.824L89.316 126.028L57.24 144.612L47.604 149.216L16.168 167.832L132.136 192.824Z" fill="#E0E0E0"/>
<path d="M183.11 183.092L153.014 136.136L130.466 149.2L123.694 152.436L101.594 165.524L183.11 183.092Z" fill="#E0E0E0"/>
<path d="M41.819 38.204C41.399 38.0477 40.9552 37.9651 40.507 37.96C40.083 37.928 39.947 37.84 39.867 37.752C39.4598 37.1661 38.8648 36.7366 38.1805 36.5344C37.4962 36.3322 36.7633 36.3695 36.103 36.64C35.918 36.0656 35.5235 35.582 34.9979 35.2855C34.4723 34.989 33.8543 34.9013 33.267 35.04C33.315 33.716 31.627 32.296 30.111 31.976C28.595 31.656 27.387 31.796 26.559 32.752C25.667 31.016 22.187 30.528 20.303 31.444C19.219 31.972 18.303 32.516 17.851 33.508C17.5548 34.123 17.4173 34.8023 17.451 35.484C16.715 34.836 15.243 34.66 14.251 35.04C13.195 35.44 13.115 36.24 13.051 37.04C12.4225 36.8601 11.7578 36.8477 11.123 37.004C10.459 37.204 10.075 37.724 10.163 38.148C9.63904 38.12 8.38304 38.548 8.52704 39.104C8.68704 39.728 10.127 39.664 10.659 39.644C11.1643 39.6035 11.6657 39.5246 12.159 39.408C12.4082 39.5031 12.6723 39.5532 12.939 39.556C13.851 39.556 14.239 39.156 14.383 38.82C14.831 39.756 16.415 40.472 17.539 40.76C19.651 41.3 22.639 40.972 23.939 39.392C24.092 39.6894 24.306 39.9511 24.567 40.16C25.1257 40.6115 25.8042 40.8896 26.519 40.96C27.387 41.04 29.719 41.152 30.371 39.76C30.835 40.676 32.907 41.096 34.483 40.872C35.0938 40.7794 35.688 40.5989 36.247 40.336C36.5958 40.1529 36.9337 39.9499 37.259 39.728C37.3846 39.6415 37.5312 39.5906 37.6833 39.5808C37.8354 39.5709 37.9874 39.6025 38.123 39.672C39.2365 40.0623 40.4496 40.0623 41.563 39.672C42.459 39.312 42.643 38.576 41.819 38.204Z" fill="#F0F0F0"/>
<path d="M148.798 44.1358C148.393 43.9868 147.966 43.9083 147.534 43.9038C147.134 43.8718 146.994 43.7878 146.914 43.6998C146.522 43.1355 145.95 42.7218 145.291 42.5269C144.632 42.332 143.926 42.3676 143.29 42.6278C143.111 42.0742 142.73 41.6082 142.224 41.3222C141.717 41.0362 141.121 40.9511 140.554 41.0838C140.598 39.8078 138.954 38.4398 137.51 38.1278C136.066 37.8158 134.886 37.9558 134.086 38.8758C133.23 37.2038 129.87 36.7318 128.054 37.6198C127.01 38.1278 126.122 38.6478 125.69 39.6198C125.4 40.2112 125.263 40.8657 125.29 41.5238C124.582 40.8998 123.162 40.7238 122.218 41.0958C121.198 41.4958 121.118 42.2598 121.07 43.0398C120.466 42.8646 119.825 42.8536 119.214 43.0078C118.57 43.1958 118.202 43.6998 118.29 44.1078C117.782 44.0798 116.57 44.5078 116.71 45.0278C116.866 45.6318 118.246 45.5678 118.766 45.5518C119.253 45.5119 119.735 45.4356 120.21 45.3238C120.451 45.4138 120.706 45.4611 120.962 45.4638C121.842 45.4638 122.214 45.0838 122.358 44.7558C122.786 45.6598 124.314 46.3558 125.398 46.6238C127.434 47.1478 130.314 46.8278 131.566 45.3078C131.715 45.5943 131.922 45.8464 132.174 46.0478C132.713 46.4818 133.369 46.7463 134.058 46.8078C134.894 46.8878 137.134 46.9958 137.766 45.6638C138.214 46.5478 140.214 46.9518 141.73 46.7358C142.32 46.648 142.894 46.4756 143.434 46.2238C143.77 46.045 144.096 45.8487 144.41 45.6358C144.531 45.5509 144.672 45.5007 144.819 45.4908C144.965 45.4809 145.112 45.5117 145.242 45.5798C146.316 45.9599 147.488 45.9599 148.562 45.5798C149.422 45.1998 149.598 44.4958 148.798 44.1358Z" fill="#F5F5F5"/>
<path d="M60.8483 91.5198C60.2301 91.3116 59.5806 91.2115 58.9283 91.2238C58.3123 91.1918 58.1283 91.0758 57.9883 90.9438C57.3734 90.1101 56.4922 89.5113 55.4906 89.2465C54.4889 88.9817 53.427 89.0669 52.4803 89.4878C52.0803 88.0198 50.2523 86.7878 48.2963 87.2758C48.2963 85.3518 45.7963 83.3598 43.5803 82.9518C41.4563 82.5518 39.6203 82.8038 38.4523 84.2278C37.0923 81.7438 32.0123 81.1798 29.3123 82.5918C27.7603 83.3918 26.4483 84.2278 25.8363 85.6878C25.43 86.5921 25.2541 87.583 25.3243 88.5718C24.2323 87.6638 22.0883 87.4718 20.6803 88.0598C19.1603 88.6998 19.0803 89.8598 19.0363 91.0398C18.1166 90.8026 17.1504 90.8136 16.2363 91.0718C15.2763 91.3838 14.7403 92.1598 14.8923 92.7718C14.1243 92.7478 12.3163 93.4198 12.5523 94.2238C12.8123 95.1238 14.8923 94.9718 15.6683 94.9238C16.4002 94.8462 17.125 94.7125 17.8363 94.5238C18.2028 94.6507 18.5885 94.713 18.9763 94.7078C20.3043 94.6598 20.8483 94.0758 21.0483 93.5758C21.7323 94.9198 24.0683 95.8958 25.7083 96.2638C28.7963 96.9638 33.1243 96.3598 34.9483 94.0158C35.1822 94.4402 35.5041 94.8098 35.8923 95.0998C36.724 95.7308 37.7226 96.1036 38.7643 96.1718C40.0243 96.2518 43.4123 96.3158 44.3043 94.2878C45.0203 95.5998 48.0443 96.1198 50.3043 95.7318C51.1868 95.5706 52.042 95.2851 52.8443 94.8838C53.3434 94.6023 53.8268 94.2939 54.2923 93.9598C54.7363 93.6758 54.9403 93.6718 55.5443 93.8358C57.1443 94.2638 58.9563 94.4078 60.5403 93.6878C61.8243 93.1078 62.0603 92.0278 60.8483 91.5198Z" fill="#EBEBEB"/>
<path d="M143.766 113.552C143.272 113.38 142.753 113.295 142.23 113.3C141.73 113.272 141.57 113.176 141.474 113.068C140.984 112.395 140.278 111.909 139.475 111.691C138.671 111.473 137.817 111.535 137.054 111.868C136.826 111.2 136.355 110.643 135.734 110.308C135.113 109.972 134.389 109.884 133.706 110.06C133.73 108.512 131.706 106.892 129.946 106.548C128.238 106.22 126.746 106.4 125.81 107.54C124.734 105.54 120.654 105.04 118.474 106.156C117.218 106.796 116.158 107.448 115.654 108.62C115.32 109.344 115.171 110.14 115.222 110.936C114.35 110.196 112.626 110.024 111.49 110.492C110.262 110.992 110.186 111.928 110.146 112.892C109.409 112.691 108.631 112.691 107.894 112.892C107.118 113.136 106.694 113.756 106.798 114.248C106.182 114.224 104.726 114.752 104.906 115.4C105.11 116.124 106.786 116.02 107.41 115.984C108 115.926 108.584 115.823 109.158 115.676C109.451 115.778 109.759 115.831 110.07 115.832C111.138 115.8 111.582 115.336 111.746 114.936C112.286 116.02 114.146 116.82 115.474 117.132C117.954 117.716 121.438 117.26 122.918 115.388C123.105 115.731 123.362 116.031 123.674 116.268C124.337 116.781 125.137 117.087 125.974 117.148C126.99 117.224 129.71 117.3 130.446 115.676C131.01 116.736 133.438 117.176 135.274 116.876C135.985 116.755 136.675 116.531 137.322 116.212C137.726 115.99 138.117 115.746 138.494 115.48C138.638 115.375 138.808 115.312 138.986 115.297C139.163 115.281 139.342 115.314 139.502 115.392C140.774 115.748 142.242 115.876 143.522 115.308C144.542 114.836 144.742 113.972 143.766 113.552Z" fill="#EBEBEB"/>
<path d="M62.4612 23.4718C62.1947 23.3731 61.9134 23.3204 61.6292 23.3158C61.3612 23.3158 61.2772 23.2438 61.2292 23.1838C60.9688 22.8112 60.5891 22.5384 60.1528 22.4104C59.7166 22.2824 59.2497 22.3069 58.8292 22.4798C58.7126 22.1156 58.4629 21.8087 58.13 21.6204C57.7971 21.4321 57.4055 21.3762 57.0332 21.4638C57.0652 20.6278 55.9932 19.7278 55.0332 19.5238C54.0732 19.3198 53.3212 19.4118 52.7972 19.9998C52.2372 18.8998 50.0292 18.5918 48.8372 19.1718C48.1492 19.5078 47.5692 19.8518 47.2852 20.4798C47.0974 20.8682 47.0081 21.2968 47.0252 21.7278C46.738 21.5258 46.4068 21.395 46.059 21.3463C45.7113 21.2976 45.3569 21.3324 45.0252 21.4478C44.3572 21.7078 44.3052 22.2118 44.2732 22.7278C43.8822 22.6153 43.4685 22.607 43.0732 22.7038C42.6732 22.8318 42.4092 23.1598 42.4652 23.4278C42.1332 23.4278 41.3372 23.6798 41.4292 24.0318C41.5212 24.3838 42.4372 24.3878 42.7772 24.3758C43.0978 24.3501 43.416 24.3007 43.7292 24.2278C43.8866 24.2871 44.0531 24.3182 44.2212 24.3198C44.8012 24.3198 45.0452 24.0678 45.1372 23.8518C45.4212 24.4478 46.4252 24.8998 47.1372 25.0838C48.4732 25.4238 50.3652 25.2158 51.1892 24.2158C51.2873 24.4044 51.4236 24.5706 51.5892 24.7038C51.9335 24.989 52.3531 25.1682 52.7972 25.2198C53.3452 25.2718 54.8212 25.3398 55.2372 24.4678C55.5292 25.0478 56.8372 25.3118 57.8412 25.1718C58.2272 25.1129 58.6029 24.9997 58.9572 24.8358C59.1789 24.7142 59.3939 24.5806 59.6012 24.4358C59.6808 24.381 59.7738 24.3487 59.8703 24.3423C59.9667 24.336 60.0631 24.3559 60.1492 24.3998C60.854 24.652 61.6244 24.652 62.3292 24.3998C62.8692 24.1758 62.9852 23.7078 62.4612 23.4718Z" fill="#F5F5F5"/>
<path d="M127.201 57.8719C126.951 57.779 126.687 57.7303 126.421 57.7279C126.169 57.7279 126.089 57.6559 126.041 57.6039C125.799 57.2555 125.446 57.0001 125.039 56.8801C124.632 56.76 124.197 56.7825 123.805 56.9439C123.695 56.6028 123.461 56.3156 123.149 56.1393C122.837 55.9629 122.47 55.9103 122.121 55.9919C122.149 55.1919 121.145 54.3639 120.245 54.1719C119.345 53.9799 118.645 54.0639 118.137 54.6319C117.609 53.5999 115.541 53.3119 114.421 53.8559C113.777 54.1679 113.221 54.4919 112.965 55.0799C112.789 55.4447 112.705 55.8471 112.721 56.2519C112.45 56.0587 112.136 55.9341 111.807 55.8889C111.477 55.8436 111.142 55.8789 110.829 55.9919C110.201 56.2319 110.153 56.7079 110.121 57.1919C109.75 57.0826 109.356 57.0757 108.981 57.1719C108.581 57.2879 108.357 57.5999 108.409 57.8519C108.097 57.8319 107.349 58.0879 107.437 58.4159C107.525 58.7439 108.385 58.7519 108.701 58.7399C109.001 58.7152 109.299 58.6684 109.593 58.5999C109.741 58.6555 109.898 58.6853 110.057 58.6879C110.601 58.6879 110.829 58.4519 110.917 58.2479C111.181 58.8079 112.117 59.2319 112.789 59.3999C114.041 59.7239 115.817 59.5279 116.589 58.5999C116.678 58.7784 116.807 58.9343 116.965 59.0559C117.297 59.3229 117.7 59.4869 118.125 59.5279C118.637 59.5759 120.021 59.6399 120.409 58.8239C120.685 59.3679 121.917 59.6239 122.853 59.4799C123.216 59.427 123.569 59.3205 123.901 59.1639C124.108 59.056 124.308 58.9358 124.501 58.8039C124.576 58.7522 124.663 58.7216 124.754 58.7153C124.845 58.7089 124.935 58.7271 125.017 58.7679C125.677 59.0019 126.397 59.0019 127.057 58.7679C127.601 58.5319 127.693 58.0919 127.201 57.8719Z" fill="#F5F5F5"/>
<path d="M25.5074 71.5481L24.9794 69.7681C23.4474 69.9321 21.4994 69.6441 20.3834 67.5401L20.2474 67.2841L23.5674 65.2841L23.7114 65.5881C23.8666 65.9393 24.1503 66.2178 24.5043 66.3665C24.8583 66.5153 25.2558 66.523 25.6154 66.3881C25.8878 66.3301 26.1361 66.1906 26.3274 65.9881C26.3912 65.9042 26.4324 65.8054 26.4471 65.701C26.4618 65.5967 26.4495 65.4903 26.4114 65.3921C26.2234 64.7521 25.5514 64.7561 24.2834 64.8241C23.9994 64.8241 23.6994 64.8521 23.3874 64.8601C21.5954 64.8601 19.6674 64.5521 18.9274 62.0601C18.3354 60.0601 19.1194 58.3281 21.0874 57.3201L20.5594 55.5361L23.5154 54.6641L24.0434 56.4001C25.9514 56.2241 27.4514 56.9121 28.3834 58.4001L28.5474 58.6601L25.3474 60.6201L25.1954 60.3281C24.7954 59.5281 23.9954 59.5921 23.4034 59.7681C22.7074 59.9761 22.4234 60.3041 22.5554 60.7521C22.7354 61.3601 23.2874 61.3641 25.0034 61.2921C26.7194 61.2201 29.3554 61.1561 30.2034 64.0081C30.8034 66.0481 29.9674 67.8081 27.8994 68.8801L28.4274 70.6681L25.5074 71.5481ZM25.4154 69.0881L25.9194 70.8001L27.6794 70.2761L27.1994 68.5721L27.4354 68.4601C28.5714 67.9241 30.3714 66.6561 29.6474 64.2001C28.9234 61.7441 26.7874 61.8641 25.0634 61.9161C23.3394 61.9681 22.3274 62.0361 22.0034 60.9401C21.9154 60.6441 21.7514 59.6481 23.2674 59.2001C24.2714 58.9001 25.1034 59.1161 25.5994 59.7841L27.7114 58.4841C26.8594 57.3121 25.5714 56.8321 23.8834 57.0521L23.6234 57.0841L23.1234 55.3881L21.3394 55.9161L21.8194 57.6001L21.5794 57.7081C20.2634 58.3161 18.8354 59.5281 19.5154 61.8361C20.1034 63.8361 21.4834 64.2121 23.3794 64.1961C23.6794 64.1961 23.9714 64.1761 24.2514 64.1601C25.4914 64.0921 26.6514 64.0321 26.9994 65.1641C27.0635 65.3554 27.0802 65.5595 27.0482 65.7587C27.0161 65.958 26.9362 66.1465 26.8154 66.3081C26.5468 66.6197 26.1872 66.8393 25.7874 66.9361C25.3473 67.0947 24.8669 67.1022 24.4221 66.9573C23.9774 66.8124 23.5935 66.5235 23.3314 66.1361L21.0674 67.5081C22.1074 69.1841 23.8474 69.3201 25.1554 69.1321L25.4154 69.0881Z" fill="#F0F0F0"/>
<path d="M176.885 142.524L176.197 140.8C174.681 141.108 172.709 140.996 171.397 139L171.241 138.756L174.369 136.444L174.545 136.732C174.733 137.067 175.042 137.316 175.409 137.431C175.775 137.545 176.172 137.516 176.517 137.348C176.784 137.259 177.018 137.092 177.189 136.868C177.244 136.778 177.276 136.675 177.28 136.57C177.285 136.464 177.263 136.359 177.217 136.264C176.969 135.64 176.301 135.708 175.041 135.892C174.757 135.932 174.457 135.976 174.149 136.012C172.361 136.188 170.405 136.048 169.441 133.612C168.661 131.652 169.289 129.868 171.161 128.68L170.469 126.948L173.341 125.804L174.033 127.54C175.925 127.192 177.485 127.74 178.553 129.14L178.741 129.388L175.737 131.636L175.561 131.356C175.081 130.616 174.297 130.736 173.721 130.956C173.045 131.224 172.789 131.58 172.961 132.012C173.197 132.604 173.761 132.56 175.457 132.328C177.153 132.096 179.789 131.796 180.893 134.568C181.693 136.548 181.005 138.384 179.041 139.644L179.733 141.38L176.885 142.524ZM176.569 140.076L177.229 141.728L178.941 141.048L178.285 139.396L178.509 139.264C179.597 138.624 181.277 137.192 180.329 134.808C179.381 132.424 177.257 132.736 175.529 132.948C173.801 133.16 172.805 133.316 172.385 132.252C172.269 131.964 172.013 130.984 173.485 130.396C174.461 129.996 175.313 130.148 175.885 130.768L177.885 129.276C176.925 128.188 175.593 127.824 173.925 128.196L173.673 128.256L173.017 126.604L171.281 127.296L171.941 128.948L171.709 129.08C170.449 129.808 169.133 131.148 170.025 133.388C170.793 135.316 172.209 135.58 174.101 135.388C174.401 135.356 174.693 135.312 174.969 135.272C176.201 135.092 177.369 134.924 177.805 136.024C177.887 136.209 177.923 136.412 177.909 136.614C177.895 136.816 177.832 137.012 177.725 137.184C177.486 137.52 177.147 137.772 176.757 137.904C176.33 138.1 175.849 138.148 175.392 138.04C174.934 137.933 174.525 137.677 174.229 137.312L172.093 138.888C173.293 140.468 175.037 140.444 176.325 140.136L176.569 140.076Z" fill="#E0E0E0"/>
<path d="M40.0525 120.14L39.7085 121.34L38.1085 120.876L38.4485 119.676C37.3965 119.204 36.4765 118.332 36.5965 116.856L38.8045 116.908C38.7608 117.214 38.8342 117.525 39.0099 117.78C39.1856 118.034 39.4508 118.213 39.7525 118.28C40.2765 118.432 40.6965 118.32 40.8325 117.852C41.0525 117.096 40.1525 116.788 39.2085 116.208C38.2045 115.576 37.3245 114.764 37.7765 113.212C38.1765 111.816 39.2685 111.268 40.6925 111.464L41.0365 110.264L42.6365 110.728L42.2925 111.928C43.4925 112.488 44.0925 113.392 44.0805 114.544L41.9765 114.508C42.0285 113.964 41.7245 113.524 41.0125 113.308C40.3005 113.092 40.0125 113.344 39.9085 113.708C39.7405 114.292 40.2005 114.564 41.2045 115.148C42.2085 115.732 43.6045 116.596 43.0845 118.348C42.6845 119.792 41.4965 120.328 40.0525 120.14Z" fill="#E0E0E0"/>
<path d="M105.503 80.0003L105.979 81.3003L104.231 81.9443L103.751 80.6483C102.483 80.9203 101.067 80.7483 100.191 79.3323L102.223 77.9083C102.388 78.213 102.661 78.4447 102.988 78.5573C103.316 78.6699 103.674 78.6553 103.991 78.5163C104.571 78.3003 104.875 77.9203 104.687 77.4083C104.379 76.5763 103.363 76.9003 102.119 77.0083C100.787 77.1083 99.4551 76.9603 98.8271 75.2563C98.2591 73.7243 98.8751 72.5003 100.295 71.7283L99.8151 70.4323L101.583 69.7803L102.063 71.0763C103.519 70.7883 104.667 71.1963 105.427 72.2483L103.499 73.6003C103.183 73.0763 102.611 72.8803 101.827 73.1683C101.043 73.4563 100.951 73.8643 101.095 74.2563C101.331 74.8963 101.931 74.8363 103.227 74.6923C104.599 74.5603 106.355 74.4083 107.071 76.3483C107.651 77.9163 106.931 79.2003 105.503 80.0003Z" fill="#F0F0F0"/>
<g opacity="0.2">
<path d="M166.449 18.1001C166.429 18.1001 166.409 18.0961 166.391 18.0885C166.373 18.0808 166.357 18.0695 166.343 18.0553C166.329 18.0412 166.318 18.0244 166.311 18.006C166.304 17.9875 166.3 17.9679 166.301 17.9481V12.7481C166.301 12.7088 166.316 12.6712 166.344 12.6434C166.372 12.6157 166.41 12.6001 166.449 12.6001C166.488 12.6011 166.525 12.617 166.552 12.6446C166.58 12.6721 166.596 12.7092 166.597 12.7481V17.9481C166.597 17.9877 166.581 18.0258 166.554 18.0542C166.526 18.0826 166.488 18.0991 166.449 18.1001V18.1001Z" fill="#4070FF"/>
<path d="M163.742 40.9277C163.706 40.9279 163.672 40.9149 163.645 40.8913C163.619 40.8677 163.602 40.835 163.598 40.7997V35.5997C163.598 35.5802 163.601 35.561 163.609 35.543C163.616 35.5251 163.627 35.5088 163.641 35.495C163.655 35.4813 163.671 35.4704 163.689 35.4629C163.707 35.4555 163.726 35.4517 163.746 35.4517C163.785 35.4527 163.822 35.4686 163.849 35.4961C163.877 35.5237 163.893 35.5607 163.894 35.5997V40.7997C163.889 40.8361 163.87 40.8693 163.842 40.893C163.814 40.9166 163.778 40.929 163.742 40.9277V40.9277Z" fill="#4070FF"/>
<path d="M169.451 20.9078C169.426 20.9068 169.402 20.8999 169.379 20.8878C169.345 20.8678 169.321 20.8352 169.31 20.7972C169.3 20.7591 169.304 20.7184 169.323 20.6838L171.267 17.3158C171.287 17.2813 171.32 17.2561 171.358 17.2456C171.396 17.2351 171.437 17.2402 171.471 17.2598C171.506 17.2794 171.531 17.312 171.542 17.3502C171.552 17.3885 171.547 17.4293 171.527 17.4638L169.599 20.8318C169.586 20.8582 169.564 20.8797 169.538 20.8934C169.511 20.907 169.481 20.912 169.451 20.9078V20.9078Z" fill="#4070FF"/>
<path d="M158.799 36.3036C158.774 36.3026 158.749 36.2958 158.727 36.2836C158.693 36.2636 158.668 36.2311 158.658 36.193C158.647 36.1549 158.652 36.1143 158.671 36.0796L160.615 32.7076C160.636 32.6751 160.669 32.6517 160.707 32.642C160.745 32.6324 160.785 32.6373 160.819 32.6556C160.836 32.6652 160.851 32.6781 160.864 32.6936C160.876 32.7091 160.885 32.7269 160.89 32.7459C160.895 32.7649 160.897 32.7847 160.894 32.8043C160.891 32.8238 160.885 32.8426 160.875 32.8596L158.931 36.2276C158.917 36.2505 158.898 36.2695 158.875 36.2828C158.852 36.2962 158.826 36.3033 158.799 36.3036V36.3036Z" fill="#4070FF"/>
<path d="M171.65 25.1077C171.614 25.1064 171.58 25.092 171.554 25.0674C171.528 25.0428 171.512 25.0096 171.508 24.974C171.505 24.9383 171.515 24.9026 171.536 24.8735C171.556 24.8444 171.587 24.8239 171.622 24.8157L174.994 24.1677C175.013 24.1637 175.033 24.1635 175.052 24.1672C175.071 24.1709 175.089 24.1783 175.105 24.1892C175.121 24.2 175.135 24.214 175.145 24.2302C175.156 24.2465 175.163 24.2647 175.166 24.2837C175.173 24.3224 175.165 24.3623 175.144 24.3951C175.122 24.4279 175.088 24.4511 175.05 24.4597L171.678 25.1077H171.65Z" fill="#4070FF"/>
<path d="M155.167 29.3798C155.132 29.3793 155.099 29.3666 155.072 29.344C155.046 29.3213 155.028 29.2901 155.023 29.2558C155.019 29.2369 155.018 29.2173 155.022 29.1983C155.026 29.1793 155.033 29.1612 155.044 29.1451C155.055 29.1291 155.069 29.1154 155.085 29.1048C155.101 29.0943 155.12 29.0871 155.139 29.0838L158.511 28.4358C158.53 28.4318 158.549 28.4316 158.568 28.4352C158.587 28.4389 158.605 28.4464 158.621 28.4572C158.637 28.4681 158.651 28.482 158.662 28.4983C158.672 28.5145 158.679 28.5327 158.683 28.5518C158.69 28.5905 158.682 28.6304 158.66 28.6632C158.639 28.696 158.605 28.7192 158.567 28.7278L155.199 29.3758L155.167 29.3798Z" fill="#4070FF"/>
<path d="M176.347 31.8279C176.323 31.8338 176.298 31.8338 176.275 31.8279L172.399 29.5599C172.365 29.5406 172.34 29.5088 172.33 29.4714C172.319 29.4339 172.324 29.3939 172.343 29.3599C172.363 29.3259 172.395 29.301 172.433 29.2906C172.471 29.2801 172.512 29.2849 172.547 29.3039L176.439 31.5519C176.456 31.561 176.471 31.5735 176.483 31.5888C176.495 31.604 176.504 31.6216 176.509 31.6404C176.514 31.6592 176.515 31.6789 176.511 31.6981C176.508 31.7173 176.501 31.7356 176.491 31.7519C176.477 31.7772 176.456 31.798 176.43 31.8115C176.404 31.825 176.375 31.8307 176.347 31.8279V31.8279Z" fill="#4070FF"/>
<path d="M157.735 24.2597C157.71 24.2657 157.684 24.2657 157.659 24.2597L153.767 21.9997C153.735 21.9792 153.712 21.9471 153.703 21.9101C153.694 21.873 153.7 21.834 153.719 21.801C153.738 21.768 153.769 21.7436 153.806 21.733C153.842 21.7223 153.882 21.7262 153.915 21.7437L157.807 23.9997C157.825 24.0093 157.84 24.0222 157.852 24.0377C157.864 24.0532 157.873 24.071 157.878 24.09C157.884 24.109 157.885 24.1288 157.882 24.1483C157.88 24.1679 157.873 24.1867 157.863 24.2037C157.848 24.2226 157.829 24.2376 157.806 24.2473C157.784 24.2571 157.76 24.2613 157.735 24.2597V24.2597Z" fill="#4070FF"/>
<path d="M174.289 38.0636C174.266 38.0641 174.242 38.0589 174.221 38.0485C174.201 38.038 174.183 38.0226 174.169 38.0036L170.801 33.4636C170.787 33.4484 170.776 33.4304 170.77 33.4107C170.763 33.3911 170.76 33.3703 170.762 33.3496C170.764 33.329 170.771 33.309 170.781 33.2909C170.791 33.2728 170.805 33.2571 170.821 33.2447C170.838 33.2323 170.857 33.2235 170.877 33.219C170.897 33.2144 170.918 33.2141 170.939 33.2182C170.959 33.2222 170.978 33.2305 170.995 33.2425C171.012 33.2544 171.026 33.2698 171.037 33.2876L174.401 37.8276C174.423 37.8597 174.433 37.8993 174.427 37.9381C174.421 37.9768 174.4 38.0118 174.369 38.0356C174.345 38.0514 174.317 38.061 174.289 38.0636V38.0636Z" fill="#4070FF"/>
<path d="M159.633 19.792C159.609 19.7921 159.586 19.7868 159.565 19.7764C159.545 19.7659 159.527 19.7507 159.513 19.732L156.145 15.2C156.131 15.1847 156.12 15.1667 156.113 15.1471C156.107 15.1274 156.104 15.1066 156.106 15.086C156.108 15.0653 156.114 15.0453 156.124 15.0272C156.135 15.0092 156.148 14.9934 156.165 14.981C156.182 14.9686 156.201 14.9599 156.221 14.9553C156.241 14.9507 156.262 14.9505 156.282 14.9545C156.303 14.9586 156.322 14.9668 156.339 14.9788C156.356 14.9908 156.37 15.0062 156.381 15.024L159.753 19.56C159.769 19.5824 159.778 19.6088 159.78 19.6363C159.782 19.6638 159.777 19.6913 159.765 19.716C159.752 19.7407 159.734 19.7615 159.71 19.7763C159.687 19.7911 159.66 19.7993 159.633 19.8V19.792Z" fill="#4070FF"/>
<path d="M169.787 41.0917C169.756 41.093 169.725 41.0839 169.7 41.0658C169.675 41.0477 169.656 41.0216 169.647 40.9917L167.699 35.3917C167.687 35.3541 167.689 35.3129 167.707 35.2773C167.725 35.2416 167.756 35.2145 167.793 35.2017C167.831 35.189 167.872 35.1918 167.908 35.2094C167.943 35.227 167.971 35.2581 167.983 35.2957L169.927 40.8957C169.94 40.9329 169.937 40.9735 169.92 41.0088C169.903 41.0441 169.872 41.071 169.835 41.0837C169.82 41.0903 169.804 41.0931 169.787 41.0917Z" fill="#4070FF"/>
<path d="M162.709 17.8359C162.678 17.8365 162.648 17.8271 162.623 17.8091C162.597 17.7911 162.579 17.7654 162.569 17.7359L160.621 12.1359C160.608 12.0982 160.611 12.057 160.629 12.0214C160.646 11.9858 160.678 11.9586 160.715 11.9459C160.753 11.9332 160.794 11.9359 160.83 11.9535C160.865 11.9712 160.892 12.0022 160.905 12.0399L162.849 17.6399C162.856 17.6582 162.859 17.6778 162.858 17.6974C162.857 17.7169 162.852 17.7361 162.844 17.7537C162.835 17.7713 162.823 17.787 162.808 17.7997C162.793 17.8125 162.776 17.8221 162.757 17.8279C162.742 17.8345 162.726 17.8372 162.709 17.8359Z" fill="#4070FF"/>
</g>
<path d="M161.201 20.5557L160.801 19.7557L162.469 18.7957C162.667 18.68 162.88 18.5912 163.101 18.5317L163.333 18.4797C163.723 18.4169 164.12 18.4277 164.505 18.5117C164.645 18.5437 164.785 18.5797 164.929 18.6277C165.08 18.6738 165.227 18.7299 165.369 18.7957C165.562 18.8806 165.749 18.9767 165.929 19.0837C166.125 19.1997 166.329 19.3277 166.513 19.4837C166.697 19.6397 166.801 19.6997 166.941 19.8197C169.013 21.5677 170.641 24.6837 171.057 27.6797C171.085 27.8837 171.105 28.0797 171.121 28.2877C171.149 28.5735 171.161 28.8606 171.157 29.1477C171.157 29.3797 171.157 29.6077 171.129 29.8237C171.101 30.0397 171.093 30.1957 171.069 30.3717C171.045 30.5477 171.009 30.7157 170.969 30.8757C170.868 31.3253 170.705 31.7588 170.485 32.1637C170.441 32.2437 170.393 32.3197 170.345 32.3917C170.148 32.7031 169.896 32.9768 169.601 33.1997C169.514 33.2643 169.423 33.3243 169.329 33.3797V33.3797L167.753 34.2877L167.405 33.5597C167.313 33.5597 167.217 33.5157 167.125 33.4877C166.741 33.3687 166.372 33.2049 166.025 32.9997C165.803 32.8691 165.588 32.7262 165.381 32.5717C165.101 32.3637 164.833 32.1379 164.581 31.8957C162.732 30.0164 161.48 27.6325 160.981 25.0437C160.905 24.663 160.851 24.2784 160.817 23.8917C160.789 23.5757 160.773 23.2597 160.773 22.9477C160.774 22.5 160.812 22.0532 160.885 21.6117C160.957 21.2505 161.063 20.8969 161.201 20.5557V20.5557Z" fill="#4070FF"/>
<path opacity="0.25" d="M170.672 25.8959L167.292 27.8479L166.844 26.5639L170.232 24.6079C170.4 25.0294 170.547 25.4593 170.672 25.8959V25.8959Z" fill="white"/>
<path opacity="0.25" d="M162.469 18.7996C162.667 18.6839 162.88 18.5951 163.101 18.5356L163.333 18.4836C163.722 18.4208 164.12 18.4316 164.505 18.5156L164.661 18.5556L161.181 20.5556L160.781 19.7556L162.469 18.7996Z" fill="white"/>
<path opacity="0.25" d="M162.83 23.7398L162.398 23.1998L167.474 20.2798C167.634 20.4398 167.794 20.6078 167.946 20.7798L162.83 23.7398Z" fill="white"/>
<path opacity="0.25" d="M169.013 22.2198L164.613 24.7598L164.129 23.4958L168.221 21.1318C168.504 21.4799 168.769 21.8431 169.013 22.2198V22.2198Z" fill="white"/>
<path opacity="0.4" d="M162.469 18.7996C162.667 18.6839 162.88 18.5951 163.101 18.5356L163.333 18.4836C163.723 18.4208 164.12 18.4316 164.505 18.5156C164.645 18.5476 164.785 18.5836 164.929 18.6316C165.08 18.6777 165.227 18.7338 165.369 18.7996C165.562 18.8845 165.749 18.9806 165.929 19.0876C166.125 19.2036 166.329 19.3316 166.513 19.4876C166.697 19.6436 166.801 19.7036 166.941 19.8236C168.873 21.4516 170.417 24.2676 170.941 27.0636L163.881 31.1436C162.43 29.379 161.439 27.2816 160.997 25.0396C160.921 24.6589 160.866 24.2743 160.833 23.8876C160.805 23.5716 160.789 23.2556 160.789 22.9436C160.79 22.4959 160.828 22.0491 160.901 21.6076C160.96 21.2546 161.051 20.9079 161.173 20.5716L160.773 19.7716L162.469 18.7996Z" fill="white"/>
<path opacity="0.1" d="M167.755 34.2678L167.407 33.5398C167.315 33.5398 167.219 33.4958 167.127 33.4678C166.742 33.3489 166.373 33.1851 166.027 32.9798C165.804 32.8493 165.589 32.7064 165.383 32.5518C165.102 32.3439 164.835 32.1181 164.583 31.8759C164.343 31.6439 164.111 31.3919 163.883 31.1279L170.943 27.0479C170.983 27.2559 171.019 27.4478 171.047 27.6678C171.075 27.8878 171.095 28.0679 171.111 28.2759C171.139 28.5616 171.151 28.8487 171.147 29.1358C171.147 29.3678 171.147 29.5959 171.119 29.8119C171.091 30.0279 171.083 30.1839 171.059 30.3599C171.035 30.5359 170.999 30.7039 170.959 30.8639C170.858 31.3135 170.695 31.7469 170.475 32.1518C170.431 32.2318 170.383 32.3078 170.335 32.3798C170.14 32.6949 169.891 32.9727 169.599 33.1999C169.511 33.2644 169.42 33.3245 169.327 33.3798V33.3798L167.755 34.2678Z" fill="black"/>
<path opacity="0.1" d="M170.483 32.1517C170.439 32.2317 170.391 32.3077 170.343 32.3797C170.146 32.6955 169.894 32.9732 169.599 33.1997C169.511 33.2643 169.421 33.3244 169.327 33.3797V33.3797L167.751 34.2877L167.403 33.5597L167.379 33.2637L170.875 31.1997C170.78 31.5305 170.648 31.8498 170.483 32.1517V32.1517Z" fill="black"/>
<path d="M159.016 23.9596C159.016 24.2676 159.016 24.5836 159.06 24.9036C159.093 25.289 159.148 25.6722 159.224 26.0516C159.723 28.6415 160.975 31.0266 162.824 32.9076C163.067 33.1547 163.327 33.3858 163.6 33.5996C163.808 33.7454 164.024 33.879 164.248 33.9996C164.593 34.2036 164.961 34.366 165.344 34.4836C165.72 34.6019 166.114 34.6533 166.508 34.6356C167.036 34.6123 167.545 34.4296 167.968 34.1116C168.259 33.89 168.51 33.6193 168.708 33.3116C168.756 33.2356 168.804 33.1596 168.848 33.0796C169.066 32.6753 169.229 32.2434 169.332 31.7956V31.7956C169.368 31.6316 169.404 31.4636 169.428 31.2876C169.452 31.1116 169.476 30.9276 169.492 30.7396C169.508 30.5516 169.52 30.2996 169.52 30.0676C169.52 29.8356 169.52 29.4956 169.484 29.2036C169.484 29.0036 169.448 28.8036 169.416 28.5956C169.016 25.5996 167.376 22.4836 165.304 20.7396C165.164 20.6196 165.02 20.5076 164.876 20.3996C164.732 20.2916 164.476 20.1316 164.292 19.9996C164.11 19.8926 163.921 19.7964 163.728 19.7116C163.58 19.6476 163.436 19.5916 163.292 19.5436C163.153 19.4974 163.011 19.46 162.868 19.4316C162.483 19.3457 162.085 19.3348 161.696 19.3996C161.616 19.4113 161.538 19.4273 161.46 19.4476C161.128 19.5388 160.817 19.6937 160.544 19.9036C160.093 20.2614 159.741 20.728 159.52 21.2596C159.33 21.6832 159.196 22.1295 159.12 22.5876C159.047 23.0412 159.012 23.5001 159.016 23.9596V23.9596Z" fill="#4070FF"/>
<path opacity="0.1" d="M159.016 23.9596C159.016 24.2676 159.016 24.5836 159.06 24.9036C159.093 25.289 159.148 25.6722 159.224 26.0516C159.723 28.6415 160.975 31.0266 162.824 32.9076C163.067 33.1547 163.327 33.3858 163.6 33.5996C163.808 33.7454 164.024 33.879 164.248 33.9996C164.593 34.2036 164.961 34.366 165.344 34.4836C165.72 34.6019 166.114 34.6533 166.508 34.6356C167.036 34.6123 167.545 34.4296 167.968 34.1116C168.259 33.89 168.51 33.6193 168.708 33.3116C168.756 33.2356 168.804 33.1596 168.848 33.0796C169.066 32.6753 169.229 32.2434 169.332 31.7956V31.7956C169.368 31.6316 169.404 31.4636 169.428 31.2876C169.452 31.1116 169.476 30.9276 169.492 30.7396C169.508 30.5516 169.52 30.2996 169.52 30.0676C169.52 29.8356 169.52 29.4956 169.484 29.2036C169.484 29.0036 169.448 28.8036 169.416 28.5956C169.016 25.5996 167.376 22.4836 165.304 20.7396C165.164 20.6196 165.02 20.5076 164.876 20.3996C164.732 20.2916 164.476 20.1316 164.292 19.9996C164.11 19.8926 163.921 19.7964 163.728 19.7116C163.58 19.6476 163.436 19.5916 163.292 19.5436C163.153 19.4974 163.011 19.46 162.868 19.4316C162.483 19.3457 162.085 19.3348 161.696 19.3996C161.616 19.4113 161.538 19.4273 161.46 19.4476C161.128 19.5388 160.817 19.6937 160.544 19.9036C160.093 20.2614 159.741 20.728 159.52 21.2596C159.33 21.6832 159.196 22.1295 159.12 22.5876C159.047 23.0412 159.012 23.5001 159.016 23.9596V23.9596Z" fill="white"/>
<path opacity="0.05" d="M169.316 27.9995C169.356 28.2075 169.388 28.3995 169.416 28.6195C169.444 28.8395 169.468 29.0195 169.484 29.2275C169.508 29.5208 169.52 29.8088 169.52 30.0915C169.52 30.3235 169.52 30.5475 169.492 30.7635C169.464 30.9795 169.456 31.1355 169.428 31.3115C169.4 31.4875 169.368 31.6555 169.332 31.8195C169.229 32.2673 169.066 32.6992 168.848 33.1035C168.804 33.1835 168.756 33.2595 168.708 33.3355C168.51 33.6432 168.259 33.914 167.968 34.1355C167.545 34.4535 167.036 34.6362 166.508 34.6595C166.114 34.6773 165.72 34.6258 165.344 34.5075C164.96 34.3824 164.592 34.2118 164.248 33.9995C164.052 33.8835 163.848 33.7555 163.672 33.5995L169.316 27.9995Z" fill="black"/>
<path opacity="0.05" d="M169.233 32.1719C169.134 32.4936 168.999 32.8034 168.833 33.0959C168.789 33.1759 168.741 33.2519 168.693 33.3279C168.495 33.6356 168.244 33.9063 167.953 34.1279C167.614 34.3823 167.219 34.5511 166.801 34.6199L169.233 32.1719Z" fill="black"/>
<path opacity="0.15" d="M168.595 25.5518C168.763 25.9758 168.911 26.4078 169.035 26.8398L162.891 32.9838L162.811 32.9078C162.545 32.6544 162.293 32.3873 162.055 32.1078L168.595 25.5518Z" fill="white"/>
<path opacity="0.15" d="M166.587 22.0757C166.875 22.4239 167.142 22.7885 167.387 23.1677L160.627 29.9317C160.407 29.5317 160.227 29.0917 160.027 28.6557L166.587 22.0757Z" fill="white"/>
<path opacity="0.15" d="M165.818 21.2275C165.982 21.3875 166.142 21.5555 166.294 21.7315L159.83 28.1995C159.739 27.9569 159.655 27.7129 159.578 27.4675L165.818 21.2275Z" fill="white"/>
<path opacity="0.15" d="M159.031 23.4918C159.031 23.3678 159.031 23.2438 159.059 23.1238V23.0038C159.059 22.9638 159.059 22.9238 159.059 22.8838C159.059 22.8438 159.083 22.7038 159.099 22.6198C159.175 22.1617 159.309 21.7154 159.499 21.2918C159.72 20.7602 160.072 20.2936 160.523 19.9358C160.796 19.7259 161.107 19.5711 161.439 19.4798C161.517 19.4596 161.596 19.4435 161.675 19.4318C162.064 19.367 162.462 19.3779 162.847 19.4638L163.003 19.4998L159.031 23.4918Z" fill="white"/>
<path d="M160.355 24.7634C160.355 27.5274 161.955 30.7154 164.007 32.0754L164.267 32.2394C166.431 33.4874 168.179 32.1634 168.179 29.2794C168.179 26.3954 166.431 23.0514 164.267 21.8034C164.179 21.7514 164.091 21.7074 164.007 21.6634C161.967 20.6674 160.355 21.9994 160.355 24.7634Z" fill="#4070FF"/>
<path opacity="0.4" d="M160.355 24.7634C160.355 27.5274 161.955 30.7154 164.007 32.0754L164.267 32.2394C166.431 33.4874 168.179 32.1634 168.179 29.2794C168.179 26.3954 166.431 23.0514 164.267 21.8034C164.179 21.7514 164.091 21.7074 164.007 21.6634C161.967 20.6674 160.355 21.9994 160.355 24.7634Z" fill="black"/>
<path d="M160.527 24.8636C160.527 24.9516 160.527 25.0396 160.527 25.1316C160.627 27.7076 162.127 30.5956 164.011 31.8516L164.059 31.8836L164.259 32.0076C164.621 32.2234 165.02 32.3687 165.435 32.4356C165.846 32.4961 166.265 32.4274 166.635 32.2389C167.005 32.0504 167.307 31.7515 167.499 31.3836C167.802 30.8355 167.973 30.2249 167.999 29.5996C167.999 29.4636 167.999 29.3236 167.999 29.1996C167.999 29.0756 167.999 28.9356 167.999 28.7996C167.983 28.5154 167.951 28.2323 167.903 27.9516C167.573 25.9572 166.613 24.1209 165.163 22.7116C164.976 22.5405 164.777 22.3828 164.567 22.2396C164.471 22.1756 164.371 22.1116 164.271 22.0556L164.023 21.9236L163.951 21.8876C163.476 21.6436 162.935 21.5581 162.407 21.6436C161.607 21.7956 161.011 22.4236 160.723 23.4236C160.591 23.8921 160.525 24.3768 160.527 24.8636V24.8636Z" fill="#4070FF"/>
<path opacity="0.5" d="M160.527 24.8636C160.527 24.9516 160.527 25.0396 160.527 25.1316C160.627 27.7076 162.127 30.5956 164.011 31.8516L164.059 31.8836L164.259 32.0076C164.621 32.2234 165.02 32.3687 165.435 32.4356C165.846 32.4961 166.265 32.4274 166.635 32.2389C167.005 32.0504 167.307 31.7515 167.499 31.3836C167.802 30.8355 167.973 30.2249 167.999 29.5996C167.999 29.4636 167.999 29.3236 167.999 29.1996C167.999 29.0756 167.999 28.9356 167.999 28.7996C167.983 28.5154 167.951 28.2323 167.903 27.9516C167.573 25.9572 166.613 24.1209 165.163 22.7116C164.976 22.5405 164.777 22.3828 164.567 22.2396C164.471 22.1756 164.371 22.1116 164.271 22.0556L164.023 21.9236L163.951 21.8876C163.476 21.6436 162.935 21.5581 162.407 21.6436C161.607 21.7956 161.011 22.4236 160.723 23.4236C160.591 23.8921 160.525 24.3768 160.527 24.8636V24.8636Z" fill="black"/>
<path d="M161.157 24.7716C161.157 24.6796 161.157 24.5916 161.157 24.5036C161.15 24.0105 161.213 23.5189 161.345 23.0436C161.475 22.5249 161.753 22.0552 162.145 21.6916C162.23 21.6623 162.316 21.6396 162.405 21.6236C162.932 21.5381 163.473 21.6236 163.949 21.8676L164.021 21.9036L164.269 22.0356C164.369 22.0916 164.469 22.1556 164.565 22.2196C164.774 22.3627 164.973 22.5205 165.161 22.6916C166.61 24.1009 167.57 25.9372 167.901 27.9316C167.95 28.2188 167.984 28.5086 168.001 28.7996C168.001 28.9356 168.001 29.0676 168.001 29.1996C168.001 29.3316 168.001 29.4836 168.001 29.5996C167.979 30.2236 167.813 30.8341 167.517 31.3836C167.387 31.6163 167.218 31.8247 167.017 31.9996C166.711 32.1032 166.384 32.132 166.065 32.0836C165.649 32.02 165.249 31.876 164.889 31.6596L164.689 31.5356L164.641 31.4996C162.757 30.2356 161.257 27.3476 161.157 24.7716Z" fill="#4070FF"/>
<path opacity="0.25" d="M161.157 24.7716C161.157 24.6796 161.157 24.5916 161.157 24.5036C161.15 24.0105 161.213 23.5189 161.345 23.0436C161.475 22.5249 161.753 22.0552 162.145 21.6916C162.23 21.6623 162.316 21.6396 162.405 21.6236C162.932 21.5381 163.473 21.6236 163.949 21.8676L164.021 21.9036L164.269 22.0356C164.369 22.0916 164.469 22.1556 164.565 22.2196C164.774 22.3627 164.973 22.5205 165.161 22.6916C166.61 24.1009 167.57 25.9372 167.901 27.9316C167.95 28.2188 167.984 28.5086 168.001 28.7996C168.001 28.9356 168.001 29.0676 168.001 29.1996C168.001 29.3316 168.001 29.4836 168.001 29.5996C167.979 30.2236 167.813 30.8341 167.517 31.3836C167.387 31.6163 167.218 31.8247 167.017 31.9996C166.711 32.1032 166.384 32.132 166.065 32.0836C165.649 32.02 165.249 31.876 164.889 31.6596L164.689 31.5356L164.641 31.4996C162.757 30.2356 161.257 27.3476 161.157 24.7716Z" fill="black"/>
<path d="M161.695 19.4318C163.955 19.1758 165.791 21.0318 167.019 22.7278C168.791 25.3398 169.915 28.6478 169.299 31.8118C169.137 32.7167 168.664 33.5368 167.963 34.1318C168.685 33.5493 169.178 32.7304 169.355 31.8198V31.8198C169.919 29.2318 169.211 26.5118 168.027 24.1958C166.763 21.8998 164.611 19.1198 161.695 19.4318Z" fill="#F5F5F5"/>
<path d="M167.065 29.1997C167.036 28.7583 166.916 28.3275 166.714 27.934C166.512 27.5405 166.231 27.1926 165.889 26.9117L166.185 26.9877L167.041 26.4917C167.003 26.3067 166.951 26.1249 166.885 25.9477C166.775 25.6467 166.626 25.3615 166.441 25.0997C166.143 24.6753 165.772 24.3069 165.345 24.0117L165.313 23.1237L164.257 22.5117L163.401 23.0077V23.2317V23.2797C163.328 23.3041 163.259 23.3363 163.193 23.3757L163.129 23.4197C163.029 23.4917 162.537 23.7517 162.329 23.8677L162.265 23.9117C162.134 24.0357 162.036 24.1899 161.979 24.3608C161.922 24.5317 161.907 24.714 161.937 24.8917C161.965 25.3863 162.125 25.8642 162.401 26.2757C162.421 26.3117 162.445 26.3437 162.465 26.3757L162.537 26.4797L162.601 26.5637L162.629 26.5997L162.681 26.6677C162.826 26.8535 162.981 27.0311 163.145 27.1997L163.369 27.4037L162.969 27.3037L162.113 27.7997C162.356 28.7353 162.923 29.5545 163.713 30.1117L163.745 30.9957L164.813 31.5877L165.669 31.0917V30.8157C165.73 30.8008 165.788 30.7765 165.841 30.7437V30.7437C165.969 30.6597 166.541 30.3437 166.689 30.2557C166.961 30.0717 167.085 29.7397 167.065 29.1997Z" fill="#4070FF"/>
<path opacity="0.15" d="M162.398 23.8639C162.618 23.7359 163.054 23.5039 163.15 23.4359L163.214 23.3919C163.28 23.3518 163.35 23.3196 163.422 23.2959L163.446 23.9319C163.294 23.827 163.116 23.7653 162.932 23.7533C162.747 23.7413 162.563 23.7796 162.398 23.8639V23.8639Z" fill="black"/>
<path opacity="0.45" d="M164.801 29.0235C164.801 29.2875 164.657 29.4235 164.213 29.1795C164.006 29.0714 163.824 28.919 163.682 28.7331C163.539 28.5471 163.44 28.3322 163.389 28.1035L162.109 27.7835L162.965 27.2915L163.365 27.3875H163.385L163.737 27.6875L163.869 27.7995C164.128 27.9939 164.367 28.2136 164.581 28.4555C164.671 28.5564 164.74 28.6749 164.781 28.8035C164.798 28.8756 164.804 28.9496 164.801 29.0235V29.0235Z" fill="black"/>
<path opacity="0.2" d="M165.681 30.7996V31.0716L164.825 31.5636L164.793 30.6836C165.07 30.8138 165.38 30.8544 165.681 30.7996V30.7996Z" fill="black"/>
<path opacity="0.15" d="M164.454 23.6358L163.398 23.0238L164.254 22.5278L165.314 23.1398L165.342 24.0238C165.768 24.3219 166.139 24.6913 166.438 25.1158C166.623 25.3784 166.774 25.6634 166.886 25.9638C166.949 26.1417 167 26.3234 167.038 26.5078L166.182 27.0038C166.146 26.8175 166.095 26.6343 166.03 26.4558C165.924 26.1531 165.779 25.8653 165.598 25.5998C165.299 25.1776 164.93 24.8096 164.506 24.5118L164.454 23.6358Z" fill="black"/>
<path opacity="0.2" d="M165.344 24.0234C165.711 24.2288 166.038 24.5 166.308 24.8234C166.579 25.1509 166.777 25.5329 166.888 25.9434C166.705 25.5693 166.48 25.2176 166.216 24.8954C166.091 24.7337 165.957 24.5788 165.816 24.4314C165.656 24.3034 165.5 24.1674 165.344 24.0234Z" fill="black"/>
<path opacity="0.35" d="M166.714 30.2316C166.566 30.3236 165.994 30.6316 165.866 30.7236C166.11 30.5636 166.238 30.2356 166.218 29.7116C166.174 28.5476 165.478 27.7876 164.742 27.1516C164.006 26.5156 163.45 26.1956 163.426 25.6316C163.426 25.2796 163.642 25.2316 163.994 25.4396C164.214 25.5661 164.404 25.739 164.55 25.9462C164.696 26.1534 164.796 26.39 164.842 26.6396L165.894 26.9076C166.235 27.1902 166.515 27.539 166.717 27.933C166.919 28.327 167.039 28.7579 167.07 29.1996C167.108 29.3878 167.096 29.5828 167.033 29.7643C166.97 29.9459 166.86 30.1073 166.714 30.2316V30.2316Z" fill="black"/>
<path d="M164.257 27.6076L163.405 28.1036L162.125 27.7836L162.981 27.2876L164.257 27.6076Z" fill="#4070FF"/>
<path opacity="0.15" d="M164.257 27.6076L163.405 28.1036L162.125 27.7836L162.981 27.2876L164.257 27.6076Z" fill="black"/>
<path d="M164.837 31.5716L164.805 30.6836L165.681 30.7996L165.693 31.0756L164.837 31.5716Z" fill="#4070FF"/>
<path opacity="0.45" d="M164.837 31.5716L164.805 30.6836L165.681 30.7996L165.693 31.0756L164.837 31.5716Z" fill="black"/>
<path d="M163.409 23.2476L163.433 23.9316C163.274 23.8225 163.088 23.7602 162.895 23.7517C162.703 23.7432 162.512 23.7889 162.345 23.8836L162.281 23.9276C162.15 24.0516 162.052 24.2058 161.994 24.3767C161.937 24.5476 161.923 24.7299 161.953 24.9076V24.9076C161.979 25.3952 162.133 25.8671 162.401 26.2756C162.421 26.3116 162.445 26.3436 162.465 26.3756L162.537 26.4796L162.601 26.5636L162.629 26.5996L162.681 26.6676C162.825 26.8534 162.98 27.031 163.145 27.1996C163.225 27.2756 163.305 27.3516 163.389 27.4196C163.473 27.4876 163.629 27.6276 163.741 27.7236L163.877 27.8356C164.133 28.0321 164.372 28.2517 164.589 28.4916C164.677 28.5931 164.744 28.7115 164.785 28.8396C164.803 28.9035 164.814 28.9693 164.817 29.0356C164.817 29.3036 164.673 29.4356 164.229 29.1916C164.019 29.0867 163.836 28.9357 163.694 28.7501C163.551 28.5644 163.452 28.3489 163.405 28.1196L162.125 27.7996C162.368 28.7352 162.935 29.5544 163.725 30.1116L163.757 30.9956L164.825 31.5876L164.801 30.6836C164.961 30.7698 165.138 30.8186 165.32 30.8262C165.501 30.8338 165.682 30.8001 165.849 30.7276C166.093 30.5676 166.221 30.2396 166.201 29.7156C166.157 28.5516 165.461 27.7916 164.725 27.1556C163.989 26.5196 163.433 26.1996 163.409 25.6356C163.409 25.2836 163.629 25.2356 163.977 25.4476C164.197 25.5735 164.387 25.7461 164.534 25.9535C164.68 26.1608 164.78 26.3978 164.825 26.6476L166.173 26.9956C166.134 26.8099 166.083 26.6268 166.021 26.4476C165.917 26.1485 165.776 25.8636 165.601 25.5996C165.3 25.1772 164.929 24.8092 164.505 24.5116L164.473 23.6236L163.413 23.0156L163.409 23.2476Z" fill="#4070FF"/>
<path opacity="0.1" d="M163.409 23.2476L163.433 23.9316C163.274 23.8225 163.088 23.7602 162.895 23.7517C162.703 23.7432 162.512 23.7889 162.345 23.8836L162.281 23.9276C162.15 24.0516 162.052 24.2058 161.994 24.3767C161.937 24.5476 161.923 24.7299 161.953 24.9076V24.9076C161.979 25.3952 162.133 25.8671 162.401 26.2756C162.421 26.3116 162.445 26.3436 162.465 26.3756L162.537 26.4796L162.601 26.5636L162.629 26.5996L162.681 26.6676C162.825 26.8534 162.98 27.031 163.145 27.1996C163.225 27.2756 163.305 27.3516 163.389 27.4196C163.473 27.4876 163.629 27.6276 163.741 27.7236L163.877 27.8356C164.133 28.0321 164.372 28.2517 164.589 28.4916C164.677 28.5931 164.744 28.7115 164.785 28.8396C164.803 28.9035 164.814 28.9693 164.817 29.0356C164.817 29.3036 164.673 29.4356 164.229 29.1916C164.019 29.0867 163.836 28.9357 163.694 28.7501C163.551 28.5644 163.452 28.3489 163.405 28.1196L162.125 27.7996C162.368 28.7352 162.935 29.5544 163.725 30.1116L163.757 30.9956L164.825 31.5876L164.801 30.6836C164.961 30.7698 165.138 30.8186 165.32 30.8262C165.501 30.8338 165.682 30.8001 165.849 30.7276C166.093 30.5676 166.221 30.2396 166.201 29.7156C166.157 28.5516 165.461 27.7916 164.725 27.1556C163.989 26.5196 163.433 26.1996 163.409 25.6356C163.409 25.2836 163.629 25.2356 163.977 25.4476C164.197 25.5735 164.387 25.7461 164.534 25.9535C164.68 26.1608 164.78 26.3978 164.825 26.6476L166.173 26.9956C166.134 26.8099 166.083 26.6268 166.021 26.4476C165.917 26.1485 165.776 25.8636 165.601 25.5996C165.3 25.1772 164.929 24.8092 164.505 24.5116L164.473 23.6236L163.413 23.0156L163.409 23.2476Z" fill="white"/>
<path d="M166.21 29.7115C166.179 29.2911 166.059 28.8822 165.858 28.5115C165.645 28.1408 165.375 27.806 165.058 27.5195C164.758 27.2195 164.422 26.9595 164.094 26.6835C163.93 26.5461 163.777 26.3949 163.638 26.2315C163.498 26.0679 163.415 25.8627 163.402 25.6475C163.425 25.8601 163.516 26.0596 163.662 26.2155C163.805 26.3716 163.96 26.5161 164.126 26.6475C164.458 26.9155 164.794 27.1755 165.102 27.4755C165.422 27.769 165.692 28.112 165.902 28.4915C166 28.6826 166.076 28.8837 166.13 29.0915C166.176 29.2952 166.203 29.5028 166.21 29.7115V29.7115Z" fill="white"/>
<path d="M164.461 23.6356L165.313 23.1396L165.345 24.0236L164.493 24.5196L164.461 23.6356Z" fill="#4070FF"/>
<path opacity="0.35" d="M164.461 23.6356L165.313 23.1396L165.345 24.0236L164.493 24.5196L164.461 23.6356Z" fill="black"/>
<path d="M163.398 23.0234L164.358 23.6834L164.49 24.5194L164.458 23.6354L163.398 23.0234Z" fill="#FAFAFA"/>
<path d="M163.734 30.0957L163.854 30.9237L164.834 31.5717L163.766 30.9797L163.734 30.0957Z" fill="#FAFAFA"/>
<path opacity="0.15" d="M162.125 27.7837C162.167 27.9455 162.219 28.1045 162.281 28.2597L162.633 27.9117L162.125 27.7837Z" fill="white"/>
<path opacity="0.15" d="M166.206 29.6717C166.186 29.2038 166.048 28.7486 165.806 28.3477L163.746 30.3997L163.766 30.9757L164.494 31.3757L164.814 31.0517V30.6757C164.91 30.7161 165.009 30.7482 165.11 30.7717L166.206 29.6717Z" fill="white"/>
<path opacity="0.15" d="M161.965 25.0837C161.992 25.3523 162.059 25.6152 162.165 25.8637L164.421 23.5997L163.797 23.2397L163.421 23.6157V23.9197C163.355 23.8768 163.286 23.8406 163.213 23.8117L161.965 25.0837Z" fill="white"/>
<path opacity="0.15" d="M162.45 26.3996L162.522 26.5036L162.586 26.5876L162.614 26.6236L162.666 26.6916C162.816 26.8695 162.975 27.0391 163.142 27.1996L163.254 27.2996L163.998 26.5396C163.844 26.437 163.712 26.3032 163.613 26.1469C163.513 25.9905 163.447 25.815 163.418 25.6316C163.418 25.2796 163.638 25.2316 163.986 25.4436C164.222 25.578 164.42 25.7691 164.562 25.9996L165.294 25.2636C165.056 24.993 164.787 24.7501 164.494 24.5396V24.2036L162.398 26.2796L162.458 26.3756L162.45 26.3996Z" fill="white"/>
<path d="M167.226 22.2077L167.326 20.8877L167.43 22.2077L168.746 22.3077L167.43 22.4077L167.326 23.7237L167.226 22.4077L165.91 22.3077L167.226 22.2077Z" fill="white"/>
<path d="M168.265 23.288L168.313 22.6479L168.361 23.288L169.001 23.3359L168.361 23.3839L168.313 24.024L168.265 23.3839L167.625 23.3359L168.265 23.288Z" fill="white"/>
<path d="M125.692 142.056C125.613 142.056 125.537 142.032 125.472 141.988L124.472 141.332C124.427 141.304 124.389 141.267 124.36 141.223C124.33 141.18 124.309 141.131 124.298 141.08C124.287 141.028 124.286 140.975 124.296 140.923C124.305 140.872 124.325 140.822 124.354 140.778C124.382 140.734 124.419 140.696 124.463 140.666C124.506 140.636 124.555 140.615 124.606 140.604C124.658 140.594 124.711 140.593 124.762 140.602C124.814 140.612 124.863 140.632 124.908 140.66L125.916 141.32C125.989 141.367 126.044 141.437 126.074 141.519C126.104 141.6 126.107 141.69 126.081 141.773C126.056 141.856 126.004 141.929 125.934 141.98C125.864 142.031 125.779 142.058 125.692 142.056V142.056Z" fill="#455A64"/>
<path d="M122.57 140.076C122.499 140.075 122.428 140.056 122.366 140.02C121.642 139.584 120.918 139.168 120.214 138.78C120.168 138.754 120.128 138.719 120.095 138.677C120.063 138.635 120.039 138.587 120.025 138.536C120.011 138.485 120.008 138.432 120.014 138.379C120.021 138.327 120.038 138.276 120.064 138.23C120.09 138.184 120.126 138.144 120.167 138.111C120.209 138.079 120.257 138.055 120.308 138.041C120.359 138.027 120.413 138.024 120.465 138.03C120.518 138.037 120.568 138.054 120.614 138.08C121.33 138.48 122.062 138.88 122.794 139.332C122.87 139.377 122.929 139.446 122.961 139.527C122.994 139.609 122.999 139.699 122.975 139.784C122.952 139.869 122.901 139.943 122.83 139.996C122.76 140.049 122.674 140.077 122.586 140.076H122.57ZM118.194 137.676C118.133 137.675 118.073 137.66 118.018 137.632C117.266 137.26 116.51 136.912 115.77 136.588C115.718 136.571 115.67 136.542 115.629 136.505C115.588 136.468 115.555 136.422 115.533 136.372C115.51 136.321 115.498 136.267 115.498 136.211C115.498 136.156 115.509 136.101 115.531 136.051C115.553 136 115.585 135.954 115.625 135.917C115.666 135.879 115.714 135.85 115.766 135.832C115.818 135.813 115.873 135.806 115.929 135.81C115.984 135.815 116.037 135.83 116.086 135.856C116.838 136.18 117.606 136.54 118.37 136.916C118.452 136.956 118.518 137.022 118.557 137.104C118.596 137.185 118.606 137.278 118.586 137.366C118.565 137.455 118.515 137.534 118.444 137.59C118.373 137.646 118.285 137.677 118.194 137.676V137.676ZM113.61 135.676C113.564 135.676 113.518 135.668 113.474 135.652C112.694 135.364 111.902 135.1 111.13 134.852C111.076 134.841 111.025 134.818 110.98 134.786C110.935 134.754 110.897 134.713 110.869 134.665C110.841 134.618 110.823 134.565 110.816 134.51C110.809 134.455 110.814 134.399 110.829 134.346C110.845 134.293 110.872 134.244 110.908 134.202C110.943 134.16 110.987 134.126 111.037 134.101C111.087 134.077 111.141 134.063 111.196 134.061C111.252 134.059 111.307 134.068 111.358 134.088C112.158 134.324 112.958 134.596 113.758 134.888C113.847 134.92 113.921 134.983 113.968 135.065C114.016 135.147 114.032 135.242 114.015 135.335C113.999 135.428 113.95 135.512 113.877 135.572C113.804 135.633 113.713 135.665 113.618 135.664L113.61 135.676ZM108.83 134.236H108.738C107.938 134.048 107.138 133.888 106.314 133.752C106.208 133.735 106.113 133.676 106.051 133.588C105.988 133.501 105.963 133.392 105.98 133.286C105.998 133.18 106.057 133.085 106.144 133.023C106.231 132.96 106.34 132.935 106.446 132.952C107.274 133.088 108.106 133.252 108.922 133.444C109.028 133.456 109.125 133.51 109.192 133.594C109.258 133.678 109.288 133.784 109.276 133.89C109.264 133.996 109.21 134.093 109.127 134.16C109.043 134.226 108.936 134.256 108.83 134.244V134.236ZM91.4542 133.836C91.4017 133.84 91.349 133.833 91.2991 133.816C91.2493 133.799 91.2033 133.772 91.1637 133.737C91.1242 133.703 91.0918 133.661 91.0686 133.613C91.0453 133.566 91.0316 133.515 91.0282 133.462C91.0248 133.41 91.0317 133.357 91.0487 133.307C91.0656 133.257 91.0922 133.211 91.127 133.172C91.1617 133.132 91.2039 133.1 91.2511 133.077C91.2983 133.053 91.3497 133.04 91.4022 133.036C92.2502 132.916 93.0902 132.816 93.8942 132.732C94.0003 132.721 94.1064 132.753 94.1893 132.82C94.2722 132.887 94.3251 132.984 94.3362 133.09C94.3473 133.196 94.3159 133.302 94.2487 133.385C94.1816 133.468 94.0843 133.521 93.9782 133.532C93.1782 133.612 92.3542 133.716 91.5102 133.832L91.4542 133.836ZM103.906 133.436H103.866C103.066 133.356 102.226 133.296 101.398 133.264C101.292 133.264 101.19 133.222 101.115 133.147C101.04 133.072 100.998 132.97 100.998 132.864C100.998 132.758 101.04 132.656 101.115 132.581C101.19 132.506 101.292 132.464 101.398 132.464C102.242 132.496 103.09 132.556 103.914 132.64C104.02 132.646 104.12 132.693 104.191 132.772C104.262 132.85 104.299 132.954 104.294 133.06C104.289 133.166 104.242 133.266 104.163 133.337C104.084 133.408 103.98 133.446 103.874 133.44L103.906 133.436ZM96.4222 133.328C96.3697 133.33 96.3173 133.321 96.2682 133.302C96.2191 133.284 96.1741 133.256 96.1358 133.22C96.0976 133.184 96.0668 133.14 96.0452 133.092C96.0237 133.044 96.0118 132.993 96.0102 132.94C96.0086 132.888 96.0174 132.835 96.036 132.786C96.0547 132.737 96.0828 132.692 96.1189 132.654C96.1549 132.616 96.1981 132.585 96.246 132.563C96.294 132.542 96.3457 132.53 96.3982 132.528C97.2502 132.472 98.0942 132.44 98.9142 132.428C99.0203 132.428 99.122 132.47 99.197 132.545C99.272 132.62 99.3142 132.722 99.3142 132.828C99.3142 132.934 99.272 133.036 99.197 133.111C99.122 133.186 99.0203 133.228 98.9142 133.228C98.1142 133.228 97.2742 133.272 96.4382 133.324L96.4222 133.328Z" fill="#455A64"/>
<path d="M87.7931 134.428C87.687 134.438 87.5815 134.405 87.4997 134.337C87.4179 134.268 87.3666 134.171 87.3571 134.064C87.3475 133.958 87.3805 133.853 87.4488 133.771C87.517 133.689 87.615 133.638 87.7211 133.628L88.9211 133.42C89.0272 133.403 89.1359 133.428 89.2233 133.491C89.3107 133.554 89.3696 133.648 89.3871 133.754C89.4046 133.861 89.3792 133.969 89.3166 134.057C89.254 134.144 89.1592 134.203 89.0531 134.22L87.8731 134.424L87.7931 134.428Z" fill="#455A64"/>
<path d="M183.111 174.692L130.467 140.8L129.031 146.792L183.111 174.692Z" fill="#F0F0F0"/>
<path d="M139.775 146.792L139.911 152.516L129.031 146.792L130.467 140.8L139.775 146.792Z" fill="#E0E0E0"/>
<path d="M130.467 140.8L129.031 146.792L129.391 146.976L130.903 140.8H130.467Z" fill="#455A64"/>
<path d="M101.594 157.124L183.11 174.692L123.694 144.036L101.594 157.124Z" fill="white"/>
<path d="M101.594 157.124L134.858 149.796L123.694 144.036L101.594 157.124Z" fill="#F5F5F5"/>
<path d="M123.702 144.4L180.858 173.888L102.458 156.988L123.702 144.4ZM123.702 144.04L101.602 157.124L183.118 174.692L123.694 144.036L123.702 144.04Z" fill="#455A64"/>
<path d="M183.109 174.692L130.465 140.8L153.013 127.736L183.109 174.692Z" fill="white"/>
<path d="M139.773 146.792L153.013 127.736L130.465 140.8L139.773 146.792Z" fill="#F5F5F5"/>
<path d="M152.909 128.16L182.065 173.644L131.069 140.8L152.909 128.144M153.013 127.72L130.465 140.8L183.109 174.692L153.013 127.736V127.72Z" fill="#455A64"/>
<path d="M52.0275 139.32C51.9491 139.319 51.8726 139.296 51.8075 139.252L50.8075 138.596C50.7634 138.567 50.7253 138.53 50.6955 138.487C50.6657 138.444 50.6447 138.395 50.6338 138.343C50.6228 138.292 50.6221 138.239 50.6317 138.187C50.6412 138.135 50.6609 138.086 50.6895 138.042C50.7182 137.998 50.7552 137.96 50.7985 137.93C50.8419 137.9 50.8906 137.879 50.9421 137.868C50.9935 137.857 51.0466 137.856 51.0984 137.866C51.1501 137.876 51.1994 137.895 51.2435 137.924C51.5755 138.14 51.9115 138.36 52.2515 138.588C52.3392 138.647 52.4002 138.737 52.4212 138.841C52.4421 138.944 52.4214 139.052 52.3635 139.14C52.3269 139.195 52.277 139.241 52.2183 139.272C52.1597 139.304 52.0941 139.32 52.0275 139.32Z" fill="#455A64"/>
<path d="M48.9092 137.34C48.8362 137.339 48.7646 137.32 48.7012 137.284C47.9772 136.848 47.2532 136.432 46.5492 136.044C46.4564 135.991 46.3884 135.903 46.3603 135.8C46.3322 135.697 46.3462 135.587 46.3992 135.494C46.4522 135.401 46.54 135.333 46.6431 135.305C46.7463 135.277 46.8564 135.291 46.9492 135.344C47.6612 135.744 48.3932 136.144 49.1252 136.596C49.2157 136.651 49.2809 136.739 49.3064 136.842C49.3319 136.945 49.3156 137.053 49.2612 137.144C49.2251 137.205 49.1735 137.255 49.1117 137.29C49.0498 137.324 48.98 137.341 48.9092 137.34V137.34ZM44.5092 134.94C44.4479 134.939 44.3877 134.924 44.3332 134.896C43.5812 134.524 42.8252 134.176 42.0852 133.852C41.9884 133.81 41.9122 133.731 41.8732 133.633C41.8342 133.535 41.8357 133.425 41.8772 133.328C41.8981 133.28 41.9283 133.236 41.9662 133.199C42.0041 133.162 42.0489 133.133 42.0979 133.114C42.147 133.095 42.1994 133.085 42.2521 133.086C42.3049 133.087 42.3569 133.099 42.4052 133.12C43.1532 133.444 43.9252 133.804 44.6852 134.18C44.7325 134.203 44.7749 134.235 44.8098 134.275C44.8446 134.314 44.8714 134.36 44.8885 134.41C44.9056 134.46 44.9127 134.512 44.9094 134.565C44.9061 134.617 44.8924 134.669 44.8692 134.716C44.8378 134.78 44.7896 134.835 44.7298 134.874C44.67 134.914 44.6007 134.937 44.5292 134.94H44.5092ZM39.9252 132.94C39.8788 132.94 39.8328 132.932 39.7892 132.916C38.9892 132.628 38.2212 132.364 37.4452 132.116C37.392 132.103 37.342 132.08 37.2982 132.047C37.2544 132.015 37.2178 131.973 37.1906 131.926C37.1634 131.879 37.1461 131.826 37.1399 131.772C37.1338 131.718 37.1388 131.663 37.1546 131.611C37.1705 131.558 37.1969 131.51 37.2322 131.468C37.2676 131.426 37.311 131.392 37.36 131.368C37.409 131.344 37.4624 131.33 37.5169 131.327C37.5715 131.324 37.626 131.333 37.6772 131.352C38.4772 131.588 39.2772 131.86 40.0772 132.152C40.1659 132.184 40.2404 132.247 40.2875 132.329C40.3345 132.41 40.3512 132.506 40.3344 132.599C40.3177 132.692 40.2686 132.776 40.1959 132.836C40.1232 132.896 40.0316 132.929 39.9372 132.928L39.9252 132.94ZM35.1252 131.5H35.0372C34.2372 131.312 33.4372 131.152 32.6132 131.016C32.5607 131.008 32.5103 130.989 32.465 130.961C32.4197 130.933 32.3803 130.897 32.3491 130.854C32.3179 130.81 32.2955 130.762 32.2832 130.71C32.2708 130.658 32.2688 130.605 32.2772 130.552C32.2856 130.499 32.3043 130.449 32.3321 130.404C32.36 130.358 32.3965 130.319 32.4396 130.288C32.4827 130.257 32.5315 130.234 32.5833 130.222C32.635 130.21 32.6887 130.208 32.7412 130.216C33.5692 130.352 34.4012 130.516 35.2172 130.708C35.3233 130.72 35.4202 130.774 35.4866 130.858C35.553 130.941 35.5834 131.048 35.5712 131.154C35.559 131.26 35.5052 131.357 35.4215 131.423C35.3379 131.49 35.2313 131.52 35.1252 131.508V131.5ZM17.7532 131.1C17.7007 131.104 17.6479 131.097 17.598 131.08C17.5481 131.064 17.5019 131.037 17.4622 131.003C17.3819 130.933 17.3326 130.834 17.3252 130.728C17.3178 130.622 17.3528 130.517 17.4226 130.437C17.4923 130.357 17.5911 130.307 17.6972 130.3C18.5492 130.18 19.3852 130.08 20.1892 129.996C20.2953 129.985 20.4015 130.016 20.4843 130.083C20.5672 130.151 20.6201 130.248 20.6312 130.354C20.6423 130.46 20.6109 130.566 20.5437 130.649C20.4766 130.732 20.3793 130.785 20.2732 130.796C19.4732 130.876 18.6492 130.98 17.8052 131.096L17.7532 131.1ZM30.2052 130.7H30.2012C29.4012 130.62 28.5612 130.56 27.7372 130.528C27.6847 130.526 27.6331 130.513 27.5853 130.491C27.5376 130.469 27.4947 130.438 27.459 130.4C27.4234 130.361 27.3957 130.316 27.3775 130.266C27.3594 130.217 27.3511 130.165 27.3532 130.112C27.3553 130.059 27.3677 130.008 27.3898 129.96C27.4118 129.912 27.443 129.869 27.4817 129.834C27.5203 129.798 27.5656 129.77 27.6149 129.752C27.6642 129.734 27.7167 129.726 27.7692 129.728C28.6092 129.76 29.4572 129.82 30.2812 129.904C30.3873 129.909 30.4871 129.955 30.5588 130.034C30.6304 130.112 30.668 130.216 30.6632 130.322C30.6584 130.428 30.6117 130.528 30.5333 130.6C30.4549 130.671 30.3513 130.709 30.2452 130.704L30.2052 130.7ZM22.7212 130.588C22.6687 130.59 22.6163 130.581 22.5671 130.563C22.5178 130.544 22.4727 130.517 22.4343 130.481C22.3958 130.445 22.3648 130.402 22.343 130.354C22.3212 130.306 22.309 130.255 22.3072 130.202C22.3054 130.149 22.3139 130.097 22.3323 130.048C22.3507 129.999 22.3786 129.953 22.4145 129.915C22.4503 129.877 22.4934 129.846 22.5412 129.824C22.589 129.802 22.6407 129.79 22.6932 129.788C23.5452 129.732 24.3892 129.7 25.2092 129.688C25.2617 129.688 25.3137 129.698 25.3623 129.718C25.4108 129.739 25.4549 129.768 25.492 129.805C25.5292 129.842 25.5586 129.886 25.5787 129.935C25.5989 129.983 25.6092 130.035 25.6092 130.088C25.6092 130.194 25.5671 130.296 25.492 130.371C25.417 130.446 25.3153 130.488 25.2092 130.488C24.4092 130.488 23.5692 130.532 22.7332 130.584L22.7212 130.588Z" fill="#455A64"/>
<path d="M14.129 131.692C14.0337 131.693 13.941 131.661 13.8677 131.6C13.7944 131.539 13.7452 131.454 13.729 131.36C13.7103 131.256 13.7334 131.149 13.7934 131.062C13.8533 130.975 13.9452 130.915 14.049 130.896L15.249 130.688C15.3551 130.671 15.4638 130.696 15.5512 130.759C15.6385 130.821 15.6975 130.916 15.715 131.022C15.7325 131.128 15.7071 131.237 15.6445 131.324C15.5819 131.412 15.4871 131.471 15.381 131.488L14.205 131.692H14.129Z" fill="#455A64"/>
<path d="M16.168 159.432L132.136 184.424L47.604 140.816L16.168 159.432Z" fill="#4070FF"/>
<path d="M132.134 184.424L57.2383 136.212L89.3143 117.628L132.134 184.424Z" fill="#4070FF"/>
<path opacity="0.2" d="M16.168 159.432L63.488 149.008L47.604 140.816L16.168 159.432Z" fill="black"/>
<path opacity="0.2" d="M70.4783 144.732L89.3143 117.628L57.2383 136.212L70.4783 144.732Z" fill="black"/>
<path d="M132.135 184.424L57.2393 136.212L55.1953 144.732L132.135 184.424Z" fill="#4070FF"/>
<path opacity="0.2" d="M132.135 184.424L57.2393 136.212L55.1953 144.732L132.135 184.424Z" fill="black"/>
<path opacity="0.2" d="M70.4793 144.732L70.3513 152.552L55.1953 144.732L57.2393 136.212L70.4793 144.732Z" fill="black"/>
<path d="M75.8984 144.536L77.2624 143.84L75.8984 143.48V144.536Z" fill="#263238"/>
<path d="M89.5555 146.864C89.5555 146.864 73.2395 139.768 73.0555 140.864C73.0174 141.083 73.0242 141.308 73.0755 141.524L73.0315 141.464L73.3635 143.508C74.0921 144.087 74.9732 144.441 75.8995 144.528V143.48C76.4036 143.68 76.8872 143.927 77.3435 144.22C78.3915 144.896 79.0795 146.092 80.2035 147.48C81.0235 148.492 82.4595 148.944 84.6035 149.216C86.8915 149.504 88.8955 149.032 89.4515 148.416C89.8795 147.908 89.6395 147.008 89.5555 146.864Z" fill="#263238"/>
<path d="M89.0998 146.492C88.9438 146.332 88.3558 145.692 87.5638 145.016C86.8678 144.416 86.0598 143.66 85.1918 143.048C84.7742 142.766 84.3809 142.45 84.0158 142.104C83.7334 141.804 83.4664 141.49 83.2158 141.164C82.4321 140.138 81.7616 139.03 81.2158 137.86C80.9518 137.308 80.4718 136.088 80.5678 133.816C80.7118 130.372 80.9678 129.124 80.9678 126.888L73.2598 128.088C73.5078 129.324 73.7918 132.088 73.9318 133.492C74.1478 135.632 74.4638 135.832 73.6638 137.984C73.4318 138.616 73.0758 139.228 73.0558 139.904C73.0198 141 73.8918 141.932 74.8558 142.456C75.6558 142.888 76.5758 143.064 77.3518 143.524C78.1463 144.049 78.84 144.713 79.3998 145.484C79.9558 146.176 80.4078 147 81.1798 147.484C81.9969 147.949 82.8984 148.247 83.8318 148.36C85.0045 148.55 86.1966 148.592 87.3798 148.484C89.0118 148.304 90.2558 147.672 89.0998 146.492Z" fill="#FFA8A7"/>
<path d="M88.1517 145.312C87.4477 144.732 86.4437 143.9 85.2357 142.968C84.822 142.83 84.3835 142.783 83.95 142.83C83.5166 142.877 83.0983 143.017 82.7237 143.24C80.3237 144.548 79.9597 146.36 79.9597 146.36C80.379 147.165 81.0969 147.774 81.9597 148.056C84.7597 149.232 89.7277 148.768 89.7557 147.48C89.7637 146.656 89.0117 146 88.1517 145.312ZM73.7517 137.5C73.7517 137.5 73.5957 137.924 73.1837 138.76C72.9609 139.139 72.8488 139.572 72.8602 140.011C72.8715 140.45 73.0057 140.877 73.2477 141.244C73.5251 141.67 73.887 142.034 74.3108 142.314C74.7346 142.594 75.2114 142.784 75.7117 142.872C76.4557 140.4 74.7397 138 73.7637 137.5H73.7517Z" fill="#37474F"/>
<path d="M59.7869 143.784C60.2309 144.528 59.5829 147.296 59.6469 149.276C59.7069 151.076 60.0189 153.884 59.5349 155.98C59.0509 158.076 57.2029 160.38 54.7709 158.356C53.2629 157.104 52.6709 155.616 52.5149 153.028C52.4029 151.228 53.1709 148.752 53.8309 146.56C54.6029 144 54.9029 142.628 54.9029 142.628L59.7869 143.784Z" fill="#263238"/>
<path d="M54.9693 130.428C54.7093 134.616 55.1414 137.568 55.1174 140.252C55.0799 141.47 54.9272 142.682 54.6614 143.872C54.2614 145.576 53.6333 147.944 53.3573 149.052C52.9573 150.596 52.6894 151.568 53.1934 153.316C53.2357 153.454 53.2919 153.588 53.3614 153.716C54.0814 155.164 55.9614 156.288 56.5614 156.116C56.6808 156.278 56.8449 156.403 57.0339 156.474C57.2228 156.545 57.4283 156.56 57.6254 156.516C57.6931 156.506 57.76 156.492 57.8254 156.472C57.8968 156.451 57.9664 156.424 58.0333 156.392C58.2865 156.259 58.5095 156.075 58.6884 155.852C58.8673 155.629 58.9984 155.372 59.0734 155.096C59.1094 154.98 59.1453 154.852 59.1773 154.72C59.6613 152.568 59.3693 151.164 59.3453 150.32C59.3133 149.344 59.3973 148.104 59.5133 146.532C59.6293 144.96 60.1014 140.032 60.6934 137.684C61.1334 136.044 61.6813 133.984 62.2573 131.792L54.9693 130.428Z" fill="#FFA8A7"/>
<path d="M52.9452 151.064C54.4612 150.432 58.8132 150.424 59.4652 152.556C59.4652 154.556 59.4292 155.904 58.1372 157.612C56.4172 159.888 54.2812 157.4 53.4732 155.828C52.6652 154.256 52.7212 152.132 52.9452 151.064Z" fill="#37474F"/>
<path d="M62.1996 71.4199C60.0036 75.1759 57.0476 80.3999 56.7716 88.9119C56.4076 100.256 56.1716 108.38 56.0916 109.748C56.0116 111.116 55.0756 113.604 54.1956 120.324C53.3156 127.044 54.2756 139.892 54.2756 139.892C54.2756 139.892 55.0316 141.42 57.5996 141.72C59.9716 142 61.0836 140.888 61.0836 140.888C61.0836 140.888 64.8396 122.888 65.8516 118.868C66.8636 114.848 70.3116 97.1999 70.3116 97.1999L71.5716 108.064C71.5716 108.064 70.7476 111.764 71.3116 117.692C71.8756 123.62 73.7516 135.056 73.7516 135.056C73.7516 135.056 74.8276 136.192 77.3516 136.092C78.6384 136.088 79.8764 135.599 80.8196 134.724C80.8196 134.724 83.0316 112.152 83.2196 105.456C83.4076 98.7599 83.2196 82.0359 81.3756 72.0639L62.1996 71.4199Z" fill="#37474F"/>
<path d="M72.3977 86.4719L70.3097 97.2L71.5697 108.064L71.6137 97.752L73.6657 87.54C75.2897 87.196 79.4697 84.3679 79.8257 81.6479C77.5697 85.1719 72.3977 86.4719 72.3977 86.4719ZM60.3177 126.756C59.643 130.223 59.0137 133.711 58.4297 137.22C59.2857 133.78 60.0964 130.329 60.8617 126.868C61.6377 123.408 62.3697 119.956 63.0977 116.468C63.8257 112.98 64.6657 105.076 65.0537 101.552C65.4417 98.028 65.7537 94.4959 66.0137 90.9599C65.4777 94.4639 64.9937 97.976 64.5057 101.484C64.0177 104.992 63.0897 112.868 62.3977 116.328C61.7057 119.788 60.9577 123.276 60.2977 126.756H60.3177ZM80.1377 101.628C80.1657 103.164 80.2177 104.712 80.1377 106.232C80.0577 107.752 79.9297 109.296 79.8097 110.832L79.4537 115.448C79.2084 118.523 79.0017 121.603 78.8337 124.688C79.2817 121.632 79.6724 118.565 80.0057 115.488C80.3417 112.416 80.6617 109.352 80.8497 106.248C80.9257 103.128 80.7457 100.052 80.5537 96.964C80.3617 93.876 80.0617 90.804 79.6697 87.74L79.9977 96.9919C80.0337 98.5479 80.0897 100.088 80.1177 101.628H80.1377Z" fill="#263238"/>
<path d="M63.3247 33.2681C61.1327 34.4401 60.9247 36.2601 60.8007 40.6961C60.6007 48.7401 58.1367 57.8961 58.1367 57.8961L76.5367 58.1081L77.5287 39.7081C77.5287 39.7081 79.1567 37.7361 79.0847 35.6161C79.0127 33.4961 77.8527 30.6761 73.9527 29.6521C70.7007 28.8001 64.3967 29.1241 63.3247 33.2681Z" fill="#263238"/>
<path d="M98.0533 56.1799C97.0413 51.6919 94.4853 45.4879 93.2933 42.5399C92.928 41.4455 92.6288 40.3301 92.3973 39.1999C92.1815 37.9595 91.7525 36.7658 91.1293 35.6719C90.6383 34.7268 89.967 33.887 89.1533 33.1999C89.0336 33.0748 88.8748 32.9943 88.7031 32.9717C88.5314 32.9492 88.3572 32.9859 88.2093 33.0759C87.948 32.768 87.6099 32.5348 87.2293 32.3999C86.915 32.335 86.593 32.3161 86.2733 32.3439C86.0457 32.3172 85.8265 32.242 85.6305 32.1233C85.4345 32.0046 85.2663 31.8452 85.1373 31.6559C84.9941 31.4722 84.8125 31.3221 84.6053 31.2159C84.2493 31.0839 84.0813 31.3239 84.0053 31.6159C83.9074 32.0494 83.948 32.5026 84.1213 32.9119C84.4176 33.5346 84.7613 34.1337 85.1493 34.7039C85.6733 35.6519 86.4533 36.8519 86.4093 37.9559C86.4093 38.1799 86.3173 38.6439 86.0373 38.3559C85.6925 37.9373 85.311 37.5504 84.8973 37.1999C84.6918 37.0244 84.4517 36.8942 84.1926 36.8177C83.9334 36.7412 83.6611 36.7201 83.3933 36.7559C83.2282 36.7754 83.0766 36.8569 82.9693 36.9839C82.8333 37.1719 82.9213 37.2999 83.0333 37.4439C83.1467 37.6009 83.2496 37.7653 83.3413 37.9359C83.536 38.2799 83.736 38.6239 83.9413 38.9679C85.1413 40.9679 85.6653 41.8039 87.3813 43.1599C87.6493 43.3759 88.5093 43.8759 89.1253 45.6319C89.7413 47.3879 90.1933 52.9559 90.1933 52.9559C90.1933 52.9559 89.3933 52.7759 84.2173 51.5279C81.5572 50.8504 78.8472 50.3862 76.1133 50.1399L79.7933 58.8999C79.7933 58.8999 85.8853 60.0119 91.8973 60.9599C96.4893 61.6879 99.2733 61.5679 98.0533 56.1799Z" fill="#FFA8A7"/>
<path d="M89.8257 49.752L89.5977 48C90.5719 48.3648 91.6321 48.4344 92.6457 48.2C94.4697 47.832 95.2097 47 95.2097 47L95.7857 48.46C94.9045 49.0333 93.9256 49.44 92.8977 49.66C91.8878 49.8773 90.8467 49.9085 89.8257 49.752V49.752Z" fill="#F0F0F0"/>
<path d="M76.2227 50.0642C78.7267 50.1882 81.1307 50.6282 84.6987 51.4562C87.8787 52.1962 90.0907 52.7922 90.0907 52.7922L89.6907 49.0642C89.6907 49.0642 90.7627 49.7522 92.9547 49.3642C95.1467 48.9762 95.7107 48.0562 95.7107 48.0562C95.7107 48.0562 97.9667 54.1642 98.4707 57.1082C98.9187 59.7162 98.2427 62.0002 94.6827 61.6842C90.3107 61.2842 79.0827 59.3122 79.0827 59.3122L76.2227 50.0642Z" fill="#4070FF"/>
<path opacity="0.15" d="M90.0896 52.7999C90.2656 55.2279 90.7536 57.0559 91.6416 58.1239C90.1216 57.2919 89.1696 54.9239 89.1016 52.5239L90.0896 52.7999Z" fill="black"/>
<path d="M80.6577 36.8201C80.514 36.8694 80.3841 36.952 80.2784 37.0612C80.1728 37.1703 80.0944 37.3029 80.0497 37.4481C79.9534 37.7917 79.9707 38.1572 80.099 38.4902C80.2273 38.8232 80.4597 39.1059 80.7617 39.2961C80.891 39.3818 81.0372 39.4387 81.1904 39.4628C81.3437 39.487 81.5003 39.4779 81.6497 39.4361L82.6857 39.0801C82.8297 39.0313 82.9599 38.9488 83.0657 38.8396C83.1714 38.7304 83.2496 38.5975 83.2937 38.4521C83.3903 38.1078 83.3731 37.7417 83.2448 37.408C83.1166 37.0743 82.884 36.7909 82.5817 36.6001C82.4518 36.5139 82.3047 36.4571 82.1507 36.4336C81.9966 36.4101 81.8393 36.4205 81.6897 36.4641L80.6577 36.8201Z" fill="#FAFAFA"/>
<path d="M80.6577 36.8201C80.514 36.8694 80.3841 36.952 80.2784 37.0612C80.1728 37.1703 80.0944 37.3029 80.0497 37.4481C79.9534 37.7917 79.9707 38.1572 80.099 38.4902C80.2273 38.8232 80.4597 39.1059 80.7617 39.2961C80.891 39.3818 81.0372 39.4387 81.1904 39.4628C81.3437 39.487 81.5003 39.4779 81.6497 39.4361L82.6857 39.0801C82.8297 39.0313 82.9599 38.9488 83.0657 38.8396C83.1714 38.7304 83.2496 38.5975 83.2937 38.4521C83.3903 38.1078 83.3731 37.7417 83.2448 37.408C83.1166 37.0743 82.884 36.7909 82.5817 36.6001C82.4518 36.5139 82.3047 36.4571 82.1507 36.4336C81.9966 36.4101 81.8393 36.4205 81.6897 36.4641L80.6577 36.8201Z" fill="#4070FF"/>
<path opacity="0.25" d="M80.6577 36.8201C80.514 36.8694 80.3841 36.952 80.2784 37.0612C80.1728 37.1703 80.0944 37.3029 80.0497 37.4481C79.9534 37.7917 79.9707 38.1572 80.099 38.4902C80.2273 38.8232 80.4597 39.1059 80.7617 39.2961C80.891 39.3818 81.0372 39.4387 81.1904 39.4628C81.3437 39.487 81.5003 39.4779 81.6497 39.4361L82.6857 39.0801C82.8297 39.0313 82.9599 38.9488 83.0657 38.8396C83.1714 38.7304 83.2496 38.5975 83.2937 38.4521C83.3903 38.1078 83.3731 37.7417 83.2448 37.408C83.1166 37.0743 82.884 36.7909 82.5817 36.6001C82.4518 36.5139 82.3047 36.4571 82.1507 36.4336C81.9966 36.4101 81.8393 36.4205 81.6897 36.4641L80.6577 36.8201Z" fill="white"/>
<path d="M81.7854 38.9481C81.9107 39.0398 82.056 39.1003 82.2093 39.1246C82.3626 39.1489 82.5195 39.1362 82.6669 39.0877C82.8144 39.0392 82.9481 38.9563 83.0571 38.8457C83.166 38.7352 83.2471 38.6002 83.2934 38.4521C83.39 38.1079 83.3729 37.7417 83.2446 37.408C83.1163 37.0743 82.8837 36.791 82.5814 36.6001C82.4562 36.5084 82.3109 36.4479 82.1576 36.4236C82.0043 36.3994 81.8474 36.412 81.6999 36.4605C81.5525 36.509 81.4187 36.5919 81.3098 36.7025C81.2008 36.813 81.1198 36.948 81.0734 37.0961C80.9769 37.4403 80.994 37.8065 81.1223 38.1402C81.2506 38.4739 81.4831 38.7572 81.7854 38.9481V38.9481Z" fill="#4070FF"/>
<path d="M81.9428 36.584C81.8186 36.6257 81.7063 36.6964 81.6152 36.7904C81.524 36.8843 81.4567 36.9987 81.4188 37.124C81.3333 37.421 81.3469 37.7377 81.4573 38.0263C81.5677 38.315 81.769 38.5598 82.0308 38.724C82.1415 38.7972 82.2666 38.8458 82.3977 38.8665C82.5288 38.8872 82.6629 38.8795 82.7908 38.844L91.4868 36.388C91.7228 36.312 91.8188 35.728 91.9148 35.448C92.0002 35.151 91.9866 34.8343 91.8762 34.5457C91.7658 34.2571 91.5646 34.0122 91.3028 33.848C91.0428 33.688 90.5868 33.284 90.3548 33.36C90.2788 33.384 81.9988 36.56 81.9428 36.584Z" fill="#263238"/>
<path d="M88.0793 33.1562C87.825 33.2416 87.5949 33.3868 87.4083 33.5796C87.2218 33.7724 87.0842 34.0072 87.0073 34.2642C86.8369 34.871 86.8672 35.5165 87.0935 36.1047C87.3198 36.6929 87.7301 37.1922 88.2633 37.5282C88.4904 37.6788 88.7474 37.7786 89.0166 37.8207C89.2859 37.8628 89.561 37.8463 89.8233 37.7722C89.9833 37.7242 106.667 33.0682 106.819 33.0202C107.299 32.8642 107.503 31.6562 107.699 31.0842C107.869 30.478 107.839 29.8331 107.613 29.2457C107.386 28.6582 106.976 28.1596 106.443 27.8242C105.911 27.4962 104.967 26.6642 104.487 26.8162C104.331 26.8682 88.2273 33.1042 88.0793 33.1562Z" fill="#E0E0E0"/>
<path d="M104.798 32.6681C106.25 33.5521 107.85 33.0281 108.37 31.4921C108.89 29.9561 108.138 28.0001 106.686 27.1161C105.234 26.2321 103.634 26.7561 103.114 28.2881C102.594 29.8201 103.342 31.7801 104.798 32.6681Z" fill="#E0E0E0"/>
<path d="M104.586 32.9278C105.058 33.2278 105.606 33.3899 106.166 33.3958H106.298L107.122 33.3718H107.062H106.95C106.874 33.3718 106.79 33.3718 106.71 33.3438C106.266 33.2701 105.841 33.1111 105.458 32.8758C105.253 32.7481 105.059 32.6036 104.878 32.4438C103.554 31.2798 102.93 29.2998 103.474 27.7118C103.604 27.3115 103.819 26.9443 104.106 26.6358L104.162 26.5758C104.178 26.5564 104.197 26.539 104.218 26.5238L104.338 26.4198L104.382 26.3838L103.694 26.8758C103.63 26.9198 103.57 26.9718 103.51 27.0198C103.159 27.3352 102.898 27.7363 102.75 28.1838C102.522 28.9919 102.538 29.8493 102.795 30.6484C103.053 31.4475 103.541 32.1528 104.198 32.6758L104.398 32.7998H104.418L104.586 32.9278Z" fill="#263238"/>
<path d="M108.487 32C110.295 33.1 112.291 32.448 112.939 30.536C113.587 28.624 112.651 26.184 110.839 25.08C109.027 23.976 107.039 24.64 106.399 26.552C105.759 28.464 106.675 30.904 108.487 32Z" fill="#4070FF"/>
<path d="M105.387 33.0238C105.701 33.2184 106.042 33.3654 106.399 33.4598C106.652 33.5075 106.907 33.5396 107.163 33.5558C107.227 33.5558 107.471 33.5558 107.531 33.5558L107.711 33.5278C107.813 33.5104 107.913 33.4864 108.011 33.4558V33.4558H108.035H108.079H108.103L111.075 32.4798H111.003H110.915C110.851 32.496 110.785 32.5081 110.719 32.5158C110.632 32.5309 110.544 32.5416 110.455 32.5478C109.76 32.5712 109.074 32.3798 108.491 31.9998C108.308 31.89 108.134 31.7656 107.971 31.6278C106.507 30.4278 105.807 28.2638 106.391 26.5438C106.572 25.9807 106.916 25.4839 107.379 25.1158L107.511 25.0198L107.643 24.9358L107.783 24.8598C107.822 24.8367 107.862 24.8166 107.903 24.7998L108.007 24.7558L108.111 24.7158L105.135 25.6918L104.999 25.7358C104.592 25.8907 104.226 26.1367 103.928 26.4549C103.631 26.7732 103.41 27.1552 103.283 27.5718C102.727 29.2118 103.339 31.2438 104.667 32.4838C104.731 32.5438 104.795 32.6038 104.871 32.6638C105.035 32.7955 105.207 32.9158 105.387 33.0238V33.0238Z" fill="#FAFAFA"/>
<path d="M113.678 24.3122C115.394 25.3562 116.282 27.6642 115.678 29.4722C115.52 29.959 115.236 30.3952 114.854 30.7362C114.604 30.9556 114.313 31.1241 113.998 31.2322L111.518 32.0602L111.458 32.0842C111.339 32.1189 111.217 32.1456 111.094 32.1642C110.352 32.2694 109.598 32.1016 108.97 31.6922C107.258 30.6482 106.366 28.3402 106.97 26.5322C107.185 25.8448 107.662 25.2699 108.298 24.9322C108.396 24.8804 108.498 24.835 108.602 24.7962V24.7962L108.722 24.7562L111.154 23.9562C111.575 23.8268 112.02 23.7917 112.456 23.8532C112.892 23.9147 113.309 24.0714 113.678 24.3122V24.3122Z" fill="#EBEBEB"/>
<path d="M110.249 23.9558C109.824 24.1016 109.439 24.3462 109.127 24.6696C108.815 24.9929 108.584 25.3858 108.453 25.8158C107.801 27.7278 108.741 30.1718 110.553 31.2758C110.935 31.5246 111.365 31.689 111.816 31.758C112.266 31.827 112.726 31.799 113.165 31.6758C113.433 31.5918 115.145 30.9918 115.393 30.9078C115.819 30.7658 116.204 30.5245 116.518 30.2038C116.832 29.8831 117.064 29.4924 117.197 29.0638C117.849 27.1518 116.909 24.7078 115.097 23.6038C114.714 23.351 114.281 23.1843 113.827 23.1152C113.373 23.0462 112.91 23.0764 112.469 23.2038C112.201 23.2798 110.497 23.8758 110.249 23.9558Z" fill="#FAFAFA"/>
<path d="M105.387 33.0238C105.701 33.2184 106.042 33.3654 106.399 33.4598C106.652 33.5075 106.907 33.5396 107.163 33.5558C107.227 33.5558 107.471 33.5558 107.531 33.5558L107.711 33.5278C107.813 33.5104 107.913 33.4864 108.011 33.4558V33.4558H108.035H108.079H108.103L111.075 32.4798H111.003H110.915C110.851 32.496 110.785 32.5081 110.719 32.5158C110.632 32.5309 110.544 32.5416 110.455 32.5478C109.76 32.5712 109.074 32.3798 108.491 31.9998C108.308 31.89 108.134 31.7656 107.971 31.6278C106.507 30.4278 105.807 28.2638 106.391 26.5438C106.572 25.9807 106.916 25.4839 107.379 25.1158L107.511 25.0198L107.643 24.9358L107.783 24.8598C107.822 24.8367 107.862 24.8166 107.903 24.7998L108.007 24.7558L108.111 24.7158L105.135 25.6918L104.999 25.7358C104.592 25.8907 104.226 26.1367 103.928 26.4549C103.631 26.7732 103.41 27.1552 103.283 27.5718C102.727 29.2118 103.339 31.2438 104.667 32.4838C104.731 32.5438 104.795 32.6038 104.871 32.6638C105.035 32.7955 105.207 32.9158 105.387 33.0238V33.0238Z" fill="#4070FF"/>
<path opacity="0.25" d="M105.387 33.0238C105.701 33.2184 106.042 33.3654 106.399 33.4598C106.652 33.5075 106.907 33.5396 107.163 33.5558C107.227 33.5558 107.471 33.5558 107.531 33.5558L107.711 33.5278C107.813 33.5104 107.913 33.4864 108.011 33.4558V33.4558H108.035H108.079H108.103L111.075 32.4798H111.003H110.915C110.851 32.496 110.785 32.5081 110.719 32.5158C110.632 32.5309 110.544 32.5416 110.455 32.5478C109.76 32.5712 109.074 32.3798 108.491 31.9998C108.308 31.89 108.134 31.7656 107.971 31.6278C106.507 30.4278 105.807 28.2638 106.391 26.5438C106.572 25.9807 106.916 25.4839 107.379 25.1158L107.511 25.0198L107.643 24.9358L107.783 24.8598C107.822 24.8367 107.862 24.8166 107.903 24.7998L108.007 24.7558L108.111 24.7158L105.135 25.6918L104.999 25.7358C104.592 25.8907 104.226 26.1367 103.928 26.4549C103.631 26.7732 103.41 27.1552 103.283 27.5718C102.727 29.2118 103.339 31.2438 104.667 32.4838C104.731 32.5438 104.795 32.6038 104.871 32.6638C105.035 32.7955 105.207 32.9158 105.387 33.0238V33.0238Z" fill="white"/>
<path d="M113.678 24.3122C115.394 25.3562 116.282 27.6642 115.678 29.4722C115.52 29.959 115.236 30.3952 114.854 30.7362C114.604 30.9556 114.313 31.1241 113.998 31.2322L111.518 32.0602L111.458 32.0842C111.339 32.1189 111.217 32.1456 111.094 32.1642C110.352 32.2694 109.598 32.1016 108.97 31.6922C107.258 30.6482 106.366 28.3402 106.97 26.5322C107.185 25.8448 107.662 25.2699 108.298 24.9322C108.396 24.8804 108.498 24.835 108.602 24.7962V24.7962L108.722 24.7562L111.154 23.9562C111.575 23.8268 112.02 23.7917 112.456 23.8532C112.892 23.9147 113.309 24.0714 113.678 24.3122V24.3122Z" fill="#4070FF"/>
<path opacity="0.15" d="M113.678 24.3122C115.394 25.3562 116.282 27.6642 115.678 29.4722C115.52 29.959 115.236 30.3952 114.854 30.7362C114.604 30.9556 114.313 31.1241 113.998 31.2322L111.518 32.0602L111.458 32.0842C111.339 32.1189 111.217 32.1456 111.094 32.1642C110.352 32.2694 109.598 32.1016 108.97 31.6922C107.258 30.6482 106.366 28.3402 106.97 26.5322C107.185 25.8448 107.662 25.2699 108.298 24.9322C108.396 24.8804 108.498 24.835 108.602 24.7962V24.7962L108.722 24.7562L111.154 23.9562C111.575 23.8268 112.02 23.7917 112.456 23.8532C112.892 23.9147 113.309 24.0714 113.678 24.3122V24.3122Z" fill="white"/>
<path d="M110.249 23.9558C109.824 24.1016 109.439 24.3462 109.127 24.6696C108.815 24.9929 108.584 25.3858 108.453 25.8158C107.801 27.7278 108.741 30.1718 110.553 31.2758C110.935 31.5246 111.365 31.689 111.816 31.758C112.266 31.827 112.726 31.799 113.165 31.6758C113.433 31.5918 115.145 30.9918 115.393 30.9078C115.819 30.7658 116.204 30.5245 116.518 30.2038C116.832 29.8831 117.064 29.4924 117.197 29.0638C117.849 27.1518 116.909 24.7078 115.097 23.6038C114.714 23.351 114.281 23.1843 113.827 23.1152C113.373 23.0462 112.91 23.0764 112.469 23.2038C112.201 23.2798 110.497 23.8758 110.249 23.9558Z" fill="#4070FF"/>
<path opacity="0.25" d="M110.249 23.9558C109.824 24.1016 109.439 24.3462 109.127 24.6696C108.815 24.9929 108.584 25.3858 108.453 25.8158C107.801 27.7278 108.741 30.1718 110.553 31.2758C110.935 31.5246 111.365 31.689 111.816 31.758C112.266 31.827 112.726 31.799 113.165 31.6758C113.433 31.5918 115.145 30.9918 115.393 30.9078C115.819 30.7658 116.204 30.5245 116.518 30.2038C116.832 29.8831 117.064 29.4924 117.197 29.0638C117.849 27.1518 116.909 24.7078 115.097 23.6038C114.714 23.351 114.281 23.1843 113.827 23.1152C113.373 23.0462 112.91 23.0764 112.469 23.2038C112.201 23.2798 110.497 23.8758 110.249 23.9558Z" fill="white"/>
<path d="M112.733 30.524C114.545 31.628 116.541 30.976 117.189 29.064C117.837 27.152 116.901 24.708 115.089 23.604C113.277 22.5 111.285 23.152 110.633 25.064C109.981 26.976 110.921 29.42 112.733 30.524Z" fill="#4070FF"/>
<path opacity="0.2" d="M115.854 30.1519C115.01 30.8919 113.914 30.3599 113.482 30.0959C111.794 29.0679 110.882 26.6959 111.482 24.9159C111.607 24.5111 111.838 24.1467 112.15 23.8599C112.994 23.1239 114.09 23.6559 114.522 23.9199C116.206 24.9439 117.118 27.3159 116.522 29.0959C116.396 29.5007 116.166 29.8651 115.854 30.1519V30.1519Z" fill="black"/>
<path d="M113.478 24.2679C113.088 24.0218 112.645 23.8736 112.186 23.8359L112.158 23.8599C111.846 24.1468 111.615 24.5111 111.49 24.9159C110.882 26.6959 111.794 29.0679 113.49 30.0959C113.878 30.341 114.32 30.4892 114.778 30.5279L114.81 30.5039C115.12 30.2157 115.35 29.8518 115.478 29.4479C116.074 27.6679 115.162 25.2959 113.478 24.2679Z" fill="#4070FF"/>
<path opacity="0.6" d="M113.478 24.2679C113.088 24.0218 112.645 23.8736 112.186 23.8359L112.158 23.8599C111.846 24.1468 111.615 24.5111 111.49 24.9159C110.882 26.6959 111.794 29.0679 113.49 30.0959C113.878 30.341 114.32 30.4892 114.778 30.5279L114.81 30.5039C115.12 30.2157 115.35 29.8518 115.478 29.4479C116.074 27.6679 115.162 25.2959 113.478 24.2679Z" fill="white"/>
<path opacity="0.1" d="M111.464 24.9879C110.908 26.7599 111.816 29.0799 113.464 30.0959C113.793 30.0251 114.096 29.8675 114.343 29.6396C114.59 29.4116 114.772 29.1217 114.868 28.7999C115.057 28.1229 115.022 27.4031 114.769 26.7474C114.516 26.0917 114.059 25.535 113.464 25.1599C113.174 24.9627 112.837 24.8433 112.487 24.8132C112.137 24.7831 111.785 24.8433 111.464 24.9879V24.9879Z" fill="#4070FF"/>
<path opacity="0.2" d="M111.32 26.492C111.412 27.4193 111.759 28.303 112.324 29.044C112.483 29.1371 112.661 29.1926 112.844 29.2062C113.027 29.2198 113.211 29.1911 113.382 29.1223C113.552 29.0535 113.704 28.9464 113.827 28.8094C113.949 28.6724 114.039 28.509 114.088 28.332C114.208 27.899 114.186 27.439 114.026 27.0194C113.865 26.5997 113.574 26.2425 113.196 26C113.048 25.8869 112.875 25.8092 112.692 25.7727C112.508 25.7363 112.319 25.7419 112.139 25.7893C111.958 25.8367 111.79 25.9246 111.648 26.0464C111.507 26.1681 111.394 26.3205 111.32 26.492Z" fill="#4070FF"/>
<path opacity="0.6" d="M111.845 25.9559C111.677 24.9839 112.289 24.2519 112.677 24.2719C113.065 24.2919 115.597 25.8159 115.197 28.8279C115.197 28.8279 115.129 26.9119 113.977 25.6599C112.889 24.4759 111.905 25.0119 111.845 25.9559Z" fill="white"/>
<path opacity="0.1" d="M104.875 32.6601L107.963 31.6321L108.363 31.2641L109.875 30.7601L110.079 30.9401L112.283 30.2041C112.429 30.3228 112.582 30.431 112.743 30.5281L112.915 30.6281C113.365 30.8816 113.867 31.0294 114.383 31.0601C114.688 31.0776 114.993 31.0451 115.287 30.9641H115.263C114.783 31.1281 113.411 31.6081 113.175 31.6841C112.88 31.7735 112.571 31.8127 112.263 31.8001L112.087 31.8601C111.746 32.1628 111.333 32.3723 110.887 32.4681H110.923H111.011H111.083L108.111 33.4441H108.087H108.043H108.019C107.921 33.4747 107.82 33.4987 107.719 33.5161L107.539 33.5441C107.479 33.5441 107.235 33.5681 107.171 33.5441C106.915 33.5279 106.659 33.4958 106.407 33.4481C106.143 33.3807 105.888 33.2827 105.647 33.1561C105.561 33.1141 105.476 33.0673 105.395 33.0161C105.214 32.9095 105.04 32.7906 104.875 32.6601V32.6601Z" fill="black"/>
<path d="M59.7725 75.6358C60.0085 73.9078 61.2125 73.6358 60.6285 69.5358C60.3365 67.4958 59.3125 62.2198 59.3125 62.2198C59.3125 62.2198 62.8205 59.5158 61.7125 51.6278L65.4845 50.1078L67.5405 49.3838L73.2925 49.6238L76.2445 50.4238C77.2565 51.2958 79.1085 52.6678 80.6005 54.7718C82.7525 57.8118 83.1405 61.1718 80.9405 63.6558C80.9165 64.1438 81.0045 71.6558 81.5725 73.4918C81.7965 74.2198 82.1045 75.2078 81.6285 76.1838C79.4965 79.6678 66.9445 83.1998 59.7725 75.6358Z" fill="#FAFAFA"/>
<path d="M73.2773 49.624L76.2213 50.064C79.0493 52.2 82.4173 56.064 82.6213 59.028C82.7407 60.7855 82.2767 62.5332 81.3013 64C81.3013 64 81.2613 70.036 81.9493 73.22C82.6373 76.404 83.4053 84.94 83.4053 84.94C83.4053 84.94 83.4653 85.472 81.1013 86.14C80.3733 82.052 78.5813 67.052 78.6813 63.452C78.7813 59.852 78.8293 54.16 73.2773 49.624Z" fill="#4070FF"/>
<path opacity="0.3" d="M73.2773 49.624L76.2213 50.064C79.0493 52.2 82.4173 56.064 82.6213 59.028C82.7407 60.7855 82.2767 62.5332 81.3013 64C81.3013 64 81.2613 70.036 81.9493 73.22C82.6373 76.404 83.4053 84.94 83.4053 84.94C83.4053 84.94 83.4653 85.472 81.1013 86.14C80.3733 82.052 78.5813 67.052 78.6813 63.452C78.7813 59.852 78.8293 54.16 73.2773 49.624Z" fill="black"/>
<path opacity="0.2" d="M79.1096 65.1241C79.3416 64.1681 79.5976 63.2201 79.8576 62.2721C80.1176 61.3241 80.3656 60.3721 80.6016 59.4241C80.7227 58.9544 80.8135 58.4774 80.8736 57.9961C80.9456 57.5441 80.6256 57.1681 80.3056 56.7961C79.62 56.1086 78.8623 55.4971 78.0456 54.9721L77.9696 54.9241V54.8361C78.0575 54.3184 78.0575 53.7897 77.9696 53.2721C77.888 52.752 77.7044 52.2531 77.4296 51.8041C77.1277 51.3662 76.7529 50.9833 76.3216 50.6721C75.8897 50.3553 75.4242 50.087 74.9336 49.8721C75.4497 50.0535 75.9414 50.298 76.3976 50.6001C76.8648 50.8941 77.272 51.2742 77.5976 51.7201C77.9045 52.1821 78.1179 52.6999 78.2256 53.2441C78.3362 53.791 78.3471 54.3533 78.2576 54.9041L78.1976 54.7641C79.0447 55.2898 79.8285 55.9112 80.5336 56.6161C80.7107 56.8025 80.8652 57.0093 80.9936 57.2321C81.0293 57.2888 81.0588 57.3491 81.0816 57.4121C81.1123 57.4751 81.1325 57.5426 81.1416 57.6121C81.1624 57.7446 81.1624 57.8796 81.1416 58.0121C81.0755 58.5058 80.978 58.9948 80.8496 59.4761C80.6096 60.4321 80.3056 61.3721 80.0176 62.3121C79.7296 63.2521 79.4136 64.1881 79.1096 65.1241Z" fill="black"/>
<path d="M65.4691 50.1079C65.4691 50.1079 66.7091 51.7079 68.3491 55.4479C69.9891 59.1879 71.5691 62.6039 71.5491 66.0759C71.5291 69.5479 70.3971 87.4959 70.3971 87.4959C70.3971 87.4959 65.4211 88.2479 60.9131 86.4319L61.2811 79.4799L59.5731 86.1039C59.5731 86.1039 57.4171 85.3319 56.6211 84.6119C57.7971 77.3839 60.4251 73.9519 60.5571 71.2839C60.6451 69.4519 59.0891 64.3719 58.7931 59.7919C58.6699 57.1131 58.8538 54.4289 59.3411 51.7919L65.4691 50.1079Z" fill="#4070FF"/>
<path opacity="0.3" d="M65.4691 50.1079C65.4691 50.1079 66.7091 51.7079 68.3491 55.4479C69.9891 59.1879 71.5691 62.6039 71.5491 66.0759C71.5291 69.5479 70.3971 87.4959 70.3971 87.4959C70.3971 87.4959 65.4211 88.2479 60.9131 86.4319L61.2811 79.4799L59.5731 86.1039C59.5731 86.1039 57.4171 85.3319 56.6211 84.6119C57.7971 77.3839 60.4251 73.9519 60.5571 71.2839C60.6451 69.4519 59.0891 64.3719 58.7931 59.7919C58.6699 57.1131 58.8538 54.4289 59.3411 51.7919L65.4691 50.1079Z" fill="black"/>
<path opacity="0.2" d="M70.8854 67.1082C70.572 66.2349 70.1091 65.4228 69.5174 64.7082C68.9574 63.9682 68.3454 63.2722 67.7214 62.5882C67.4094 62.2442 67.0934 61.9042 66.7774 61.5682L66.2974 61.0602C66.2174 60.9682 66.1374 60.8922 66.0574 60.7882C66.0332 60.7639 66.0117 60.7371 65.9934 60.7082C65.9695 60.6661 65.9494 60.6219 65.9334 60.5762C65.9159 60.5001 65.9079 60.4222 65.9094 60.3442C65.9878 59.8579 66.1516 59.3893 66.3934 58.9602C66.6134 58.5602 66.8534 58.1362 67.1094 57.7362L67.1334 57.9682L65.7094 56.5322L65.0014 55.8082L64.8254 55.6242L64.7374 55.5322C64.691 55.4899 64.6506 55.4414 64.6174 55.3882C64.5838 55.285 64.5716 55.1762 64.5814 55.0682C64.5814 54.9802 64.5814 54.8922 64.6094 54.8042C64.7267 54.1276 64.8884 53.4595 65.0934 52.8042C65.2934 52.1522 65.4934 51.5082 65.7294 50.8682C65.5694 51.5282 65.4014 52.1842 65.2534 52.8442C65.1054 53.5042 64.9494 54.1682 64.8774 54.8242C64.8545 54.9646 64.8545 55.1078 64.8774 55.2482C64.8534 55.2162 64.8774 55.2682 64.9254 55.2922L65.0174 55.3802L65.2014 55.5562L65.9334 56.2682L67.3934 57.6962L67.4974 57.7962L67.4174 57.9282C67.1734 58.3282 66.9454 58.7282 66.7374 59.1282C66.5196 59.5104 66.3643 59.9249 66.2774 60.3562C66.275 60.3921 66.275 60.4282 66.2774 60.4642C66.2805 60.4733 66.2805 60.4831 66.2774 60.4922C66.2774 60.4922 66.3054 60.5322 66.3214 60.5522C66.3814 60.6322 66.4654 60.7202 66.5414 60.8042L67.0134 61.3202C67.3254 61.6642 67.6374 62.0082 67.9454 62.3602C68.5554 63.0696 69.1294 63.8092 69.6654 64.5762C69.9305 64.9606 70.171 65.3614 70.3854 65.7762C70.6146 66.1941 70.7829 66.6426 70.8854 67.1082V67.1082Z" fill="black"/>
<path d="M65.3411 45.0759C64.9541 45.1745 64.5484 45.1738 64.1617 45.0738C63.7751 44.9738 63.4199 44.7778 63.1291 44.5039C61.8731 43.3999 61.6251 42.1599 62.0531 41.2639C62.4051 40.5319 63.4131 39.9719 64.2051 40.3559C64.9971 40.7399 65.1211 41.1559 65.4851 41.6879C65.8491 42.2199 66.5651 41.6879 66.0531 39.4679C67.5091 38.5719 66.9731 36.0239 67.6851 34.8799C68.8011 33.0879 70.9931 33.2799 71.7331 33.5839C72.1205 33.2377 72.5965 33.0061 73.1079 32.915C73.6194 32.8239 74.1461 32.8768 74.6291 33.0679C75.7251 33.5039 76.5411 34.5919 77.3571 38.5519C78.1891 42.5879 77.7891 45.3879 76.9571 46.3599C76.3771 47.0279 74.9091 47.6439 73.4651 47.7239L73.2931 49.9439C73.2931 49.9439 78.0651 53.6839 72.7371 53.8879C68.7371 54.0399 65.8411 49.9799 65.8411 49.9799L66.1571 44.3359C66.1571 44.3359 66.1171 44.8359 65.3411 45.0759Z" fill="#FFA8A7"/>
<path d="M70.5338 37.644L69.0978 38.4C68.9993 38.203 68.9809 37.9754 69.0465 37.7651C69.1121 37.5548 69.2567 37.378 69.4498 37.272C69.5452 37.2238 69.6492 37.1952 69.7557 37.1879C69.8623 37.1806 69.9693 37.1947 70.0703 37.2294C70.1713 37.264 70.2644 37.3186 70.344 37.3898C70.4236 37.461 70.4881 37.5475 70.5338 37.644Z" fill="#263238"/>
<path d="M76.2685 36.4759L74.6445 36.2319C74.6568 36.1261 74.6902 36.0239 74.7425 35.9312C74.7948 35.8384 74.8652 35.7571 74.9494 35.6919C75.0336 35.6267 75.1299 35.579 75.2328 35.5515C75.3357 35.524 75.443 35.5174 75.5485 35.5319C75.766 35.5684 75.9614 35.6862 76.0952 35.8616C76.2289 36.0369 76.2909 36.2566 76.2685 36.4759Z" fill="#263238"/>
<path d="M71.2498 43.0918L73.5538 43.4398C73.5392 43.5914 73.4939 43.7385 73.4205 43.872C73.3471 44.0055 73.2473 44.1227 73.1271 44.2163C73.0069 44.3099 72.8689 44.378 72.7215 44.4164C72.5741 44.4548 72.4204 44.4628 72.2698 44.4398C71.9595 44.3885 71.6807 44.22 71.4909 43.9692C71.3012 43.7184 71.2148 43.4044 71.2498 43.0918V43.0918Z" fill="#B16668"/>
<path d="M72.7132 44.3999C72.6429 44.1381 72.486 43.9079 72.2681 43.7466C72.0502 43.5854 71.7842 43.5027 71.5132 43.5119C71.4351 43.5131 71.3574 43.5225 71.2812 43.5399C71.3434 43.7661 71.4691 43.9696 71.6435 44.1263C71.818 44.283 72.0338 44.3863 72.2652 44.4239C72.4146 44.4468 72.5671 44.4386 72.7132 44.3999V44.3999Z" fill="#F28F8F"/>
<path d="M76.1606 38.2482C76.2222 38.3642 76.248 38.496 76.2348 38.6267C76.2215 38.7575 76.1697 38.8813 76.086 38.9826C76.0022 39.0839 75.8903 39.1581 75.7644 39.1957C75.6385 39.2334 75.5043 39.2329 75.3787 39.1942C75.2531 39.1555 75.1418 39.0804 75.0589 38.9784C74.976 38.8764 74.9252 38.7522 74.913 38.6213C74.9008 38.4905 74.9277 38.3589 74.9903 38.2434C75.0529 38.1278 75.1483 38.0334 75.2646 37.9722C75.4203 37.8913 75.6015 37.8749 75.7691 37.9266C75.9368 37.9782 76.0774 38.0937 76.1606 38.2482V38.2482Z" fill="#263238"/>
<path d="M71.4676 39.4122C71.5196 39.5442 71.0676 39.2842 70.6316 39.3482C70.0556 39.4282 69.7196 39.9922 69.7756 39.6282C69.7973 39.4316 69.8911 39.25 70.0389 39.1186C70.1866 38.9871 70.3778 38.915 70.5756 38.9162C70.7592 38.8761 70.951 38.9044 71.1152 38.9957C71.2795 39.087 71.4047 39.2351 71.4676 39.4122V39.4122Z" fill="#263238"/>
<path d="M72.7969 37.7441L73.6289 42.0001L75.9089 41.0441C75.1369 39.4401 73.8009 38.4441 72.7969 37.7441Z" fill="#F28F8F"/>
<path d="M73.4535 47.724C71.3775 47.876 68.8335 47.372 67.9375 46.124C68.5135 47.516 70.0535 48.096 71.2535 48.292C71.9595 48.4295 72.6786 48.4872 73.3975 48.464L73.4535 47.724Z" fill="#F28F8F"/>
<path d="M56.0998 86.2962C55.6238 85.8002 55.0198 85.3682 54.8118 84.6962C54.7535 84.5216 54.7361 84.3359 54.7611 84.1534C54.7861 83.971 54.8527 83.7968 54.9558 83.6442C55.0101 83.5897 55.0524 83.5242 55.0798 83.4522C55.0917 83.3901 55.0917 83.3263 55.0798 83.2642C55.0113 83.0067 55.0239 82.7344 55.1158 82.4842C55.1622 82.382 55.2297 82.2907 55.3138 82.2163C55.3979 82.1419 55.4967 82.086 55.6038 82.0522C55.4733 81.6629 55.4733 81.2416 55.6038 80.8522C55.7478 80.4042 56.2038 80.0522 56.5158 80.5322C56.664 80.7766 56.7873 81.0352 56.8838 81.3042C57.1281 81.9759 57.2919 82.6741 57.3718 83.3842C57.4638 84.1202 57.6838 86.2122 56.5398 86.3362C56.4198 86.3562 56.1678 86.3682 56.0998 86.2962Z" fill="#F28F8F"/>
<path d="M60.3998 52.1963C55.9998 53.1203 55.5999 54.5163 53.0398 58.1963C50.4798 61.8763 47.2998 66.8843 46.5158 68.6603C45.5478 70.8603 45.3478 71.7043 47.7158 73.9763C48.9438 75.1483 50.6518 76.5363 52.3918 78.1123C53.7678 79.3523 55.4158 80.6683 56.7478 81.9523C56.9254 82.0915 57.0601 82.2779 57.1365 82.4901C57.2129 82.7024 57.2279 82.9319 57.1798 83.1523C57.0936 83.4457 57.0229 83.7435 56.9678 84.0443C56.9763 84.4362 57.0164 84.8268 57.0878 85.2123C57.1195 85.407 57.0945 85.6067 57.0157 85.7875C56.937 85.9684 56.8079 86.1228 56.6438 86.2323C56.4683 86.3056 56.2766 86.3318 56.0878 86.3083C56.4191 86.5515 56.7862 86.7418 57.1758 86.8723C57.5699 87.0012 57.9978 86.9784 58.3758 86.8083C58.7278 86.6283 58.9918 86.2803 59.3718 86.1603C59.5758 86.0923 59.7998 86.1003 60.0038 86.0403C60.2176 85.9766 60.4063 85.848 60.5438 85.6723C60.7558 85.3923 60.8359 84.9963 61.1399 84.8203C61.2949 84.7555 61.4538 84.7007 61.6158 84.6563C61.7685 84.5788 61.9002 84.4656 61.9998 84.3263C62.0994 84.1871 62.1639 84.0258 62.1878 83.8563C62.2331 83.5163 62.2182 83.1711 62.1438 82.8363C61.9884 81.9296 61.7827 81.0322 61.5279 80.1483C61.4278 79.8487 61.2747 79.5696 61.0758 79.3243C60.8638 79.0323 60.6759 78.7283 60.4279 78.4483C58.8719 76.5483 53.9318 70.2083 53.9318 70.2083L59.3878 63.0563C60.5675 61.5277 61.2889 59.6955 61.4681 57.773C61.6472 55.8504 61.2768 53.9165 60.3998 52.1963V52.1963Z" fill="#FFA8A7"/>
<path d="M53.9452 70.1919C52.6332 71.5359 50.5532 71.6839 49.7852 71.6559C50.5596 71.9581 51.4039 72.0347 52.2202 71.8769C53.0364 71.719 53.7912 71.3331 54.3972 70.7639L53.9452 70.1919Z" fill="#F28F8F"/>
<path d="M51.168 77.0283L52.404 78.1043C53.5972 77.9227 54.6791 77.3004 55.436 76.3603C56.808 74.7123 56.704 73.5083 56.704 73.5083L55.268 71.8843L51.168 77.0283Z" fill="#F0F0F0"/>
<path d="M60.4463 51.4761C57.2903 52.1681 56.7023 52.5881 54.4463 55.7481C52.1903 58.9081 48.3823 64.9481 47.3903 66.4881C46.3983 68.0281 44.9223 70.7361 45.7903 72.0881C46.6583 73.4401 51.3343 77.3921 51.3343 77.3921C51.3343 77.3921 52.9343 77.3161 54.4743 75.7241C56.0743 74.0681 55.9543 72.3721 55.9543 72.3721L54.2143 70.1921C54.2143 70.1921 59.0823 63.9201 59.9623 62.7601C60.8423 61.6001 62.7983 57.6841 60.4463 51.4761Z" fill="#4070FF"/>
<path opacity="0.15" d="M54.2024 70.1882C53.5704 69.4762 52.0304 68.3202 50.8984 68.1242C52.0984 67.9162 53.8464 68.7642 54.6784 69.5402L54.2024 70.1882Z" fill="black"/>
</svg>
