<svg width="195" height="36" viewBox="0 0 195 36" fill="none" xmlns="http://www.w3.org/2000/svg">
<path d="M52.248 9.32H46.8V26H52.248C57.6 26 61.104 22.856 61.104 17.72C61.104 12.56 57.6 9.32 52.248 9.32ZM49.536 23.768V11.552H52.248C56.184 11.552 58.296 13.904 58.296 17.72C58.296 21.512 56.184 23.768 52.248 23.768H49.536ZM62.9036 19.328C62.9036 23.408 65.6636 26.216 69.0956 26.216C71.3036 26.216 72.8876 25.16 73.7276 24.032V26H76.4876V12.776H73.7276V14.696C72.9116 13.616 71.3756 12.56 69.1436 12.56C65.6636 12.56 62.9036 15.248 62.9036 19.328ZM73.7276 19.376C73.7276 22.232 71.7836 23.84 69.7196 23.84C67.6796 23.84 65.7116 22.184 65.7116 19.328C65.7116 16.472 67.6796 14.936 69.7196 14.936C71.7836 14.936 73.7276 16.544 73.7276 19.376ZM80.0813 26H82.8173V20.312L87.7133 26H91.4093L85.3133 19.4L91.4093 12.776H87.6173L82.8173 18.56V8.24H80.0813V26ZM103.234 22.304C103.09 17.528 95.6263 19.016 95.6263 16.352C95.6263 15.464 96.3943 14.864 97.8583 14.864C99.3463 14.864 100.234 15.656 100.33 16.808H103.066C102.922 14.168 100.954 12.56 97.9543 12.56C94.8343 12.56 92.8663 14.264 92.8663 16.376C92.8663 21.224 100.546 19.736 100.546 22.328C100.546 23.24 99.7063 23.912 98.1223 23.912C96.6103 23.912 95.5783 23.024 95.4823 21.944H92.6503C92.7703 24.344 95.0023 26.216 98.1703 26.216C101.29 26.216 103.234 24.536 103.234 22.304ZM111.399 22.856L107.679 12.776H104.631L109.839 25.784L107.151 32.216H109.983L118.095 12.776H115.263L111.399 22.856ZM130.023 22.304C129.879 17.528 122.415 19.016 122.415 16.352C122.415 15.464 123.183 14.864 124.647 14.864C126.135 14.864 127.023 15.656 127.119 16.808H129.855C129.711 14.168 127.743 12.56 124.743 12.56C121.623 12.56 119.655 14.264 119.655 16.376C119.655 21.224 127.335 19.736 127.335 22.328C127.335 23.24 126.495 23.912 124.911 23.912C123.399 23.912 122.367 23.024 122.271 21.944H119.439C119.559 24.344 121.791 26.216 124.959 26.216C128.079 26.216 130.023 24.536 130.023 22.304ZM133.412 22.328C133.412 25.016 134.876 26 137.228 26H139.388V23.72H137.708C136.556 23.72 136.172 23.312 136.172 22.328V15.008H139.388V12.776H136.172V9.488H133.412V12.776H131.852V15.008H133.412V22.328ZM147.477 14.864C149.517 14.864 151.125 16.16 151.173 18.2H143.853C144.141 16.112 145.629 14.864 147.477 14.864ZM153.669 22.064H150.717C150.213 23.096 149.277 23.912 147.597 23.912C145.581 23.912 144.021 22.592 143.829 20.408H153.933C154.005 19.952 154.029 19.52 154.029 19.064C154.029 15.176 151.365 12.56 147.597 12.56C143.685 12.56 140.997 15.224 140.997 19.376C140.997 23.528 143.805 26.216 147.597 26.216C150.837 26.216 152.925 24.368 153.669 22.064ZM162.29 14.864C164.33 14.864 165.938 16.16 165.986 18.2H158.666C158.954 16.112 160.442 14.864 162.29 14.864ZM168.482 22.064H165.53C165.026 23.096 164.09 23.912 162.41 23.912C160.394 23.912 158.834 22.592 158.642 20.408H168.746C168.818 19.952 168.842 19.52 168.842 19.064C168.842 15.176 166.178 12.56 162.41 12.56C158.498 12.56 155.81 15.224 155.81 19.376C155.81 23.528 158.618 26.216 162.41 26.216C165.65 26.216 167.738 24.368 168.482 22.064ZM190.278 26H192.99V18.2C192.99 14.504 190.638 12.56 187.542 12.56C185.622 12.56 183.75 13.568 182.934 15.176C182.022 13.448 180.27 12.56 178.182 12.56C176.598 12.56 175.158 13.208 174.27 14.288V12.776H171.534V26H174.27V18.608C174.27 16.184 175.59 14.936 177.606 14.936C179.598 14.936 180.918 16.184 180.918 18.608V26H183.63V18.608C183.63 16.184 184.95 14.936 186.966 14.936C188.958 14.936 190.278 16.184 190.278 18.608V26Z" fill="white"/>
<circle cx="17.5" cy="18.5" r="17.5" fill="white"/>
<path d="M16.573 11.342H11.449V26H16.573C21.256 26 24.301 23.123 24.301 18.692C24.301 14.24 21.256 11.342 16.573 11.342ZM14.389 23.501V13.82H16.468C19.555 13.82 21.298 15.647 21.298 18.692C21.298 21.737 19.555 23.501 16.468 23.501H14.389Z" fill="#4070FF"/>
</svg>
