<svg width="18" height="18" viewBox="0 0 18 18" fill="none" xmlns="http://www.w3.org/2000/svg">
<path d="M16.7739 11.9704C15.8595 11.2356 15.0208 10.8784 14.2097 10.8784C13.0364 10.8784 12.1916 11.6248 11.4267 12.3894C11.3387 12.4774 11.2322 12.5185 11.0916 12.5185C10.4471 12.5185 9.3132 11.7114 7.7215 10.1195C5.84896 8.24684 5.14097 7.05577 5.61704 6.57952C6.90758 5.28941 7.31047 3.99611 5.33456 1.53875C4.6272 0.658354 3.93513 0.230469 3.21881 0.230469C2.25278 0.230469 1.51842 1.00267 0.870516 1.68403C0.758502 1.8018 0.65269 1.91307 0.548945 2.01681C-0.183347 2.74904 -0.182971 4.34619 0.55001 6.2894C1.35422 8.4215 2.9421 10.7408 5.02119 12.8203C6.62905 14.428 8.37849 15.7273 10.0805 16.5997C11.5665 17.3614 13.0078 17.7694 14.139 17.7694C14.1392 17.7694 14.1393 17.7694 14.1395 17.7694C14.8474 17.7694 15.4224 17.615 15.8022 17.301C16.5737 16.6631 18.0095 15.4817 18 14.0784C17.9947 13.3258 17.5823 12.6204 16.7739 11.9704Z" fill="white"/>
</svg>
