<svg width="21" height="20" viewBox="0 0 21 20" fill="none" xmlns="http://www.w3.org/2000/svg">
<path d="M0.00390625 10.002C0.00506979 14.9214 3.58231 19.1101 8.44091 19.881V12.892H5.90391V10.002H8.44391V7.80204C8.33036 6.75958 8.68643 5.72064 9.41555 4.96698C10.1447 4.21332 11.1713 3.82306 12.2169 3.90204C12.9674 3.91417 13.7161 3.98101 14.4569 4.10205V6.56104H13.1929C12.7578 6.50405 12.3203 6.64777 12.0037 6.95171C11.6871 7.25566 11.5257 7.68693 11.5649 8.12404V10.002H14.3359L13.8929 12.893H11.5649V19.881C16.8194 19.0506 20.504 14.2518 19.9494 8.96112C19.3948 3.67041 14.7952 -0.260027 9.48273 0.0172227C4.17027 0.294472 0.00475073 4.68235 0.00390625 10.002Z" fill="white"/>
</svg>
