<svg width="200" height="200" viewBox="0 0 200 200" fill="none" xmlns="http://www.w3.org/2000/svg">
<path d="M99.9798 191.78C145.987 191.78 183.284 169.658 183.284 142.368C183.284 115.079 145.987 92.9561 99.9798 92.9561C53.9723 92.9561 16.6758 115.079 16.6758 142.368C16.6758 169.658 53.9723 191.78 99.9798 191.78Z" fill="#F0F0F0"/>
<path d="M51.3332 168.54C65.0763 168.54 76.2172 162.107 76.2172 154.172C76.2172 146.236 65.0763 139.804 51.3332 139.804C37.5902 139.804 26.4492 146.236 26.4492 154.172C26.4492 162.107 37.5902 168.54 51.3332 168.54Z" fill="#E0E0E0"/>
<path d="M132.531 176.664C131.617 176.675 130.716 176.45 129.915 176.012L63.1786 137.48C62.6852 137.243 62.2688 136.872 61.9773 136.408C61.6859 135.945 61.5312 135.409 61.5312 134.862C61.5312 134.315 61.6859 133.778 61.9773 133.315C62.2688 132.852 62.6852 132.481 63.1786 132.244L103.447 108.996C104.252 108.565 105.151 108.34 106.065 108.34C106.978 108.34 107.877 108.565 108.683 108.996L175.419 147.524C176.467 148.128 177.783 148.704 177.783 150.144C177.783 151.584 176.467 152.144 175.419 152.76L135.151 176C134.349 176.443 133.446 176.671 132.531 176.664Z" fill="#E0E0E0"/>
<path d="M165.795 133.952L160.863 131.108C160.863 131.108 159.263 123.412 160.343 115.692C162.155 102.536 169.299 100.568 172.027 101.5C174.755 102.432 175.559 105.6 171.063 112.104C168.399 115.94 165.167 123.928 165.795 133.952Z" fill="#37474F"/>
<path d="M162.694 129.652H162.726C162.79 129.642 162.847 129.608 162.886 129.556C162.925 129.505 162.942 129.44 162.934 129.376C161.498 119.248 165.534 108.132 170.098 103.64C170.12 103.618 170.138 103.591 170.15 103.562C170.162 103.533 170.169 103.501 170.169 103.47C170.169 103.438 170.162 103.407 170.15 103.378C170.138 103.349 170.12 103.322 170.098 103.3C170.076 103.277 170.05 103.259 170.02 103.246C169.991 103.234 169.96 103.228 169.928 103.228C169.896 103.228 169.865 103.234 169.836 103.246C169.806 103.259 169.78 103.277 169.758 103.3C165.11 107.872 160.994 119.172 162.45 129.448C162.459 129.506 162.488 129.558 162.533 129.596C162.578 129.634 162.635 129.653 162.694 129.652Z" fill="white"/>
<path d="M174.937 139.2C175.489 139.476 176.937 138.22 177.337 137.916C178.036 137.385 178.588 136.682 178.937 135.876C179.323 134.962 179.417 133.95 179.205 132.98C179.092 132.467 178.944 131.964 178.761 131.472L178.269 130C178.069 129.532 177.968 129.028 177.973 128.52C178.045 127.496 178.909 126.74 179.693 126.084C180.561 125.356 181.457 124.412 181.385 123.192C181.272 122.25 180.85 121.372 180.185 120.696C179.565 119.988 178.837 119.372 178.265 118.62C177.822 118.097 177.57 117.44 177.549 116.756C177.584 116.336 177.704 115.928 177.901 115.556C178.301 114.756 178.817 113.98 179.069 113.112C179.321 112.244 179.221 111.18 178.525 110.604C177.949 110.132 177.133 110.108 176.397 110.204C175.706 110.328 175.051 110.601 174.477 111.004C172.601 112.184 171.617 114.54 169.605 115.476C168.829 115.84 167.965 115.956 167.149 116.22C166.333 116.484 165.513 116.948 165.169 117.736C164.421 119.46 166.189 121.104 164.937 122.78C164.537 123.3 164.045 123.72 163.633 124.216C162.469 125.624 161.953 127.1 162.281 129.384C162.393 130.207 162.684 130.995 163.132 131.694C163.581 132.393 164.176 132.986 164.877 133.432C164.877 133.432 174.853 139.152 174.937 139.2Z" fill="#455A64"/>
<path d="M169.6 136.432C169.664 136.426 169.723 136.395 169.764 136.345C169.805 136.296 169.825 136.232 169.82 136.168C168.908 126.612 172.856 115.796 175.976 112.548C176.001 112.525 176.021 112.498 176.034 112.467C176.048 112.437 176.056 112.404 176.056 112.37C176.057 112.336 176.05 112.303 176.037 112.272C176.024 112.241 176.005 112.213 175.981 112.19C175.956 112.167 175.928 112.149 175.896 112.137C175.864 112.126 175.831 112.121 175.797 112.123C175.764 112.125 175.731 112.134 175.701 112.149C175.671 112.165 175.645 112.186 175.624 112.212C172.444 115.524 168.424 126.52 169.34 136.212C169.342 136.243 169.351 136.274 169.365 136.302C169.38 136.33 169.4 136.355 169.424 136.376C169.448 136.396 169.476 136.412 169.506 136.421C169.536 136.431 169.568 136.435 169.6 136.432Z" fill="white"/>
<path d="M170.509 124.64H170.581C172.817 123.894 175.128 123.393 177.473 123.148C177.536 123.141 177.594 123.109 177.635 123.06C177.675 123.011 177.695 122.947 177.689 122.884C177.687 122.852 177.679 122.821 177.664 122.793C177.65 122.764 177.63 122.739 177.606 122.718C177.582 122.698 177.553 122.682 177.523 122.673C177.493 122.664 177.461 122.661 177.429 122.664C175.042 122.915 172.69 123.425 170.413 124.184C170.353 124.207 170.305 124.253 170.279 124.311C170.253 124.37 170.251 124.436 170.273 124.496C170.292 124.542 170.325 124.58 170.368 124.606C170.41 124.632 170.46 124.644 170.509 124.64Z" fill="white"/>
<path d="M38.4397 147.336L41.5637 146.212C41.9246 142.459 41.8534 138.677 41.3517 134.94C40.0837 126.548 33.9997 119.408 28.7997 118.4C22.0957 117.112 23.1197 123.34 26.8917 126.12C32.9077 130.556 37.5157 137.2 38.4397 147.336Z" fill="#4070FF"/>
<g opacity="0.2">
<path d="M38.4397 147.336L41.5637 146.212C41.9246 142.459 41.8534 138.677 41.3517 134.94C40.0837 126.548 33.9997 119.408 28.7997 118.4C22.0957 117.112 23.1197 123.34 26.8917 126.12C32.9077 130.556 37.5157 137.2 38.4397 147.336Z" fill="black"/>
</g>
<path d="M39.9735 146.948H39.9375C39.8903 146.938 39.8456 146.919 39.8059 146.891C39.7662 146.864 39.7324 146.829 39.7063 146.788C39.6803 146.748 39.6626 146.702 39.6542 146.655C39.6458 146.607 39.6469 146.559 39.6575 146.512C41.3335 138.832 35.3775 124.34 26.9935 120.04C26.9065 119.995 26.8408 119.918 26.8108 119.825C26.7808 119.732 26.7889 119.631 26.8335 119.544C26.878 119.457 26.9553 119.391 27.0484 119.361C27.1414 119.331 27.2425 119.339 27.3295 119.384C35.9695 123.816 42.1015 138.756 40.3735 146.668C40.3526 146.755 40.3003 146.832 40.2266 146.884C40.1529 146.935 40.0629 146.958 39.9735 146.948Z" fill="white"/>
<path d="M40.4371 146.616C40.5891 145.708 40.6811 144.372 40.7091 144.044C40.8131 142.884 40.677 141.716 40.3091 140.612C39.8228 139.151 38.8499 137.901 37.5531 137.072C36.8491 136.636 36.0211 136.312 35.5531 135.616C35.1531 135.016 35.1531 134.264 35.0851 133.556C34.9771 132.396 34.6491 131.156 33.7451 130.436C32.8411 129.716 31.5891 129.636 30.4371 129.74C28.7771 129.868 27.2371 130.048 25.6971 129.248C24.4806 128.56 23.2221 127.95 21.9291 127.42C20.2931 126.804 16.6091 125.888 15.7651 128.188C15.6682 128.506 15.6434 128.842 15.6925 129.172C15.7416 129.501 15.8634 129.815 16.0491 130.092C16.4235 130.641 16.8794 131.131 17.4011 131.544L19.9251 133.772C20.2273 134.006 20.4859 134.292 20.6891 134.616C21.1691 135.488 20.7811 136.568 20.8651 137.56C20.9232 138.065 21.0907 138.552 21.356 138.987C21.6212 139.421 21.9778 139.793 22.4011 140.076C23.2505 140.639 24.2594 140.913 25.2771 140.856C26.6291 140.804 28.8771 139.828 29.6451 141.448C29.8611 141.996 29.9802 142.578 29.9971 143.168C30.015 143.76 30.1918 144.336 30.5091 144.836C31.0291 145.524 31.9571 145.744 32.8131 145.856C34.0131 146.016 35.2451 146.06 36.3571 146.532C36.8131 146.724 37.0891 147.332 37.3491 147.732C38.1931 147.436 39.1291 147.124 40.4371 146.616Z" fill="#4070FF"/>
<path d="M38.9599 147.464C38.8972 147.458 38.8374 147.434 38.7872 147.396C38.7371 147.358 38.6985 147.306 38.6759 147.248C35.6199 139.172 28.3519 132.716 18.2119 129.068C18.1297 129.036 18.0632 128.974 18.0266 128.894C17.99 128.814 17.9862 128.723 18.016 128.64C18.0459 128.557 18.107 128.489 18.1862 128.451C18.2655 128.413 18.3565 128.408 18.4399 128.436C28.7679 132.152 36.1759 138.748 39.3039 147.012C39.3339 147.095 39.3303 147.187 39.2936 147.268C39.257 147.348 39.1904 147.411 39.1079 147.444C39.0602 147.46 39.01 147.466 38.9599 147.464Z" fill="white"/>
<path d="M131.634 172.756L64.8983 134.224C64.4149 133.909 64.0126 133.485 63.7242 132.985C63.4357 132.485 63.2693 131.924 63.2383 131.348V122.6C63.2693 122.024 63.4357 121.463 63.7242 120.964C64.0126 120.464 64.4149 120.039 64.8983 119.724L105.166 96.4762C105.68 96.2139 106.249 96.0771 106.826 96.0771C107.403 96.0771 107.972 96.2139 108.486 96.4762L175.222 135.004C175.706 135.319 176.108 135.744 176.396 136.244C176.685 136.743 176.851 137.304 176.882 137.88V146.628C176.851 147.204 176.685 147.765 176.396 148.265C176.108 148.765 175.706 149.189 175.222 149.504L134.954 172.756C134.44 173.017 133.871 173.152 133.294 173.152C132.718 173.152 132.149 173.017 131.634 172.756Z" fill="#4070FF"/>
<path opacity="0.2" d="M176.881 137.88V146.632C176.85 147.208 176.683 147.768 176.395 148.267C176.106 148.766 175.704 149.19 175.221 149.504L134.953 172.752C134.443 173.026 133.871 173.163 133.293 173.152V160.568C133.871 160.578 134.443 160.44 134.953 160.168L175.221 136.92C176.081 136.424 176.137 135.644 175.389 135.112C175.826 135.435 176.186 135.851 176.444 136.33C176.702 136.808 176.851 137.338 176.881 137.88Z" fill="black"/>
<path opacity="0.1" d="M133.294 160.568V173.152C132.716 173.164 132.144 173.026 131.634 172.752L64.8983 134.224C64.4147 133.91 64.0123 133.486 63.7238 132.987C63.4353 132.488 63.2689 131.928 63.2383 131.352V122.596C63.2693 122.054 63.419 121.526 63.6768 121.048C63.9346 120.57 64.2943 120.155 64.7303 119.832C63.9863 120.364 64.0463 121.144 64.8983 121.64L131.638 160.172C132.148 160.442 132.718 160.578 133.294 160.568Z" fill="black"/>
<path d="M175.222 136.92L134.954 160.172C134.439 160.433 133.871 160.568 133.294 160.568C132.717 160.568 132.149 160.433 131.634 160.172L64.8979 121.64C63.9819 121.112 63.9819 120.252 64.8979 119.724L105.166 96.4762C105.68 96.2139 106.249 96.0771 106.826 96.0771C107.403 96.0771 107.972 96.2139 108.486 96.4762L175.222 135.004C176.138 135.532 176.138 136.4 175.222 136.92Z" fill="#4070FF"/>
<path d="M89.226 135.932C88.35 135.424 87.534 135.404 86.87 135.792C86.646 135.92 85.714 136.448 85.474 136.592C84.75 137.04 84.218 137.984 84.01 139.328C83.7731 138.966 83.4878 138.637 83.162 138.352L83.402 138.216C83.882 137.936 84.11 137.232 84.11 136.284C84.11 133.972 83.038 132.572 81.678 131.788L79.23 130.4L78.082 131.06V129.736L76.282 128.7L74.938 129.476V132.276L73.126 126.868L71.326 125.832L69.998 126.592V127.904C69.31 125.644 68.038 123.688 66.578 122.844C66.2416 122.612 65.849 122.475 65.4414 122.448C65.0338 122.421 64.6264 122.503 64.262 122.688L64.21 122.716L62.894 123.472C62.21 123.808 61.25 125.02 61.25 127.624C61.25 131.172 62.898 134.876 65.25 136.224C66.158 136.748 66.97 136.776 67.622 136.396C67.846 136.264 68.718 135.76 68.934 135.64C69.4188 135.346 69.7971 134.904 70.014 134.38V138.756L71.814 139.792L73.158 139.016V136.216L74.938 141.6L76.738 142.636L77.886 141.976V143.3L80.882 145.028C81.618 145.456 82.214 145.52 82.646 145.276C82.882 145.148 83.79 144.616 84.014 144.476C84.1733 144.387 84.3101 144.262 84.414 144.112C85.066 146.396 86.326 148.376 87.898 149.288C88.774 149.792 89.562 149.832 90.202 149.496C90.454 149.364 91.362 148.82 91.578 148.696C92.582 148.148 93.214 146.652 93.214 144.488C93.198 140.964 91.418 137.2 89.226 135.932ZM66.958 132.932C66.8189 132.889 66.6848 132.831 66.558 132.76C65.086 131.908 64.522 129.772 64.522 127.96C64.5044 127.333 64.6076 126.708 64.826 126.12C64.966 126.159 65.1005 126.215 65.226 126.288C66.622 127.088 67.254 129.272 67.254 131.088C67.2688 131.716 67.1684 132.341 66.958 132.932ZM81.03 141.436V140.292C81.3642 140.703 81.5502 141.215 81.558 141.744L81.03 141.436ZM89.622 146.02C89.4822 145.977 89.3479 145.918 89.222 145.844C87.75 144.996 87.186 142.856 87.186 141.044C87.1684 140.417 87.2716 139.792 87.49 139.204C87.6288 139.246 87.7628 139.302 87.89 139.372C89.29 140.172 89.918 142.356 89.918 144.172C89.9328 144.801 89.8325 145.427 89.622 146.02Z" fill="#4070FF"/>
<path d="M130.297 165.2L131.609 164.456L132.797 163.16C132.109 161.48 131.145 160.124 129.757 159.324C128.929 158.848 128.185 158.812 127.577 159.132C127.325 159.268 126.377 159.816 126.153 159.952C125.688 160.254 125.327 160.691 125.117 161.204V156.868L123.317 155.828L121.973 156.604V159.404L120.149 154L118.349 152.964L117.197 153.632V152.304L115.401 151.268L114.057 152.04V153.436C113.357 151.224 112.057 149.344 110.625 148.508L108.337 147.188L106.997 147.964V156.74L105.357 152.764L105.997 152.4C106.553 152.088 106.893 151.28 106.893 149.96C106.893 147.56 105.781 145.708 104.317 144.864L101.497 143.236L100.149 144V150.648L97.9971 141.2L96.3331 140.24L94.9891 141.016L91.7891 151.332L93.7211 152.448L95.0651 151.672L95.2771 150.912L97.3091 152.088L97.8931 154.852L99.8251 155.968L100.133 155.792V156.148L101.933 157.184L103.277 156.408V155.836L104.341 158.576L106.629 159.896L106.985 159.692V160.092L109.269 161.416C110.165 161.932 111.001 161.98 111.669 161.612L113.061 160.812C113.49 160.541 113.831 160.15 114.041 159.688V164.184L115.837 165.22L116.985 164.56V165.884L118.785 166.924L120.129 166.148V163.348L121.941 168.752L123.741 169.792L125.085 169.016V167.724C125.757 169.944 126.977 171.88 128.381 172.692C129.181 173.156 130.025 173.284 130.701 172.9C130.929 172.772 131.789 172.26 132.005 172.144C132.649 171.804 133.157 171.016 133.369 169.628V166.992L130.297 165.2ZM103.497 149.776L103.289 149.652V148.4C103.539 148.842 103.663 149.345 103.645 149.852V149.888L103.497 149.776ZM110.137 152.632C110.922 153.781 111.34 155.141 111.337 156.532C111.354 157.131 111.241 157.726 111.005 158.276C110.802 158.234 110.608 158.16 110.429 158.056L110.153 157.892L110.137 152.632ZM130.213 168.844C130.216 169.083 130.189 169.321 130.133 169.552C130.033 169.518 129.936 169.474 129.845 169.42C129.301 169.046 128.874 168.526 128.613 167.92L130.213 168.844ZM129.741 164.88L128.397 165.668V167.44C128.032 166.514 127.842 165.528 127.837 164.532C127.814 163.846 127.941 163.164 128.209 162.532C128.31 162.564 128.408 162.606 128.501 162.656C129.189 163.056 129.785 163.816 130.241 165.172L129.741 164.88Z" fill="#4070FF"/>
<path opacity="0.2" d="M87.8846 136.708C90.0766 137.972 91.8566 141.74 91.8566 145.288C91.8566 147.452 91.2246 148.948 90.2166 149.496C90.5006 149.344 91.3566 148.836 91.5646 148.72C92.5686 148.172 93.2006 146.676 93.2006 144.512C93.2006 140.964 91.4206 137.196 89.2286 135.932C88.3526 135.424 87.5366 135.404 86.8726 135.792C86.6486 135.92 85.7166 136.448 85.4766 136.592C86.1406 136.18 86.9806 136.184 87.8846 136.708Z" fill="black"/>
<path opacity="0.3" d="M81.032 141.436V140.292C80.8029 140.039 80.5324 139.827 80.232 139.664L79.668 139.34V142.212L80.232 142.536C81.084 143.028 81.552 142.9 81.552 141.944C81.552 141.872 81.552 141.808 81.552 141.74L81.032 141.436Z" fill="black"/>
<path opacity="0.2" d="M74.9243 136.984L74.9403 136.996V132.26L73.1283 126.856L71.3283 125.82L69.9883 126.596L71.7843 127.632L74.9243 136.984Z" fill="black"/>
<path opacity="0.1" d="M71.7812 127.632L73.1253 126.856L74.9372 132.26V136.996L71.7812 127.632Z" fill="black"/>
<path opacity="0.3" d="M81.0276 136.34C81.0325 135.938 80.9221 135.542 80.7094 135.201C80.4968 134.859 80.1908 134.585 79.8276 134.412L79.6836 134.332V136.952L79.8276 137.036C80.6036 137.484 81.0276 137.356 81.0276 136.34Z" fill="black"/>
<path opacity="0.2" d="M83.9975 139.336C83.7642 138.972 83.48 138.644 83.1535 138.36L83.4015 138.216C83.8735 137.936 84.1015 137.236 84.1015 136.292C84.1015 133.98 83.0295 132.58 81.6695 131.796L79.2295 130.4L78.0815 131.06V129.736L76.2815 128.7L74.9375 129.476L76.7375 130.512V142.664L77.8855 142.004V131.156L80.3335 132.572C81.6935 133.372 82.7655 134.752 82.7655 137.068C82.7655 138.184 82.4495 138.96 81.7775 139.104C82.7655 139.94 83.4615 141.18 83.4615 143.14C83.4615 144.252 83.1695 145 82.6335 145.292C82.8695 145.164 83.7775 144.632 84.0015 144.492C84.1608 144.403 84.2976 144.278 84.4015 144.128C84.0798 143.014 83.9142 141.86 83.9095 140.7C83.9043 140.244 83.9337 139.788 83.9975 139.336Z" fill="black"/>
<path opacity="0.3" d="M89.2277 145.844C87.7557 144.996 87.1917 142.856 87.1917 141.044C87.1741 140.417 87.2773 139.792 87.4957 139.204C87.5557 139.224 87.6157 139.244 87.6797 139.272C86.4357 138.724 85.8477 140.104 85.8477 141.82C85.8477 143.632 86.4117 145.772 87.8837 146.62C88.7597 147.124 89.3197 146.776 89.6237 146.02C89.4852 145.977 89.3523 145.918 89.2277 145.844Z" fill="black"/>
<path opacity="0.2" d="M66.5626 122.844C65.7026 122.348 64.9066 122.32 64.2506 122.68L64.1746 122.724L62.8906 123.46C63.1097 123.338 63.3499 123.258 63.5986 123.224C64.1706 123.174 64.743 123.315 65.2266 123.624C67.4146 124.892 69.1946 128.656 69.1946 132.208C69.1946 134.352 68.5706 135.84 67.5946 136.4C67.8186 136.268 68.6866 135.764 68.9026 135.644C69.3887 135.35 69.7684 134.909 69.9866 134.384V127.9C69.2946 125.64 68.0186 123.684 66.5626 122.844Z" fill="black"/>
<path opacity="0.3" d="M64.5276 127.96C64.51 127.333 64.6132 126.708 64.8316 126.12C64.8928 126.138 64.9529 126.159 65.0116 126.184C63.7676 125.64 63.1836 127.016 63.1836 128.736C63.1836 130.548 63.7476 132.684 65.2196 133.536C66.0916 134.04 66.6516 133.688 66.9596 132.932C66.8205 132.889 66.6864 132.831 66.5596 132.76C65.0916 131.908 64.5276 129.772 64.5276 127.96Z" fill="black"/>
<path opacity="0.2" d="M105.364 152.764L106 152.4C106.556 152.088 106.896 151.28 106.896 149.96C106.896 147.56 105.784 145.708 104.32 144.864L101.5 143.236L100.152 144L102.976 145.628C104.436 146.472 105.548 148.336 105.548 150.724C105.548 152.548 104.896 153.396 103.948 153.308L106.664 159.9L107.02 159.696V156.728L105.364 152.764Z" fill="black"/>
<path opacity="0.3" d="M128.216 162.54L128.348 162.588C127.316 162.144 126.5 163.304 126.5 165.308C126.5 167.312 127.4 169.568 128.5 170.208C129.204 170.608 129.9 170.444 130.132 169.564C130.032 169.53 129.935 169.486 129.844 169.432C129.3 169.058 128.873 168.538 128.612 167.932L128.396 167.804V167.44C128.031 166.514 127.841 165.528 127.836 164.532C127.817 163.849 127.947 163.169 128.216 162.54Z" fill="black"/>
<path opacity="0.2" d="M110.632 148.508L108.344 147.188L107.004 147.964L109.288 149.284C111.452 150.532 113.268 154.116 113.268 157.652C113.268 159.82 112.592 161.212 111.572 161.688L111.692 161.636L113.084 160.836C113.513 160.565 113.854 160.174 114.064 159.712V153.436C113.364 151.224 112.076 149.344 110.632 148.508Z" fill="black"/>
<path opacity="0.3" d="M110.141 157.904V152.644C109.861 152.239 109.498 151.896 109.077 151.64L108.797 151.48V158.68L109.077 158.84C109.933 159.336 110.613 159.076 110.993 158.288C110.79 158.247 110.596 158.172 110.417 158.068L110.141 157.904Z" fill="black"/>
<path opacity="0.3" d="M101.949 157.2L103.293 156.424V155.852L101.949 152.4V157.2Z" fill="black"/>
<path opacity="0.2" d="M118.806 154.78L121.942 164.136L121.963 164.148V159.412L120.151 154.004L118.351 152.968L117.203 153.632V152.304L115.406 151.268L114.062 152.044L115.858 153.08V165.232L117.006 164.572V153.744L118.806 154.78Z" fill="black"/>
<path opacity="0.3" d="M94.3223 150.368L93.7383 152.46L95.0823 151.688L95.2943 150.928L94.3223 150.368Z" fill="black"/>
<path opacity="0.3" d="M95.8136 145.264L94.9336 148.292L96.7136 149.32L95.8336 145.276L95.8136 145.264Z" fill="black"/>
<path opacity="0.3" d="M118.809 159.392V166.932V166.936L120.153 166.16V163.352L118.829 159.404L118.809 159.392Z" fill="black"/>
<path opacity="0.2" d="M125.105 161.2V156.868L123.305 155.828L121.961 156.604L123.761 157.644V169.796L125.105 169.02V167.728C124.75 166.58 124.566 165.386 124.557 164.184C124.525 163.162 124.711 162.144 125.105 161.2Z" fill="black"/>
<path opacity="0.2" d="M98.0041 141.22L96.3361 140.256L94.9961 141.032L96.6601 141.992L99.8441 155.984L100.152 155.808V150.66L98.0041 141.22Z" fill="black"/>
<path opacity="0.3" d="M103.293 149.664V148.4C103.008 147.974 102.616 147.63 102.157 147.4L101.949 147.28V150.48L102.157 150.6C102.829 151 103.633 151.4 103.649 149.908L103.501 149.828L103.293 149.664Z" fill="black"/>
<path opacity="0.2" d="M130.298 165.2L131.61 164.456L132.798 163.16C132.11 161.48 131.146 160.124 129.758 159.324C128.93 158.848 128.186 158.812 127.578 159.132C127.35 159.256 126.55 159.72 126.234 159.904C126.846 159.584 127.586 159.624 128.414 160.1C129.802 160.9 130.766 162.256 131.454 163.932L130.278 165.244C130.27 165.223 130.263 165.202 130.258 165.18L129.758 164.892L128.398 165.668L132.042 167.772V170.4C131.834 171.776 131.33 172.564 130.694 172.908H130.718C130.946 172.78 131.806 172.268 132.022 172.152C132.666 171.812 133.174 171.024 133.386 169.636V167L130.298 165.2Z" fill="black"/>
<path opacity="0.1" d="M69.9975 134.372V127.9C69.9095 127.604 69.8055 127.312 69.6975 127.028L68.3535 127.796C68.9024 129.199 69.1911 130.69 69.2055 132.196C69.2055 134.34 68.5815 135.828 67.6055 136.388C67.8295 136.256 68.7015 135.752 68.9175 135.632C69.4023 135.338 69.7806 134.896 69.9975 134.372Z" fill="black"/>
<path opacity="0.1" d="M76.7383 130.492L78.0823 129.716V131.04L77.8863 131.156V141.98L76.7383 142.644V130.492Z" fill="black"/>
<path opacity="0.1" d="M96.6602 141.992L98.0042 141.22L100.152 150.66V155.808L99.8442 155.984L96.6602 141.992Z" fill="black"/>
<path opacity="0.1" d="M105.362 152.764L104.678 153.164C104.457 153.309 104.19 153.366 103.93 153.324L106.646 159.916L107.002 159.712V156.744L105.362 152.764Z" fill="black"/>
<path opacity="0.1" d="M117.203 152.304L115.859 153.08V165.232L117.007 164.572V153.744L117.203 153.632V152.304Z" fill="black"/>
<path opacity="0.1" d="M118.809 154.78L120.153 154.004L121.965 159.412V164.148L118.809 154.78Z" fill="black"/>
<path opacity="0.1" d="M131.442 163.932L132.786 163.156L131.61 164.468L130.266 165.244L131.442 163.932Z" fill="black"/>
<path opacity="0.1" d="M132.047 170.4C131.839 171.776 131.335 172.564 130.699 172.908H130.723C130.951 172.78 131.811 172.268 132.027 172.152C132.671 171.812 133.179 171.024 133.391 169.636V167L132.047 167.776V170.4Z" fill="black"/>
<path opacity="0.1" d="M113.266 157.652C113.266 159.82 112.59 161.212 111.57 161.688L111.69 161.636L113.082 160.836C113.511 160.565 113.852 160.174 114.062 159.712V153.436C113.986 153.2 113.906 152.968 113.818 152.744L112.474 153.516C112.986 154.836 113.255 156.237 113.266 157.652Z" fill="black"/>
<path opacity="0.1" d="M93.1988 144.512C93.1815 143.064 92.9108 141.631 92.3988 140.276L91.0548 141.052C91.5668 142.407 91.8375 143.84 91.8548 145.288C91.8548 147.452 91.2228 148.948 90.2148 149.496C90.4988 149.344 91.3548 148.836 91.5628 148.72C92.5668 148.172 93.1988 146.676 93.1988 144.512Z" fill="black"/>
<path opacity="0.1" d="M83.4612 143.14C83.4612 144.252 83.1692 145 82.6332 145.292C82.8692 145.164 83.7772 144.632 84.0012 144.492C84.1605 144.403 84.2973 144.279 84.4012 144.128C84.0795 143.014 83.914 141.86 83.9092 140.7C83.908 140.244 83.9415 139.788 84.0092 139.336C83.776 138.972 83.4918 138.644 83.1652 138.36L82.0813 138.988H82.0412C82.0239 139 82.005 139.009 81.9852 139.016C81.9214 139.051 81.8526 139.075 81.7812 139.088C82.7653 139.94 83.4612 141.2 83.4612 143.14Z" fill="black"/>
<path opacity="0.3" d="M71.7812 132.244V139.784L73.1253 139.008V136.204L71.8012 132.252L71.7812 132.244Z" fill="black"/>
<path opacity="0.1" d="M123.762 157.644V169.796L125.106 169.02V167.728C124.751 166.58 124.566 165.386 124.558 164.184C124.526 163.163 124.713 162.147 125.106 161.204V156.868L123.762 157.644Z" fill="black"/>
<path d="M65.2188 123.62C67.4107 124.888 69.1907 128.652 69.1907 132.204C69.1907 135.756 67.4868 137.524 65.2188 136.204C62.8868 134.856 61.2188 131.152 61.2188 127.604C61.2188 124.056 63.0468 122.368 65.2188 123.62ZM65.2188 133.536C66.6547 134.364 67.2467 132.896 67.2467 131.084C67.2467 129.272 66.6147 127.084 65.2188 126.284C63.8228 125.484 63.1828 126.92 63.1828 128.732C63.1828 130.544 63.7468 132.684 65.2188 133.536Z" fill="#4070FF"/>
<path d="M71.7844 139.784L69.9844 138.748V126.592L71.7844 127.632L74.9204 136.984V129.456L76.7204 130.492V142.644L74.9204 141.608L71.7844 132.252V139.784Z" fill="#4070FF"/>
<path d="M80.3347 132.572C81.6947 133.372 82.7667 134.752 82.7667 137.068C82.7667 138.184 82.4507 138.96 81.7787 139.104C82.7667 139.94 83.4627 141.18 83.4627 143.14C83.4627 145.1 82.5187 145.984 80.8827 145.036L77.8867 143.308V131.156L80.3347 132.572ZM79.8307 137.036C80.6027 137.484 81.0307 137.356 81.0307 136.34C81.0356 135.938 80.9252 135.542 80.7125 135.201C80.4999 134.859 80.1939 134.586 79.8307 134.412L79.6867 134.332V136.952L79.8307 137.036ZM80.2307 142.536C81.0827 143.028 81.5507 142.9 81.5507 141.944C81.577 141.477 81.4661 141.012 81.2315 140.607C80.997 140.202 80.6491 139.874 80.2307 139.664L79.6667 139.34V142.212L80.2307 142.536Z" fill="#4070FF"/>
<path d="M87.8823 136.708C90.0743 137.972 91.8542 141.74 91.8542 145.288C91.8542 148.836 90.1503 150.612 87.8823 149.288C85.5503 147.944 83.9062 144.236 83.9062 140.688C83.9062 137.14 85.7143 135.452 87.8823 136.708ZM87.8823 146.62C89.3183 147.448 89.9102 145.98 89.9102 144.168C89.9102 142.356 89.2823 140.168 87.8823 139.368C86.4823 138.568 85.8462 140.004 85.8462 141.816C85.8462 143.628 86.3983 145.772 87.8823 146.62Z" fill="#4070FF"/>
<path d="M99.8446 156L97.9126 154.884L97.3286 152.12L94.3246 150.384L93.7406 152.48L91.8086 151.364L95.0086 141.048L96.6726 142.008L99.8446 156ZM95.8446 145.292H95.8246L94.9446 148.32L96.7246 149.348L95.8446 145.292Z" fill="#4070FF"/>
<path d="M102.976 145.64C104.436 146.484 105.548 148.348 105.548 150.736C105.548 152.56 104.896 153.408 103.948 153.32L106.664 159.912L104.376 158.592L101.976 152.4V157.2L100.176 156.164V144L102.976 145.64ZM102.176 150.56C102.856 150.96 103.668 151.36 103.668 149.832C103.668 148.304 102.868 147.772 102.176 147.38L101.968 147.26V150.46L102.176 150.56Z" fill="#4070FF"/>
<path d="M109.288 149.284C111.452 150.532 113.268 154.116 113.268 157.652C113.268 161.188 111.46 162.692 109.288 161.436L107.004 160.116V147.964L109.288 149.284ZM109.08 158.84C110.408 159.608 111.316 158.572 111.328 156.544C111.34 154.516 110.4 152.4 109.08 151.64L108.8 151.48V158.68L109.08 158.84Z" fill="#4070FF"/>
<path d="M115.858 165.232L114.062 164.196V152.04L115.858 153.08V165.232Z" fill="#4070FF"/>
<path d="M118.8 166.936L117 165.896V153.744L118.8 154.8L121.936 164.156H121.956V156.604L123.756 157.644V169.796L121.956 168.756L118.82 159.404H118.8V166.936Z" fill="#4070FF"/>
<path d="M132.047 170.4C131.615 173.232 129.951 173.6 128.403 172.688C126.279 171.46 124.559 167.652 124.559 164.176C124.559 160.7 126.183 158.812 128.403 160.092C129.791 160.892 130.755 162.248 131.443 163.924L130.267 165.236C129.807 163.836 129.207 163.06 128.507 162.656C127.399 162.016 126.507 163.192 126.507 165.3C126.507 167.408 127.407 169.56 128.507 170.2C129.371 170.696 130.219 170.332 130.219 168.844L128.399 167.804V165.668L132.043 167.772L132.047 170.4Z" fill="#4070FF"/>
<path opacity="0.1" d="M96.6594 131.86C107.135 131.86 115.627 126.957 115.627 120.908C115.627 114.859 107.135 109.956 96.6594 109.956C86.1837 109.956 77.6914 114.859 77.6914 120.908C77.6914 126.957 86.1837 131.86 96.6594 131.86Z" fill="black"/>
<path opacity="0.1" d="M132.043 152.824C143.815 152.824 153.359 147.314 153.359 140.516C153.359 133.718 143.815 128.208 132.043 128.208C120.27 128.208 110.727 133.718 110.727 140.516C110.727 147.314 120.27 152.824 132.043 152.824Z" fill="black"/>
<path d="M61.3844 9.94011L75.6004 18.1161C75.7658 18.224 75.9034 18.3693 76.0021 18.5402C76.1007 18.7112 76.1577 18.903 76.1684 19.1001V38.5121C76.1577 38.7086 76.1001 38.8996 76.0007 39.0694C75.9012 39.2392 75.7626 39.3827 75.5964 39.4881L73.5684 40.6281C73.3912 40.7159 73.1962 40.7616 72.9984 40.7616C72.8007 40.7616 72.6056 40.7159 72.4284 40.6281L58.2164 32.4441C58.0504 32.337 57.9123 32.1919 57.8135 32.0207C57.7148 31.8496 57.6582 31.6575 57.6484 31.4601V12.0481C57.6591 11.8521 57.7161 11.6614 57.8149 11.4917C57.9136 11.322 58.0513 11.1782 58.2164 11.0721L60.2484 9.93211C60.4253 9.84471 60.6201 9.79991 60.8174 9.8013C61.0146 9.80269 61.2088 9.85023 61.3844 9.94011Z" fill="#4070FF"/>
<path d="M72.9764 40.2922V20.8802C72.9652 20.6829 72.9071 20.491 72.8069 20.3206C72.7068 20.1502 72.5674 20.0061 72.4004 19.9002L58.2164 11.7202C57.9004 11.5402 57.6484 11.6882 57.6484 12.0482V31.4602C57.6582 31.6576 57.7148 31.8497 57.8135 32.0209C57.9123 32.192 58.0504 32.3371 58.2164 32.4442L72.4004 40.6202C72.7244 40.8002 72.9764 40.6562 72.9764 40.2922Z" fill="#4070FF"/>
<path opacity="0.2" d="M72.4023 40.62C72.5798 40.7069 72.7748 40.7521 72.9723 40.7521C73.1699 40.7521 73.3649 40.7069 73.5423 40.62L75.5703 39.48C75.7365 39.3746 75.8751 39.2311 75.9746 39.0613C76.074 38.8915 76.1316 38.7005 76.1423 38.504V19.096C76.1324 18.8918 76.0704 18.6936 75.9623 18.52L72.8023 20.324C72.9056 20.4917 72.9635 20.6833 72.9703 20.88V40.292C72.9783 40.624 72.7463 40.8 72.4023 40.62Z" fill="black"/>
<path opacity="0.4" d="M57.6562 11.9441C57.7002 11.6601 57.9322 11.5441 58.2162 11.7201L72.4003 19.9001C72.5682 20.0042 72.7061 20.1504 72.8003 20.3241L75.9643 18.5201C75.8662 18.3556 75.7288 18.2181 75.5643 18.1201L61.3843 9.93608C61.208 9.84744 61.0135 9.80127 60.8162 9.80127C60.619 9.80127 60.4245 9.84744 60.2482 9.93608L58.2162 11.0761C58.0664 11.1724 57.9388 11.2997 57.8422 11.4494C57.7456 11.5991 57.6822 11.7678 57.6562 11.9441Z" fill="white"/>
<path d="M77.7006 33.4963C78.0566 33.2843 80.7246 31.7803 80.8126 31.7323C80.8777 31.6914 80.9332 31.6367 80.975 31.5721C81.0168 31.5075 81.044 31.4346 81.0547 31.3584C81.0653 31.2821 81.0592 31.2045 81.0367 31.1309C81.0143 31.0573 80.976 30.9895 80.9246 30.9323L76.1006 24.9043L72.9766 26.6763L77.8006 32.7003C77.85 32.7575 77.8869 32.8245 77.9087 32.8969C77.9306 32.9693 77.9371 33.0455 77.9276 33.1205C77.9182 33.1956 77.8931 33.2678 77.854 33.3325C77.8149 33.3973 77.7626 33.4531 77.7006 33.4963Z" fill="#4070FF"/>
<path opacity="0.4" d="M77.7006 33.4963C78.0566 33.2843 80.7246 31.7803 80.8126 31.7323C80.8777 31.6914 80.9332 31.6367 80.975 31.5721C81.0168 31.5075 81.044 31.4346 81.0547 31.3584C81.0653 31.2821 81.0592 31.2045 81.0367 31.1309C81.0143 31.0573 80.976 30.9895 80.9246 30.9323L76.1006 24.9043L72.9766 26.6763L77.8006 32.7003C77.85 32.7575 77.8869 32.8245 77.9087 32.8969C77.9306 32.9693 77.9371 33.0455 77.9276 33.1205C77.9182 33.1956 77.8931 33.2678 77.854 33.3325C77.8149 33.3973 77.7626 33.4531 77.7006 33.4963Z" fill="white"/>
<path d="M72.9766 26.6802L77.8006 32.6802C77.8701 32.749 77.9183 32.8365 77.9394 32.932C77.9604 33.0276 77.9534 33.1272 77.9192 33.2189C77.8849 33.3106 77.825 33.3905 77.7465 33.4489C77.6679 33.5073 77.5742 33.5418 77.4766 33.5482L72.9766 34.0362V26.6802Z" fill="#4070FF"/>
<path d="M63.8906 23.0363C63.8906 21.9163 64.4826 21.3483 65.2106 21.7683C65.9386 22.1883 66.5266 23.4363 66.5266 24.5683C66.5266 25.7003 65.9386 26.2563 65.2106 25.8363C64.4826 25.4163 63.8906 24.1563 63.8906 23.0363Z" fill="#FAFAFA"/>
<path d="M66.8016 32.9839L63.6016 31.1359C63.3547 30.937 63.1604 30.6805 63.0355 30.389C62.9107 30.0976 62.8593 29.7799 62.8856 29.4639L63.0376 27.7359C63.1456 26.4879 63.8736 25.9239 64.7336 26.4199L65.6696 26.9599C66.5296 27.4599 67.2696 28.8599 67.3656 30.2359L67.5176 32.1399C67.6016 32.8359 67.2496 33.2359 66.8016 32.9839Z" fill="#FAFAFA"/>
<path d="M67.3203 22.8682C67.3203 21.6362 67.9683 21.0122 68.7683 21.4762C69.5683 21.9402 70.2163 23.3122 70.2163 24.5402C70.2163 25.7682 69.5683 26.3962 68.7683 25.9362C67.9683 25.4762 67.3203 24.1002 67.3203 22.8682Z" fill="#FAFAFA"/>
<path d="M70.4357 33.744L68.3197 32.52L68.1677 30.624C68.0558 29.2313 67.5385 27.9019 66.6797 26.8C66.7567 26.6815 66.8572 26.58 66.9749 26.5019C67.0927 26.4238 67.2253 26.3708 67.3644 26.346C67.5035 26.3213 67.6463 26.3254 67.7838 26.358C67.9213 26.3907 68.0506 26.4513 68.1637 26.536L69.1997 27.132C70.1437 27.68 70.9397 29.216 71.0597 30.732L71.2277 32.82C71.2877 33.6 70.9157 34.02 70.4357 33.744Z" fill="#FAFAFA"/>
<path d="M63.3067 21.0001C63.3067 19.8281 62.6907 18.5241 61.9307 18.0881C61.1707 17.6521 60.5547 18.2401 60.5547 19.4121C60.5547 20.5841 61.1707 21.8841 61.9307 22.3241C62.6907 22.7641 63.3067 22.1721 63.3067 21.0001Z" fill="#FAFAFA"/>
<path d="M63.9178 25.4439C63.1698 25.4759 62.6098 26.2079 62.5018 27.4439L62.3578 29.0759L60.3578 27.9159C60.0958 27.71 59.8894 27.4418 59.7574 27.1359C59.6254 26.8299 59.5719 26.4958 59.6018 26.1639L59.7618 24.3679C59.8738 23.0599 60.6338 22.4759 61.5298 22.9919L62.5098 23.5599C63.171 24.0187 63.6651 24.6799 63.9178 25.4439Z" fill="#FAFAFA"/>
<path d="M161.374 45.5279V39.8759L156.602 39.4759C156.533 39.4677 156.463 39.4817 156.402 39.5159C156.218 39.6159 152.374 41.8279 152.314 41.8639C152.269 41.8906 152.231 41.9268 152.203 41.9701C152.174 42.0133 152.155 42.0624 152.148 42.1138C152.141 42.1652 152.145 42.2176 152.161 42.2671C152.176 42.3166 152.203 42.362 152.238 42.3999L157.294 47.8879L161.374 45.5279Z" fill="#4070FF"/>
<path d="M157.294 47.8717L152.238 42.3997C152.19 42.3483 152.159 42.2835 152.148 42.214C152.138 42.1445 152.149 42.0735 152.18 42.0103C152.21 41.9471 152.259 41.8946 152.321 41.8599C152.382 41.8252 152.452 41.8098 152.522 41.8157L157.294 42.2157V47.8717Z" fill="#4070FF"/>
<path d="M161.371 39.8759L157.295 42.2199L152.523 41.8199C152.468 41.8151 152.411 41.8233 152.359 41.8439C152.739 41.6199 156.231 39.6119 156.403 39.5199C156.464 39.4856 156.534 39.4716 156.603 39.4798L161.371 39.8759Z" fill="#4070FF"/>
<path opacity="0.5" d="M161.371 39.8759L157.295 42.2199L152.523 41.8199C152.468 41.8151 152.411 41.8233 152.359 41.8439C152.739 41.6199 156.231 39.6119 156.403 39.5199C156.464 39.4856 156.534 39.4716 156.603 39.4798L161.371 39.8759Z" fill="white"/>
<path d="M160.974 32.2798L175.17 40.4558C175.335 40.5643 175.472 40.7098 175.571 40.8806C175.669 41.0514 175.727 41.2429 175.738 41.4398V60.8518C175.728 61.0484 175.671 61.2397 175.571 61.4096C175.472 61.5794 175.333 61.7229 175.166 61.8278L173.134 62.9678C172.958 63.0555 172.763 63.1012 172.566 63.1012C172.369 63.1012 172.175 63.0555 171.998 62.9678L157.802 54.7998C157.638 54.6923 157.5 54.5477 157.402 54.3774C157.303 54.2072 157.246 54.0162 157.234 53.8198V34.3998C157.245 34.2034 157.303 34.0124 157.403 33.8427C157.502 33.673 157.64 33.5294 157.806 33.4238L159.838 32.2878C160.014 32.1979 160.208 32.1503 160.405 32.149C160.603 32.1476 160.798 32.1924 160.974 32.2798Z" fill="#4070FF"/>
<path d="M172.566 62.6361V43.2201C172.556 43.024 172.499 42.8332 172.401 42.663C172.303 42.4928 172.166 42.348 172.002 42.2401L157.802 34.0601C157.49 33.8801 157.234 34.0281 157.234 34.3881V53.8041C157.243 54.0033 157.299 54.1975 157.398 54.3707C157.497 54.5439 157.635 54.6911 157.802 54.8001L172.002 62.9641C172.31 63.1441 172.566 62.9961 172.566 62.6361Z" fill="#4070FF"/>
<path opacity="0.2" d="M172.004 62.9639C172.181 63.0498 172.375 63.0945 172.572 63.0945C172.769 63.0945 172.963 63.0498 173.14 62.9639L175.172 61.8239C175.337 61.7186 175.475 61.5756 175.575 61.4067C175.674 61.2377 175.732 61.0476 175.744 60.8519V41.4399C175.735 41.2336 175.672 41.0334 175.56 40.8599L172.404 42.6639C172.507 42.8315 172.565 43.0231 172.572 43.2199V62.6319C172.568 62.9639 172.332 63.1559 172.004 62.9639Z" fill="black"/>
<path opacity="0.4" d="M157.242 34.2879C157.286 33.9999 157.522 33.8879 157.802 34.0599L172.002 42.2399C172.168 42.3462 172.306 42.4918 172.402 42.6639L175.562 40.8599C175.464 40.6952 175.327 40.5576 175.162 40.4599L160.974 32.2799C160.798 32.1921 160.603 32.1465 160.406 32.1465C160.209 32.1465 160.015 32.1921 159.838 32.2799L157.806 33.4199C157.656 33.5164 157.528 33.6436 157.431 33.7933C157.334 33.9429 157.269 34.1115 157.242 34.2879Z" fill="white"/>
<path d="M159.085 46.8839L159.681 48.8839C159.703 48.9399 159.739 48.9895 159.785 49.0285C159.831 49.0675 159.886 49.0948 159.945 49.1079L161.121 49.3919C161.245 49.4247 161.352 49.5033 161.421 49.6119C161.607 49.9919 161.818 50.3594 162.053 50.7119C162.114 50.8034 162.139 50.9151 162.121 51.0239L161.741 52.3159C161.733 52.3706 161.738 52.4263 161.756 52.4785C161.774 52.5306 161.805 52.5778 161.845 52.6159L163.221 54.0719C163.243 54.1025 163.274 54.1249 163.31 54.1357C163.347 54.1466 163.385 54.1452 163.421 54.1319C163.432 54.1247 163.441 54.1152 163.449 54.1039L164.093 53.1239C164.137 53.0519 164.253 53.0599 164.357 53.1239C164.461 53.1879 164.613 53.2879 164.737 53.3599C164.861 53.4319 165.001 53.5079 165.137 53.5719C165.255 53.627 165.352 53.7198 165.413 53.8359L166.089 55.6559C166.116 55.7074 166.155 55.7515 166.203 55.7843C166.251 55.8171 166.307 55.8375 166.365 55.8439L167.617 55.9679C167.654 55.9828 167.695 55.9828 167.733 55.9679C167.753 55.9557 167.77 55.937 167.779 55.9146C167.789 55.8922 167.79 55.8674 167.785 55.8439L167.385 54.0519C167.376 54.005 167.385 53.9566 167.409 53.9155C167.433 53.8745 167.471 53.8434 167.517 53.8279C167.714 53.7512 167.898 53.6432 168.061 53.5079C168.106 53.4838 168.158 53.4754 168.209 53.4841C168.259 53.4927 168.306 53.518 168.341 53.5559L169.621 54.7239C169.657 54.7629 169.707 54.7871 169.761 54.7919H169.809C169.822 54.7828 169.833 54.7704 169.841 54.7559L170.413 53.4959C170.425 53.4441 170.425 53.39 170.412 53.3384C170.398 53.2868 170.373 53.2392 170.337 53.1999L169.137 51.7439C169.062 51.6555 169.021 51.5436 169.021 51.4279C169.05 51.0846 169.05 50.7393 169.021 50.3959C169.02 50.3723 169.024 50.3488 169.033 50.327C169.042 50.3051 169.055 50.2853 169.072 50.2688C169.089 50.2522 169.109 50.2394 169.131 50.231C169.153 50.2226 169.177 50.2188 169.201 50.2199L170.277 50.1599C170.385 50.1599 170.453 50.0719 170.421 49.9799L169.829 47.9799C169.805 47.9247 169.769 47.8759 169.723 47.8376C169.678 47.7993 169.623 47.7727 169.565 47.7599L168.389 47.4759C168.264 47.4418 168.157 47.3618 168.089 47.2519C167.902 46.8732 167.691 46.5071 167.457 46.1559C167.396 46.0641 167.371 45.9528 167.389 45.8439L167.789 44.5479C167.793 44.4925 167.785 44.4369 167.767 44.3846C167.748 44.3322 167.719 44.2843 167.681 44.2439L166.305 42.7919C166.225 42.7079 166.121 42.6919 166.073 42.7639L165.433 43.7399C165.389 43.8119 165.273 43.8039 165.165 43.7399C164.919 43.5695 164.661 43.4184 164.393 43.2879C164.273 43.2341 164.176 43.1409 164.117 43.0239L163.441 41.2039C163.413 41.1524 163.374 41.1083 163.326 41.0756C163.278 41.0428 163.222 41.0223 163.165 41.0159L161.913 40.8919C161.875 40.8791 161.834 40.8791 161.797 40.8919C161.774 40.9024 161.756 40.9207 161.745 40.9435C161.735 40.9663 161.733 40.992 161.741 41.0159L162.141 42.8079C162.148 42.8543 162.14 42.9019 162.116 42.9427C162.093 42.9835 162.056 43.0151 162.013 43.0319C161.813 43.1077 161.628 43.2158 161.465 43.3519C161.419 43.3768 161.367 43.3856 161.316 43.3769C161.265 43.3681 161.219 43.3424 161.185 43.3039L159.905 42.1359C159.837 42.0759 159.769 42.0559 159.721 42.0799C159.705 42.0877 159.692 42.1003 159.685 42.1159L159.117 43.3759C159.104 43.4281 159.104 43.4824 159.117 43.5346C159.129 43.5867 159.154 43.6351 159.189 43.6759L160.389 45.1239C160.463 45.2141 160.504 45.3271 160.505 45.4439C160.505 45.6159 160.481 45.7959 160.481 45.9759C160.481 46.1559 160.481 46.3079 160.509 46.4759C160.509 46.4997 160.504 46.5233 160.494 46.5452C160.485 46.5671 160.471 46.5868 160.454 46.6033C160.437 46.6197 160.417 46.6325 160.394 46.6409C160.372 46.6493 160.348 46.653 160.325 46.6519L159.253 46.7119C159.227 46.7073 159.202 46.7073 159.177 46.7119C159.159 46.7169 159.143 46.7254 159.129 46.7369C159.114 46.7483 159.103 46.7624 159.094 46.7785C159.086 46.7945 159.08 46.8121 159.079 46.8302C159.077 46.8483 159.079 46.8666 159.085 46.8839ZM163.797 50.5399C162.513 49.1879 161.905 47.1359 162.437 45.9639C162.515 45.7553 162.647 45.5712 162.82 45.4306C162.993 45.29 163.2 45.198 163.421 45.1639H163.469H163.513H163.569C163.875 45.1579 164.18 45.2237 164.457 45.3559C164.565 45.402 164.671 45.4555 164.773 45.5159C165.123 45.7261 165.442 45.9846 165.721 46.2839C166.645 47.2464 167.195 48.5075 167.273 49.8399C167.274 49.9616 167.268 50.0832 167.253 50.2039C167.229 50.4301 167.171 50.6513 167.081 50.8599C166.988 51.0968 166.825 51.3001 166.615 51.4429C166.404 51.5857 166.155 51.6613 165.901 51.6599H165.785H165.653L165.545 51.6399H165.493H165.425C164.789 51.4336 164.225 51.0524 163.797 50.5399Z" fill="white"/>
<path d="M127.159 48.8999C124.519 49.4199 122.811 50.8119 122.243 54.9479C121.567 59.9159 120.487 67.5519 120.487 67.5519C120.487 67.5519 116.979 77.4919 115.191 79.7239C114.676 80.3201 114.106 80.8653 113.487 81.3519C111.843 83.4119 108.019 84.7839 109.755 85.9439C111.087 86.8319 113.099 87.0079 115.003 85.9439C117.575 84.5119 118.627 82.8599 119.903 80.7439C121.503 78.1079 126.995 68.2439 126.995 68.2439L127.159 48.8999Z" fill="#B16668"/>
<path d="M115.828 78.7437C115.488 79.3117 114.316 79.4517 113.2 79.6757C112.084 79.8997 111.228 80.5556 110.452 80.7156C109.784 80.8516 109.976 81.6477 111.168 81.7117C112.36 81.7757 113.764 80.8677 113.996 81.7117C114.228 82.5557 116.432 80.2557 115.828 78.7437Z" fill="#B16668"/>
<path d="M118.157 73.3521L117.445 75.0081C118.585 75.0841 121.357 76.4681 121.845 77.4081L122.825 75.704L118.157 73.3521Z" fill="#EBEBEB"/>
<path d="M127.159 48.8998C127.159 48.8998 124.475 48.8158 123.179 51.1198C121.883 53.4238 120.279 67.5198 120.279 67.5198L117.691 74.0838C118.783 74.0078 122.127 75.7118 122.559 76.7478L127.071 69.3558L127.159 48.8998Z" fill="#37474F"/>
<path d="M143.408 134.62H139.492V141.324H143.408V134.62Z" fill="#B16668"/>
<path d="M127.795 131.736L123.883 131.868L123.688 124.776L127.795 124.64V131.736Z" fill="#B16668"/>
<path d="M143.262 77.952C143.262 81.692 143.11 112.248 143.11 112.248C143.202 113.324 144.238 115.24 144.31 119.116C144.43 124.716 143.566 137.972 143.566 137.972C142.889 138.305 142.149 138.485 141.395 138.5C140.642 138.515 139.895 138.365 139.206 138.06C139.206 138.06 136.13 119.332 135.426 113.772C134.814 108.916 133.11 87.14 133.11 87.14L130.114 107.852C130.568 109.893 130.732 111.989 130.602 114.076C130.418 116.648 128.034 129.536 128.034 129.536C127.352 129.922 126.593 130.153 125.812 130.213C125.031 130.273 124.246 130.161 123.514 129.884C123.514 129.884 123.282 109.652 123.234 107.292C123.182 104.6 123.798 77.144 123.798 77.144L143.262 77.952Z" fill="#37474F"/>
<path d="M139.491 139.392V138.832C139.279 138.832 139.151 139.036 139.071 139.54C139.011 139.9 138.959 140.176 138.839 140.648C138.667 141.332 138.438 142.001 138.155 142.648C137.603 144.012 137.139 144.52 135.871 146.116C135.444 146.558 135.043 147.026 134.671 147.516C134.435 147.936 134.351 149.116 134.751 149.38C136.231 150.364 138.475 150.392 140.063 149.924C140.656 149.76 141.189 149.429 141.598 148.97C142.007 148.511 142.276 147.944 142.371 147.336C142.427 146.976 142.407 146.604 142.447 146.24C142.586 145.415 142.922 144.635 143.427 143.968C143.723 143.583 143.976 143.167 144.183 142.728C144.511 141.928 144.247 141.02 144.035 140.216C143.855 139.524 143.659 138.764 143.423 138.828C143.423 138.912 143.423 139.256 143.423 139.256C143.139 139.572 142.351 139.884 141.463 139.916C140.875 139.944 139.487 139.828 139.491 139.392Z" fill="#263238"/>
<path d="M123.844 130.66C123.844 130.764 123.48 131.084 123.044 131.46C122.615 131.83 122.166 132.178 121.7 132.5C120.746 133.196 119.745 133.824 118.704 134.38C117.468 135.06 116.352 135.472 114.872 136.14C114.721 136.203 114.584 136.297 114.472 136.416C114.381 136.521 114.319 136.648 114.292 136.784C114.248 137.063 114.283 137.349 114.392 137.61C114.502 137.871 114.682 138.096 114.912 138.26C115.375 138.585 115.901 138.81 116.456 138.92C117.711 139.274 119.034 139.314 120.308 139.036C121.357 138.722 122.347 138.238 123.24 137.604C124.033 137.044 124.935 136.655 125.888 136.464C126.72 136.344 127.74 136.384 128.46 135.888C129.26 135.336 128.94 134.16 128.716 133.148C128.468 132.044 128.16 130.32 127.792 130.396V130.796C127.324 131.508 124.892 131.8 123.86 131.276L123.844 130.66Z" fill="#263238"/>
<path d="M133.12 87.14C131.094 86.5043 129.232 85.4325 127.664 84C127.664 84 128.716 85.972 131.848 87.804L130.332 106.704L133.12 87.14Z" fill="#263238"/>
<path d="M136.469 49.2637C137.801 49.5837 140.489 50.0237 141.089 52.6797C141.813 55.8797 142.049 62.8077 142.049 62.8077L142.297 78.2557C139.601 80.2197 129.137 81.2877 123.461 77.1437C123.461 77.1437 124.713 58.5957 124.713 55.7077C124.713 52.8197 126.313 49.3557 130.749 49.0957L136.469 49.2637Z" fill="#F5F5F5"/>
<path d="M130.8 48.7999C129.775 50.0564 129.025 51.5147 128.6 53.0799C128.064 55.4159 127.557 81.9279 127.557 81.9279C127.557 81.9279 124.528 81.5599 123.232 80.5439C123.232 80.5439 122.968 58.8759 123.508 55.5079C124.472 49.5519 124.4 48.9599 130.8 48.3999V48.7999Z" fill="#455A64"/>
<path d="M137.637 48.3999C137.637 48.3999 133.945 50.6679 133.905 59.7039C133.869 67.5119 133.989 83.0479 133.989 83.0479C133.989 83.0479 140.117 83.4479 143.989 81.1159C143.989 81.1159 143.189 71.2519 143.129 65.7359C144.729 57.9039 146.129 50.2679 143.877 49.6479C141.625 49.0279 137.637 48.3999 137.637 48.3999Z" fill="#455A64"/>
<path d="M138.052 53.3521L136.364 55.444L137.208 57.8281L134.988 63.5201L137.668 57.8281L136.728 55.58L138.052 53.3521Z" fill="#37474F"/>
<path d="M126.131 52.6797L126.499 54.8437L125.035 56.7477L127.071 63.1597L125.495 56.8197L126.847 55.0397L126.131 52.6797Z" fill="#37474F"/>
<path d="M135.518 35.7321C135.519 36.7971 135.204 37.8384 134.613 38.7243C134.021 39.6103 133.181 40.301 132.197 40.7091C131.213 41.1172 130.131 41.2244 129.086 41.0171C128.041 40.8098 127.082 40.2973 126.328 39.5445C125.575 38.7917 125.062 37.8324 124.854 36.7879C124.646 35.7434 124.752 34.6606 125.159 33.6766C125.567 32.6926 126.257 31.8515 127.142 31.2597C128.028 30.6679 129.069 30.3521 130.134 30.3521C131.561 30.3521 132.93 30.9187 133.94 31.9276C134.949 32.9364 135.517 34.3048 135.518 35.7321Z" fill="#263238"/>
<path d="M139.441 39.5601C139.441 39.5601 138.569 43.6561 138.217 44.3281C137.985 44.7449 137.6 45.0559 137.145 45.1961L137.209 42.3121L139.441 39.5601Z" fill="#263238"/>
<path d="M138.341 33.688C138.644 33.6553 138.95 33.6911 139.236 33.7929C139.523 33.8947 139.783 34.0599 139.997 34.276C140.717 35.012 140.313 37.308 139.421 39.56L137.777 39.748L138.341 33.688Z" fill="#263238"/>
<path d="M137.304 39.748C137.632 39.944 138.104 39.312 138.504 38.888C138.904 38.464 140.236 37.884 140.904 39.288C141.572 40.692 140.32 42.584 139.276 42.912C137.476 43.476 137.208 42.324 137.208 42.324L137.072 49.672C135.828 51.272 133.036 53.144 131.532 52.872C130.332 52.656 130.068 50.628 131.216 49.3V46.664C130.418 46.7959 129.608 46.8415 128.8 46.8C127.476 46.596 126.64 45.552 126.244 44.12C125.636 41.932 125.444 39.476 125.9 35.436C126.464 30.472 132.268 30.428 135.38 32.388C138.492 34.348 137.304 39.748 137.304 39.748Z" fill="#B16668"/>
<path d="M137.304 40.3039C137.468 40.3039 138.104 39.2599 138.504 38.8879C139.072 38.3719 138.34 33.6879 138.34 33.6879C138.535 33.2758 138.601 32.8144 138.53 32.364C138.459 31.9137 138.253 31.4954 137.94 31.1639C137.164 30.3039 136.076 29.2599 132.548 29.6759C130.028 29.9759 127.288 30.7599 125.076 29.6759C124.872 30.3975 124.888 31.1636 125.121 31.8762C125.355 32.5888 125.796 33.2154 126.388 33.6759C126.388 33.6759 127.188 34.1919 129.296 34.4479C131.242 34.5948 133.197 34.5573 135.136 34.3359C135.748 34.2559 135.876 34.8479 136.208 36.4639C136.508 37.8839 136.748 40.2919 137.304 40.3039Z" fill="#263238"/>
<path d="M138.337 34.052L140.337 32.984C140.273 32.8499 140.183 32.7301 140.072 32.6319C139.96 32.5337 139.83 32.4592 139.689 32.4128C139.548 32.3664 139.399 32.3491 139.251 32.3621C139.103 32.375 138.96 32.4178 138.829 32.488C138.564 32.6376 138.365 32.8825 138.274 33.1728C138.183 33.4632 138.205 33.7775 138.337 34.052Z" fill="#263238"/>
<path d="M131.219 46.6561C131.219 46.6561 134.175 46.0601 135.219 45.5121C135.825 45.1955 136.321 44.7034 136.643 44.1001C136.49 44.7028 136.218 45.2687 135.843 45.7641C135.087 46.7281 131.239 47.5001 131.239 47.5001L131.219 46.6561Z" fill="#9A4A4D"/>
<path d="M130.938 38.8441C130.943 38.9599 130.982 39.0714 131.051 39.165C131.119 39.2586 131.213 39.3301 131.322 39.3707C131.43 39.4112 131.548 39.419 131.661 39.3931C131.774 39.3672 131.877 39.3087 131.957 39.2249C132.037 39.1411 132.091 39.0357 132.111 38.9217C132.132 38.8077 132.119 38.6901 132.073 38.5836C132.028 38.477 131.952 38.3862 131.855 38.3223C131.759 38.2584 131.645 38.2243 131.53 38.2241C131.369 38.2283 131.217 38.2959 131.106 38.412C130.995 38.5282 130.934 38.6835 130.938 38.8441Z" fill="#263238"/>
<path d="M131.445 37.1079L132.709 37.8079C132.799 37.6324 132.817 37.4288 132.758 37.2405C132.7 37.0522 132.57 36.8941 132.397 36.7999C132.315 36.7566 132.224 36.7302 132.132 36.7223C132.039 36.7143 131.945 36.725 131.857 36.7537C131.768 36.7824 131.686 36.8285 131.615 36.8893C131.545 36.9502 131.487 37.0245 131.445 37.1079Z" fill="#263238"/>
<path d="M131.485 43.1001L130.133 43.6001C130.162 43.6908 130.21 43.7747 130.273 43.8467C130.335 43.9186 130.412 43.9773 130.498 44.0191C130.584 44.0609 130.677 44.085 130.772 44.09C130.868 44.0949 130.963 44.0807 131.053 44.0481C131.232 43.9748 131.377 43.8359 131.457 43.6598C131.537 43.4836 131.547 43.2834 131.485 43.1001Z" fill="#9A4A4D"/>
<path d="M126.121 37.5479L127.449 36.9479C127.416 36.8579 127.365 36.7757 127.3 36.7063C127.234 36.6368 127.154 36.5817 127.066 36.5442C126.978 36.5067 126.883 36.4877 126.787 36.4883C126.692 36.4889 126.597 36.5092 126.509 36.5479C126.326 36.6302 126.183 36.7812 126.11 36.9683C126.038 37.1554 126.042 37.3636 126.121 37.5479Z" fill="#263238"/>
<path d="M126.399 38.8441C126.404 38.9599 126.443 39.0714 126.512 39.165C126.58 39.2586 126.674 39.3301 126.783 39.3707C126.891 39.4112 127.009 39.419 127.122 39.3931C127.235 39.3672 127.338 39.3087 127.418 39.2249C127.498 39.1411 127.552 39.0357 127.572 38.9217C127.593 38.8077 127.58 38.6901 127.534 38.5836C127.489 38.477 127.413 38.3862 127.316 38.3223C127.22 38.2584 127.106 38.2243 126.991 38.2241C126.83 38.2283 126.678 38.2959 126.567 38.412C126.456 38.5282 126.395 38.6835 126.399 38.8441Z" fill="#263238"/>
<path d="M129.212 38.5239L129.02 42.0839L127.16 41.4479L129.212 38.5239Z" fill="#9A4A4D"/>
<path d="M129.379 52.4561C129.743 53.3161 130.411 53.6561 131.627 53.8041C132.237 53.8473 132.849 53.766 133.427 53.5652C134.004 53.3644 134.535 53.0483 134.987 52.6361L133.839 51.4921L131.559 52.5761L130.939 51.1201L129.379 52.4561Z" fill="#37474F"/>
<path d="M130.33 52C130.155 52.5142 130.087 53.0586 130.13 53.6C130.187 54.0893 130.373 54.5545 130.67 54.948C130.861 55.0708 131.079 55.1474 131.305 55.1717C131.531 55.196 131.76 55.1674 131.974 55.088C132.363 54.7542 132.676 54.3401 132.891 53.8741C133.106 53.408 133.217 52.9011 133.218 52.388L131.558 52.576L130.33 52Z" fill="#455A64"/>
<path d="M130.67 54.9478C129.378 60.0118 128.598 68.6278 128.754 69.4958C128.91 70.3638 129.882 73.4958 130.63 73.4958C131.378 73.4958 132.694 70.3958 132.594 69.6038C132.406 68.0958 131.662 54.9398 131.974 55.0758L130.67 54.9478Z" fill="#455A64"/>
<path d="M131.973 55.0878C131.762 55.1809 131.531 55.217 131.302 55.1924C131.073 55.1678 130.855 55.0834 130.669 54.9478L130.625 55.1158C130.787 55.285 130.993 55.4057 131.22 55.4644C131.447 55.523 131.685 55.5173 131.909 55.4478L131.973 55.0878Z" fill="#37474F"/>
<path d="M131.559 52.5757C133.903 51.3957 136.735 49.6717 137.111 47.7757L137.131 46.7197C137.131 46.7197 138.051 47.0117 138.291 48.5597C138.091 50.8797 136.479 53.2637 134.383 54.4597L133.219 52.3997L131.559 52.5757Z" fill="#E0E0E0"/>
<path d="M131.223 47.3838C130.845 47.539 130.518 47.7967 130.279 48.1278C128.875 49.9998 129.007 53.1998 129.007 53.1998L130.331 51.9998L131.559 52.5918C131.101 51.5608 130.981 50.4113 131.215 49.3078L131.223 47.3838Z" fill="#E0E0E0"/>
<path d="M143.875 49.6641C145.707 50.1361 146.919 50.2841 148.175 52.6801C149.267 54.7641 154.307 63.4801 155.375 65.5721C155.911 66.6081 156.443 67.7921 155.027 69.2281C153.891 70.3721 146.415 77.3921 145.195 78.5921C144.318 79.5221 143.126 80.0925 141.851 80.1921C139.951 80.3601 139.023 79.6881 138.687 79.2761C136.687 76.8001 140.527 76.4241 141.851 75.6041C142.464 75.2291 143.012 74.7578 143.475 74.2081L143.395 72.8961C143.395 72.8961 144.795 72.8961 145.243 72.5401C145.691 72.1841 149.679 67.0001 149.679 67.0001C149.679 67.0001 143.975 59.4921 143.243 57.9201C142.511 56.3481 141.679 50.8721 143.875 49.6641Z" fill="#B16668"/>
<path d="M146.267 71.0278L145.351 72.2838C145.315 73.0845 145.58 73.8695 146.095 74.4838C146.627 75.1668 147.312 75.7149 148.095 76.0838L149.295 74.9278L146.267 71.0278Z" fill="#EBEBEB"/>
<path d="M145.74 71.508C145.74 71.508 146.036 74.796 148.872 75.704C148.872 75.704 155.616 69.268 156.248 68.396C156.88 67.524 156.44 66.608 155.084 64.228C153.728 61.848 148.4 52.132 147.516 51.12C146.632 50.108 145.204 49.92 143.152 49.48C142.148 51.3189 141.846 53.459 142.3 55.504C143.1 58.792 143.832 59.664 143.832 59.664L149.068 67.084L145.74 71.508Z" fill="#37474F"/>
<path d="M92.2038 113.484C92.228 113.898 92.1232 114.309 91.9038 114.66C91.3534 115.575 90.7042 116.427 89.9678 117.2C88.9318 118.316 87.3798 119.632 86.2678 120.6C85.6518 121.14 85.6278 121.956 86.5118 122.24C88.1586 122.645 89.8979 122.403 91.3718 121.564C92.4758 120.972 94.0478 118.232 94.9718 117.816C96.0238 117.34 96.6158 117.1 96.9718 116.616C97.5038 115.888 97.6398 115.344 97.1838 114.496C96.6878 113.572 95.9398 112.144 95.6318 112.3L95.7278 112.596C95.4878 113.352 93.4278 114.232 92.3718 114.02L92.2038 113.484Z" fill="#37474F"/>
<path d="M100.265 118.604V118.096C100.165 118.868 99.1413 121.24 97.7413 122.52C96.6253 123.536 95.1053 124.708 94.7173 125.84C94.3293 126.972 96.5133 127.488 97.9533 127.344C99.3532 127.172 100.643 126.497 101.581 125.444C102.497 124.396 102.481 123.676 102.909 123.1C103.337 122.524 104.321 121.872 104.553 121.204C104.681 120.836 104.529 120.032 104.349 119.352C104.169 118.672 104.009 118.04 103.797 118.096V118.496C103.293 118.891 102.669 119.102 102.029 119.092C101.513 119.1 100.261 118.996 100.265 118.604Z" fill="#37474F"/>
<path d="M106.058 81.6003C106.574 76.5403 107.61 68.5123 106.458 62.8443C100.61 61.9603 94.8177 61.1683 88.9057 60.4443C87.4817 67.7883 86.8017 87.3483 87.5497 90.0883C89.6217 98.4883 90.6817 104.76 91.9177 113.136C92.032 113.697 91.9352 114.279 91.6457 114.772C91.177 115.589 90.616 116.348 89.9737 117.036C89.4777 117.564 89.0097 118.152 88.4737 118.668C88.4202 118.72 88.3786 118.782 88.3517 118.851C88.3248 118.92 88.3132 118.994 88.3177 119.068C88.4177 119.868 89.5737 119.74 90.3817 119.468C91.4048 119.085 92.2905 118.405 92.9257 117.516C93.4657 116.828 94.5257 115.584 95.0857 114.848C95.3089 114.566 95.5045 114.264 95.6697 113.944C95.8583 113.525 95.8964 113.053 95.7777 112.608C95.7556 112.492 95.7396 112.374 95.7297 112.256C95.6977 111.108 96.8417 98.6123 96.5017 95.7603C96.1297 92.6643 95.7017 91.7843 94.6657 89.1963C95.3937 83.8643 96.0817 78.2083 96.7937 72.7963C96.9177 78.6443 96.9417 85.3163 97.6937 90.9283C98.2937 95.4203 98.5857 98.5283 99.0617 102.928C99.5177 107.148 100.07 114.928 100.122 116.084C100.166 116.814 100.145 117.546 100.058 118.272C99.7072 119.89 98.9056 121.375 97.7457 122.556C97.4777 122.8 97.1857 123.052 96.8937 123.308C96.3017 123.968 96.4697 124.544 97.8617 124.664C99.2537 124.784 100.482 123.944 101.538 122.664C102.01 122.088 103.798 119.136 103.798 118.536C103.798 118.36 103.798 118.196 103.798 118.052C103.809 116.953 103.906 115.856 104.09 114.772C104.674 111.316 105.93 105.084 106.138 102.32C106.47 97.9203 106.138 95.7963 105.022 92.3203C105.446 88.0003 105.554 86.5163 106.058 81.6003Z" fill="#FFA8A7"/>
<path d="M89.6997 57.3442C88.7014 61.1079 88.0256 64.9498 87.6797 68.8282C87.1717 74.9722 86.6397 87.4682 86.8797 88.7002C87.1197 89.9322 90.7237 105.388 90.7237 105.388C91.6775 105.854 92.754 106.007 93.7997 105.824C94.676 105.635 95.5039 105.268 96.2317 104.744C96.2317 104.744 97.0077 97.7162 96.7197 94.9762C96.4317 92.2362 95.0597 88.9762 95.0597 88.9762L96.7997 72.7722C96.7997 72.7722 96.5837 82.4122 97.1197 88.0482C97.6557 93.6842 99.4397 106.816 99.4397 106.816C99.7857 107.198 100.21 107.5 100.684 107.702C101.157 107.904 101.669 108.002 102.184 107.988C103.323 107.973 104.443 107.69 105.452 107.16C105.452 107.16 106.084 104.232 106.348 101.92C106.72 98.761 106.392 95.5585 105.388 92.5402C105.388 92.5402 106.72 77.1722 107.188 73.8162C107.656 70.4602 108.864 64.4402 105.028 58.8682C104.656 58.7122 89.6997 57.3442 89.6997 57.3442Z" fill="#37474F"/>
<path d="M96.7968 72.7724V72.0484C96.7968 72.0484 93.1968 70.9204 91.4648 68.6924C91.4648 68.6924 92.2928 70.8084 95.8648 72.7724C95.8648 72.7724 95.7888 82.2604 95.7968 82.1604C95.8048 82.0604 96.7968 72.7724 96.7968 72.7724Z" fill="#263238"/>
<path d="M87.7061 41.7561C86.4221 45.5361 84.2781 56.3961 84.2781 56.3961C84.2781 56.3961 80.2781 62.2321 78.9101 63.9081C78.2261 64.7521 76.7461 66.4281 76.7461 66.4281L80.0941 69.0601C82.5181 66.2601 86.1741 62.5441 87.6941 60.6161C88.4141 59.6921 89.0141 58.9001 89.2061 58.0881L90.7301 48.4281C90.7301 48.4281 90.7301 40.7081 91.9301 39.6921C93.1301 38.6761 93.4501 38.4681 93.4501 38.4681C91.9021 38.3601 88.7141 38.8001 87.7061 41.7561Z" fill="#FFA8A7"/>
<path d="M94.1181 38.3603C92.0301 38.1203 89.3581 38.1603 88.0541 40.4963C86.7501 42.8323 84.5781 54.8643 84.5781 54.8643C84.5781 54.8643 86.6301 56.4643 88.8501 56.4363L94.1181 38.3603Z" fill="#455A64"/>
<path d="M88.3152 49.6001C88.6926 51.3981 88.8392 53.237 88.7512 55.0721C88.5832 57.4721 86.8672 61.9121 86.8672 61.9121C86.8672 61.9121 88.2192 63.1401 91.8992 62.5641C94.8912 62.0961 93.8352 53.0641 92.1152 51.3161C91.1121 50.2827 89.7537 49.6693 88.3152 49.6001Z" fill="#37474F"/>
<path d="M99.4676 38.5324C99.4676 38.5324 104.468 39.1084 105.068 39.3764C100.38 42.6724 104.176 50.0124 104.176 50.0124L102.38 55.6404C103.532 57.1204 104.596 58.2484 105.492 59.4844C106.19 60.4157 106.754 61.4403 107.168 62.5284C108.368 65.6604 94.9876 70.6364 87.6836 64.8684C87.9756 63.0564 88.4396 61.1724 88.8556 59.4844C89.4276 57.1444 89.9156 55.1724 89.7516 54.2564C87.6516 47.7884 87.5236 46.6244 87.8956 45.1804C88.9436 41.1204 93.0956 38.3804 94.1036 38.3804L99.4676 38.5324Z" fill="#4070FF"/>
<path d="M99.4659 38.5322C99.4659 38.5322 104.146 38.9322 105.066 39.3762C105.986 39.8202 107.51 42.4482 106.142 46.2842C104.774 50.1202 103.538 54.6242 103.678 55.5322C103.818 56.4402 107.078 61.1322 107.078 61.1322C106.13 61.7442 105.126 62.3802 104.078 62.5722L102.398 58.9122L102.798 62.7882C102.798 62.7882 99.7939 63.5162 97.6459 63.3322C97.6419 63.3322 96.0539 48.4602 99.4659 38.5322Z" fill="#455A64"/>
<path d="M87.5977 37.1362H95.3417C96.553 37.1362 97.7524 36.8976 98.8715 36.4341C99.9906 35.9705 101.007 35.2911 101.864 34.4346C102.721 33.578 103.4 32.5612 103.864 31.4421C104.327 30.323 104.566 29.1235 104.566 27.9122C104.565 25.6625 103.67 23.5051 102.08 21.9143C100.489 20.3235 98.3314 19.4293 96.0817 19.4282C94.9675 19.4282 93.8643 19.6477 92.835 20.074C91.8056 20.5004 90.8704 21.1253 90.0826 21.9131C89.2948 22.7009 88.6698 23.6362 88.2435 24.6655C87.8171 25.6949 87.5977 26.7981 87.5977 27.9122V37.1362Z" fill="#263238"/>
<path d="M90.8404 23.2603C89.9404 23.7883 88.8404 26.0603 88.9444 30.7683C89.0364 34.7683 90.3364 35.7603 90.9884 36.0483C91.6404 36.3363 92.8964 36.1603 94.1164 35.9563V38.3563C94.1164 38.3563 92.4284 40.3163 92.5164 41.4203C92.6044 42.5243 94.9524 42.7803 96.5164 41.7043C98.0804 40.6283 99.4284 38.5283 99.4284 38.5283L99.4044 33.0043C99.4044 33.0043 100.12 33.7003 101.34 32.6363C102.348 31.7563 102.688 30.2723 101.904 29.4723C101.701 29.2814 101.455 29.1419 101.186 29.0652C100.918 28.9885 100.635 28.9768 100.362 29.0312C100.088 29.0855 99.831 29.2043 99.6124 29.3777C99.3938 29.5511 99.2196 29.7741 99.1044 30.0283C99.1044 30.0283 98.4244 28.1443 95.6084 27.2283C93.1084 26.4003 91.7284 25.4403 90.8404 23.2603Z" fill="#FFA8A7"/>
<path d="M93.5274 29.6002C93.5267 29.699 93.5551 29.7959 93.609 29.8787C93.6629 29.9615 93.7399 30.0266 93.8306 30.066C93.9212 30.1053 94.0214 30.1172 94.1187 30.1C94.216 30.0829 94.3061 30.0376 94.3779 29.9696C94.4496 29.9017 94.4998 29.8142 94.5222 29.7179C94.5446 29.6217 94.5382 29.521 94.5039 29.4284C94.4695 29.3357 94.4087 29.2552 94.3289 29.1969C94.2492 29.1386 94.154 29.105 94.0554 29.1002C93.9192 29.097 93.7872 29.1478 93.6883 29.2414C93.5894 29.3351 93.5315 29.4641 93.5274 29.6002Z" fill="#263238"/>
<path d="M93.2813 33.1562L92.1133 33.5283C92.1339 33.6068 92.1703 33.6803 92.2201 33.7443C92.27 33.8084 92.3323 33.8617 92.4034 33.9009C92.4744 33.9402 92.5527 33.9646 92.6335 33.9728C92.7142 33.9809 92.7958 33.9726 92.8733 33.9483C93.0309 33.8951 93.1616 33.7827 93.2377 33.6349C93.3139 33.4871 93.3295 33.3154 93.2813 33.1562Z" fill="#F28F8F"/>
<path d="M89.4517 28.4001L90.4717 27.6921C90.4292 27.6236 90.3731 27.5644 90.307 27.5183C90.2408 27.4722 90.1659 27.4401 90.0868 27.424C90.0078 27.4079 89.9263 27.4081 89.8473 27.4247C89.7684 27.4412 89.6937 27.4737 89.6277 27.5201C89.4913 27.6164 89.397 27.7613 89.3642 27.925C89.3315 28.0887 89.3628 28.2588 89.4517 28.4001Z" fill="#263238"/>
<path d="M94.8833 28.5881L93.8633 27.8801C93.9066 27.8119 93.9632 27.7531 94.0298 27.7073C94.0963 27.6615 94.1715 27.6296 94.2506 27.6135C94.3298 27.5975 94.4115 27.5976 94.4906 27.6138C94.5698 27.6301 94.6448 27.6622 94.7113 27.7081C94.8471 27.805 94.9406 27.9502 94.9726 28.1139C95.0046 28.2776 94.9726 28.4473 94.8833 28.5881Z" fill="#263238"/>
<path d="M89.7188 29.4884C89.7181 29.5871 89.7465 29.6837 89.8002 29.7664C89.854 29.8491 89.9308 29.9142 90.0212 29.9536C90.1116 29.993 90.2116 30.0051 90.3088 29.9883C90.4059 29.9714 90.496 29.9265 90.5679 29.8589C90.6398 29.7914 90.6903 29.7042 90.7131 29.6083C90.7359 29.5123 90.7301 29.4118 90.6963 29.3191C90.6625 29.2264 90.6023 29.1457 90.5231 29.0869C90.4439 29.0282 90.3492 28.9939 90.2508 28.9884C90.1142 28.9852 89.9818 29.0358 89.8823 29.1294C89.7827 29.2229 89.724 29.3519 89.7188 29.4884Z" fill="#263238"/>
<path d="M92.1448 29.1084L92.0648 32.1404L90.4688 31.6444L92.1448 29.1084Z" fill="#F28F8F"/>
<path d="M94.1172 35.9561C95.4052 35.7841 98.0572 35.0241 98.4692 33.9561C98.3031 34.4855 97.9794 34.9516 97.5412 35.2921C96.7412 35.9721 94.1172 36.7361 94.1172 36.7361V35.9561Z" fill="#F28F8F"/>
<path d="M111.394 56.8C111.762 54.592 111.394 53.872 110.614 51.708L106.274 54.244C106.274 54.244 106.91 55.872 106.858 56.8C106.822 57.432 105.958 63.756 105.142 65.96C104.994 66.3489 104.71 66.6704 104.342 66.864C103.354 67.392 102.93 67.972 102.17 68.668C101.57 69.212 101.086 69.324 101.146 69.516C101.239 69.7281 101.41 69.8971 101.622 69.989C101.835 70.081 102.075 70.0892 102.294 70.012C102.781 69.8565 103.248 69.6444 103.686 69.38C103.298 70.2121 102.78 70.9765 102.15 71.644C100.714 73.176 100.586 74.172 103.262 74.38C104.934 74.508 106.346 73.58 107.858 69.98C108.329 68.6563 108.716 67.3043 109.018 65.932C109.826 62.76 111.022 59.016 111.394 56.8Z" fill="#FFA8A7"/>
<path d="M105.061 39.3765C106.945 40.2245 107.581 41.8525 108.553 44.4085C109.461 46.8085 111.473 54.1405 111.473 54.1405C111.473 54.1405 109.193 56.3925 106.577 55.7405L103.241 47.6005C103.241 47.6005 101.673 42.2805 105.061 39.3765Z" fill="#37474F"/>
<path d="M37.475 147.424C37.191 147.532 37.027 148.072 36.899 149.388C36.819 150.188 36.543 151.28 37.787 151.94C38.2417 152.175 38.7468 152.295 39.2584 152.29C39.7701 152.285 40.2728 152.156 40.723 151.912C41.799 151.244 42.135 149.72 43.399 148.712C44.507 147.844 46.287 146.976 46.907 145.636C47.419 144.532 47.419 142.952 45.583 143.036C43.347 143.14 42.079 144.904 40.563 144.94C39.715 144.972 37.763 147.32 37.475 147.424Z" fill="#263238"/>
<path d="M37.4805 146.776V148.104C37.4805 148.752 40.2405 149.704 41.0125 148.236C41.0725 148.108 41.3725 146.292 41.3725 146.292L37.4805 146.776Z" fill="#FFBDA7"/>
<path d="M50.2689 155.152C50.2689 155.152 49.7449 155.152 49.5409 157.292C49.4609 158.092 49.2649 159.78 49.5409 160.388C49.8169 160.996 51.3289 161.26 53.0209 161.412C54.2849 161.524 55.4209 162.136 56.5929 162.796C57.7008 163.421 58.9452 163.765 60.2169 163.796C61.8169 163.796 63.1729 163.636 64.3129 162.732C64.9209 162.252 65.6889 161.24 65.1129 160.48C64.8786 160.248 64.5807 160.091 64.2569 160.028C63.5449 159.764 62.8289 159.52 62.1009 159.292C61.016 158.973 59.9569 158.572 58.9329 158.092C57.4409 157.356 55.7769 156.532 54.6489 155.272L50.2689 155.152Z" fill="#263238"/>
<path d="M50.2773 154.044C50.2773 154.044 50.2773 155.028 50.2773 155.592C50.2773 156.156 50.9333 156.996 52.6533 156.944C53.8533 156.908 54.7053 156.588 54.6533 155.592V154.156L50.2773 154.044Z" fill="#FFBDA7"/>
<path d="M36.7072 129.16C37.012 126.812 37.5479 124.499 38.3072 122.256C38.3072 122.256 37.8632 116.288 37.6672 110.632C37.4898 104.837 37.6514 99.0367 38.1512 93.2604C38.1512 93.2604 57.3512 91.4364 57.6832 98.5004C58.0152 105.564 57.5432 123.528 57.2832 126.628C57.0232 129.728 56.7872 132.628 56.1312 138.404C55.5672 143.372 54.6552 154.156 54.6552 154.156C53.9695 154.502 53.2089 154.673 52.4411 154.654C51.6733 154.634 50.9224 154.425 50.2552 154.044C50.2552 154.044 48.8072 139.564 48.6552 135.988C48.4392 131.348 49.5232 128.788 49.5232 128.788C49.5232 128.788 49.1232 125.872 48.3952 119.872C47.8912 115.632 47.2192 110.804 47.2192 110.804C47.2192 110.804 46.5632 116.78 46.1632 120.112C45.7952 123.2 45.1672 125.64 44.2392 131.396C43.4392 136.392 41.2432 146.96 41.2432 146.96C38.9832 148.16 37.4712 146.776 37.4712 146.776C37.4712 146.776 36.0752 133.492 36.7072 129.16Z" fill="#37474F"/>
<path d="M47.2278 110.8L46.3198 104.904C46.3198 104.904 42.5798 103.704 40.6758 101.488C40.6758 101.488 41.6918 104.08 45.1758 105.488L46.5718 110.456L46.8118 114.556L47.2278 110.8Z" fill="#263238"/>
<path d="M42.1038 69.6005C39.1078 68.8765 37.2118 70.3285 36.1038 74.4005C35.1558 77.8965 33.7678 85.1286 33.2278 87.8286C33.0278 88.8286 32.6358 89.9765 34.7398 91.2365C37.7909 93.0022 40.94 94.5928 44.1718 96.0005L45.3238 91.6925L40.6758 82.1605L42.1038 69.6005Z" fill="#4070FF"/>
<path opacity="0.25" d="M42.1038 69.6005C39.1078 68.8765 37.2118 70.3285 36.1038 74.4005C35.1558 77.8965 33.7678 85.1286 33.2278 87.8286C33.0278 88.8286 32.6358 89.9765 34.7398 91.2365C37.7909 93.0022 40.94 94.5928 44.1718 96.0005L45.3238 91.6925L40.6758 82.1605L42.1038 69.6005Z" fill="black"/>
<path d="M50.3845 67.6842L49.4885 73.9922L43.8125 73.7962L44.3605 66.4282L50.3845 67.6842Z" fill="#FFBDA7"/>
<path d="M54.457 59.9004C54.457 59.9004 55.981 62.1324 55.813 62.3564C55.645 62.5804 54.557 62.7964 54.557 62.7964L54.457 59.9004Z" fill="#F0997A"/>
<path d="M52.0744 59.5321C52.0689 59.1659 52.1722 58.8063 52.371 58.4987C52.5699 58.1911 52.8556 57.9494 53.1918 57.8042C53.528 57.6589 53.8998 57.6167 54.2601 57.6827C54.6204 57.7487 54.953 57.9201 55.2158 58.1751C55.4787 58.4302 55.6601 58.7575 55.737 59.1156C55.8138 59.4737 55.7828 59.8466 55.6478 60.187C55.5128 60.5275 55.2798 60.8203 54.9784 61.0284C54.677 61.2365 54.3207 61.3505 53.9544 61.3561C53.7112 61.3598 53.4696 61.3156 53.2435 61.2259C53.0174 61.1363 52.8112 61.0029 52.6366 60.8336C52.462 60.6642 52.3225 60.4621 52.2261 60.2388C52.1296 60.0155 52.0781 59.7753 52.0744 59.5321ZM52.4744 59.5321C52.4792 59.8169 52.5683 60.0938 52.7305 60.3279C52.8927 60.562 53.1206 60.7428 53.3855 60.8474C53.6504 60.9519 53.9403 60.9756 54.2187 60.9154C54.497 60.8552 54.7513 60.7138 54.9493 60.5091C55.1473 60.3044 55.2801 60.0455 55.331 59.7653C55.3819 59.4851 55.3486 59.1961 55.2353 58.9349C55.1219 58.6736 54.9337 58.4518 54.6943 58.2975C54.4549 58.1433 54.1752 58.0634 53.8904 58.0681C53.5113 58.0776 53.1512 58.2362 52.8883 58.5095C52.6255 58.7829 52.481 59.1489 52.4864 59.5281L52.4744 59.5321Z" fill="#263238"/>
<path d="M50.2316 53.7244C53.2476 54.3124 54.1396 55.6204 54.4956 60.3964C54.8716 65.3844 54.3876 66.9604 53.7436 67.6444C53.3076 68.1044 50.8476 68.2244 49.5996 67.9044C48.0396 67.5044 44.5076 66.3044 42.8236 63.8244C40.8236 60.9004 40.2716 56.9044 42.3156 55.2284C45.1996 52.8684 49.0036 53.4884 50.2316 53.7244Z" fill="#FFBDA7"/>
<path d="M50.3359 68.0321C51.6359 68.1721 53.3799 68.0321 53.7439 67.6321C52.2919 67.7241 50.5119 66.9961 50.5119 66.9961L50.3359 68.0321Z" fill="#F0997A"/>
<path d="M54.9649 54.9283L54.8729 55.0243C54.2769 55.6083 53.5089 55.9843 52.8729 56.5363C52.1947 57.151 51.7109 57.9504 51.4809 58.8363C51.2849 59.5643 51.2169 60.4363 50.4329 60.7723C50.4329 60.7723 49.9049 58.8483 48.2809 59.1163C46.6569 59.3843 46.4609 61.4803 47.5129 62.7163C48.5649 63.9523 49.5129 63.4643 49.5129 63.4643C49.5129 63.4643 49.5129 66.2283 48.3129 67.8083C48.3129 67.8083 46.9289 68.2803 44.3609 67.7763C42.7609 67.4643 40.5249 65.5363 39.5609 63.4683C37.5129 59.0923 37.3129 55.1323 40.1049 53.8963C40.3769 51.8643 41.9609 50.9283 43.7769 50.4803C46.4929 49.8123 49.0689 51.3883 51.7529 50.7443C52.3169 50.6083 52.8609 50.3963 53.4329 50.3163C53.497 50.2982 53.5649 50.2982 53.6289 50.3163C53.7689 50.3843 53.7609 50.5803 53.7249 50.7163C53.5876 51.2588 53.323 51.7606 52.9529 52.1803C53.9869 52.2253 55.0202 52.0789 56.0009 51.7483C56.0732 52.322 56.0178 52.9045 55.8387 53.4542C55.6596 54.004 55.3612 54.5073 54.9649 54.9283Z" fill="#263238"/>
<path d="M40.5113 54.8963L38.6953 53.8643C38.7631 53.7451 38.8537 53.6404 38.9619 53.5561C39.0701 53.4719 39.1939 53.4098 39.3261 53.3734C39.4584 53.337 39.5965 53.327 39.7326 53.344C39.8687 53.3609 40.0001 53.4045 40.1193 53.4723C40.2386 53.5401 40.3433 53.6307 40.4275 53.7389C40.5117 53.8471 40.5738 53.9709 40.6102 54.1031C40.6466 54.2354 40.6566 54.3735 40.6397 54.5096C40.6227 54.6457 40.5791 54.7771 40.5113 54.8963Z" fill="#263238"/>
<path d="M50.4708 61.8521L50.3828 59.7641C50.5199 59.7583 50.6568 59.7796 50.7857 59.8267C50.9146 59.8739 51.0329 59.9459 51.1339 60.0388C51.235 60.1316 51.3167 60.2435 51.3745 60.3679C51.4323 60.4924 51.465 60.627 51.4708 60.7641C51.4766 60.9012 51.4553 61.0381 51.4082 61.167C51.3611 61.2959 51.289 61.4142 51.1961 61.5152C51.1033 61.6162 50.9914 61.698 50.867 61.7558C50.7425 61.8136 50.6079 61.8463 50.4708 61.8521Z" fill="#263238"/>
<path d="M55.5996 59.0923L50.0156 59.9043L50.2476 60.2923L55.6076 59.5123L55.5996 59.0923Z" fill="#263238"/>
<path d="M37.5482 72.9003C38.2122 70.3083 39.1482 69.4643 41.4002 69.4043C42.5626 69.4834 43.7194 69.6317 44.8642 69.8483C45.1002 70.9403 47.9282 71.6843 50.7882 71.0923C51.6402 71.3403 53.8922 71.9563 54.5962 72.2123C56.6202 72.9443 57.6042 75.0483 57.7362 81.7203C57.7362 81.7203 58.1362 97.5443 57.7362 100.276C52.6322 102.276 47.3362 102.176 44.4082 101.524C38.3202 100.16 37.6082 97.6283 37.6082 97.6283C37.6082 97.6283 37.9282 91.2763 38.1322 86.4483C37.8282 83.3723 37.3682 81.0603 37.2042 78.6043C37.0542 76.6962 37.17 74.7765 37.5482 72.9003Z" fill="#4070FF"/>
<path d="M72.0938 71.8083C72.5858 70.5603 73.2938 68.3363 74.4698 66.8163C75.6458 65.2963 76.0698 64.1803 76.5218 64.8443C77.1298 65.7243 75.7577 67.4843 76.0617 67.6443C76.3657 67.8043 77.5098 70.1363 77.6258 71.4243C77.7418 72.7123 74.3298 75.9523 74.3298 75.9523L72.0938 71.8083Z" fill="#FFBDA7"/>
<path d="M54.5976 72.2123C55.6401 72.4125 56.6154 72.872 57.4336 73.5483C58.8536 74.7483 66.0216 80.3483 66.0216 80.3483L72.4616 71.0083L75.6136 74.6363C75.6136 74.6363 70.8936 83.6203 68.9176 86.9803C68.3016 88.0323 66.7416 88.2283 64.0496 86.6763C61.8096 85.3843 54.4496 80.7643 54.4496 80.7643C54.4496 80.7643 52.6136 75.4243 54.5976 72.2123Z" fill="#FFBDA7"/>
<path d="M54.2094 72.0806C54.9534 72.1231 55.6812 72.3149 56.3494 72.6446C57.4174 73.1886 66.0214 80.1886 66.0214 80.1886L68.2174 77.1766C69.9894 77.6246 71.2894 78.4366 72.6494 80.2246C72.6494 80.2246 70.2494 85.3486 69.2414 87.0726C68.2334 88.7966 67.3614 88.4246 65.4494 87.6006C63.5374 86.7766 55.6534 82.1606 55.6534 82.1606C55.6534 82.1606 53.4094 80.6286 53.0574 78.0686C52.4014 73.2006 54.2094 72.0806 54.2094 72.0806Z" fill="#4070FF"/>
<path opacity="0.1" d="M54.2094 72.0806C54.9534 72.1231 55.6812 72.3149 56.3494 72.6446C57.4174 73.1886 66.0214 80.1886 66.0214 80.1886L68.2174 77.1766C69.9894 77.6246 71.2894 78.4366 72.6494 80.2246C72.6494 80.2246 70.2494 85.3486 69.2414 87.0726C68.2334 88.7966 67.3614 88.4246 65.4494 87.6006C63.5374 86.7766 55.6534 82.1606 55.6534 82.1606C55.6534 82.1606 53.4094 80.6286 53.0574 78.0686C52.4014 73.2006 54.2094 72.0806 54.2094 72.0806Z" fill="black"/>
<path opacity="0.1" d="M66.0195 80.1885C66.6611 80.8127 67.2687 81.471 67.8395 82.1605C67.8395 82.1605 67.7915 80.9285 66.3995 79.6685L66.0195 80.1885Z" fill="black"/>
<path d="M68.2148 77.1762L69.3348 75.5522C70.2646 75.6984 71.1485 76.0555 71.9188 76.5962C72.6301 77.044 73.2163 77.6647 73.6228 78.4002L72.6468 80.2242C71.457 78.8431 69.9303 77.7931 68.2148 77.1762Z" fill="#4070FF"/>
<path opacity="0.25" d="M68.2148 77.1762L69.3348 75.5522C70.2646 75.6984 71.1485 76.0555 71.9188 76.5962C72.6301 77.044 73.2163 77.6647 73.6228 78.4002L72.6468 80.2242C71.457 78.8431 69.9303 77.7931 68.2148 77.1762Z" fill="black"/>
<path d="M72.9477 78.6042C72.9477 78.6838 72.9161 78.7601 72.8598 78.8163C72.8035 78.8726 72.7272 78.9042 72.6477 78.9042C72.5681 78.9042 72.4918 78.8726 72.4355 78.8163C72.3793 78.7601 72.3477 78.6838 72.3477 78.6042C72.3477 78.5246 72.3793 78.4483 72.4355 78.3921C72.4918 78.3358 72.5681 78.3042 72.6477 78.3042C72.7272 78.3042 72.8035 78.3358 72.8598 78.3921C72.9161 78.4483 72.9477 78.5246 72.9477 78.6042Z" fill="#455A64"/>
<path d="M44.2291 68.2082L44.1811 68.8162C44.1811 68.8162 44.4811 69.6722 46.1811 69.9922C49.0771 70.5322 50.0891 69.6322 50.0891 69.6322L50.1611 69.1122C50.1611 69.1122 50.4411 68.9962 50.9091 69.3562C51.6216 70.0986 52.2894 70.8827 52.9091 71.7042C52.9091 71.7042 52.3571 71.5402 50.5491 72.3122C48.7435 73.0143 46.7542 73.089 44.9011 72.5242C44.3851 72.3521 43.9233 72.0477 43.5618 71.6413C43.2003 71.2349 42.9518 70.7407 42.8411 70.2082C42.8011 69.6802 43.7291 68.0002 44.2291 68.2082Z" fill="#4070FF"/>
<path opacity="0.25" d="M44.2291 68.2082L44.1811 68.8162C44.1811 68.8162 44.4811 69.6722 46.1811 69.9922C49.0771 70.5322 50.0891 69.6322 50.0891 69.6322L50.1611 69.1122C50.1611 69.1122 50.4411 68.9962 50.9091 69.3562C51.6216 70.0986 52.2894 70.8827 52.9091 71.7042C52.9091 71.7042 52.3571 71.5402 50.5491 72.3122C48.7435 73.0143 46.7542 73.089 44.9011 72.5242C44.3851 72.3521 43.9233 72.0477 43.5618 71.6413C43.2003 71.2349 42.9518 70.7407 42.8411 70.2082C42.8011 69.6802 43.7291 68.0002 44.2291 68.2082Z" fill="black"/>
<path d="M75.9648 67.46C75.9648 67.46 80.0888 67.104 80.6928 67.46C81.2968 67.816 81.1128 69.6 80.6928 70.696C80.2728 71.792 78.1688 72.504 76.2168 73.824C76.2128 73.628 75.9648 67.46 75.9648 67.46Z" fill="#FFBDA7"/>
<path d="M76.2188 73.8163C77.0188 73.2283 77.0188 72.5083 77.1868 71.3603C77.3548 70.2123 80.4948 68.9603 80.5948 69.8323C80.6948 70.7043 80.9948 71.4043 80.0108 72.4403C79.0268 73.4763 77.6628 74.5883 76.2188 73.8163Z" fill="#FFA8A7"/>
<path d="M76.4371 66.4282C75.6851 67.4042 75.5571 68.5562 75.1611 69.1922C74.7651 69.8282 74.1611 70.5602 75.0331 70.6762C75.9051 70.7922 76.9651 69.6562 77.4331 68.6202C77.6753 68.0373 78.13 67.5683 78.7051 67.3082C78.3051 67.1682 78.5091 65.5242 78.2211 65.3082C78.2331 65.3002 76.7491 65.9042 76.4371 66.4282Z" fill="#FFA8A7"/>
</svg>
