<svg width="200" height="200" viewBox="0 0 200 200" fill="none" xmlns="http://www.w3.org/2000/svg">
<path d="M40.7094 113.5C7.96144 132.4 7.96144 163.056 40.7094 181.964C73.4574 200.872 126.549 200.872 159.297 181.964C192.045 163.056 192.041 132.404 159.297 113.5C126.553 94.5958 73.4534 94.5918 40.7094 113.5Z" fill="#FAFAFA"/>
<path d="M15.4766 48.0558C15.4766 37.3558 22.5246 24.6158 31.2006 19.5998C35.8006 16.9438 39.9406 16.9838 42.8006 19.1998C46.4006 20.6838 48.6726 24.7998 48.6726 30.8958V81.2558L17.1926 99.4278L15.4766 98.3998V48.0558Z" fill="#E6E6E6"/>
<path d="M17.2227 99.4276V49.0636C17.2227 38.3676 24.2707 25.6236 32.9627 20.6076C41.6547 15.5916 48.7027 20.2076 48.7027 30.8916V81.2556L17.2227 99.4276Z" fill="#F5F5F5"/>
<path d="M18.9453 49.0636V96.4436L46.9813 80.2556V30.8956C46.9813 25.5476 45.1013 21.8556 41.9373 20.6956C41.2023 20.425 40.4245 20.2895 39.6413 20.2956C37.8493 20.2956 35.8973 20.8996 33.8253 22.0956C25.6213 26.8356 18.9453 38.9316 18.9453 49.0636Z" fill="#E0E0E0"/>
<path d="M46.9812 80.2559L45.2052 79.2319L18.9492 94.3959V96.4439L46.9812 80.2559Z" fill="#EBEBEB"/>
<path d="M18.9453 49.0636V94.3996L45.2013 79.2316V29.8636C45.2013 25.5996 44.0013 22.3996 41.9373 20.6956C41.2023 20.425 40.4245 20.2895 39.6413 20.2956C37.8493 20.2956 35.8973 20.8996 33.8253 22.0956C25.6213 26.8356 18.9453 38.9316 18.9453 49.0636Z" fill="white"/>
<path d="M32.1055 88.8476L33.8255 87.8516V21.4756H32.1055V88.8476Z" fill="#F5F5F5"/>
<path d="M30.4023 24.5877V87.8557L32.1263 88.8477V23.1997C31.5183 23.6357 30.9463 24.0917 30.4023 24.5877Z" fill="#E0E0E0"/>
<path d="M46.9802 64.2158L33.8242 71.8118V73.8318L46.9802 66.2358V64.2158Z" fill="#F5F5F5"/>
<path d="M45.2042 63.1919L46.9802 64.2159L33.8242 71.8119V69.7919L45.2042 63.1919Z" fill="#EBEBEB"/>
<path d="M32.1052 72.8037L18.9492 80.3997V82.4197L32.1052 74.8237V72.8037Z" fill="#F5F5F5"/>
<path d="M30.3252 71.7798L32.1052 72.8038L18.9492 80.3998V78.3798L30.3252 71.7798Z" fill="#EBEBEB"/>
<path d="M46.9802 34.728L33.8242 42.324V44.344L46.9802 36.748V34.728Z" fill="#F5F5F5"/>
<path d="M45.2042 33.7036L46.9802 34.7276L33.8242 42.3236V40.3036L45.2042 33.7036Z" fill="#EBEBEB"/>
<path d="M32.1052 43.3159L18.9492 50.9119V52.9319L32.1052 45.3359V43.3159Z" fill="#F5F5F5"/>
<path d="M30.3252 42.292L32.1052 43.316L18.9492 50.912V48.892L30.3252 42.292Z" fill="#EBEBEB"/>
<path d="M147.68 61.5719L158.948 55.0679L188.616 72.1759V73.4159L177.348 79.9199L147.68 62.8079V61.5719Z" fill="#EBEBEB"/>
<path d="M177.348 78.6839L147.68 61.5719L158.948 55.0679L188.616 72.1759L177.348 78.6839Z" fill="#FAFAFA"/>
<path d="M177.348 78.6838V79.9198L188.616 73.4158V72.1758L177.348 78.6838Z" fill="#E6E6E6"/>
<path d="M155.557 44.3442L148.949 48.1642V60.7362L155.557 56.9202V44.3442Z" fill="#EBEBEB"/>
<path d="M149.16 48.3722L155.56 44.7002C155.952 45.1145 156.464 45.3945 157.024 45.5002L150.68 49.1562C150.141 48.9636 149.63 48.6999 149.16 48.3722Z" fill="white"/>
<path d="M151.292 49.132C151.101 49.2286 150.891 49.279 150.678 49.279C150.464 49.279 150.254 49.2286 150.064 49.132L148.984 48.516C148.911 48.4899 148.848 48.4419 148.803 48.3785C148.758 48.3151 148.734 48.2395 148.734 48.162C148.734 48.0845 148.758 48.0089 148.803 47.9455C148.848 47.8822 148.911 47.8341 148.984 47.808L155.292 44.208L155.556 44.36L149.356 47.96C149.311 47.9751 149.273 48.0037 149.246 48.0417C149.219 48.0797 149.204 48.1253 149.204 48.172C149.204 48.2188 149.219 48.2643 149.246 48.3023C149.273 48.3404 149.311 48.3689 149.356 48.384L150.36 48.952C150.474 49.0094 150.6 49.0392 150.728 49.0392C150.855 49.0392 150.981 49.0094 151.096 48.952L157.296 45.376L157.596 45.552L151.292 49.132Z" fill="#FAFAFA"/>
<path d="M157.598 45.5161V58.0881L151.294 61.7081C151.104 61.8047 150.894 61.8551 150.68 61.8551C150.467 61.8551 150.257 61.8047 150.066 61.7081L148.986 61.0881C148.917 61.0571 148.857 61.0082 148.813 60.9463C148.768 60.8845 148.741 60.8119 148.734 60.7361V48.1601C148.741 48.2365 148.768 48.3097 148.812 48.3723C148.856 48.4348 148.917 48.4845 148.986 48.5161L150.066 49.1321C150.257 49.2287 150.467 49.2791 150.68 49.2791C150.894 49.2791 151.104 49.2287 151.294 49.1321L157.598 45.5161Z" fill="#E0E0E0"/>
<path d="M150.674 49.2802C150.461 49.2848 150.25 49.2338 150.062 49.1322L148.982 48.5162C148.913 48.4845 148.853 48.4349 148.808 48.3723C148.764 48.3097 148.737 48.2365 148.73 48.1602V60.7362C148.737 60.8119 148.764 60.8845 148.809 60.9464C148.853 61.0082 148.913 61.0572 148.982 61.0882L150.062 61.7082C150.251 61.8068 150.462 61.8563 150.674 61.8522V49.2802Z" fill="#F0F0F0"/>
<path d="M158.327 46.248L151.719 50.068L153.771 63.02L160.383 59.204L158.327 46.248Z" fill="#EBEBEB"/>
<path d="M152 50.2482L158.4 46.5762C158.9 46.942 159.488 47.1696 160.104 47.2362L153.76 50.8922C153.151 50.7434 152.561 50.5274 152 50.2482Z" fill="white"/>
<path d="M154.401 50.8399C154.194 50.9389 153.97 50.9952 153.741 51.0055C153.512 51.0159 153.283 50.9799 153.069 50.8999L151.813 50.3999C151.413 50.2359 151.369 49.9479 151.709 49.7519L158.017 46.1519L158.329 46.2799L152.129 49.8599C151.925 49.9799 151.953 50.1519 152.193 50.2599L153.361 50.7319C153.49 50.7788 153.627 50.7998 153.764 50.7936C153.902 50.7874 154.036 50.7542 154.161 50.6959L160.357 47.1199L160.713 47.2639L154.401 50.8399Z" fill="#FAFAFA"/>
<path d="M160.712 47.2202L162.764 60.1762L156.456 63.7962C156.25 63.8944 156.025 63.9502 155.796 63.9605C155.568 63.9708 155.339 63.9354 155.124 63.8562L153.864 63.3442C153.668 63.2602 153.556 63.1482 153.54 63.0322L151.484 50.0762C151.504 50.1922 151.616 50.3082 151.812 50.3882L153.072 50.9042C153.287 50.9823 153.516 51.0172 153.744 51.0069C153.973 50.9966 154.197 50.9413 154.404 50.8442L160.712 47.2202Z" fill="#E0E0E0"/>
<path d="M153.76 51.0039C153.527 51.0195 153.292 50.9854 153.072 50.9039L151.812 50.3999C151.616 50.3199 151.504 50.2039 151.484 50.0879L153.54 63.0439C153.54 63.1599 153.668 63.2719 153.864 63.3559L155.124 63.8679C155.344 63.9508 155.578 63.9862 155.812 63.9719L153.76 51.0039Z" fill="#F0F0F0"/>
<path opacity="0.05" d="M160.738 62.8C159.186 63.7 159.186 65.156 160.738 66.052C161.611 66.4956 162.575 66.7269 163.554 66.7269C164.533 66.7269 165.498 66.4956 166.37 66.052C167.926 65.156 167.926 63.7 166.37 62.8C165.497 62.3581 164.533 62.1279 163.554 62.1279C162.576 62.1279 161.611 62.3581 160.738 62.8Z" fill="black"/>
<path d="M166.087 65.076C167.443 63.692 168.239 60.24 166.919 59.144H160.195C158.875 60.24 159.671 63.692 161.023 65.072L161.059 65.112L161.107 65.156C161.147 65.1941 161.188 65.2302 161.231 65.264C161.24 65.2754 161.251 65.2849 161.263 65.292L161.363 65.368C161.423 65.408 161.479 65.448 161.539 65.48C162.164 65.7976 162.856 65.9632 163.557 65.9632C164.259 65.9632 164.95 65.7976 165.575 65.48C165.635 65.448 165.691 65.408 165.751 65.368L165.847 65.296L165.887 65.264L166.003 65.16L166.059 65.108L166.087 65.076Z" fill="#F5F5F5"/>
<path d="M160.797 58.62C159.265 59.504 159.265 60.94 160.797 61.82C161.659 62.2558 162.61 62.4829 163.575 62.4829C164.541 62.4829 165.492 62.2558 166.353 61.82C167.885 60.932 167.885 59.496 166.353 58.62C165.492 58.1841 164.541 57.957 163.575 57.957C162.61 57.957 161.659 58.1841 160.797 58.62Z" fill="white"/>
<path d="M161.867 59.2478C160.935 59.7878 160.935 60.6598 161.867 61.1998C162.391 61.4643 162.97 61.602 163.557 61.602C164.144 61.602 164.723 61.4643 165.247 61.1998C166.179 60.6598 166.179 59.7878 165.247 59.2478C164.723 58.9816 164.144 58.8428 163.557 58.8428C162.97 58.8428 162.391 58.9816 161.867 59.2478Z" fill="#EBEBEB"/>
<path d="M165.249 60.1717C164.724 59.9073 164.146 59.7695 163.559 59.7695C162.972 59.7695 162.393 59.9073 161.869 60.1717C161.644 60.295 161.452 60.4706 161.309 60.6837C161.45 60.899 161.642 61.0762 161.869 61.1997C162.393 61.4641 162.972 61.6019 163.559 61.6019C164.146 61.6019 164.724 61.4641 165.249 61.1997C165.474 61.0773 165.666 60.8998 165.805 60.6837C165.664 60.4698 165.473 60.2939 165.249 60.1717Z" fill="#E0E0E0"/>
<path d="M162.071 60.6838C161.593 60.1995 161.183 59.6533 160.851 59.0598C160.287 58.0638 160.183 56.7278 160.475 56.5598C160.767 56.3918 161.955 57.7278 161.955 57.7278C161.845 57.1682 161.802 56.5975 161.827 56.0278C161.879 55.1358 162.095 54.3278 162.351 54.1678C162.607 54.0078 163.175 55.1238 163.419 55.9358C163.663 56.7478 163.819 57.4198 163.819 57.4198C163.918 56.7855 164.065 56.1597 164.259 55.5478C164.555 54.7038 164.823 54.5118 165.031 54.5958C165.239 54.6798 165.375 55.0758 165.431 56.1958C165.451 56.7297 165.433 57.2643 165.379 57.7958C165.379 57.7958 165.799 57.3318 166.263 56.8878C166.727 56.4438 166.991 56.3278 167.139 56.4238C167.287 56.5198 167.323 57.2798 166.535 58.7078C166.142 59.4357 165.639 60.0982 165.043 60.6718C165.043 60.6718 163.943 61.3918 162.071 60.6838Z" fill="#EBEBEB"/>
<path d="M174.045 53.8838L167.438 57.6998V70.2758L174.045 66.4598V53.8838Z" fill="#E0E0E0"/>
<path d="M167.648 57.9122L174.048 54.2402C174.441 54.653 174.953 54.9327 175.512 55.0402L169.168 58.6962C168.629 58.5036 168.118 58.24 167.648 57.9122Z" fill="white"/>
<path d="M169.781 58.672C169.59 58.7687 169.38 58.819 169.167 58.819C168.953 58.819 168.743 58.7687 168.553 58.672L167.473 58.056C167.398 58.0319 167.332 57.9846 167.286 57.921C167.24 57.8574 167.215 57.7807 167.215 57.7021C167.215 57.6234 167.24 57.5467 167.286 57.4831C167.332 57.4195 167.398 57.3722 167.473 57.348L173.777 53.748L174.045 53.9L167.845 57.48C167.8 57.4951 167.762 57.5237 167.735 57.5617C167.707 57.5997 167.693 57.6453 167.693 57.692C167.693 57.7388 167.707 57.7844 167.735 57.8224C167.762 57.8604 167.8 57.889 167.845 57.904L168.845 58.472C168.96 58.5291 169.086 58.5589 169.215 58.5589C169.343 58.5589 169.47 58.5291 169.585 58.472L175.781 54.8961L176.085 55.072L169.781 58.672Z" fill="#FAFAFA"/>
<path d="M176.083 55.0522V67.6282L169.779 71.2482C169.588 71.343 169.378 71.3924 169.165 71.3924C168.952 71.3924 168.742 71.343 168.551 71.2482L167.471 70.6282C167.401 70.5973 167.341 70.5483 167.297 70.4865C167.253 70.4246 167.226 70.352 167.219 70.2762V57.7002C167.226 57.776 167.253 57.8486 167.297 57.9105C167.341 57.9723 167.401 58.0213 167.471 58.0522L168.551 58.6722C168.741 58.7689 168.951 58.8192 169.165 58.8192C169.378 58.8192 169.589 58.7689 169.779 58.6722L176.083 55.0522Z" fill="#E0E0E0"/>
<path d="M169.163 58.8202C168.949 58.8249 168.738 58.7739 168.551 58.6722L167.471 58.0522C167.401 58.0212 167.341 57.9723 167.297 57.9104C167.253 57.8485 167.226 57.776 167.219 57.7002V70.2762C167.226 70.352 167.253 70.4245 167.297 70.4864C167.341 70.5483 167.401 70.5972 167.471 70.6282L168.551 71.2482C168.739 71.3468 168.95 71.3963 169.163 71.3922V58.8202Z" fill="#F0F0F0"/>
<path d="M176.749 55.436L170.141 59.252V71.828L176.749 68.012V55.436Z" fill="#EBEBEB"/>
<path d="M170.352 59.464L176.752 55.792C177.144 56.2056 177.656 56.4855 178.216 56.592L171.872 60.248C171.332 60.0554 170.821 59.7917 170.352 59.464Z" fill="white"/>
<path d="M172.484 60.224C172.293 60.3206 172.082 60.371 171.868 60.371C171.654 60.371 171.443 60.3206 171.252 60.224L170.176 59.6C170.101 59.5758 170.036 59.5285 169.989 59.4649C169.943 59.4013 169.918 59.3247 169.918 59.246C169.918 59.1673 169.943 59.0907 169.989 59.0271C170.036 58.9635 170.101 58.9162 170.176 58.892L176.48 55.292L176.748 55.444L170.548 59.024C170.503 59.0391 170.465 59.0676 170.438 59.1057C170.411 59.1437 170.396 59.1892 170.396 59.236C170.396 59.2827 170.411 59.3283 170.438 59.3663C170.465 59.4043 170.503 59.4329 170.548 59.448L171.548 60.016C171.663 60.0731 171.789 60.1028 171.918 60.1028C172.046 60.1028 172.173 60.0731 172.288 60.016L178.484 56.44L178.788 56.616L172.484 60.224Z" fill="#FAFAFA"/>
<path d="M178.798 56.604V69.2L172.482 72.8C172.29 72.8948 172.08 72.9442 171.866 72.9442C171.652 72.9442 171.441 72.8948 171.25 72.8L170.174 72.18C170.104 72.1492 170.043 72.1004 169.998 72.0386C169.953 71.9768 169.926 71.9041 169.918 71.828V59.252C169.926 59.3281 169.953 59.4008 169.998 59.4626C170.043 59.5244 170.104 59.5732 170.174 59.604L171.25 60.224C171.441 60.3207 171.652 60.371 171.866 60.371C172.08 60.371 172.291 60.3207 172.482 60.224L178.798 56.604Z" fill="#E0E0E0"/>
<path d="M171.866 60.372C171.651 60.3767 171.439 60.3257 171.25 60.224L170.174 59.6C170.104 59.5693 170.043 59.5205 169.998 59.4586C169.953 59.3968 169.926 59.3241 169.918 59.248V71.824C169.926 71.9001 169.953 71.9728 169.998 72.0346C170.043 72.0965 170.104 72.1453 170.174 72.1761L171.25 72.7961C171.44 72.8947 171.652 72.9442 171.866 72.9401V60.372Z" fill="#F0F0F0"/>
<path d="M179.417 58.104L172.809 61.92L174.861 74.876L181.473 71.06L179.417 58.104Z" fill="#EBEBEB"/>
<path d="M173.066 62.1002L179.466 58.4282C179.967 58.7941 180.554 59.0217 181.17 59.0882L174.826 62.7442C174.218 62.5954 173.627 62.3794 173.066 62.1002Z" fill="white"/>
<path d="M175.491 62.6961C175.284 62.7942 175.059 62.8501 174.831 62.8604C174.602 62.8707 174.374 62.8352 174.159 62.7561L172.899 62.2401C172.499 62.0801 172.455 61.7921 172.795 61.5961L179.103 57.9761L179.415 58.1041L173.215 61.7041C173.011 61.8201 173.039 61.9921 173.279 62.1041L174.447 62.5761C174.576 62.623 174.713 62.644 174.85 62.6378C174.988 62.6317 175.122 62.5984 175.247 62.5401L181.443 58.9641L181.799 59.1081L175.491 62.6961Z" fill="#FAFAFA"/>
<path d="M181.798 59.0762L183.85 72.0322L177.542 75.6322C177.335 75.7297 177.111 75.7849 176.882 75.7945C176.653 75.8041 176.425 75.7679 176.21 75.6882L174.95 75.2002C174.754 75.1202 174.642 75.0082 174.626 74.8882L172.57 61.9362C172.59 62.0522 172.702 62.1642 172.898 62.2442L174.158 62.7602C174.373 62.8393 174.602 62.8748 174.83 62.8645C175.059 62.8542 175.283 62.7983 175.49 62.7002L181.798 59.0762Z" fill="#E0E0E0"/>
<path d="M174.846 62.8601C174.612 62.8745 174.378 62.839 174.158 62.7561L172.898 62.2401C172.702 62.1601 172.59 62.0481 172.57 61.9321L174.626 74.8841C174.626 75.0041 174.754 75.1161 174.95 75.1961L176.21 75.7081C176.429 75.7928 176.664 75.8284 176.898 75.8121L174.846 62.8601Z" fill="#F0F0F0"/>
<path d="M147.68 37.1681L158.948 30.6641L188.616 47.7721V49.0081L177.348 55.5161L147.68 38.4041V37.1681Z" fill="#EBEBEB"/>
<path d="M177.348 54.2761L147.68 37.1681L158.948 30.6641L188.616 47.7721L177.348 54.2761Z" fill="#FAFAFA"/>
<path d="M177.348 54.276V55.516L188.616 49.008V47.772L177.348 54.276Z" fill="#E6E6E6"/>
<path d="M157.214 18.7441L149.906 22.9641V36.8641L157.214 32.6441V18.7441Z" fill="#EBEBEB"/>
<path d="M150.145 23.2002L157.201 19.1362C157.627 19.593 158.187 19.9025 158.801 20.0202L151.821 24.0642C151.226 23.8509 150.663 23.5605 150.145 23.2002Z" fill="white"/>
<path d="M152.499 24.0402C152.288 24.1448 152.056 24.1993 151.821 24.1993C151.586 24.1993 151.354 24.1448 151.143 24.0402L149.943 23.3562C149.837 23.3562 149.735 23.314 149.66 23.239C149.585 23.164 149.543 23.0622 149.543 22.9562C149.543 22.8501 149.585 22.7483 149.66 22.6733C149.735 22.5983 149.837 22.5562 149.943 22.5562L156.911 18.5562L157.207 18.7242L150.355 22.6842C150.127 22.8122 150.127 23.0202 150.355 23.1522L151.459 23.7762C151.583 23.8384 151.72 23.8709 151.859 23.8709C151.998 23.8709 152.135 23.8384 152.259 23.7762L159.111 19.8282L159.443 20.0202L152.499 24.0402Z" fill="#FAFAFA"/>
<path d="M159.468 20.04V33.936L152.5 37.936C152.29 38.0425 152.058 38.098 151.822 38.098C151.586 38.098 151.354 38.0425 151.144 37.936L149.944 37.252C149.865 37.2172 149.798 37.1616 149.748 37.0911C149.699 37.0206 149.67 36.9379 149.664 36.852V22.964C149.67 23.0499 149.699 23.1326 149.748 23.2031C149.798 23.2736 149.865 23.3292 149.944 23.364L151.144 24.048C151.355 24.1527 151.587 24.2072 151.822 24.2072C152.057 24.2072 152.289 24.1527 152.5 24.048L159.468 20.04Z" fill="#E0E0E0"/>
<path d="M151.82 24.2001C151.585 24.2056 151.352 24.1505 151.144 24.0401L149.944 23.3561C149.865 23.3212 149.798 23.2656 149.748 23.1951C149.699 23.1246 149.67 23.0419 149.664 22.9561V36.8641C149.67 36.9499 149.699 37.0326 149.748 37.1031C149.798 37.1736 149.865 37.2292 149.944 37.2641L151.144 37.9481C151.352 38.0585 151.585 38.1136 151.82 38.1081V24.2001Z" fill="#F0F0F0"/>
<path d="M160.05 21.1602L152.746 25.3802L155.014 39.7002L162.322 35.4802L160.05 21.1602Z" fill="#EBEBEB"/>
<path d="M153.035 25.6L160.111 21.52C160.662 21.9246 161.311 22.1758 161.991 22.248L154.979 26.292C154.308 26.1333 153.656 25.9013 153.035 25.6Z" fill="white"/>
<path d="M155.712 26.236C155.483 26.3446 155.235 26.4062 154.982 26.4172C154.73 26.4282 154.477 26.3883 154.24 26.3L152.848 25.732C152.412 25.556 152.36 25.236 152.736 25.02L159.708 21.02L160.052 21.16L153.2 25.116C152.976 25.244 153.004 25.436 153.268 25.544L154.56 26.064C154.702 26.1173 154.854 26.1412 155.006 26.1343C155.158 26.1275 155.307 26.0899 155.444 26.024L162.296 22.076L162.696 22.236L155.712 26.236Z" fill="#FAFAFA"/>
<path d="M162.684 22.2363L164.952 36.5523L157.984 40.5523C157.755 40.6601 157.506 40.7213 157.253 40.7323C156.999 40.7433 156.746 40.7039 156.508 40.6163L155.12 40.0483C154.9 39.9603 154.776 39.8363 154.756 39.7043L152.488 25.3843C152.488 25.5163 152.632 25.6403 152.848 25.7283L154.24 26.3003C154.478 26.3871 154.73 26.4258 154.983 26.4142C155.236 26.4025 155.484 26.3407 155.712 26.2323L162.684 22.2363Z" fill="#E0E0E0"/>
<path d="M155 26.4001C154.742 26.4156 154.483 26.3774 154.24 26.2881L152.848 25.7161C152.632 25.6281 152.508 25.5041 152.488 25.3721L154.756 39.6921C154.776 39.8241 154.9 39.9481 155.12 40.0361L156.508 40.6041C156.751 40.6946 157.01 40.7341 157.268 40.7201L155 26.4001Z" fill="#F0F0F0"/>
<path d="M172.194 47.1682L171.678 47.4202L162.094 41.8842L162.61 41.6362L172.194 47.1682Z" fill="#FAFAFA"/>
<path d="M162.609 41.636L171.725 46.9L173.053 33.26L163.933 28L162.609 41.636Z" fill="white"/>
<path d="M161.117 42.3404L172.465 48.8924L174.029 32.8004L162.681 26.2524L161.117 42.3404ZM163.469 27.7244L173.069 33.2604L171.693 47.4204L162.093 41.8844L163.469 27.7244Z" fill="#F0F0F0"/>
<path d="M162.094 41.8841L162.61 41.6361L163.934 28.0001L163.47 27.7241L162.094 41.8841Z" fill="#E0E0E0"/>
<path d="M162.68 26.2522L163.204 26.0122L174.552 32.5642L174.028 32.8042L162.68 26.2522Z" fill="#FAFAFA"/>
<path d="M174.553 32.5645L174.029 32.8045L172.465 48.8925L172.989 48.6485L174.553 32.5645Z" fill="#E0E0E0"/>
<path d="M163.008 41.3762L171.416 46.2282L171.64 43.9322L170.076 37.1802L168.584 39.4842L168.892 41.4242L166.408 34.2642L163.232 39.0802L163.008 41.3762Z" fill="#F0F0F0"/>
<path d="M170.204 34.3402C170.378 34.451 170.521 34.605 170.618 34.7872C170.716 34.9694 170.765 35.1736 170.76 35.3802C170.724 35.7522 170.416 35.8962 170.072 35.7002C169.898 35.5894 169.755 35.4354 169.657 35.2532C169.56 35.071 169.511 34.8667 169.516 34.6602C169.552 34.2842 169.86 34.1402 170.204 34.3402Z" fill="#F0F0F0"/>
<path opacity="0.05" d="M176.913 46.2242C175.357 47.1202 175.357 48.5763 176.913 49.4763C177.786 49.9181 178.751 50.1483 179.729 50.1483C180.707 50.1483 181.672 49.9181 182.545 49.4763C184.101 48.5763 184.097 47.1202 182.545 46.2242C181.673 45.7806 180.708 45.5493 179.729 45.5493C178.75 45.5493 177.785 45.7806 176.913 46.2242Z" fill="black"/>
<path d="M182.262 48.4881C183.614 47.1041 184.41 43.6561 183.09 42.5601H176.37C175.046 43.6561 175.842 47.1041 177.194 48.4881L177.234 48.5241L177.278 48.5681L177.402 48.6801L177.434 48.7041C177.467 48.7316 177.502 48.757 177.538 48.7801C177.593 48.8216 177.65 48.859 177.71 48.8921C178.335 49.2097 179.027 49.3752 179.728 49.3752C180.429 49.3752 181.121 49.2097 181.746 48.8921C181.807 48.8585 181.866 48.8211 181.922 48.7801L182.018 48.7081L182.058 48.6761L182.174 48.5721L182.23 48.5201L182.262 48.4881Z" fill="#F5F5F5"/>
<path d="M176.95 42.0321C175.418 42.9201 175.418 44.3521 176.95 45.2321C177.811 45.6679 178.763 45.895 179.728 45.895C180.693 45.895 181.645 45.6679 182.506 45.2321C184.038 44.3481 184.038 42.9121 182.506 42.0321C181.645 41.5962 180.693 41.3691 179.728 41.3691C178.763 41.3691 177.811 41.5962 176.95 42.0321Z" fill="white"/>
<path d="M178.039 42.66C177.107 43.2 177.107 44.072 178.039 44.612C178.562 44.8782 179.141 45.017 179.729 45.017C180.316 45.017 180.895 44.8782 181.419 44.612C182.351 44.072 182.351 43.2 181.419 42.66C180.895 42.3937 180.316 42.2549 179.729 42.2549C179.141 42.2549 178.562 42.3937 178.039 42.66Z" fill="#EBEBEB"/>
<path d="M181.416 43.5999C180.893 43.3336 180.314 43.1948 179.726 43.1948C179.139 43.1948 178.56 43.3336 178.036 43.5999C177.811 43.7209 177.62 43.897 177.48 44.1119C177.621 44.3259 177.812 44.5018 178.036 44.6239C178.56 44.8902 179.139 45.029 179.726 45.029C180.314 45.029 180.893 44.8902 181.416 44.6239C181.642 44.5018 181.835 44.3259 181.976 44.1119C181.836 43.8969 181.643 43.7208 181.416 43.5999Z" fill="#E0E0E0"/>
<path d="M178.247 44.1001C177.768 43.6155 177.357 43.0693 177.023 42.4761C176.459 41.4761 176.355 40.1401 176.647 39.9761C176.939 39.8121 178.127 41.1441 178.127 41.1441C178.016 40.5832 177.973 40.0111 177.999 39.4401C178.047 38.5521 178.263 37.7441 178.519 37.5801C178.775 37.4161 179.343 38.5401 179.587 39.3521C179.831 40.1641 179.987 40.8321 179.987 40.8321C180.083 40.1977 180.229 39.5718 180.423 38.9601C180.719 38.1161 180.987 37.9281 181.195 38.0121C181.403 38.0961 181.543 38.4881 181.595 39.6121C181.617 40.146 181.6 40.6808 181.543 41.2121C181.543 41.2121 181.963 40.7521 182.427 40.3041C182.891 39.8561 183.159 39.7481 183.303 39.8401C183.447 39.9321 183.491 40.6961 182.699 42.1281C182.306 42.8561 181.803 43.5187 181.207 44.0921C181.207 44.0921 180.115 44.8001 178.247 44.1001Z" fill="#EBEBEB"/>
<path opacity="0.99" d="M19.5984 141.78C13.9984 145.008 13.9984 150.24 19.5984 153.468C25.1984 156.696 34.2504 156.692 39.8384 153.468C45.4264 150.244 45.4384 145.008 39.8384 141.78C34.2384 138.552 25.1984 138.552 19.5984 141.78Z" fill="#E0E0E0"/>
<path d="M123.146 186.796C138.731 186.796 151.366 179.502 151.366 170.504C151.366 161.506 138.731 154.212 123.146 154.212C107.56 154.212 94.9258 161.506 94.9258 170.504C94.9258 179.502 107.56 186.796 123.146 186.796Z" fill="#E0E0E0"/>
<path d="M75.5296 187.304C91.5989 187.304 104.626 179.782 104.626 170.504C104.626 161.226 91.5989 153.704 75.5296 153.704C59.4603 153.704 46.4336 161.226 46.4336 170.504C46.4336 179.782 59.4603 187.304 75.5296 187.304Z" fill="#E0E0E0"/>
<path opacity="0.99" d="M170.612 151.876L188.308 141.68C188.398 141.65 188.476 141.591 188.532 141.514C188.588 141.436 188.618 141.343 188.618 141.248C188.618 141.153 188.588 141.06 188.532 140.982C188.476 140.905 188.398 140.847 188.308 140.816L150.26 118.8C150.029 118.683 149.774 118.622 149.516 118.622C149.257 118.622 149.002 118.683 148.772 118.8L131.08 128.976C130.989 129.007 130.911 129.065 130.855 129.142C130.799 129.22 130.77 129.313 130.77 129.408C130.77 129.503 130.799 129.596 130.855 129.674C130.911 129.751 130.989 129.81 131.08 129.84L169.128 151.876C169.357 151.993 169.612 152.054 169.87 152.054C170.127 152.054 170.382 151.993 170.612 151.876Z" fill="#E0E0E0"/>
<path d="M21.5997 149.6C17.3477 145.2 14.8517 134.128 18.9997 130.648H40.0797C44.2237 134.128 41.7277 145.204 37.4797 149.592C37.4437 149.636 37.4037 149.676 37.3637 149.716L37.2197 149.86C37.0997 149.976 36.9717 150.092 36.8197 150.204L36.7157 150.284C36.6117 150.368 36.5077 150.452 36.3957 150.532C36.2192 150.659 36.0363 150.776 35.8477 150.884C32.3477 152.928 26.6797 152.928 23.1837 150.884C22.9916 150.776 22.8059 150.657 22.6277 150.528C22.5237 150.452 22.4277 150.376 22.3317 150.3L22.2037 150.2C22.0717 150.092 21.9517 149.98 21.8357 149.868L21.6637 149.7L21.5997 149.6Z" fill="#EBEBEB"/>
<path d="M38.2474 129.236C43.0474 132.036 43.0474 136.604 38.2474 139.412C33.4474 142.22 25.6274 142.212 20.8154 139.412C16.0034 136.612 16.0154 132.044 20.8154 129.236C25.6154 126.428 33.4314 126.424 38.2474 129.236Z" fill="#FAFAFA"/>
<path d="M35.931 130.588C39.467 132.652 39.467 135.996 35.931 138.06C32.395 140.124 26.663 140.124 23.131 138.06C19.599 135.996 19.595 132.652 23.131 130.588C26.667 128.524 32.399 128.524 35.931 130.588Z" fill="#EBEBEB"/>
<path d="M23.1317 134.136C26.6637 132.072 32.3957 132.072 35.9317 134.136C36.7886 134.604 37.5158 135.277 38.0477 136.096C37.516 136.916 36.7889 137.591 35.9317 138.06C32.3957 140.124 26.6637 140.124 23.1317 138.06C22.2726 137.592 21.5439 136.917 21.0117 136.096C21.5442 135.276 22.2729 134.603 23.1317 134.136Z" fill="white"/>
<path d="M26.6414 107.932C25.2174 109.732 20.9374 110.524 18.8054 106.116C16.7974 102 14.6894 98.0802 14.0574 96.5562C13.4254 95.0322 14.9294 94.3962 14.9294 94.3962C14.9294 94.3962 14.8734 92.0482 18.9614 93.3282C23.0494 94.6082 26.0334 96.8082 28.0614 100.572C30.0894 104.336 29.2574 107.2 26.6414 107.932Z" fill="#F0F0F0"/>
<path d="M28.8201 113.808C28.6887 113.017 28.5125 112.235 28.2921 111.464C27.8461 109.935 27.29 108.441 26.6281 106.992C25.28 104.042 23.5139 101.302 21.3841 98.8561C20.1971 97.4616 18.882 96.1813 17.4561 95.0321C17.4161 95.0001 17.3881 95.0921 17.4201 95.1201C19.8274 97.2895 21.9316 99.7731 23.6761 102.504C25.3601 105.194 26.6872 108.092 27.6241 111.124C27.8908 111.972 28.1375 112.825 28.3642 113.684C28.5921 114.556 28.7641 115.444 28.9681 116.32C28.9921 116.408 29.1321 116.448 29.1281 116.32C29.0892 115.476 28.9863 114.636 28.8201 113.808Z" fill="#E0E0E0"/>
<path opacity="0.1" d="M28.8201 113.808C28.6887 113.017 28.5125 112.235 28.2921 111.464C27.8461 109.935 27.29 108.441 26.6281 106.992C25.28 104.042 23.5139 101.302 21.3841 98.8561C20.1971 97.4616 18.882 96.1813 17.4561 95.0321C17.4161 95.0001 17.3881 95.0921 17.4201 95.1201C19.8274 97.2895 21.9316 99.7731 23.6761 102.504C25.3601 105.194 26.6872 108.092 27.6241 111.124C27.8908 111.972 28.1375 112.825 28.3642 113.684C28.5921 114.556 28.7641 115.444 28.9681 116.32C28.9921 116.408 29.1321 116.448 29.1281 116.32C29.0892 115.476 28.9863 114.636 28.8201 113.808Z" fill="black"/>
<path d="M31.277 104.772C27.565 105.92 24.797 103.024 25.765 98.48C26.733 93.936 31.493 88.88 33.293 90.248C34.421 89.12 36.893 89.524 38.069 93.216C39.245 96.908 38.173 106.4 31.277 104.772Z" fill="#E0E0E0"/>
<path d="M33.4582 93.0121C32.4039 95.658 31.5783 98.3893 30.9902 101.176C30.3572 103.997 29.8792 106.851 29.5582 109.724C28.9531 115.287 28.6992 120.882 28.7982 126.476C28.7982 128.024 28.8302 129.568 28.8582 131.116C28.8862 132.664 28.8582 134.316 28.9982 135.916C29.0502 136.524 29.9142 136.36 29.9262 135.804C29.9822 133.004 29.8302 130.228 29.8022 127.444C29.7742 124.66 29.8022 121.94 29.8542 119.188C29.9472 113.582 30.4485 107.99 31.3542 102.456C31.6182 100.916 31.9142 99.3761 32.2742 97.8561C32.6502 96.2561 33.1142 94.6761 33.5342 93.0881C33.5662 93.0081 33.4942 92.9241 33.4582 93.0121Z" fill="#E0E0E0"/>
<path opacity="0.1" d="M33.4582 93.0121C32.4039 95.658 31.5783 98.3893 30.9902 101.176C30.3572 103.997 29.8792 106.851 29.5582 109.724C28.9531 115.287 28.6992 120.882 28.7982 126.476C28.7982 128.024 28.8302 129.568 28.8582 131.116C28.8862 132.664 28.8582 134.316 28.9982 135.916C29.0502 136.524 29.9142 136.36 29.9262 135.804C29.9822 133.004 29.8302 130.228 29.8022 127.444C29.7742 124.66 29.8022 121.94 29.8542 119.188C29.9472 113.582 30.4485 107.99 31.3542 102.456C31.6182 100.916 31.9142 99.3761 32.2742 97.8561C32.6502 96.2561 33.1142 94.6761 33.5342 93.0881C33.5662 93.0081 33.4942 92.9241 33.4582 93.0121Z" fill="black"/>
<path d="M24.3729 117.2C23.3009 119.404 19.6769 120.244 16.4009 117.752C13.1249 115.26 8.40087 103.796 11.9689 103.612C12.2449 101.828 22.6449 103.04 25.9929 110.452C28.4289 115.848 24.3729 117.2 24.3729 117.2Z" fill="#E0E0E0"/>
<path d="M28.7262 122.044C28.418 121.34 28.0639 120.658 27.6662 120C26.8662 118.652 26.0062 117.352 25.0822 116.088C23.1773 113.532 21.0168 111.178 18.6342 109.06C17.3319 107.853 15.9545 106.729 14.5102 105.696C14.4702 105.668 14.4622 105.76 14.4862 105.78C15.6582 106.764 16.8382 107.732 17.9422 108.796C19.0831 109.9 20.1672 111.062 21.1902 112.276C23.1743 114.601 24.9732 117.078 26.5702 119.684C27.0222 120.424 27.4342 121.188 27.8942 121.924C28.3542 122.66 28.9102 123.416 29.3542 124.2C29.4182 124.316 29.5862 124.316 29.5262 124.16C29.2502 123.464 29.0262 122.74 28.7262 122.044Z" fill="#E0E0E0"/>
<path opacity="0.1" d="M28.7262 122.044C28.418 121.34 28.0639 120.658 27.6662 120C26.8662 118.652 26.0062 117.352 25.0822 116.088C23.1773 113.532 21.0168 111.178 18.6342 109.06C17.3319 107.853 15.9545 106.729 14.5102 105.696C14.4702 105.668 14.4622 105.76 14.4862 105.78C15.6582 106.764 16.8382 107.732 17.9422 108.796C19.0831 109.9 20.1672 111.062 21.1902 112.276C23.1743 114.601 24.9732 117.078 26.5702 119.684C27.0222 120.424 27.4342 121.188 27.8942 121.924C28.3542 122.66 28.9102 123.416 29.3542 124.2C29.4182 124.316 29.5862 124.316 29.5262 124.16C29.2502 123.464 29.0262 122.74 28.7262 122.044Z" fill="black"/>
<path d="M31.1732 116.28C29.0532 115.796 28.9452 113.248 31.5972 110.12C34.2492 106.992 40.9332 105.628 41.2492 106.944C42.7332 106.944 42.7332 111.596 39.4452 115.872C36.1572 120.148 31.3732 119.152 31.1732 116.28Z" fill="#E0E0E0"/>
<path d="M35.3291 111.732C32.5235 113.685 30.3835 116.45 29.1971 119.656C29.1291 119.84 29.4411 120.104 29.5171 119.908C30.7207 116.735 32.7308 113.931 35.3491 111.772C35.3491 111.772 35.3571 111.712 35.3291 111.732Z" fill="#E0E0E0"/>
<path opacity="0.1" d="M35.3291 111.732C32.5235 113.685 30.3835 116.45 29.1971 119.656C29.1291 119.84 29.4411 120.104 29.5171 119.908C30.7207 116.735 32.7308 113.931 35.3491 111.772C35.3491 111.772 35.3571 111.712 35.3291 111.732Z" fill="black"/>
<path d="M33.599 131.8C30.659 133 31.919 136.492 34.799 139.148C37.679 141.804 41.771 142.508 43.743 142.368C45.715 142.228 46.223 141.968 46.223 141.968C46.223 141.968 46.539 138.944 46.223 137.104C45.9056 135.327 45.0837 133.679 43.8553 132.356C42.6268 131.033 41.0438 130.092 39.295 129.644C34.699 128.4 33.599 130.052 33.599 131.8Z" fill="#F0F0F0"/>
<path d="M41.735 136.968C40.375 135.448 38.935 133.936 37.235 132.804C35.535 131.672 33.331 130.764 31.323 131.452C30.547 131.716 29.323 132.492 29.483 133.452C29.483 133.548 29.667 133.784 29.783 133.652C30.0921 133.205 30.4459 132.791 30.839 132.416C31.3069 132.073 31.8608 131.867 32.439 131.82C33.8746 131.719 35.308 132.045 36.559 132.756C38.559 133.808 40.159 135.444 41.731 137.012C41.731 137.032 41.747 136.984 41.735 136.968Z" fill="#E0E0E0"/>
<path opacity="0.1" d="M41.735 136.968C40.375 135.448 38.935 133.936 37.235 132.804C35.535 131.672 33.331 130.764 31.323 131.452C30.547 131.716 29.323 132.492 29.483 133.452C29.483 133.548 29.667 133.784 29.783 133.652C30.0921 133.205 30.4459 132.791 30.839 132.416C31.3069 132.073 31.8608 131.867 32.439 131.82C33.8746 131.719 35.308 132.045 36.559 132.756C38.559 133.808 40.159 135.444 41.731 137.012C41.731 137.032 41.747 136.984 41.735 136.968Z" fill="black"/>
<path d="M22.4266 120.312C22.4586 119.064 20.1986 116.504 14.6906 116.944C12.1746 117.144 9.89063 117.824 8.02263 119.6C7.38478 120.181 6.96191 120.96 6.82263 121.812C6.76888 122.143 6.81483 122.483 6.95463 122.788C7.07424 123 7.23627 123.185 7.43063 123.332C8.75063 124.392 10.4666 124.112 12.0146 124.508C14.4146 125.12 19.4826 127.308 22.4146 125.852C25.3466 124.396 24.1746 121.224 22.4266 120.312Z" fill="#F0F0F0"/>
<path d="M27.3016 123.744C24.1576 119.452 18.0176 119.092 13.2176 120C11.6382 120.296 10.1022 120.789 8.64561 121.468C8.62561 121.468 8.64561 121.528 8.64561 121.52C11.157 120.603 13.7977 120.09 16.4696 120C19.0976 119.948 21.7456 120.28 24.1256 121.448C25.3026 122.035 26.351 122.851 27.2096 123.848C27.2976 123.956 27.3656 123.832 27.3016 123.744Z" fill="#E0E0E0"/>
<path opacity="0.1" d="M27.3016 123.744C24.1576 119.452 18.0176 119.092 13.2176 120C11.6382 120.296 10.1022 120.789 8.64561 121.468C8.62561 121.468 8.64561 121.528 8.64561 121.52C11.157 120.603 13.7977 120.09 16.4696 120C19.0976 119.948 21.7456 120.28 24.1256 121.448C25.3026 122.035 26.351 122.851 27.2096 123.848C27.2976 123.956 27.3656 123.832 27.3016 123.744Z" fill="black"/>
<path d="M36.447 109.72C36.371 111.828 39.335 113.052 42.207 111.228C45.079 109.404 48.083 107.628 50.743 106.944C53.403 106.26 54.663 104.088 53.823 103.04C52.983 101.992 51.647 99.34 44.655 100.204C37.663 101.068 35.187 104.204 34.227 106.444C33.267 108.684 35.395 110.328 36.447 109.72Z" fill="#F0F0F0"/>
<path d="M47.8276 103.032C46.8168 102.936 45.7969 103.042 44.8276 103.344C43.9456 103.573 43.0861 103.881 42.2596 104.264C40.6129 105.03 39.1287 106.106 37.8876 107.432C37.5345 107.811 37.2058 108.212 36.9036 108.632C36.5976 109.003 36.3458 109.415 36.1556 109.856C36.1076 109.992 36.3116 110.22 36.4316 110.076C36.7796 109.676 37.0396 109.192 37.3636 108.768C37.7133 108.318 38.0886 107.888 38.4876 107.48C39.2977 106.668 40.2029 105.956 41.1836 105.36C42.1272 104.778 43.1269 104.291 44.1676 103.908C44.7383 103.704 45.319 103.529 45.9076 103.384C46.5227 103.195 47.1642 103.106 47.8076 103.12C47.8436 103.112 47.8596 103.036 47.8276 103.032Z" fill="#E0E0E0"/>
<path opacity="0.1" d="M47.8276 103.032C46.8168 102.936 45.7969 103.042 44.8276 103.344C43.9456 103.573 43.0861 103.881 42.2596 104.264C40.6129 105.03 39.1287 106.106 37.8876 107.432C37.5345 107.811 37.2058 108.212 36.9036 108.632C36.5976 109.003 36.3458 109.415 36.1556 109.856C36.1076 109.992 36.3116 110.22 36.4316 110.076C36.7796 109.676 37.0396 109.192 37.3636 108.768C37.7133 108.318 38.0886 107.888 38.4876 107.48C39.2977 106.668 40.2029 105.956 41.1836 105.36C42.1272 104.778 43.1269 104.291 44.1676 103.908C44.7383 103.704 45.319 103.529 45.9076 103.384C46.5227 103.195 47.1642 103.106 47.8076 103.12C47.8436 103.112 47.8596 103.036 47.8276 103.032Z" fill="black"/>
<path d="M31.4297 121.096C30.4497 120.116 27.7897 120.344 26.5297 123.236C25.2697 126.128 27.9137 129.3 28.2097 130.192C29.4097 129.492 30.3697 129.908 32.5097 129.492C33.6991 129.206 34.7546 128.522 35.5 127.552C36.2455 126.583 36.6358 125.386 36.6057 124.164C36.4657 121.516 35.3457 119.764 31.4297 121.096Z" fill="#F0F0F0"/>
<path d="M31.3899 120.8C30.8572 121.139 30.4129 121.6 30.0938 122.144C29.7451 122.646 29.4628 123.19 29.2539 123.764C28.7966 124.937 28.668 126.212 28.8818 127.452C28.8818 127.5 28.9299 127.452 28.9299 127.428C28.8295 126.181 29.0412 124.929 29.5459 123.784C29.9121 122.989 30.4112 122.263 31.0218 121.636C31.228 121.47 31.4157 121.282 31.5818 121.076C31.6538 120.968 31.5419 120.732 31.3899 120.8Z" fill="#E0E0E0"/>
<path opacity="0.1" d="M31.3899 120.8C30.8572 121.139 30.4129 121.6 30.0938 122.144C29.7451 122.646 29.4628 123.19 29.2539 123.764C28.7966 124.937 28.668 126.212 28.8818 127.452C28.8818 127.5 28.9299 127.452 28.9299 127.428C28.8295 126.181 29.0412 124.929 29.5459 123.784C29.9121 122.989 30.4112 122.263 31.0218 121.636C31.228 121.47 31.4157 121.282 31.5818 121.076C31.6538 120.968 31.5419 120.732 31.3899 120.8Z" fill="black"/>
<path d="M27.3874 128.876C26.8433 126.788 24.1873 125.616 20.7393 125.36C19.0365 125.205 17.3248 125.537 15.8027 126.315C14.2805 127.094 13.0103 128.288 12.1393 129.76C10.3313 132.852 9.58335 135.312 10.6793 135.716C11.7753 136.12 16.4233 136.764 19.4234 137.032C22.4234 137.3 26.1673 136.756 28.6233 134.48C31.0793 132.204 30.2513 129.352 27.3874 128.876Z" fill="#E0E0E0"/>
<path d="M27.516 128.6C26.344 128.22 24.996 128.288 23.784 128.424C22.5838 128.562 21.4022 128.831 20.26 129.224C19.0538 129.65 17.8857 130.178 16.768 130.8C16.184 131.125 15.6093 131.465 15.044 131.82C14.5047 132.139 13.9888 132.496 13.5 132.888C13.5 132.888 13.5 132.976 13.5 132.964C14.068 132.708 14.6 132.348 15.14 132.044C15.68 131.74 16.316 131.392 16.912 131.092C18.0357 130.516 19.2018 130.027 20.4 129.628C21.5881 129.222 22.8188 128.954 24.068 128.828C25.234 128.769 26.4028 128.799 27.564 128.92C27.8 128.948 27.664 128.644 27.516 128.6Z" fill="#E0E0E0"/>
<path opacity="0.1" d="M27.516 128.6C26.344 128.22 24.996 128.288 23.784 128.424C22.5838 128.562 21.4022 128.831 20.26 129.224C19.0538 129.65 17.8857 130.178 16.768 130.8C16.184 131.125 15.6093 131.465 15.044 131.82C14.5047 132.139 13.9888 132.496 13.5 132.888C13.5 132.888 13.5 132.976 13.5 132.964C14.068 132.708 14.6 132.348 15.14 132.044C15.68 131.74 16.316 131.392 16.912 131.092C18.0357 130.516 19.2018 130.027 20.4 129.628C21.5881 129.222 22.8188 128.954 24.068 128.828C25.234 128.769 26.4028 128.799 27.564 128.92C27.8 128.948 27.664 128.644 27.516 128.6Z" fill="black"/>
<path d="M33.6737 123.752C31.2977 121.864 32.0737 117.352 40.4057 117.096C48.7377 116.84 54.6537 119.02 54.4057 121.696C55.7457 123.036 55.0657 126.784 48.3377 127.952C41.6097 129.12 31.9577 128.54 33.6737 123.752Z" fill="#E0E0E0"/>
<path d="M50.484 121.728C48.0299 121.325 45.5405 121.179 43.056 121.292C40.776 121.356 38.408 121.464 36.2 122.092C35.6252 122.25 35.0657 122.458 34.528 122.716C34.2782 122.836 34.0351 122.969 33.8 123.116C33.612 123.232 33.4 123.332 33.332 123.552C33.3255 123.587 33.3272 123.622 33.3371 123.656C33.3469 123.69 33.3647 123.721 33.3889 123.747C33.413 123.773 33.443 123.792 33.4762 123.804C33.5094 123.816 33.545 123.82 33.58 123.816C34.084 123.7 34.556 123.308 35.032 123.096C35.5001 122.89 35.9811 122.715 36.472 122.572C37.4171 122.301 38.3831 122.11 39.36 122C41.6867 121.705 44.031 121.571 46.376 121.6C47.7441 121.6 49.104 121.724 50.468 121.832C50.508 121.828 50.524 121.736 50.484 121.728Z" fill="#E0E0E0"/>
<path opacity="0.1" d="M50.484 121.728C48.0299 121.325 45.5405 121.179 43.056 121.292C40.776 121.356 38.408 121.464 36.2 122.092C35.6252 122.25 35.0657 122.458 34.528 122.716C34.2782 122.836 34.0351 122.969 33.8 123.116C33.612 123.232 33.4 123.332 33.332 123.552C33.3255 123.587 33.3272 123.622 33.3371 123.656C33.3469 123.69 33.3647 123.721 33.3889 123.747C33.413 123.773 33.443 123.792 33.4762 123.804C33.5094 123.816 33.545 123.82 33.58 123.816C34.084 123.7 34.556 123.308 35.032 123.096C35.5001 122.89 35.9811 122.715 36.472 122.572C37.4171 122.301 38.3831 122.11 39.36 122C41.6867 121.705 44.031 121.571 46.376 121.6C47.7441 121.6 49.104 121.724 50.468 121.832C50.508 121.828 50.524 121.736 50.484 121.728Z" fill="black"/>
<path d="M166.281 141.792L167.801 149.328L169.277 150.18L170.741 149.336L172.273 141.792L169.277 140.06L166.281 141.792Z" fill="#E0E0E0"/>
<path opacity="0.05" d="M166.281 141.792L167.801 149.328L169.277 150.18L170.741 149.336L172.273 141.792L169.277 140.06L166.281 141.792Z" fill="black"/>
<path d="M169.277 150.18V143.52L166.281 141.792L167.801 149.328L169.277 150.18Z" fill="#EBEBEB"/>
<path opacity="0.05" d="M166.281 141.792L167.261 146.66L169.277 147.824L171.281 146.664L172.273 141.792L169.277 140.06L166.281 141.792Z" fill="black"/>
<path d="M179.457 134.184L180.977 141.72L182.453 142.576L183.917 141.728L185.449 134.184L182.453 132.452L179.457 134.184Z" fill="#E0E0E0"/>
<path opacity="0.05" d="M179.457 134.184L180.977 141.72L182.453 142.576L183.917 141.728L185.449 134.184L182.453 132.452L179.457 134.184Z" fill="black"/>
<path d="M182.453 142.576V135.912L179.457 134.184L180.977 141.72L182.453 142.576Z" fill="#EBEBEB"/>
<path opacity="0.05" d="M179.457 134.184L180.437 139.052L182.453 140.216L184.461 139.056L185.449 134.184L182.453 132.452L179.457 134.184Z" fill="black"/>
<path d="M134.035 123.184L135.555 130.724L137.031 131.576L138.495 130.732L140.027 123.184L137.031 121.452L134.035 123.184Z" fill="#EBEBEB"/>
<path opacity="0.05" d="M134.035 123.184L135.555 130.724L137.031 131.576L138.495 130.732L140.027 123.184L137.031 121.452L134.035 123.184Z" fill="black"/>
<path d="M137.031 131.576V124.916L134.035 123.184L135.555 130.724L137.031 131.576Z" fill="#EBEBEB"/>
<path opacity="0.05" d="M134.035 123.184L135.019 128.052L137.031 129.216L139.039 128.056L140.027 123.184L137.031 121.452L134.035 123.184Z" fill="black"/>
<path d="M169.277 146.609L185.605 137.177V101.833L169.277 111.261V146.609Z" fill="#E0E0E0"/>
<path d="M169.276 111.261L133.188 90.4365V125.781L169.276 146.609V111.261Z" fill="#EBEBEB"/>
<path d="M133.188 90.4363L169.276 111.26L185.604 101.832L149.519 81.0083L133.188 90.4363Z" fill="#F5F5F5"/>
<path d="M166.942 128.772L135.518 110.636V123.608L135.09 123.856L166.51 141.988L166.942 141.74V128.772Z" fill="#E0E0E0"/>
<path d="M166.51 129.02L135.09 110.884V123.856L166.51 141.988V129.02Z" fill="#F5F5F5"/>
<path d="M152.123 124.048L148.947 122.216C148.547 121.976 148.203 122.084 148.203 122.456C148.233 122.685 148.316 122.904 148.445 123.096C148.574 123.288 148.746 123.447 148.947 123.56L152.123 125.392C152.523 125.632 152.867 125.524 152.867 125.152C152.837 124.923 152.755 124.704 152.625 124.512C152.496 124.321 152.324 124.162 152.123 124.048Z" fill="#E0E0E0"/>
<path d="M166.942 113.108L135.518 94.9761V107.948L135.09 108.196L166.514 126.328L166.942 126.08V113.108Z" fill="#E0E0E0"/>
<path d="M166.514 113.356L135.09 95.2241V108.196L166.514 126.328V113.356Z" fill="#F5F5F5"/>
<path d="M152.123 108.4L148.947 106.568C148.547 106.332 148.203 106.44 148.203 106.812C148.233 107.041 148.316 107.26 148.446 107.452C148.575 107.643 148.746 107.802 148.947 107.916L152.123 109.748C152.523 109.984 152.867 109.876 152.867 109.504C152.837 109.275 152.754 109.056 152.625 108.865C152.496 108.673 152.324 108.514 152.123 108.4Z" fill="#E0E0E0"/>
<path d="M164.993 97.2001C163.185 98.2441 163.185 99.9361 164.993 100.98C166.801 102.024 169.729 102.024 171.537 100.98C173.345 99.9361 173.345 98.2441 171.537 97.2001C169.729 96.1561 166.801 96.1441 164.993 97.2001Z" fill="#E0E0E0"/>
<path d="M171.14 99.3119C172.716 97.7119 173.64 93.7119 172.104 92.4199H164.292C162.76 93.6959 163.684 97.7039 165.256 99.3079C165.268 99.3245 165.283 99.3393 165.3 99.3519L165.352 99.4079C165.396 99.4479 165.444 99.4919 165.496 99.5319L165.532 99.5639C165.572 99.5919 165.608 99.6239 165.652 99.6519L165.856 99.7839C166.582 100.153 167.385 100.345 168.2 100.345C169.014 100.345 169.818 100.153 170.544 99.7839L170.748 99.6519L170.86 99.5679L170.904 99.5319C170.952 99.4919 171 99.4519 171.044 99.4079L171.104 99.3479L171.14 99.3119Z" fill="#EBEBEB"/>
<path d="M164.972 91.9082C163.192 92.9362 163.192 94.6082 164.972 95.6362C166.752 96.6642 169.644 96.6642 171.424 95.6362C173.204 94.6082 173.208 92.9362 171.424 91.9082C169.64 90.8802 166.756 90.8802 164.972 91.9082Z" fill="#FAFAFA"/>
<path d="M166.235 92.6402C165.151 93.2642 165.151 94.2802 166.235 94.9042C166.843 95.2137 167.516 95.375 168.199 95.375C168.881 95.375 169.554 95.2137 170.163 94.9042C171.247 94.2802 171.247 93.2642 170.163 92.6402C169.554 92.3308 168.881 92.1694 168.199 92.1694C167.516 92.1694 166.843 92.3308 166.235 92.6402Z" fill="#F5F5F5"/>
<path d="M170.162 93.7159C169.554 93.4064 168.881 93.2451 168.198 93.2451C167.515 93.2451 166.842 93.4064 166.234 93.7159C165.972 93.8559 165.749 94.0595 165.586 94.3079C165.748 94.5585 165.971 94.7636 166.234 94.9039C166.842 95.2134 167.515 95.3747 168.198 95.3747C168.881 95.3747 169.554 95.2134 170.162 94.9039C170.424 94.7625 170.647 94.5576 170.81 94.3079C170.646 94.0605 170.423 93.8572 170.162 93.7159Z" fill="#EBEBEB"/>
<path d="M166.475 94.3081C165.92 93.7446 165.443 93.1097 165.055 92.4201C164.399 91.2641 164.279 89.7081 164.615 89.5161C164.951 89.3241 166.335 90.8761 166.335 90.8761C166.209 90.2242 166.16 89.5595 166.191 88.8961C166.247 87.8641 166.499 86.9241 166.795 86.7361C167.091 86.5481 167.751 87.8481 168.035 88.7921C168.319 89.7361 168.491 90.5121 168.491 90.5121C168.604 89.776 168.774 89.0499 168.999 88.3401C169.343 87.3601 169.655 87.1401 169.899 87.2361C170.143 87.3321 170.299 87.7881 170.371 89.0961C170.396 89.7194 170.376 90.3436 170.311 90.9641C170.311 90.9641 170.799 90.4281 171.339 89.9081C171.879 89.3881 172.187 89.2601 172.355 89.3681C172.523 89.4761 172.571 90.3641 171.651 92.0281C171.196 92.8735 170.612 93.6428 169.919 94.3081C169.919 94.3081 168.647 95.1281 166.475 94.3081Z" fill="#E0E0E0"/>
<path d="M157.618 96.1524L157.042 96.4364L146.246 90.3044L146.826 90.0244L157.618 96.1524Z" fill="#FAFAFA"/>
<path d="M146.824 90.0243L157.092 95.8523L158.472 80.5443L148.204 74.7163L146.824 90.0243Z" fill="white"/>
<path d="M145.152 90.8241L157.932 98.0841L159.564 80.0281L146.764 72.7681L145.152 90.8241ZM147.676 74.4241L158.476 80.5561L157.044 96.4481L146.244 90.3201L147.676 74.4241Z" fill="#F0F0F0"/>
<path d="M146.246 90.3041L146.826 90.0241L148.206 74.7161L147.678 74.4121L146.246 90.3041Z" fill="#E0E0E0"/>
<path d="M146.781 72.7682L147.369 72.4922L160.149 79.7522L159.561 80.0282L146.781 72.7682Z" fill="#FAFAFA"/>
<path d="M160.15 79.752L159.562 80.028L157.934 98.084L158.522 97.808L160.15 79.752Z" fill="#E0E0E0"/>
<path d="M147.273 89.7286L156.737 95.1046L156.973 92.5286L155.165 84.9686L153.509 87.5646L153.873 89.7366L151.029 81.7246L147.505 87.1486L147.273 89.7286Z" fill="#F0F0F0"/>
<path d="M155.284 81.7804C155.482 81.9012 155.645 82.072 155.756 82.2757C155.867 82.4793 155.922 82.7086 155.916 82.9404C155.88 83.3604 155.516 83.5244 155.148 83.3044C154.95 83.1836 154.787 83.0128 154.676 82.8091C154.566 82.6055 154.51 82.3762 154.516 82.1444C154.556 81.7244 154.9 81.5604 155.284 81.7804Z" fill="#F0F0F0"/>
<path d="M128.074 163.732L129.85 162.892L128.098 162.42L128.074 163.732Z" fill="#263238"/>
<path d="M145.698 166.912C145.698 166.912 124.73 157.764 124.47 159.124C124.41 159.394 124.41 159.674 124.47 159.944L124.41 159.868L124.81 162.408C125.752 163.148 126.883 163.607 128.074 163.732C128.074 163.608 128.074 162.852 128.098 162.42C128.743 162.677 129.361 162.995 129.946 163.368C131.29 164.228 132.154 165.728 133.582 167.472C134.622 168.74 136.474 169.336 139.218 169.716C142.174 170.116 144.778 169.584 145.51 168.82C146.098 168.212 145.802 167.088 145.698 166.912Z" fill="#263238"/>
<path d="M145.117 166.44C144.917 166.236 144.169 165.44 143.157 164.576C142.269 163.816 141.241 162.86 140.129 162.084C139.596 161.726 139.094 161.325 138.629 160.884C138.261 160.484 137.913 160.112 137.585 159.684C136.591 158.402 135.741 157.013 135.053 155.544C134.725 154.852 134.129 153.332 134.297 150.516C134.557 146.248 134.917 144.708 134.933 141.936L124.933 143.236C125.225 144.772 125.537 148.204 125.689 149.952C125.925 152.612 126.329 152.864 125.253 155.512C124.937 156.312 124.453 157.044 124.421 157.88C124.357 159.24 125.465 160.416 126.705 161.08C127.733 161.636 128.913 161.88 129.905 162.46C130.915 163.124 131.8 163.962 132.517 164.936C133.221 165.808 133.789 166.836 134.777 167.448C135.877 168.128 136.921 168.34 138.193 168.592C139.709 168.852 141.25 168.929 142.785 168.82C144.965 168.684 146.585 167.924 145.117 166.44Z" fill="#FFBDA7"/>
<path d="M143.912 164.952C143.012 164.22 141.732 163.168 140.184 161.988C139.652 161.808 139.089 161.741 138.529 161.789C137.97 161.837 137.426 162 136.932 162.268C133.816 163.84 133.284 166.076 133.284 166.076C133.821 167.096 134.733 167.866 135.828 168.224C139.428 169.744 145.868 169.272 145.932 167.676C145.972 166.656 145.012 165.844 143.912 164.952ZM125.452 154.952C125.452 154.952 125.24 155.476 124.692 156.504C124.144 157.532 124.04 158.556 124.724 159.584C125.628 160.944 126.724 161.364 127.88 161.652C128.876 158.632 126.7 155.6 125.452 154.96V154.952Z" fill="#37474F"/>
<path d="M112.549 162.06C112.621 163.096 112.513 166.184 112.733 168.496C112.937 170.596 113.533 173.856 113.041 176.344C112.525 178.896 110.217 181.664 106.817 179.492C104.709 178.148 103.817 176.456 103.429 173.44C103.161 171.344 104.021 168.392 104.753 165.776C105.613 162.72 105.921 161.092 105.921 161.092L112.549 162.06Z" fill="#263238"/>
<path d="M105.201 146.82C105.201 149.66 105.553 154.36 105.705 157.504C105.705 158.968 105.749 161.02 105.441 162.58C105.041 164.604 104.601 167.412 104.309 168.724C103.909 170.56 103.585 171.72 104.377 173.728C104.444 173.886 104.529 174.037 104.629 174.176C105.693 175.816 108.293 176.976 109.101 176.74C109.289 176.926 109.522 177.058 109.778 177.125C110.033 177.192 110.302 177.19 110.557 177.12C110.647 177.103 110.737 177.08 110.825 177.052C110.917 177.024 111.007 176.988 111.093 176.944C111.41 176.784 111.691 176.558 111.916 176.283C112.141 176.007 112.306 175.687 112.401 175.344C112.448 175.198 112.485 175.048 112.513 174.896C112.837 173.263 112.89 171.587 112.669 169.936C112.597 168.736 112.553 167.016 112.605 165.168C112.657 163.32 114.405 153.652 115.081 147.844L105.201 146.82Z" fill="#FFBDA7"/>
<path d="M103.878 171.108C105.878 170.252 111.878 170 112.91 172.444C113.018 174.776 112.91 176.264 111.282 178.364C109.13 181.164 106.082 178.412 104.91 176.644C103.738 174.876 103.65 172.376 103.878 171.108Z" fill="#37474F"/>
<path d="M111.905 76.9761C109.149 81.3321 106.621 85.9601 106.305 95.9321C105.905 109.068 107.281 120.732 107.157 122.332C107.033 123.932 106.337 126.524 105.129 134.376C103.921 142.228 105.297 157.464 105.297 157.464C105.297 157.464 106.189 159.268 109.325 159.672C112.221 160.044 113.601 158.764 113.601 158.764C113.601 158.764 118.545 137.78 119.857 133.076C121.169 128.372 123.149 111.536 123.149 111.536L123.641 120.468C123.641 120.468 122.561 124.784 123.133 131.736C123.705 138.688 125.781 152.136 125.781 152.136C125.781 152.136 127.073 153.488 130.161 153.424C132.981 153.364 134.429 151.892 134.429 151.892C134.429 151.892 137.573 125.492 137.925 117.664C138.277 109.836 138.373 90.2321 136.325 78.5161L111.905 76.9761Z" fill="#37474F"/>
<path d="M125.047 95.2L123.151 111.532L123.643 120.464L123.887 111.236L126.603 96.468C128.603 96.096 133.763 92.868 134.251 89.688C131.423 93.796 125.047 95.2 125.047 95.2ZM112.679 142.9C112.028 147.007 111.432 151.123 110.891 155.248C111.765 151.176 112.585 147.096 113.351 143.008C114.127 138.916 114.851 134.836 115.567 130.724C116.283 126.612 116.923 117.312 117.227 113.168C117.531 109.024 117.731 104.872 117.875 100.72C117.395 104.852 116.971 108.984 116.547 113.12C116.123 117.256 115.379 126.52 114.707 130.608C114.035 134.696 113.315 138.8 112.679 142.9ZM134.219 113.12C134.219 114.92 134.255 116.72 134.143 118.512C134.031 120.304 133.831 122.112 133.655 123.896L133.127 129.292C132.772 132.892 132.46 136.492 132.191 140.092C132.793 136.521 133.327 132.941 133.791 129.352C134.263 125.752 134.711 122.184 134.991 118.552C135.143 114.896 134.991 111.292 134.807 107.672C134.623 104.052 134.327 100.444 133.907 96.848L134.127 107.692C134.175 109.508 134.215 111.316 134.219 113.12Z" fill="#263238"/>
<path d="M114.125 30.3601C110.901 31.4401 110.213 34.6041 110.125 40.0241C110.097 42.1281 110.177 43.9921 108.397 45.4241C107.449 46.1921 106.321 46.7561 105.513 47.6721C104.173 49.1881 104.057 51.7881 105.557 53.1481C104.999 53.3759 104.513 53.7518 104.152 54.2353C103.791 54.7189 103.569 55.2917 103.509 55.8921C103.408 57.103 103.758 58.3085 104.493 59.2761C105.941 61.3001 108.757 62.0761 111.149 61.6201C111.737 63.2201 113.449 64.2441 115.149 64.3521C116.849 64.4601 118.533 63.7761 119.949 62.8121C120.849 64.5161 123.105 65.0681 124.877 64.7881C125.787 64.6493 126.657 64.3172 127.427 63.8142C128.198 63.3113 128.852 62.649 129.345 61.8721C129.404 61.7593 129.492 61.6651 129.601 61.6001C129.687 61.5643 129.78 61.5479 129.873 61.5521C131.093 61.5241 132.253 61.5201 133.349 60.9521C134.346 60.5027 135.202 59.7906 135.825 58.8921C136.231 58.2531 136.466 57.5201 136.505 56.7641C136.573 56.1307 136.464 55.4909 136.189 54.9161C137.221 54.1161 137.317 51.7161 136.989 50.4281C136.661 49.1401 135.817 48.0721 134.905 47.1201C133.993 46.1681 132.985 45.2961 132.209 44.2281C131.559 43.3411 131.24 42.2539 131.309 41.1561C131.309 40.5121 131.009 39.3321 131.457 38.7761C131.457 38.7761 133.417 36.3441 133.301 33.7481C133.243 31.9414 132.584 30.2057 131.428 28.8155C130.273 27.4253 128.687 26.4599 126.921 26.0721C122.945 25.0761 115.733 25.4881 114.125 30.3601Z" fill="#263238"/>
<path d="M129.84 51.8643C132.312 52.0763 136.184 52.4083 138.504 57.4283C141.26 63.3883 143.628 69.0003 145.628 76.9563L139.7 77.3323L134.432 68.8883L129.84 51.8643Z" fill="#FFBDA7"/>
<path d="M140.907 69.9599C139.933 68.9713 139.084 67.867 138.379 66.6719C139.687 63.4719 138.543 57.7879 133.555 54.8999L132.535 61.8399L134.435 68.8879L139.703 77.3319C139.703 77.3319 145.271 81.3319 145.471 78.5639C145.471 78.4279 145.471 78.2999 145.471 78.1639C145.419 77.5599 145.339 76.9639 145.247 76.3519C144.643 73.2639 142.131 71.1439 140.907 69.9599Z" fill="#F0997A"/>
<path d="M108.573 83.2201C107.445 80.7601 109.885 78.4201 110.273 74.7601C110.541 72.2561 108.905 66.1161 108.905 66.1161C108.905 66.1161 113.197 62.4361 111.705 52.8081L119.889 51.3841C126.109 51.0241 129.841 51.8641 129.841 51.8641C131.517 53.1521 134.365 55.1361 136.285 58.1761C139.173 62.7441 137.977 66.4441 135.325 69.5361C135.301 70.1281 135.233 73.2601 136.897 79.6001C137.133 80.5001 137.741 82.0881 137.001 82.9321C132.841 87.6601 115.949 89.3921 108.573 83.2201Z" fill="#4070FF"/>
<path d="M113.119 39.4601C113.811 38.6361 115.247 38.2601 115.979 39.3561C116.431 40.0321 116.571 41.1801 117.231 40.9921C117.631 40.8801 117.767 40.3961 117.595 39.5201C117.595 39.5681 118.119 39.2401 118.155 39.2081C118.651 38.7681 118.527 38.1241 118.683 37.5481C118.855 36.9081 119.355 36.4241 119.651 35.8481C120.119 34.9441 119.919 33.8481 119.719 32.8801C119.631 32.4801 119.571 31.9761 119.867 31.6801C120.108 31.4877 120.415 31.396 120.723 31.4241C121.685 31.4975 122.637 31.6649 123.567 31.9241C124.502 32.1816 125.494 32.1495 126.411 31.8321C126.811 31.6681 127.127 31.4321 127.495 31.2361C127.856 31.0217 128.278 30.9344 128.695 30.9881C129.04 31.0823 129.353 31.2674 129.603 31.5241C130.863 32.6881 131.283 34.5401 131.603 36.1681C131.787 37.3965 131.867 38.6382 131.843 39.8801C132.007 45.1801 131.087 46.5001 129.991 47.4321C129.051 48.2321 127.591 48.6721 125.839 48.6921L125.895 51.7041C125.895 51.7041 128.475 56.4081 127.295 59.1841C127.295 59.1841 123.243 57.5481 120.767 55.5481C117.727 53.0921 117.211 51.8921 117.211 51.8921L117.087 43.5401C117.087 43.5401 115.855 45.4001 114.003 44.0001C112.443 42.8681 112.091 40.6921 113.119 39.4601Z" fill="#FFBDA7"/>
<path d="M125.867 48.6923C122.539 48.7483 119.287 47.3683 118.051 44.3843C118.051 44.3843 118.191 46.3843 119.463 47.5843C122.003 49.9843 125.887 49.7443 125.887 49.7443L125.867 48.6923Z" fill="#F0997A"/>
<path d="M122.069 38.0002C122.056 38.1563 122.09 38.3128 122.165 38.4501C122.24 38.5875 122.354 38.6997 122.493 38.7729C122.631 38.8461 122.788 38.877 122.944 38.8619C123.1 38.8467 123.248 38.7861 123.37 38.6876C123.491 38.5891 123.581 38.457 123.629 38.3077C123.676 38.1585 123.679 37.9985 123.636 37.8478C123.594 37.6971 123.508 37.5622 123.389 37.4599C123.27 37.3576 123.124 37.2923 122.969 37.2722C122.862 37.2584 122.753 37.2664 122.649 37.2958C122.544 37.3253 122.447 37.3756 122.363 37.4436C122.279 37.5117 122.21 37.5961 122.159 37.6918C122.109 37.7875 122.078 37.8924 122.069 38.0002Z" fill="#263238"/>
<path d="M128.401 38.2119C128.449 38.3617 128.54 38.4941 128.663 38.5925C128.785 38.6909 128.934 38.751 129.091 38.7652C129.248 38.7794 129.405 38.7471 129.543 38.6724C129.682 38.5977 129.795 38.4838 129.869 38.3451C129.943 38.2063 129.975 38.0488 129.96 37.8923C129.945 37.7357 129.884 37.587 129.785 37.4648C129.686 37.3426 129.553 37.2523 129.403 37.2052C129.253 37.1581 129.092 37.1562 128.941 37.1999C128.838 37.2296 128.743 37.2796 128.66 37.3469C128.577 37.4142 128.508 37.4975 128.457 37.5918C128.407 37.6862 128.376 37.7897 128.367 37.8962C128.357 38.0027 128.369 38.11 128.401 38.2119Z" fill="#263238"/>
<path d="M121.828 34.9599L123.72 34.0439C123.838 34.303 123.851 34.5979 123.757 34.8664C123.662 35.135 123.467 35.3564 123.212 35.4839C123.087 35.5441 122.952 35.5783 122.813 35.5844C122.675 35.5905 122.537 35.5683 122.408 35.5193C122.278 35.4703 122.16 35.3954 122.06 35.2992C121.961 35.2031 121.882 35.0876 121.828 34.9599Z" fill="#263238"/>
<path d="M130.152 34.5039L128.18 33.7759C128.088 34.0451 128.104 34.3393 128.224 34.5971C128.344 34.8549 128.559 35.0565 128.824 35.1599C128.954 35.2073 129.092 35.2279 129.231 35.2203C129.369 35.2128 129.504 35.1773 129.628 35.1159C129.752 35.0546 129.863 34.9688 129.953 34.8636C130.043 34.7584 130.111 34.636 130.152 34.5039Z" fill="#263238"/>
<path d="M127.205 43.3479L124.269 42.5479C124.171 42.9479 124.231 43.3704 124.436 43.7273C124.642 44.0842 124.977 44.348 125.373 44.4639C125.566 44.5155 125.768 44.5274 125.967 44.4988C126.165 44.4702 126.356 44.4016 126.527 44.2973C126.698 44.193 126.847 44.0551 126.963 43.892C127.079 43.7288 127.162 43.5437 127.205 43.3479Z" fill="#B16668"/>
<path d="M126.282 44.4002C126.177 44.0026 125.937 43.6541 125.603 43.4146C125.268 43.1751 124.861 43.0597 124.45 43.0882C124.377 43.096 124.303 43.108 124.23 43.1242C124.27 43.4321 124.397 43.722 124.598 43.9585C124.799 44.195 125.065 44.3679 125.362 44.4562C125.667 44.5368 125.99 44.5172 126.282 44.4002Z" fill="#F0997A"/>
<path d="M120.53 36.3599L115.406 38.8359C115.711 38.9911 115.956 39.2429 116.102 39.5519L120.802 37.2319L120.53 36.3599Z" fill="#263238"/>
<path d="M132.139 35.544L131.811 35.52C130.747 35.456 129.367 35.492 128.539 35.788C127.499 36.164 127.135 36.548 126.539 36.588C125.943 36.628 125.531 36.264 124.403 36C123.511 35.788 122.023 35.896 120.883 36.068L120.527 36.128C120.402 36.173 120.295 36.2576 120.223 36.3688C120.151 36.48 120.117 36.6117 120.127 36.744C120.164 36.9989 120.278 37.2362 120.455 37.424C120.511 37.5072 120.549 37.6012 120.567 37.7C120.683 38.18 120.747 39.116 120.967 39.632C121.077 39.8862 121.232 40.119 121.423 40.32C121.494 40.3917 121.572 40.4572 121.655 40.516L121.791 40.604C121.916 40.6795 122.051 40.7399 122.191 40.784H122.259L122.367 40.812L122.479 40.836C122.596 40.8564 122.715 40.8697 122.835 40.876H123.203C123.725 40.8906 124.24 40.7452 124.677 40.4592C125.115 40.1733 125.454 39.7604 125.651 39.276C126.007 38.516 125.899 37.484 126.567 37.452H126.631H126.691C127.191 37.544 127.147 38.5 127.491 39.176C127.616 39.4461 127.783 39.6946 127.987 39.912C128.023 39.9513 128.062 39.9887 128.103 40.024L128.167 40.08L128.231 40.128L128.291 40.172L128.355 40.212L128.407 40.244H128.443C128.628 40.3452 128.828 40.418 129.035 40.46H129.091C129.328 40.5028 129.57 40.5163 129.811 40.5C130.258 40.4995 130.693 40.356 131.053 40.0905C131.413 39.8249 131.678 39.4512 131.811 39.024C131.972 38.3789 132.083 37.7223 132.143 37.06C132.159 36.9671 132.198 36.8794 132.255 36.804C132.413 36.5953 132.507 36.3452 132.527 36.084C132.525 35.9651 132.487 35.8495 132.418 35.7529C132.348 35.6563 132.251 35.5834 132.139 35.544ZM125.259 38.612C125.185 39.0021 125.013 39.367 124.759 39.672C124.555 39.8924 124.308 40.067 124.032 40.1843C123.756 40.3015 123.458 40.3587 123.159 40.352C122.862 40.3858 122.562 40.3403 122.288 40.2201C122.015 40.1 121.778 39.9094 121.603 39.668L121.563 39.6C121.546 39.5769 121.532 39.5529 121.519 39.528L121.483 39.46C121.47 39.4409 121.46 39.4208 121.451 39.4L121.427 39.352C121.421 39.337 121.414 39.3223 121.407 39.308L121.379 39.232C121.349 39.1631 121.323 39.0923 121.303 39.02L121.267 38.892C121.267 38.82 121.231 38.748 121.219 38.688C121.221 38.6748 121.221 38.6612 121.219 38.648C121.219 38.648 121.219 38.62 121.219 38.608C121.111 38.1 120.991 37.1 121.243 36.86C121.495 36.62 122.155 36.356 123.243 36.412H123.359C123.524 36.4232 123.688 36.4446 123.851 36.476C123.919 36.476 123.979 36.5 124.043 36.512C124.205 36.5473 124.366 36.5927 124.523 36.648L124.671 36.704L124.831 36.772H124.863L124.923 36.804C125.048 36.8615 125.158 36.9462 125.247 37.052C125.435 37.364 125.379 38.032 125.259 38.612ZM131.603 38.072C131.535 38.472 131.391 39.36 130.639 39.784C130.392 39.9183 130.119 39.9949 129.839 40.008C129.525 40.055 129.204 40.0145 128.912 39.891C128.62 39.7675 128.368 39.5657 128.183 39.308C128.171 39.293 128.16 39.2769 128.151 39.26L128.115 39.208C128.115 39.1987 128.115 39.1893 128.115 39.18L128.071 39.1C128.054 39.0688 128.04 39.0367 128.027 39.004L128.003 38.96C128.003 38.96 128.003 38.96 128.003 38.932C128.001 38.92 128.001 38.908 128.003 38.896V38.864C127.955 38.7339 127.917 38.6001 127.891 38.464C127.767 37.896 127.691 37.236 127.891 36.916C128.091 36.596 128.871 36.212 129.631 36.08C129.793 36.0504 129.958 36.029 130.123 36.016H130.559H130.695C130.778 36.022 130.861 36.0326 130.943 36.048H131.003H131.043H131.103H131.175L131.295 36.088H131.315C131.414 36.1246 131.506 36.1788 131.587 36.248C131.759 36.548 131.671 37.552 131.603 38.072Z" fill="#37474F"/>
<path d="M125.844 38.6919L126.84 41.8919L129.412 40.6039C129.312 40.4559 126.872 37.6719 126.676 37.4799C126.582 37.4601 126.485 37.4681 126.396 37.5029C126.307 37.5377 126.231 37.5979 126.176 37.6759C126.003 37.9911 125.891 38.3356 125.844 38.6919Z" fill="#F0997A"/>
<path d="M132.113 69.8159C131.409 68.7387 130.362 67.931 129.141 67.5239C127.769 66.9851 126.433 66.3585 125.141 65.6479C124.597 65.3976 124.085 65.0819 123.617 64.7079C123.375 64.5015 123.192 64.2353 123.085 63.9359C123.019 63.6664 123.053 63.382 123.181 63.1359C122.869 62.9886 122.604 62.759 122.413 62.4719C122.259 62.1912 122.215 61.8633 122.289 61.5519C122.318 61.4535 122.367 61.3621 122.432 61.283C122.497 61.204 122.578 61.1389 122.669 61.0919C122.493 60.7959 121.961 59.9439 122.525 59.3119C122.721 59.1639 123.017 59.2319 123.261 59.2439C123.505 59.2559 124.061 59.3519 124.181 59.3759C124.237 59.2946 124.313 59.2286 124.401 59.1839C124.945 58.9107 125.562 58.8195 126.161 58.9239C126.817 59.0574 127.457 59.2571 128.073 59.5199C128.745 59.7599 129.449 59.9199 130.133 60.1239C130.276 60.1689 130.424 60.1984 130.573 60.2119C130.913 60.2119 131.245 60.0759 131.585 60.1159C131.877 60.1614 132.161 60.2476 132.429 60.3719C133.018 60.6424 133.506 61.0917 133.825 61.6559C134.721 63.1959 135.285 64.8559 136.345 66.2999C137.266 67.5151 138.291 68.6474 139.409 69.6839C141.153 71.3719 144.485 72.8839 145.441 76.2199C146.081 78.4319 146.041 81.5319 144.517 82.8439C143.517 83.7079 139.777 83.0119 137.717 80.7799C135.305 78.1439 133.009 71.3159 132.113 69.8159Z" fill="#FFBDA7"/>
<path d="M124.274 59.3643C126.371 59.7718 128.412 60.4229 130.358 61.3043C128.517 60.1753 126.429 59.5096 124.274 59.3643ZM126.394 61.5163C125.218 61.2163 123.97 60.9163 122.754 61.1163C125.186 61.1163 127.554 62.0083 129.79 62.8923C128.723 62.293 127.585 61.8306 126.402 61.5163H126.394ZM123.65 62.7563C123.489 62.7845 123.345 62.8713 123.244 62.9998C123.144 63.1283 123.095 63.2895 123.106 63.4523C123.158 62.6803 124.042 62.8203 124.574 62.9483C126.392 63.3443 128.162 63.9344 129.854 64.7083C128.236 63.7514 126.453 63.1044 124.598 62.8003C124.286 62.7357 123.966 62.7208 123.65 62.7563Z" fill="#F0997A"/>
<path d="M111.704 52.8003C108.752 53.6883 105.008 55.9443 105.932 61.8363C106.8 67.3803 110.42 79.6323 111.656 82.6883C113.056 86.1603 114.492 87.3803 116.352 87.7883C117.952 88.1363 119.74 87.0963 121.076 86.1483C124.9 83.4403 127.392 78.0043 130.096 72.3163C131.359 69.6334 132.287 66.8056 132.86 63.8963C132.969 63.2234 132.999 62.5402 132.952 61.8603C132.897 61.2175 132.733 60.5886 132.468 60.0003C132.424 59.9159 132.386 59.8291 132.352 59.7403C132.319 59.588 132.305 59.432 132.312 59.2763C132.321 58.8924 132.187 58.5189 131.936 58.2283C131.813 58.1116 131.679 58.0071 131.536 57.9163C131.491 57.8829 131.451 57.8439 131.416 57.8003C131.316 57.6563 131.368 57.4683 131.352 57.2963C131.317 57.1132 131.216 56.9491 131.069 56.8344C130.922 56.7197 130.738 56.6621 130.552 56.6723C130.344 56.7003 130.145 56.7753 129.97 56.8918C129.796 57.0082 129.65 57.163 129.544 57.3443C129.526 57.3727 129.501 57.3962 129.472 57.4123C129.438 57.4203 129.402 57.4203 129.368 57.4123C129.199 57.3897 129.027 57.4033 128.864 57.4523C128.712 57.4987 128.575 57.5826 128.464 57.6963C128.228 57.9866 128.079 58.3372 128.032 58.7083C127.904 59.3083 127.812 59.9083 127.68 60.5163C127.42 61.7163 127.316 62.9163 126.68 63.9843C126.624 64.0803 126.532 64.1883 126.42 64.1643C126.308 64.1403 126.28 64.0163 126.264 63.9123C126.1 62.8363 126.728 61.7083 125.888 60.7683C125.16 59.9683 125.048 61.5683 124.932 61.9683L124.464 63.6483C124.16 64.5659 123.987 65.5222 123.952 66.4883C123.952 67.4003 124.216 68.2963 124.18 69.2083C124.176 70.114 123.824 70.9835 123.196 71.6363C120.712 74.1483 119.596 75.1443 119.596 75.1443L117.66 65.8683C117.66 65.8683 117.368 60.5443 115.26 56.3363C113.828 53.6003 111.704 52.8003 111.704 52.8003Z" fill="#FFBDA7"/>
<path d="M129.6 57.5319C129.864 57.9839 129.764 58.5519 129.764 59.0559C129.688 60.5955 129.43 62.1207 128.996 63.5999C129.136 62.7239 129.308 61.4479 129.44 60.5559C129.548 59.8039 129.624 59.0319 129.684 58.2719C129.717 58.0201 129.691 57.7639 129.608 57.5239L129.6 57.5319Z" fill="#F0997A"/>
<path d="M131.363 57.8721C131.444 59.961 131.174 62.0489 130.562 64.0481C130.995 62.0481 131.09 59.9041 131.363 57.8721Z" fill="#F0997A"/>
<path d="M132.352 59.812C132.477 61.374 132.306 62.9456 131.848 64.444C132.004 63.076 132.248 61.168 132.352 59.812Z" fill="#F0997A"/>
<path d="M121.078 86.156C125.366 82.884 127.418 77.652 129.746 72.956C130.907 70.5653 131.82 68.0615 132.47 65.484C132.853 64.2137 132.989 62.8815 132.87 61.56C132.757 60.9052 132.559 60.2678 132.282 59.664C132.282 58.98 132.182 58.348 131.538 57.984C131.459 57.9315 131.396 57.8579 131.358 57.7716C131.319 57.6853 131.305 57.5898 131.318 57.496C131.326 57.3819 131.306 57.2676 131.26 57.1628C131.215 57.0581 131.144 56.9661 131.054 56.8948C130.965 56.8235 130.86 56.775 130.747 56.7536C130.635 56.7323 130.519 56.7385 130.41 56.772C130.064 56.8901 129.77 57.1267 129.582 57.44C129.559 57.4604 129.532 57.4756 129.503 57.4846C129.474 57.4936 129.444 57.4961 129.414 57.492C129.179 57.4528 128.937 57.4907 128.726 57.6C128.142 57.94 128.138 58.732 127.99 59.328C127.734 60.484 127.518 62.128 127.122 63.228C127.008 63.5479 126.853 63.8518 126.662 64.132C126.218 64.512 126.182 63.732 126.198 63.456C126.234 62.5 126.566 61.368 125.726 60.68C125.134 60.28 125.098 61.792 124.954 62.124L124.686 63.084C124.338 64.356 123.886 65.648 124.03 66.98C124.174 68.312 124.478 69.696 123.794 70.904C123.43 71.4651 122.988 71.9715 122.482 72.408C121.538 73.344 120.586 74.276 119.598 75.164C120.578 74.268 121.522 73.328 122.458 72.384C122.958 71.9484 123.392 71.4417 123.746 70.88C124.041 70.2875 124.179 69.6291 124.146 68.968C124.146 68.308 123.998 67.652 123.938 66.988C123.798 65.644 124.238 64.34 124.586 63.06L124.85 62.1C124.998 61.628 124.982 61.088 125.25 60.652C125.678 60.16 126.198 61.088 126.294 61.452C126.47 62.128 126.294 62.8 126.27 63.452C126.27 64.792 126.766 63.788 126.986 63.184C127.386 62.104 127.59 60.436 127.838 59.3C127.978 58.52 128.118 57.372 129.138 57.344C129.23 57.324 129.398 57.384 129.458 57.344C129.66 57.011 129.975 56.7614 130.346 56.64C130.475 56.6011 130.612 56.594 130.745 56.6195C130.878 56.6449 131.003 56.7021 131.109 56.7862C131.215 56.8702 131.299 56.9787 131.354 57.1023C131.409 57.2258 131.434 57.3609 131.426 57.496C131.412 57.5673 131.421 57.641 131.45 57.7073C131.479 57.7737 131.528 57.8297 131.59 57.868C131.889 58.0454 132.121 58.3169 132.25 58.64C132.345 58.9632 132.389 59.2992 132.382 59.636C132.662 60.2412 132.858 60.8818 132.966 61.54C133.086 62.8761 132.95 64.2228 132.566 65.508C131.905 68.0903 130.982 70.5981 129.81 72.992C127.478 77.684 125.382 82.92 121.058 86.152L121.078 86.156Z" fill="#F0997A"/>
<path d="M119.603 75.164C117.775 76.024 116.223 77.748 115.923 78.728C115.923 78.728 115.759 75.772 119.351 74.084L119.603 75.164Z" fill="#F0997A"/>
<path d="M63.1408 148.668C63.4728 152.812 63.6888 155.888 63.6288 156.596C63.4088 159.176 62.0688 160.772 61.0328 161.832C58.8648 164.052 57.3288 164.936 54.6328 166.848C54.9888 167.876 60.5328 167.976 62.1248 167.248C64.4409 166.151 66.683 164.904 68.8368 163.516C71.0488 161.956 71.5808 160.992 71.6808 158.536C71.6808 158.228 71.9168 156.232 71.8968 156.096C71.9288 155.52 72.2728 152.408 72.7248 148.576L63.1408 148.668Z" fill="#C8856A"/>
<path d="M95.7441 156.86L95.9561 147.104L85.4961 148.088L87.7161 157.432C87.7161 157.432 88.8161 170.632 89.3161 172.792C90.9881 179.72 96.6081 176.924 97.2761 173.252C97.7361 170.8 95.7441 156.86 95.7441 156.86Z" fill="#C8856A"/>
<path d="M50.2183 170.751C50.0743 170.751 49.9623 172.351 50.7823 172.983C51.7303 173.703 54.4503 174.807 57.9063 174.127C61.3623 173.447 63.1783 172.239 64.4983 170.975C65.8183 169.711 67.6623 167.935 69.2143 167.479C70.6583 167.059 72.9863 166.075 73.4263 165.591C73.8663 165.107 73.6703 163.087 73.6703 163.087L50.2183 170.751Z" fill="#263238"/>
<path d="M71.9004 156.091C72.0416 156.15 72.1685 156.238 72.2727 156.35C72.3769 156.462 72.4559 156.594 72.5044 156.739C72.6484 157.291 72.7004 158.003 72.9884 158.903C73.3884 160.151 73.7884 162.739 73.6524 163.787C73.5164 164.835 70.4044 165.927 68.9164 166.611C67.4284 167.295 65.6764 168.655 64.1804 170.067C62.6844 171.479 59.2724 173.115 57.0044 173.299C53.5404 173.575 51.2324 172.779 50.4604 171.575C49.5004 170.083 49.8244 168.447 53.6884 166.331C54.4164 165.931 56.9644 164.183 57.8324 163.555C58.7505 162.893 59.6121 162.156 60.4084 161.351C60.8115 160.943 61.192 160.513 61.5484 160.063C61.9234 159.659 62.235 159.201 62.4724 158.703C62.5124 158.595 62.5364 158.467 62.5684 158.355C62.6607 158.044 62.7276 157.726 62.7684 157.403C62.8084 157.063 62.8164 156.575 63.1204 156.355C63.4244 156.135 68.4364 156.791 68.8204 157.323C69.0729 157.758 69.2106 158.249 69.2204 158.751C69.2444 158.983 69.2564 159.219 69.2724 159.451C69.2724 159.551 69.2724 159.735 69.3884 159.683C69.5044 159.631 69.6404 159.283 69.6844 159.155C69.7764 158.887 69.8324 158.599 69.9364 158.335C70.019 158.014 70.169 157.714 70.3764 157.455C71.0044 156.855 71.6524 156.919 71.8284 156.715C71.8484 156.715 71.8924 156.291 71.9004 156.091Z" fill="#37474F"/>
<path d="M53.476 166.452C58.516 166.452 60.18 170.4 60.52 172.316C59.4057 172.823 58.2197 173.155 57.004 173.3C53.54 173.576 51.092 172.792 50.316 171.584C49.412 170.176 50 168.04 53.476 166.452Z" fill="#FAFAFA"/>
<path d="M60.8825 166.932C60.9389 166.928 60.9926 166.906 61.0345 166.868C61.0804 166.821 61.1061 166.757 61.1061 166.692C61.1061 166.626 61.0804 166.563 61.0345 166.516C60.2785 165.716 57.8985 164.008 56.0865 164.324C56.0248 164.338 55.9709 164.375 55.9359 164.428C55.9009 164.481 55.8874 164.545 55.8981 164.607C55.9089 164.67 55.9431 164.726 55.9937 164.764C56.0443 164.802 56.1076 164.819 56.1705 164.812C57.8625 164.52 60.0745 166.208 60.6745 166.856C60.7007 166.884 60.7332 166.905 60.7693 166.919C60.8055 166.932 60.8443 166.936 60.8825 166.932Z" fill="#F5F5F5"/>
<path d="M62.9647 165.524C63.0216 165.522 63.0758 165.499 63.1167 165.46C63.1624 165.413 63.188 165.351 63.188 165.286C63.188 165.221 63.1624 165.158 63.1167 165.112C62.3607 164.312 59.9767 162.596 58.1687 162.92C58.1368 162.925 58.1063 162.937 58.079 162.954C58.0516 162.971 58.028 162.993 58.0094 163.02C57.9907 163.046 57.9776 163.076 57.9706 163.108C57.9636 163.139 57.963 163.172 57.9687 163.204C57.9735 163.236 57.9848 163.267 58.0018 163.294C58.0189 163.322 58.0414 163.346 58.0679 163.364C58.0945 163.383 58.1245 163.396 58.1563 163.403C58.1881 163.41 58.2209 163.41 58.2527 163.404C59.9447 163.112 62.1567 164.804 62.7567 165.448C62.7823 165.477 62.8147 165.499 62.8511 165.512C62.8874 165.525 62.9265 165.529 62.9647 165.524Z" fill="#F5F5F5"/>
<path d="M64.8703 163.952C64.9273 163.947 64.9809 163.923 65.0224 163.884C65.068 163.837 65.0936 163.775 65.0936 163.71C65.0936 163.644 65.068 163.582 65.0224 163.536C64.2664 162.736 61.8784 161.024 60.0744 161.344C60.0105 161.355 59.9537 161.392 59.9163 161.445C59.8789 161.498 59.8639 161.563 59.8744 161.628C59.8797 161.659 59.8913 161.69 59.9085 161.717C59.9257 161.745 59.9481 161.768 59.9745 161.787C60.001 161.806 60.0308 161.819 60.0624 161.826C60.0939 161.833 60.1265 161.833 60.1583 161.828C61.8463 161.536 64.0664 163.228 64.6624 163.872C64.6884 163.9 64.7207 163.922 64.7569 163.936C64.793 163.95 64.8318 163.955 64.8703 163.952Z" fill="#F5F5F5"/>
<path d="M66.7396 162.376C66.795 162.373 66.8477 162.35 66.8876 162.312C66.936 162.268 66.9653 162.207 66.969 162.142C66.9727 162.077 66.9507 162.013 66.9076 161.964C65.8676 160.808 63.3476 159.456 61.5396 159.776C61.5078 159.781 61.4774 159.793 61.4501 159.81C61.4229 159.827 61.3993 159.85 61.3807 159.876C61.3432 159.93 61.3284 159.996 61.3396 160.06C61.3507 160.124 61.3869 160.181 61.4401 160.219C61.4934 160.256 61.5594 160.271 61.6236 160.26C63.2516 159.976 65.6236 161.272 66.5436 162.296C66.5677 162.323 66.5981 162.345 66.6321 162.359C66.6661 162.373 66.7029 162.379 66.7396 162.376Z" fill="#F5F5F5"/>
<path d="M88.5312 173.487C88.6873 175.783 89.0593 177.303 89.8833 178.643C90.7073 179.983 92.2473 180.387 93.7953 179.975C95.3433 179.563 97.3193 178.483 97.7393 176.499C98.1593 174.515 98.4112 173.147 98.0352 171.023L88.5312 173.487Z" fill="#263238"/>
<path d="M95.7431 156.86C96.3831 156.788 96.2471 159.952 96.6471 163.036C97.0751 166.344 97.5671 167.652 97.9471 170.364C98.3831 173.46 97.8871 174.852 96.8231 176.74C95.7591 178.628 91.9511 180.508 90.0231 177.844C88.4591 175.672 88.3711 173.244 88.4791 170.144C88.5871 166.944 88.2551 164.796 87.9711 162.38C87.6751 159.88 87.1511 157.696 87.7031 157.432C87.8491 158.241 88.0387 159.042 88.2711 159.832C88.3391 160.004 88.5911 160.432 88.6711 159.784C88.6991 159.592 88.6351 159.148 88.6471 158.956C88.651 158.786 88.7086 158.623 88.8113 158.489C88.9141 158.354 89.0569 158.256 89.2191 158.208C90.065 157.79 90.9958 157.574 91.9391 157.576C93.1871 157.576 94.2671 157.504 94.9671 157.852C95.3871 158.064 95.3671 158.464 95.4311 158.856C95.4911 159.32 95.4991 159.608 95.6111 159.516C95.8631 159.332 95.7431 156.86 95.7431 156.86Z" fill="#37474F"/>
<path d="M98.1432 172.156C98.2794 173.814 97.8783 175.471 96.9992 176.884C95.9352 178.772 91.7992 180.664 89.8992 178C88.9472 176.676 88.6753 175.096 88.5312 173.488C89.6393 171.404 96.3392 170.4 98.1432 172.156Z" fill="#FAFAFA"/>
<path d="M89.8908 170.096C89.9173 170.095 89.9432 170.088 89.9668 170.076C89.9948 170.076 92.9388 168.8 95.8228 169.44C95.8847 169.452 95.9489 169.439 96.0019 169.405C96.0548 169.37 96.0924 169.317 96.1068 169.256C96.1199 169.194 96.1078 169.129 96.0734 169.076C96.0389 169.022 95.9848 168.985 95.9228 168.972C92.8708 168.3 89.8708 169.592 89.7588 169.648C89.7304 169.661 89.7051 169.68 89.6842 169.704C89.6634 169.727 89.6475 169.755 89.6374 169.785C89.6273 169.815 89.6233 169.846 89.6256 169.878C89.6279 169.909 89.6365 169.94 89.6508 169.968C89.6722 170.011 89.707 170.047 89.7501 170.07C89.7932 170.093 89.8424 170.102 89.8908 170.096Z" fill="#F5F5F5"/>
<path d="M95.6545 167.127C95.7079 167.12 95.7572 167.095 95.7947 167.057C95.8321 167.018 95.8555 166.968 95.861 166.914C95.8665 166.861 95.8539 166.807 95.8252 166.761C95.7965 166.716 95.7533 166.681 95.7025 166.663C92.8265 165.723 89.6625 167.219 89.5425 167.283C89.4871 167.314 89.4458 167.365 89.4279 167.426C89.4099 167.486 89.4166 167.552 89.4465 167.607C89.477 167.662 89.5274 167.702 89.5871 167.72C89.6468 167.738 89.7112 167.732 89.7665 167.703C89.7945 167.703 92.8785 166.235 95.5545 167.115C95.5865 167.127 95.6207 167.131 95.6545 167.127Z" fill="#F5F5F5"/>
<path d="M95.5333 164.948C95.5779 164.943 95.6202 164.926 95.6556 164.898C95.6909 164.871 95.7178 164.834 95.7333 164.792C95.7537 164.732 95.7496 164.666 95.7219 164.609C95.6942 164.552 95.6451 164.509 95.5853 164.488C92.4213 163.388 89.4213 165.02 89.3093 165.092C89.2769 165.105 89.2477 165.125 89.2239 165.151C89.2002 165.177 89.1823 165.207 89.1716 165.241C89.1609 165.274 89.1577 165.309 89.1621 165.344C89.1665 165.379 89.1784 165.412 89.1971 165.442C89.2158 165.471 89.2407 165.497 89.2702 165.516C89.2996 165.535 89.3328 165.547 89.3676 165.552C89.4023 165.556 89.4376 165.553 89.4711 165.543C89.5045 165.533 89.5353 165.515 89.5613 165.492C89.5853 165.492 92.4853 163.912 95.4293 164.932C95.4623 164.945 95.4979 164.95 95.5333 164.948Z" fill="#F5F5F5"/>
<path d="M95.3522 162.799C95.4069 162.796 95.4585 162.773 95.4982 162.735C95.538 162.697 95.5633 162.647 95.5699 162.592C95.5766 162.538 95.564 162.483 95.5345 162.437C95.505 162.391 95.4603 162.356 95.4082 162.339C92.4442 161.263 89.2122 162.939 89.0922 163.011C89.0607 163.024 89.0323 163.044 89.009 163.069C88.9858 163.093 88.9682 163.123 88.9574 163.155C88.9467 163.188 88.943 163.222 88.9467 163.256C88.9504 163.29 88.9614 163.322 88.9789 163.351C88.9965 163.381 89.0201 163.406 89.0482 163.425C89.0763 163.444 89.1082 163.457 89.1418 163.463C89.1753 163.468 89.2097 163.467 89.2426 163.458C89.2754 163.449 89.306 163.433 89.3322 163.411C89.3602 163.411 92.4922 161.779 95.2482 162.779C95.2809 162.794 95.3165 162.801 95.3522 162.799Z" fill="#EBEBEB"/>
<path d="M91.7301 78.4435C92.3821 84.9315 92.6061 86.5275 93.0581 100.94C93.5021 114.94 93.5061 116.968 93.5821 118.652C93.7621 122.516 95.9821 124.06 96.1461 133.172C96.3061 141.52 96.0181 151.744 96.0181 151.744C96.0181 151.744 94.4941 153.152 91.3221 153.324C89.6018 153.427 87.8839 153.085 86.3341 152.332C86.3341 152.332 82.0901 133.62 80.7581 127.868C79.1901 121.1 76.6421 109.312 76.6421 109.312C76.6421 109.312 75.3621 119.828 74.8821 123.216C74.4261 126.448 75.5341 127.708 74.8381 134.944C74.2821 140.716 72.6381 150.36 72.6381 150.36C71.1764 151.125 69.548 151.516 67.8981 151.5C64.2701 151.332 63.1261 150.088 63.1261 150.088C63.1261 150.088 61.0941 128.488 61.0781 120.256C61.0781 111.52 61.5901 90.2555 62.5261 77.4155L91.7301 78.4435Z" fill="#455A64"/>
<path d="M76.6444 109.312L74.8004 94.7997C74.8004 94.7997 70.0884 93.3677 67.1484 90.0557C67.2884 92.4557 71.4124 95.6557 73.3764 96.2157L75.5684 109.1L74.8844 123.2L76.6444 109.312Z" fill="#37474F"/>
<path d="M83.1992 80.3994C83.8844 81.621 84.4368 82.9123 84.8472 84.2514C85.2742 85.5821 85.6241 86.9364 85.8952 88.3074C86.1592 89.6754 86.3712 91.0554 86.5032 92.4434C86.6518 93.8328 86.6946 95.2315 86.6312 96.6274C86.3472 95.2594 86.0872 93.9034 85.8312 92.5434C85.5752 91.1834 85.3192 89.8274 85.0312 88.4794C84.7432 87.1314 84.4832 85.7794 84.1872 84.4314C83.8912 83.0834 83.5592 81.7274 83.1992 80.3994Z" fill="#37474F"/>
<path d="M84.9883 80.9478C85.6576 81.6168 86.2616 82.3481 86.7923 83.1318C87.3298 83.9099 87.8136 84.7238 88.2403 85.5678C88.6633 86.4173 89.019 87.2986 89.3043 88.2038C89.6043 89.1099 89.7859 90.051 89.8443 91.0038L88.6683 88.4598C88.2683 87.6278 87.8683 86.7918 87.4683 85.9718C87.0683 85.1518 86.6363 84.3238 86.2203 83.4918C85.8043 82.6598 85.3683 81.8198 84.9883 80.9478Z" fill="#37474F"/>
<path d="M82.0938 96.9873C82.5417 101.335 82.9257 105.683 83.3177 110.031C83.7097 114.379 84.5898 119.187 85.2298 123.487C85.8698 127.787 88.9537 144.687 89.4617 149.047C88.6177 144.759 85.0618 127.947 84.3658 123.615C83.6698 119.283 82.9018 114.443 82.6378 110.083C82.3738 105.723 82.2017 101.355 82.0938 96.9873Z" fill="#37474F"/>
<path d="M65.8358 96.7993L65.3838 108.199C65.3238 110.099 65.2438 111.999 65.1998 113.895C65.1558 115.791 65.0878 117.695 65.1638 119.567C65.2398 121.439 65.7718 139.623 65.6038 143.431C65.0638 139.203 64.4998 123.431 64.2878 119.603C64.2118 115.755 64.4518 111.967 64.6878 108.163C64.9238 104.359 65.3358 100.575 65.8358 96.7993Z" fill="#37474F"/>
<path d="M73.0688 148.139L72.5288 152.139C72.5288 152.139 70.5288 153.119 67.2208 152.907C63.9128 152.695 63.1288 151.555 63.1288 151.555L62.8008 147.771C62.8008 147.771 64.0528 148.751 67.0928 148.883C71.0248 149.047 73.0688 148.139 73.0688 148.139Z" fill="#37474F"/>
<path d="M96.1948 148.936L96.0708 152.936C96.0708 152.936 94.4988 154.212 91.1868 154.536C87.8748 154.86 86.3988 153.66 86.3988 153.66L85.7148 150.136C85.7148 150.136 87.3748 150.844 90.4108 150.576C92.4162 150.352 94.3706 149.798 96.1948 148.936Z" fill="#37474F"/>
<path d="M68.994 47.3479C66.518 47.2919 62.594 48.5759 60.218 53.6479C57.418 59.5719 56.258 61.6479 53.418 69.3199L58.962 71.4199L64.09 64.5599L68.994 47.3479Z" fill="#C8856A"/>
<path d="M64.0862 64.5596L65.5302 59.2437C63.9822 60.3077 60.9583 62.3877 59.8502 63.1757C58.3342 64.2557 55.9782 65.1957 54.9062 67.4277L61.3582 68.2277L64.0862 64.5596Z" fill="#AF6152"/>
<path d="M69.6226 46.9639C63.8506 47.6079 62.2866 48.5919 59.6426 53.9399C57.8986 57.4719 55.7266 63.2479 55.7266 63.2479C55.7266 63.2479 56.8546 64.3039 59.3746 64.9879C62.5746 65.8519 64.4746 65.0399 64.4746 65.0399L69.6226 46.9639Z" fill="#263238"/>
<path d="M91.7402 48.6478C91.7402 48.6478 93.8922 52.0238 93.7402 60.8238C93.6682 64.9518 92.3282 68.5518 92.2162 73.3638C92.1082 77.9598 92.8322 85.0478 92.8322 85.0478C87.9842 88.8918 66.7802 89.8478 62.1602 83.6558C62.1602 83.6558 62.3562 76.3758 62.6202 68.5878C62.8162 62.7798 63.4202 58.2998 64.1002 55.5598C65.2002 51.1358 68.3402 47.8598 69.6322 46.9638C73.134 46.1325 76.7456 45.8625 80.3322 46.1638C84.8642 46.6438 89.4322 47.9998 91.7402 48.6478Z" fill="#F5F5F5"/>
<path d="M77.572 46.0357V46.4357C78.4764 46.435 79.3802 46.4804 80.28 46.5717C84.36 46.9957 88.468 48.1477 90.92 48.8357L91.46 48.9837C91.832 49.6877 93.46 53.1997 93.312 60.7957C93.233 62.7344 92.9962 64.6634 92.604 66.5637C92.159 68.7964 91.8915 71.0608 91.804 73.3357C91.708 77.4317 92.272 83.5597 92.396 84.8357C90.056 86.5117 84.148 87.6717 77.86 87.6717C70.36 87.6717 64.66 86.1117 62.592 83.4957C62.62 82.4157 62.808 75.6717 63.048 68.5837C63.22 63.4077 63.756 58.6917 64.516 55.6437C65.552 51.4837 68.484 48.2957 69.812 47.3357C72.3637 46.7551 74.971 46.4533 77.588 46.4357V46.0357M77.588 46.0357C74.9127 46.0544 72.2476 46.3656 69.64 46.9637C68.348 47.8597 65.208 51.1357 64.108 55.5597C63.428 58.2997 62.824 62.7597 62.628 68.5877C62.364 76.3757 62.168 83.6557 62.168 83.6557C64.528 86.8157 71.228 88.1117 77.86 88.1117C84.196 88.1117 90.472 86.9117 92.84 85.0477C92.84 85.0477 92.116 77.9597 92.224 73.3637C92.336 68.5637 93.676 64.9637 93.748 60.8237C93.908 52.0237 91.748 48.6477 91.748 48.6477C89.44 48.0077 84.872 46.6477 80.332 46.1717C79.4176 46.0795 78.499 46.0341 77.58 46.0357H77.588Z" fill="#E0E0E0"/>
<path d="M84.918 26.084C84.918 26.084 86.418 26.148 87.462 27.96C87.99 28.868 88.402 30.548 87.23 35.428C86.7801 37.3334 86.0437 39.1595 85.046 40.844C84.7492 41.3903 84.256 41.8036 83.666 42L83.634 38.28L83.682 35.684C83.682 35.684 81.482 33.864 81.23 32.008C80.906 29.608 81.814 28.232 81.814 28.232L84.918 26.084Z" fill="#37474F"/>
<path d="M85.4391 26.1918C84.9951 24.1158 82.1991 21.7158 76.9711 21.6158C75.1948 21.56 73.4356 21.9787 71.8749 22.8287C70.3141 23.6787 69.008 24.9293 68.0911 26.4518C66.6911 28.9438 68.8911 30.9638 68.8911 30.9638L81.9551 29.8638L85.4391 26.1918Z" fill="#37474F"/>
<path d="M87.1423 39.2516C85.2063 40.2516 84.2543 38.7596 84.2543 38.7596L83.9703 47.6196C80.3703 52.6916 70.2783 50.4196 74.2743 46.5836L74.3223 44.4716C73.7871 44.4706 73.2525 44.4332 72.7223 44.3596C71.8339 44.2773 70.9886 43.9385 70.2891 43.3846C69.5896 42.8307 69.0661 42.0855 68.7823 41.2396C68.4437 40.2404 68.2392 39.2007 68.1743 38.1476C68.0606 36.3054 68.1437 34.4562 68.4223 32.6316C68.6383 31.1836 68.5863 30.4356 68.8223 29.2516C68.9903 28.3476 69.3503 27.3516 70.1783 26.9156C72.2343 25.8356 74.2183 27.2276 77.1663 28.2436C78.3903 28.6436 81.3223 28.7676 82.0783 28.3876C81.1023 29.5196 81.2343 32.9876 82.7823 34.3436C82.9871 34.7025 83.2587 35.0188 83.5823 35.2756C84.2383 35.7956 84.7103 34.3796 85.2263 33.8116C85.7423 33.2436 87.7343 32.6916 88.6663 34.4676C88.8924 34.8792 89.0324 35.3325 89.0779 35.7999C89.1233 36.2673 89.0732 36.7391 88.9307 37.1866C88.7881 37.634 88.5561 38.0478 88.2487 38.4028C87.9412 38.7578 87.5648 39.0466 87.1423 39.2516Z" fill="#C8856A"/>
<path d="M74.3244 44.4717C76.6084 44.3837 78.7484 44.0317 80.0764 43.4277C81.4044 42.8237 82.5324 41.0037 82.8764 39.2197C82.9284 40.6437 82.3804 43.1917 80.3764 44.3117C78.3724 45.4317 75.8084 45.5517 74.3164 45.6317L74.3244 44.4717Z" fill="#AF6152"/>
<path d="M78.9739 30.9319L77.0699 30.0679C76.9582 30.3234 76.9509 30.6125 77.0495 30.8734C77.1482 31.1343 77.345 31.3462 77.5979 31.4639C77.7228 31.5214 77.8581 31.5532 77.9956 31.5575C78.1331 31.5618 78.27 31.5385 78.3984 31.4889C78.5267 31.4393 78.6437 31.3644 78.7426 31.2687C78.8414 31.173 78.9201 31.0585 78.9739 30.9319Z" fill="#37474F"/>
<path d="M71.8701 29.6958L69.9141 30.4718C69.9618 30.6001 70.0348 30.7176 70.1288 30.8172C70.2227 30.9168 70.3357 30.9966 70.461 31.0518C70.5863 31.107 70.7214 31.1365 70.8583 31.1385C70.9952 31.1406 71.1311 31.1152 71.2581 31.0638C71.5186 30.9609 71.7285 30.7602 71.8428 30.5045C71.9572 30.2489 71.967 29.9586 71.8701 29.6958Z" fill="#37474F"/>
<path d="M78.2256 33.2438C78.2295 33.4228 78.1801 33.5989 78.0834 33.7496C77.9868 33.9003 77.8474 34.0187 77.6831 34.0898C77.5188 34.1609 77.3371 34.1814 77.1611 34.1486C76.9851 34.1158 76.8229 34.0313 76.6951 33.9059C76.5674 33.7805 76.48 33.6198 76.4441 33.4444C76.4082 33.269 76.4254 33.0869 76.4935 32.9214C76.5616 32.7558 76.6775 32.6143 76.8264 32.515C76.9754 32.4157 77.1505 32.3631 77.3296 32.3638C77.4462 32.3628 77.5619 32.3847 77.67 32.4283C77.7781 32.472 77.8766 32.5365 77.9598 32.6182C78.043 32.6999 78.1093 32.7972 78.1549 32.9046C78.2005 33.0119 78.2245 33.1272 78.2256 33.2438Z" fill="#263238"/>
<path d="M71.9404 32.9796C71.9444 33.1586 71.8949 33.3347 71.7983 33.4854C71.7016 33.6361 71.5623 33.7546 71.398 33.8256C71.2337 33.8967 71.0519 33.9172 70.8759 33.8844C70.6999 33.8517 70.5377 33.7672 70.41 33.6417C70.2823 33.5163 70.1949 33.3556 70.1589 33.1803C70.123 33.0049 70.1402 32.8228 70.2083 32.6572C70.2764 32.4917 70.3923 32.3502 70.5413 32.2509C70.6902 32.1515 70.8654 32.0989 71.0444 32.0996C71.161 32.0986 71.2767 32.1205 71.3848 32.1642C71.493 32.2078 71.5915 32.2724 71.6747 32.3541C71.7579 32.4358 71.8242 32.5331 71.8698 32.6404C71.9154 32.7478 71.9394 32.863 71.9404 32.9796Z" fill="#263238"/>
<path d="M74.9592 31.8198L74.4432 37.1638L71.5352 36.2238C72.3295 34.5162 73.5 33.0106 74.9592 31.8198Z" fill="#AF6152"/>
<path d="M76.7984 37.3439C76.7984 37.3079 76.7504 37.2679 76.7104 37.2839C76.5955 37.333 76.4989 37.417 76.4344 37.5239C76.3707 37.6088 76.3027 37.6902 76.2304 37.7679C76.0785 37.9303 75.8999 38.0656 75.7024 38.1679C75.4896 38.2786 75.2597 38.353 75.0224 38.3879C74.8864 38.3879 74.7464 38.4319 74.6224 38.4399C74.5041 38.4345 74.3857 38.4453 74.2704 38.4719C74.1864 38.5039 74.2704 38.6359 74.3104 38.6599C74.4473 38.717 74.594 38.7469 74.7424 38.7479C74.8912 38.766 75.0416 38.766 75.1904 38.7479C75.4782 38.6989 75.7563 38.6043 76.0144 38.4679C76.2256 38.3521 76.4151 38.2005 76.5744 38.0199C76.6575 37.9293 76.7287 37.8285 76.7864 37.7199C76.8191 37.663 76.8372 37.599 76.8393 37.5334C76.8414 37.4678 76.8274 37.4028 76.7984 37.3439Z" fill="#AF6152"/>
<path d="M69.5598 66.0876C70.5299 65.1884 71.712 64.5499 72.9958 64.2316C74.4558 63.8316 75.2718 63.3036 76.6878 62.9716C77.2788 62.8677 77.8541 62.689 78.3998 62.4396C78.6855 62.3049 78.929 62.0946 79.1038 61.8316C79.2396 61.5883 79.2809 61.3034 79.2198 61.0316C79.5571 60.9672 79.87 60.8108 80.1238 60.5796C80.3437 60.3484 80.468 60.0426 80.4718 59.7236C80.4693 59.621 80.4456 59.5202 80.4023 59.4272C80.3589 59.3343 80.2968 59.2513 80.2198 59.1836C80.4638 58.9396 81.1878 58.2516 80.7998 57.4996C80.6518 57.3076 80.3478 57.2996 80.1118 57.2516C79.8758 57.2036 79.3118 57.1556 79.1878 57.1476C79.1503 57.0549 79.093 56.9716 79.0198 56.9036C78.5621 56.5058 77.9885 56.266 77.3838 56.2196C76.7155 56.1824 76.0451 56.2159 75.3838 56.3196C74.6758 56.3796 73.9518 56.3756 73.2438 56.3876C73.0941 56.3958 72.9439 56.3877 72.7958 56.3636C72.4638 56.2956 72.1758 56.0676 71.8398 56.0196C71.5462 55.9916 71.2502 56.0037 70.9598 56.0556C70.3237 56.1695 69.7398 56.4818 69.2918 56.9476C68.0398 58.2156 67.0838 59.6676 65.6918 60.8116C64.4978 61.7567 63.2237 62.5959 61.8838 63.3196C59.7798 64.5196 55.7198 65.1476 53.9678 68.1196C52.7998 70.0996 52.5238 73.1236 53.6678 74.7716C54.4238 75.8516 58.2078 76.1156 60.7558 74.4676C63.7558 72.5236 68.3238 67.3156 69.5598 66.0876Z" fill="#C8856A"/>
<path d="M72.7351 57.4719C74.834 57.1064 76.9683 56.9856 79.0951 57.1119C76.977 56.7184 74.7953 56.8419 72.7351 57.4719ZM72.8791 59.1679C75.2791 58.8719 77.7751 58.5959 80.1231 59.1999C79.0031 58.6879 77.7231 58.6719 76.5231 58.6679C75.2921 58.6788 74.0675 58.8468 72.8791 59.1679ZM77.9271 60.3679C76.0574 60.2036 74.1734 60.3881 72.3711 60.9119C74.1995 60.5811 76.0581 60.447 77.9151 60.5119C78.4631 60.5119 79.3511 60.6039 79.2071 61.3639C79.2561 61.2106 79.2473 61.0446 79.1825 60.8973C79.1177 60.75 79.0012 60.6314 78.8551 60.5639C78.5583 60.446 78.2455 60.3732 77.9271 60.3479V60.3679Z" fill="#AF6152"/>
<path d="M91.7838 48.8677C94.7398 49.7197 98.2078 51.9277 97.3558 57.8237C96.5558 63.3677 93.3798 75.6397 92.1838 78.7037C90.8238 82.1837 89.3838 83.4197 87.5518 83.8477C85.9518 84.2157 84.1638 83.1997 82.8158 82.2717C78.9678 79.6077 76.4158 74.2117 73.6518 68.5637C72.362 65.9003 71.4042 63.0886 70.7998 60.1917C70.6846 59.5209 70.647 58.8391 70.6878 58.1597C70.736 57.517 70.8915 56.887 71.1478 56.2957C71.1932 56.2127 71.2307 56.1257 71.2598 56.0357C71.2918 55.8846 71.3039 55.7299 71.2958 55.5757C71.283 55.1909 71.4126 54.8149 71.6598 54.5197C71.7837 54.4041 71.9175 54.2997 72.0598 54.2077C72.1056 54.1739 72.146 54.1335 72.1798 54.0877C72.2758 53.9477 72.2198 53.7557 72.2358 53.5877C72.2688 53.4027 72.3684 53.2362 72.5158 53.1198C72.6632 53.0033 72.8482 52.9449 73.0358 52.9557C73.2434 52.9804 73.4426 53.0524 73.618 53.1661C73.7934 53.2799 73.9405 53.4323 74.0478 53.6117C74.0654 53.6402 74.0903 53.6637 74.1198 53.6797C74.1554 53.6876 74.1922 53.6876 74.2278 53.6797C74.3948 53.6542 74.5654 53.6651 74.7278 53.7117C74.8784 53.7586 75.0155 53.8409 75.1278 53.9517C75.3651 54.2388 75.5175 54.5866 75.5678 54.9557C75.7038 55.5557 75.8038 56.1557 75.9438 56.7597C76.2158 57.9317 76.3438 59.1597 76.9798 60.2077C77.0398 60.3037 77.1318 60.4117 77.2438 60.3837C77.3558 60.3557 77.3798 60.2357 77.3958 60.1317C77.5478 59.0557 76.9078 57.9357 77.7318 56.9877C78.4518 56.1637 78.5838 57.7637 78.7038 58.1877C78.8678 58.7477 79.0278 59.3077 79.1918 59.8637C79.5039 60.7763 79.6857 61.7283 79.7318 62.6917C79.7318 63.5997 79.4918 64.4997 79.5358 65.4077C79.5577 66.3076 79.9209 67.1655 80.5518 67.8077C83.0558 70.2877 84.1958 71.2677 84.1958 71.2677L85.9998 61.9997C85.9998 61.9997 86.2318 56.6797 88.3038 52.4557C89.6718 49.6757 91.7838 48.8677 91.7838 48.8677Z" fill="#C8856A"/>
<path d="M73.9691 53.792C73.7131 54.248 73.8171 54.816 73.8211 55.316C73.9182 56.8552 74.1961 58.3777 74.6491 59.852C74.5011 58.976 74.3131 57.708 74.1691 56.82C74.0531 56.068 73.9691 55.3 73.9011 54.54C73.8655 54.2888 73.8887 54.0327 73.9691 53.792Z" fill="#AF6152"/>
<path d="M72.2226 54.1519C72.1621 56.2392 72.4542 58.3217 73.0866 60.3119C72.6306 58.3119 72.5106 56.1799 72.2226 54.1519Z" fill="#AF6152"/>
<path d="M71.2561 56.1035C71.1485 57.6632 71.3357 59.2292 71.8081 60.7195C71.6401 59.3555 71.3881 57.4515 71.2561 56.1035Z" fill="#AF6152"/>
<path d="M82.8016 82.2719C78.4856 79.0519 76.3736 73.8519 74.0016 69.1919C72.8167 66.8181 71.8785 64.3291 71.2016 61.7639C70.8112 60.499 70.666 59.1712 70.7736 57.8519C70.8794 57.197 71.069 56.5585 71.3376 55.9519C71.3376 55.2719 71.4216 54.6399 72.0616 54.2679C72.1403 54.2146 72.2024 54.1401 72.2406 54.0531C72.2788 53.966 72.2916 53.8699 72.2776 53.7759C72.2677 53.6623 72.2857 53.548 72.33 53.4429C72.3744 53.3378 72.4437 53.2452 72.5321 53.173C72.6204 53.1009 72.725 53.0514 72.8368 53.0289C72.9486 53.0064 73.0642 53.0115 73.1736 53.0439C73.5186 53.1594 73.8128 53.3913 74.0056 53.6999C74.0278 53.7208 74.0544 53.7363 74.0836 53.7453C74.1127 53.7544 74.1435 53.7566 74.1736 53.7519C74.4077 53.71 74.6491 53.7451 74.8616 53.8519C75.4496 54.1839 75.4656 54.9759 75.6176 55.5679C75.8896 56.7199 76.1216 58.3679 76.5296 59.4519C76.6476 59.7697 76.8062 60.0708 77.0016 60.3479C77.4496 60.7199 77.4736 59.9479 77.4576 59.6639C77.4096 58.7119 77.0576 57.5879 77.8976 56.8919C78.4816 56.4919 78.5336 57.9959 78.6976 58.3239L78.9776 59.2799C79.3416 60.5439 79.7976 61.8279 79.6776 63.1599C79.5576 64.4919 79.2776 65.8759 79.9616 67.0759C80.3288 67.632 80.7748 68.1318 81.2856 68.5599C82.2416 69.4839 83.1976 70.4039 84.1976 71.2799C83.2056 70.3959 82.2536 69.4679 81.3096 68.5359C80.8065 68.1058 80.3674 67.6061 80.0056 67.0519C79.6999 66.4635 79.5498 65.8067 79.5696 65.1439C79.5696 64.4839 79.7016 63.8319 79.7536 63.1679C79.8776 61.8239 79.4216 60.5239 79.0616 59.2559L78.7856 58.2999C78.6336 57.8279 78.6416 57.2879 78.3536 56.8599C77.9216 56.3679 77.4136 57.3039 77.3216 57.6599C77.1536 58.3359 77.3576 59.0039 77.3696 59.6599C77.3936 60.9959 76.8736 59.9999 76.6496 59.4039C76.2496 58.3279 76.0176 56.6639 75.7536 55.5319C75.6056 54.7599 75.4496 53.6119 74.4336 53.5999C74.3416 53.5799 74.1776 53.6399 74.1136 53.5999C73.9068 53.2699 73.5891 53.0246 73.2176 52.9079C73.0879 52.8707 72.9511 52.8654 72.819 52.8926C72.6868 52.9197 72.5632 52.9784 72.4586 53.0637C72.3541 53.149 72.2717 53.2583 72.2186 53.3823C72.1655 53.5063 72.1432 53.6414 72.1536 53.7759C72.1679 53.8468 72.1602 53.9204 72.1316 53.9868C72.103 54.0533 72.0549 54.1095 71.9936 54.1479C71.6938 54.3352 71.4646 54.6165 71.3416 54.9479C71.2503 55.2717 71.2098 55.6077 71.2216 55.9439C70.9498 56.5504 70.7614 57.1908 70.6616 57.8479C70.556 59.1841 70.7067 60.5282 71.1056 61.8079C71.7947 64.3781 72.745 66.8711 73.9416 69.2479C76.3416 73.9039 78.4776 79.1039 82.8296 82.2839L82.8016 82.2719Z" fill="#AF6152"/>
<path d="M84.1836 71.2797C86.0196 72.1157 87.5876 73.8157 87.8996 74.7957C87.8996 74.7957 88.0276 71.8397 84.4196 70.1997L84.1836 71.2797Z" fill="#AF6152"/>
<path d="M91.6904 48.5679C96.2624 49.7679 97.6904 52.0239 97.6664 55.5359C97.6664 60.3999 95.4144 68.8919 94.5904 71.8279C89.8144 73.5999 84.3984 69.3759 84.3984 69.3759L85.6704 61.9999C85.6704 61.9999 86.3064 50.6519 91.6904 48.5679Z" fill="#263238"/>
<path d="M146 25.6358C143.922 26.8338 142.38 28.7795 141.688 31.0758L141.432 32.1278C141.029 34.4503 141.509 36.8395 142.778 38.8261C144.047 40.8127 146.012 42.253 148.289 42.864C150.566 43.475 152.988 43.2125 155.081 42.1282C157.174 41.0439 158.786 39.216 159.6 37.0038L159.904 35.9678C160.322 34.1759 160.207 32.3009 159.574 30.5733C158.941 28.8456 157.817 27.3406 156.34 26.2431C154.863 25.1457 153.097 24.5035 151.261 24.3956C149.424 24.2878 147.595 24.7188 146 25.6358Z" fill="white"/>
<path d="M145.598 24.9359C143.5 26.1454 141.897 28.0579 141.073 30.3351C140.249 32.6124 140.256 35.1077 141.094 37.3799L139.094 39.8599C139.02 39.9537 138.975 40.0677 138.966 40.1871C138.958 40.3065 138.985 40.4258 139.045 40.5294C139.105 40.633 139.195 40.7161 139.303 40.7679C139.411 40.8197 139.532 40.8379 139.65 40.8199L142.798 40.3399C144.041 41.8488 145.689 42.9709 147.549 43.5739C149.408 44.1769 151.402 44.2357 153.293 43.7433C155.185 43.2509 156.897 42.228 158.227 40.7949C159.556 39.3619 160.448 37.5786 160.798 35.6553C161.148 33.732 160.94 31.7488 160.2 29.9395C159.46 28.1302 158.217 26.5703 156.62 25.4437C155.022 24.3171 153.136 23.6707 151.183 23.5807C149.23 23.4907 147.293 23.9609 145.598 24.9359ZM158.902 29.1159C160.101 31.1992 160.457 33.6623 159.898 35.9999L159.598 37.0199C158.797 39.2542 157.185 41.105 155.081 42.2041C152.978 43.3031 150.537 43.5699 148.246 42.9511C145.955 42.3324 143.98 40.8736 142.716 38.8651C141.451 36.8566 140.989 34.4456 141.422 32.1119L141.678 31.0599C142.215 29.2967 143.257 27.7292 144.674 26.5507C146.091 25.3721 147.822 24.634 149.653 24.4273C151.485 24.2206 153.337 24.5544 154.981 25.3876C156.625 26.2207 157.99 27.5167 158.906 29.1159H158.902Z" fill="#455A64"/>
<path d="M149.269 39.6681C149.066 39.6687 148.865 39.6274 148.679 39.5469C148.492 39.4664 148.324 39.3483 148.185 39.2001L144.825 35.6001C144.672 35.4626 144.548 35.2946 144.463 35.1067C144.378 34.9188 144.334 34.7153 144.332 34.5091C144.33 34.3029 144.372 34.0987 144.454 33.9094C144.536 33.7202 144.656 33.5502 144.808 33.4102C144.959 33.2703 145.138 33.1635 145.333 33.0968C145.528 33.03 145.735 33.0048 145.94 33.0227C146.146 33.0406 146.345 33.1012 146.526 33.2006C146.706 33.3 146.864 33.4361 146.989 33.6001L149.173 35.9281L154.333 29.3881C154.452 29.2307 154.602 29.0986 154.773 28.9996C154.944 28.9006 155.133 28.8368 155.329 28.8118C155.524 28.7867 155.723 28.8011 155.914 28.8539C156.104 28.9068 156.282 28.9971 156.437 29.1196C156.592 29.242 156.721 29.3942 156.816 29.5671C156.911 29.74 156.971 29.9303 156.992 30.1266C157.013 30.323 156.995 30.5216 156.938 30.7107C156.881 30.8999 156.787 31.0758 156.661 31.2281L150.429 39.1041C150.298 39.2721 150.131 39.4094 149.941 39.5068C149.751 39.6042 149.542 39.6592 149.329 39.6681H149.269Z" fill="#4070FF"/>
<path d="M55.8046 26.4478C57.8812 27.6471 59.4231 29.5923 60.1166 31.8878L60.3726 32.9398C60.8002 35.2738 60.3336 37.6831 59.0656 39.6887C57.7975 41.6942 55.821 43.1489 53.5292 43.7635C51.2374 44.378 48.7982 44.1073 46.6969 43.0053C44.5956 41.9032 42.9861 40.0506 42.1886 37.8158L41.8806 36.7998C41.4614 35.0055 41.576 33.1277 42.2103 31.3977C42.8446 29.6676 43.971 28.1609 45.4508 27.0628C46.9306 25.9648 48.6991 25.3234 50.5388 25.2177C52.3784 25.112 54.2088 25.5465 55.8046 26.4678V26.4478Z" fill="white"/>
<path d="M42.1945 29.5279C40.9189 31.7563 40.5259 34.3822 41.0933 36.8864C41.6607 39.3906 43.1471 41.5907 45.2586 43.0517C47.3701 44.5127 49.953 45.1281 52.4965 44.7763C55.0399 44.4245 57.3588 43.1311 58.9945 41.1519L62.1425 41.6319C62.2612 41.651 62.3829 41.6336 62.4914 41.5819C62.5999 41.5302 62.6902 41.4467 62.7501 41.3425C62.81 41.2383 62.8368 41.1183 62.8268 40.9985C62.8169 40.8787 62.7707 40.7648 62.6945 40.6719L60.6945 38.1919C61.5855 35.7809 61.5385 33.1233 60.5626 30.7454C59.5868 28.3676 57.7533 26.443 55.4255 25.3531C53.0978 24.2632 50.4455 24.0874 47.9942 24.8606C45.543 25.6338 43.4716 27.2996 42.1905 29.5279H42.1945ZM55.7945 26.4399C57.8733 27.6347 59.4183 29.5774 60.1145 31.8719L60.3705 32.9239C60.8032 35.2575 60.3413 37.6685 59.0769 39.677C57.8124 41.6856 55.8381 43.1443 53.5467 43.7631C51.2554 44.3818 48.8151 44.1151 46.7115 43.016C44.6079 41.9169 42.9952 40.0661 42.1945 37.8319L41.8905 36.7999C41.4655 35.0059 41.575 33.1268 42.2053 31.3943C42.8356 29.6618 43.9592 28.1516 45.4375 27.0501C46.9159 25.9486 48.6843 25.3038 50.5247 25.1954C52.3651 25.087 54.197 25.5196 55.7945 26.4399Z" fill="#455A64"/>
<path d="M49.6475 40.4799C49.445 40.4802 49.2446 40.4387 49.0588 40.3582C48.873 40.2777 48.7058 40.1598 48.5675 40.0119L45.2075 36.4119C45.0617 36.2726 44.9459 36.1049 44.8672 35.9191C44.7885 35.7334 44.7487 35.5335 44.75 35.3318C44.7514 35.1301 44.794 34.9308 44.8752 34.7461C44.9564 34.5615 45.0745 34.3954 45.2222 34.258C45.37 34.1207 45.5442 34.015 45.7343 33.9474C45.9244 33.8798 46.1262 33.8518 46.3275 33.8651C46.5288 33.8784 46.7252 33.9327 46.9048 34.0247C47.0843 34.1166 47.2431 34.2443 47.3715 34.3999L49.5555 36.7279L54.7155 30.1879C54.8347 30.0305 54.9841 29.8984 55.155 29.7994C55.3259 29.7004 55.5149 29.6366 55.7108 29.6116C55.9067 29.5865 56.1056 29.6009 56.2959 29.6537C56.4862 29.7066 56.664 29.7969 56.8189 29.9194C56.9739 30.0418 57.1028 30.194 57.1982 30.3669C57.2936 30.5398 57.3535 30.7301 57.3744 30.9264C57.3953 31.1228 57.3768 31.3214 57.32 31.5105C57.2632 31.6997 57.1692 31.8756 57.0435 32.0279L50.7995 39.9159C50.6675 40.0835 50.5009 40.2206 50.311 40.3179C50.1212 40.4152 49.9126 40.4705 49.6995 40.4799H49.6475Z" fill="#4070FF"/>
</svg>
