<svg width="200" height="200" viewBox="0 0 200 200" fill="none" xmlns="http://www.w3.org/2000/svg">
<path d="M31.0642 94.2401C-7.00778 116.24 -7.00378 151.84 31.0642 173.84C69.1322 195.84 130.86 195.82 168.932 173.84C207.004 151.86 207 116.24 168.932 94.2401C130.864 72.2401 69.1362 72.2601 31.0642 94.2401Z" fill="#FAFAFA"/>
<path d="M129.212 165.344L44.1641 116.244L70.4521 101.068L155.5 150.168L129.212 165.344Z" fill="#E0E0E0"/>
<path d="M48.0666 146.336C53.8546 149.716 53.8546 155.196 48.0666 158.572C42.2786 161.948 32.8946 161.952 27.1066 158.572C21.3186 155.192 21.3186 149.716 27.1066 146.336C32.8946 142.956 42.2786 142.956 48.0666 146.336Z" fill="#E0E0E0"/>
<path d="M56.8984 59.18V74.836L77.9824 62.656L77.9904 47L56.8984 59.18Z" fill="#4070FF"/>
<path d="M56.8984 74.8358L81.0024 88.7518L102.102 76.5758L77.9824 62.6558L56.8984 74.8358Z" fill="#4070FF"/>
<path opacity="0.3" d="M56.8984 74.8358L81.0024 88.7518L102.102 76.5758L77.9824 62.6558L56.8984 74.8358Z" fill="white"/>
<path d="M102.104 76.5762L102.096 92.2322L81.0039 104.412V88.7522L102.104 76.5762Z" fill="#4070FF"/>
<path d="M81.0039 104.412L105.108 118.328L126.204 106.152L102.096 92.2319L81.0039 104.412Z" fill="#4070FF"/>
<path opacity="0.3" d="M81.0039 104.412L105.108 118.328L126.204 106.152L102.096 92.2319L81.0039 104.412Z" fill="white"/>
<path d="M126.201 106.152V121.808L105.105 133.984V118.328L126.201 106.152Z" fill="#4070FF"/>
<path d="M105.105 133.984L129.213 147.904L150.305 135.728L126.201 121.808L105.105 133.984Z" fill="#4070FF"/>
<path opacity="0.3" d="M105.105 133.984L129.213 147.904L150.305 135.728L126.201 121.808L105.105 133.984Z" fill="white"/>
<path d="M150.307 135.728V151.384L129.215 163.56V147.904L150.307 135.728Z" fill="#4070FF"/>
<path d="M56.8977 59.18L34.2977 46.132L26.7617 50.48L29.7777 31.344L62.9217 29.604L55.3897 33.952L77.9897 47L56.8977 59.18Z" fill="#4070FF"/>
<path opacity="0.3" d="M56.8977 59.18L34.2977 46.132L26.7617 50.48L29.7777 31.344L62.9217 29.604L55.3897 33.952L77.9897 47L56.8977 59.18Z" fill="white"/>
<path d="M105.106 133.984V118.328L81.0017 104.412V88.7518L56.8977 74.8358V59.1798L34.2977 46.1318L26.7617 50.4798V53.9598L34.2977 49.6118L53.8817 60.9158V76.5758L77.9897 90.4958V106.152L102.094 120.068V135.724L126.202 149.644V161.82L129.214 163.56V147.904L105.106 133.984Z" fill="#4070FF"/>
<path opacity="0.3" d="M105.106 133.984V118.328L81.0017 104.412V88.7518L56.8977 74.8358V59.1798L34.2977 46.1318L26.7617 50.4798V53.9598L34.2977 49.6118L53.8817 60.9158V76.5758L77.9897 90.4958V106.152L102.094 120.068V135.724L126.202 149.644V161.82L129.214 163.56V147.904L105.106 133.984Z" fill="black"/>
<path d="M62.9226 29.604V33.084L58.4026 35.692L55.3906 33.952L62.9226 29.604Z" fill="#4070FF"/>
<path opacity="0.3" d="M62.9226 29.604V33.084L58.4026 35.692L55.3906 33.952L62.9226 29.604Z" fill="black"/>
<path d="M69.5718 71.76H69.5998C69.9802 71.6844 70.3683 71.6548 70.7558 71.672C70.787 71.6731 70.8174 71.662 70.8405 71.6411C70.8637 71.6202 70.8778 71.5911 70.8798 71.56C70.8799 71.5284 70.8679 71.498 70.8464 71.475C70.8248 71.4519 70.7953 71.438 70.7638 71.436C70.3616 71.4195 69.9588 71.4503 69.5638 71.528C69.5333 71.5347 69.5065 71.5531 69.4893 71.5792C69.4722 71.6054 69.4659 71.6372 69.4718 71.668C69.4772 71.6916 69.4897 71.713 69.5075 71.7295C69.5254 71.7459 69.5478 71.7565 69.5718 71.76ZM67.2438 73.736C67.2427 73.4508 67.3278 73.172 67.4878 72.936C67.4997 72.9097 67.5017 72.8801 67.4934 72.8524C67.4852 72.8248 67.4674 72.8011 67.4431 72.7856C67.4188 72.77 67.3898 72.7638 67.3613 72.7679C67.3328 72.772 67.3067 72.7862 67.2878 72.808C67.1046 73.0812 67.0071 73.4029 67.0078 73.732C67.0088 73.8951 67.0289 74.0575 67.0678 74.216C67.0754 74.241 67.0907 74.263 67.1115 74.2788C67.1324 74.2946 67.1577 74.3034 67.1838 74.304H67.1998C67.2305 74.2964 67.2569 74.277 67.2734 74.25C67.2899 74.2231 67.2951 74.1907 67.2878 74.16C67.2561 74.0209 67.2413 73.8785 67.2438 73.736ZM69.8318 77.016C69.6638 76.916 69.5038 76.816 69.3598 76.716C69.1745 76.5917 68.9957 76.4582 68.8238 76.316C68.8021 76.2942 68.7726 76.282 68.7418 76.282C68.7111 76.282 68.6816 76.2942 68.6598 76.316C68.6484 76.3268 68.6394 76.3398 68.6332 76.3543C68.627 76.3687 68.6238 76.3842 68.6238 76.4C68.6238 76.4157 68.627 76.4312 68.6332 76.4457C68.6394 76.4601 68.6484 76.4731 68.6598 76.484C68.8357 76.6355 69.02 76.7771 69.2118 76.908C69.3638 77.012 69.5278 77.116 69.6998 77.22C69.7197 77.2236 69.74 77.2236 69.7598 77.22C69.7807 77.2192 69.8012 77.2134 69.8193 77.2029C69.8374 77.1924 69.8527 77.1777 69.8638 77.16C69.876 77.136 69.8795 77.1085 69.8737 77.0822C69.8678 77.0559 69.853 77.0325 69.8318 77.016ZM71.3398 77.816C70.9678 77.64 70.6238 77.468 70.3238 77.308C70.3102 77.3009 70.2952 77.2965 70.2799 77.2952C70.2646 77.2939 70.2491 77.2956 70.2345 77.3002C70.2198 77.3049 70.2062 77.3124 70.1944 77.3223C70.1826 77.3322 70.1729 77.3443 70.1658 77.358C70.1587 77.3716 70.1544 77.3865 70.1531 77.4019C70.1517 77.4172 70.1534 77.4326 70.1581 77.4473C70.1627 77.462 70.1702 77.4756 70.1801 77.4874C70.19 77.4992 70.2022 77.5089 70.2158 77.516C70.5158 77.68 70.8638 77.852 71.2398 78.028C71.2556 78.0316 71.272 78.0316 71.2878 78.028C71.3105 78.0284 71.3328 78.0222 71.352 78.0101C71.3712 77.9981 71.3864 77.9806 71.3958 77.96C71.4032 77.9459 71.4076 77.9304 71.4088 77.9146C71.4099 77.8987 71.4078 77.8828 71.4026 77.8678C71.3973 77.8528 71.389 77.839 71.3782 77.8274C71.3674 77.8157 71.3544 77.8064 71.3398 77.8V77.816ZM67.5398 74.788C67.5327 74.7741 67.5228 74.7618 67.5108 74.7518C67.4988 74.7419 67.485 74.7344 67.47 74.7299C67.4551 74.7255 67.4394 74.724 67.4239 74.7258C67.4084 74.7275 67.3934 74.7323 67.3798 74.74C67.3519 74.7545 67.3308 74.7794 67.3211 74.8093C67.3114 74.8392 67.3138 74.8718 67.3278 74.9C67.5548 75.3092 67.836 75.6859 68.1638 76.02C68.186 76.0426 68.2162 76.0555 68.2478 76.056C68.2633 76.0567 68.2787 76.0543 68.2932 76.0488C68.3076 76.0432 68.3208 76.0348 68.3318 76.024C68.3538 76.0015 68.3661 75.9714 68.3661 75.94C68.3661 75.9085 68.3538 75.8784 68.3318 75.856C68.0174 75.5343 67.7507 75.1693 67.5398 74.772V74.788ZM69.1118 71.772C69.1002 71.743 69.0781 71.7196 69.0499 71.7062C69.0217 71.6929 68.9896 71.6907 68.9598 71.7C68.7672 71.7655 68.5788 71.843 68.3958 71.932C68.182 72.0344 67.9795 72.1591 67.7918 72.304C67.7793 72.313 67.7688 72.3245 67.7608 72.3377C67.7528 72.351 67.7476 72.3656 67.7453 72.3809C67.7431 72.3962 67.7439 72.4118 67.7478 72.4267C67.7517 72.4416 67.7585 72.4557 67.7678 72.468C67.7881 72.4919 67.8167 72.5073 67.8479 72.5111C67.8791 72.5148 67.9105 72.5065 67.9358 72.488C68.1132 72.3567 68.3019 72.2415 68.4998 72.144C68.6739 72.06 68.8529 71.9866 69.0358 71.924C69.0528 71.9193 69.0685 71.9109 69.0819 71.8995C69.0952 71.888 69.1059 71.8738 69.1132 71.8578C69.1204 71.8417 69.1241 71.8243 69.1238 71.8067C69.1236 71.7891 69.1195 71.7718 69.1118 71.756V71.772ZM80.4598 78.264C80.7958 78.452 81.1238 78.632 81.4398 78.8C81.4583 78.8041 81.4774 78.8041 81.4958 78.8C81.5224 78.8011 81.5486 78.793 81.5699 78.7771C81.5913 78.7612 81.6065 78.7385 81.6131 78.7127C81.6196 78.6869 81.6171 78.6596 81.606 78.6355C81.5948 78.6113 81.5757 78.5917 81.5518 78.58C81.2358 78.412 80.9118 78.236 80.5758 78.044C80.548 78.0291 80.5156 78.0253 80.4851 78.0335C80.4546 78.0417 80.4284 78.0611 80.4118 78.088C80.3975 78.1156 80.3944 78.1478 80.4034 78.1777C80.4124 78.2075 80.4326 78.2327 80.4598 78.248V78.264ZM83.3918 79.864C83.5638 79.972 83.7118 80.068 83.8478 80.168C83.989 80.2717 84.1227 80.3853 84.2478 80.508C84.2586 80.5193 84.2717 80.5284 84.2861 80.5346C84.3006 80.5408 84.3161 80.544 84.3318 80.544C84.3638 80.5416 84.3938 80.5274 84.4158 80.504C84.4376 80.4822 84.4498 80.4527 84.4498 80.422C84.4498 80.3912 84.4376 80.3617 84.4158 80.34C84.277 80.2095 84.13 80.0879 83.9758 79.976C83.8358 79.876 83.6798 79.772 83.4998 79.664C83.4733 79.648 83.4415 79.6433 83.4115 79.6508C83.3815 79.6583 83.3557 79.6774 83.3398 79.704C83.3239 79.7305 83.3192 79.7622 83.3267 79.7922C83.3342 79.8222 83.3533 79.848 83.3798 79.864H83.3918ZM71.3318 71.74C71.7168 71.7991 72.0956 71.8929 72.4638 72.02H72.4998C72.5276 72.0193 72.5543 72.009 72.5753 71.9908C72.5963 71.9726 72.6104 71.9478 72.6151 71.9204C72.6198 71.893 72.6149 71.8648 72.6012 71.8407C72.5874 71.8165 72.5658 71.7979 72.5398 71.788C72.1583 71.6569 71.7662 71.5592 71.3678 71.496C71.3523 71.4931 71.3363 71.4935 71.3209 71.497C71.3055 71.5006 71.291 71.5072 71.2782 71.5166C71.2655 71.526 71.2548 71.5378 71.2468 71.5515C71.2388 71.5651 71.2337 71.5803 71.2318 71.596C71.2296 71.6112 71.2304 71.6268 71.2342 71.6417C71.238 71.6566 71.2448 71.6707 71.2541 71.6829C71.2634 71.6952 71.2751 71.7055 71.2884 71.7133C71.3018 71.721 71.3165 71.726 71.3318 71.728V71.74ZM79.4918 77.692L79.9718 77.98C79.9914 77.9854 80.0122 77.9854 80.0318 77.98C80.0529 77.98 80.0736 77.9744 80.0919 77.9639C80.1101 77.9534 80.1253 77.9382 80.1358 77.92C80.1436 77.9066 80.1487 77.8918 80.1507 77.8765C80.1527 77.8612 80.1516 77.8456 80.1475 77.8307C80.1434 77.8158 80.1364 77.8018 80.1268 77.7897C80.1172 77.7776 80.1053 77.7674 80.0918 77.76L79.6158 77.472C79.4241 77.3497 79.2397 77.2161 79.0638 77.072C79.038 77.0538 79.0063 77.0463 78.9751 77.0507C78.9439 77.0552 78.9155 77.0714 78.8958 77.096C78.8865 77.1082 78.8797 77.1223 78.8758 77.1372C78.872 77.1522 78.8711 77.1677 78.8734 77.183C78.8756 77.1983 78.8808 77.213 78.8888 77.2262C78.8968 77.2394 78.9073 77.2509 78.9198 77.26C79.1078 77.428 79.3038 77.56 79.4918 77.68V77.692ZM76.8558 75.26L76.9438 75.356C76.9668 75.3803 76.9984 75.3946 77.0318 75.396C77.0614 75.3949 77.0896 75.3835 77.1118 75.364C77.1336 75.3422 77.1458 75.3127 77.1458 75.282C77.1458 75.2512 77.1336 75.2217 77.1118 75.2L77.0238 75.1C76.7518 74.796 76.4678 74.48 76.1838 74.184C76.1738 74.17 76.1609 74.1583 76.146 74.1498C76.1312 74.1412 76.1146 74.136 76.0975 74.1344C76.0804 74.1328 76.0632 74.1348 76.0469 74.1405C76.0307 74.1461 76.0159 74.1551 76.0035 74.167C75.991 74.1788 75.9813 74.1932 75.9749 74.2092C75.9685 74.2251 75.9656 74.2422 75.9664 74.2594C75.9672 74.2765 75.9717 74.2933 75.9795 74.3086C75.9873 74.3239 75.9983 74.3373 76.0118 74.348C76.3038 74.628 76.5838 74.94 76.8558 75.248V75.26ZM78.3838 76.86C78.3942 76.8705 78.4067 76.8788 78.4205 76.8843C78.4343 76.8898 78.449 76.8924 78.4638 76.892C78.4805 76.8923 78.4971 76.8889 78.5124 76.8819C78.5276 76.875 78.5411 76.8648 78.5518 76.852C78.5631 76.8415 78.5721 76.8288 78.5782 76.8147C78.5844 76.8006 78.5875 76.7853 78.5875 76.77C78.5875 76.7546 78.5844 76.7393 78.5782 76.7252C78.5721 76.7111 78.5631 76.6984 78.5518 76.688C78.2638 76.424 77.9598 76.116 77.5918 75.72C77.5694 75.698 77.5392 75.6857 77.5078 75.6857C77.4764 75.6857 77.4462 75.698 77.4238 75.72C77.4021 75.7417 77.3899 75.7712 77.3899 75.802C77.3899 75.8327 77.4021 75.8622 77.4238 75.884C77.7327 76.2164 78.0585 76.5329 78.3998 76.832L78.3838 76.86ZM75.0238 73.448C75.1918 73.58 75.3598 73.724 75.5358 73.888C75.5584 73.9064 75.5867 73.9163 75.6158 73.916C75.6321 73.916 75.6483 73.9129 75.6634 73.9067C75.6785 73.9005 75.6922 73.8915 75.7038 73.88C75.7258 73.8575 75.7381 73.8274 75.7381 73.796C75.7381 73.7645 75.7258 73.7344 75.7038 73.712C75.5238 73.544 75.3518 73.396 75.1758 73.26C75.0398 73.152 74.8758 73.032 74.6918 72.904C74.6658 72.8899 74.6356 72.8859 74.6068 72.8927C74.5781 72.8995 74.5528 72.9167 74.536 72.941C74.5191 72.9653 74.5119 72.995 74.5155 73.0243C74.5192 73.0536 74.5335 73.0806 74.5558 73.1C74.7398 73.224 74.8958 73.34 75.0318 73.448H75.0238ZM80.4558 82.376C80.2303 82.2748 80.0112 82.16 79.7998 82.032L79.3438 81.74C79.3176 81.7281 79.2879 81.7261 79.2603 81.7343C79.2327 81.7425 79.209 81.7604 79.1934 81.7847C79.1779 81.8089 79.1716 81.838 79.1757 81.8665C79.1798 81.895 79.1941 81.9211 79.2158 81.94C79.3678 82.04 79.5198 82.136 79.6798 82.232C79.8987 82.3661 80.1258 82.4863 80.3598 82.592C80.3756 82.5956 80.392 82.5956 80.4078 82.592C80.4308 82.5916 80.4532 82.5846 80.4724 82.5718C80.4915 82.5591 80.5066 82.5411 80.5158 82.52C80.5245 82.505 80.5299 82.4883 80.5315 82.4711C80.5332 82.4539 80.5311 82.4365 80.5254 82.4202C80.5197 82.4038 80.5105 82.3889 80.4985 82.3765C80.4865 82.364 80.4719 82.3543 80.4558 82.348V82.376ZM82.5998 82.852C82.1086 82.8641 81.6189 82.7924 81.1518 82.64C81.1369 82.6351 81.1211 82.6333 81.1054 82.6347C81.0897 82.6361 81.0745 82.6407 81.0606 82.6482C81.0468 82.6557 81.0346 82.6659 81.0248 82.6782C81.0151 82.6906 81.0079 82.7048 81.0038 82.72C80.9949 82.7497 80.9978 82.7817 81.012 82.8093C81.0262 82.8369 81.0505 82.8579 81.0798 82.868C81.5355 83.0119 82.01 83.0874 82.4878 83.092H82.6078C82.6234 83.092 82.6388 83.0888 82.6531 83.0828C82.6675 83.0767 82.6805 83.0678 82.6913 83.0566C82.7021 83.0454 82.7106 83.0321 82.7162 83.0176C82.7217 83.003 82.7244 82.9875 82.7238 82.972C82.7274 82.9538 82.7269 82.935 82.7223 82.9171C82.7177 82.8992 82.7091 82.8825 82.6972 82.8683C82.6853 82.8541 82.6704 82.8428 82.6535 82.8351C82.6367 82.8274 82.6183 82.8236 82.5998 82.824V82.852ZM72.8958 78.524L71.8558 78.064C71.8271 78.0517 71.7948 78.0511 71.7657 78.0623C71.7365 78.0735 71.7129 78.0956 71.6998 78.124C71.6931 78.1378 71.6892 78.1529 71.6884 78.1684C71.6875 78.1838 71.6898 78.1992 71.695 78.2137C71.7002 78.2283 71.7083 78.2416 71.7187 78.253C71.7292 78.2643 71.7418 78.2735 71.7558 78.28C72.0958 78.432 72.4478 78.588 72.8038 78.74C72.8196 78.7439 72.8361 78.7439 72.8518 78.74C72.879 78.7404 72.9054 78.7312 72.9266 78.7141C72.9477 78.697 72.9621 78.673 72.9673 78.6463C72.9726 78.6197 72.9683 78.592 72.9552 78.5682C72.9421 78.5443 72.9211 78.5259 72.8958 78.516V78.524ZM84.7998 80.76C84.7814 80.735 84.754 80.7181 84.7235 80.7129C84.6929 80.7077 84.6615 80.7145 84.6358 80.732C84.623 80.7407 84.6121 80.752 84.6038 80.7651C84.5954 80.7781 84.5898 80.7927 84.5872 80.808C84.5846 80.8233 84.585 80.839 84.5886 80.8541C84.5921 80.8692 84.5987 80.8834 84.6078 80.896C84.7457 81.0773 84.8252 81.2964 84.8358 81.524C84.8362 81.6261 84.8144 81.7271 84.7718 81.82C84.7651 81.8338 84.7612 81.8489 84.7604 81.8644C84.7596 81.8798 84.7618 81.8952 84.767 81.9097C84.7722 81.9243 84.7803 81.9376 84.7907 81.949C84.8012 81.9603 84.8138 81.9695 84.8278 81.976C84.8449 81.98 84.8627 81.98 84.8798 81.976C84.9023 81.9755 84.9242 81.9689 84.9432 81.9569C84.9623 81.9449 84.9777 81.928 84.9878 81.908C85.0436 81.782 85.0722 81.6457 85.0718 81.508C85.0573 81.2372 84.9626 80.9768 84.7998 80.76ZM84.4558 82.204C84.3165 82.3134 84.1648 82.4061 84.0038 82.48C83.786 82.5884 83.5565 82.6716 83.3198 82.728C83.2891 82.7355 83.2627 82.7549 83.2462 82.7819C83.2298 82.8088 83.2246 82.8412 83.2318 82.872C83.2382 82.8977 83.2532 82.9204 83.2743 82.9364C83.2954 82.9524 83.3213 82.9607 83.3478 82.96H83.3758C83.6287 82.897 83.8741 82.8072 84.1078 82.692C84.2844 82.6102 84.4508 82.5082 84.6038 82.388C84.6152 82.3771 84.6242 82.3641 84.6304 82.3497C84.6366 82.3352 84.6398 82.3197 84.6398 82.304C84.6398 82.2882 84.6366 82.2727 84.6304 82.2583C84.6242 82.2438 84.6152 82.2308 84.6038 82.22C84.5858 82.2017 84.5621 82.1901 84.5366 82.1872C84.5112 82.1843 84.4855 82.1902 84.4638 82.204H84.4558ZM83.0198 79.368L82.0358 78.836C82.0081 78.8216 81.976 78.8186 81.9461 78.8275C81.9162 78.8365 81.891 78.8567 81.8758 78.884C81.8682 78.8975 81.8633 78.9125 81.8616 78.928C81.8599 78.9435 81.8613 78.9592 81.8658 78.9742C81.8703 78.9891 81.8777 79.003 81.8877 79.015C81.8977 79.027 81.91 79.0368 81.9238 79.044C82.2758 79.232 82.6038 79.404 82.9038 79.572C82.922 79.5778 82.9416 79.5778 82.9598 79.572C82.9811 79.5729 83.0021 79.5677 83.0205 79.5571C83.039 79.5464 83.054 79.5308 83.0638 79.512C83.0756 79.4875 83.0784 79.4598 83.0719 79.4334C83.0653 79.4071 83.0497 79.384 83.0278 79.368H83.0198ZM77.9678 80.82C77.9407 80.8037 77.9083 80.7988 77.8776 80.8062C77.8469 80.8137 77.8204 80.833 77.8038 80.86C77.7959 80.8731 77.7906 80.8876 77.7883 80.9028C77.786 80.918 77.7867 80.9334 77.7904 80.9483C77.7941 80.9632 77.8008 80.9772 77.8099 80.9895C77.8191 81.0018 77.8306 81.0121 77.8438 81.02C78.1878 81.232 78.4958 81.42 78.7558 81.608C78.7768 81.6138 78.7989 81.6138 78.8198 81.608C78.8394 81.6078 78.8587 81.603 78.8761 81.594C78.8934 81.5849 78.9084 81.5719 78.9198 81.556C78.9368 81.5298 78.943 81.4981 78.937 81.4675C78.9311 81.4369 78.9134 81.4098 78.8878 81.392C78.6318 81.236 78.3238 81.032 77.9758 80.82H77.9678ZM74.1038 72.772C74.1244 72.772 74.1448 72.7669 74.1629 72.7571C74.1811 72.7474 74.1965 72.7332 74.2078 72.716C74.2231 72.6886 74.2274 72.6565 74.22 72.6261C74.2126 72.5957 74.194 72.5692 74.1678 72.552C73.8222 72.3473 73.4642 72.1642 73.0958 72.004C73.0817 71.9973 73.0664 71.9937 73.0508 71.9931C73.0352 71.9926 73.0196 71.9952 73.0051 72.0008C72.9905 72.0064 72.9772 72.0149 72.966 72.0257C72.9548 72.0366 72.9459 72.0496 72.9398 72.064C72.9332 72.0781 72.9295 72.0934 72.929 72.109C72.9284 72.1246 72.931 72.1402 72.9366 72.1547C72.9422 72.1693 72.9507 72.1826 72.9616 72.1938C72.9724 72.205 72.9854 72.2139 72.9998 72.22C73.3589 72.3762 73.7076 72.5553 74.0438 72.756C74.0642 72.7684 74.088 72.774 74.1118 72.772H74.1038ZM74.4678 79.172C74.1118 79.024 73.7598 78.88 73.4158 78.732C73.3866 78.72 73.3539 78.72 73.3247 78.7319C73.2955 78.7439 73.2722 78.7669 73.2598 78.796C73.2534 78.8101 73.2499 78.8253 73.2497 78.8408C73.2494 78.8563 73.2524 78.8717 73.2584 78.886C73.2645 78.9003 73.2734 78.9132 73.2846 78.9238C73.2959 78.9345 73.3092 78.9427 73.3238 78.948L74.3758 79.388C74.3903 79.3915 74.4054 79.3915 74.4198 79.388C74.4474 79.3894 74.4745 79.381 74.4964 79.3642C74.5183 79.3474 74.5335 79.3234 74.5393 79.2964C74.5451 79.2694 74.5411 79.2413 74.528 79.217C74.5149 79.1927 74.4935 79.1739 74.4678 79.164V79.172ZM77.4918 80.56C77.1838 80.384 76.8638 80.22 76.5198 80.056C76.4921 80.0431 76.4605 80.0414 76.4315 80.051C76.4025 80.0607 76.3783 80.0811 76.3638 80.108C76.3501 80.1366 76.3482 80.1695 76.3587 80.1995C76.3692 80.2295 76.3912 80.2541 76.4198 80.268C76.7558 80.432 77.0718 80.592 77.3798 80.764C77.398 80.7698 77.4176 80.7698 77.4358 80.764C77.4569 80.764 77.4776 80.7584 77.4959 80.7479C77.5141 80.7374 77.5293 80.7222 77.5398 80.704C77.5478 80.6908 77.5531 80.6763 77.5554 80.6611C77.5577 80.646 77.5569 80.6305 77.5532 80.6156C77.5495 80.6007 77.5428 80.5867 77.5337 80.5744C77.5245 80.5621 77.513 80.5518 77.4998 80.544L77.4918 80.56ZM76.0198 79.824C75.8638 79.752 75.6958 79.68 75.5198 79.608L74.9918 79.388C74.964 79.3817 74.9348 79.3856 74.9096 79.3989C74.8844 79.4122 74.8647 79.434 74.8541 79.4605C74.8435 79.487 74.8427 79.5163 74.8518 79.5434C74.8609 79.5704 74.8794 79.5933 74.9038 79.608L75.4278 79.824C75.5998 79.896 75.7678 79.968 75.9238 80.04C75.9396 80.0436 75.956 80.0436 75.9718 80.04C75.9951 80.0407 76.018 80.0341 76.0373 80.0212C76.0567 80.0083 76.0715 79.9897 76.0798 79.968C76.0873 79.9541 76.0919 79.9389 76.0934 79.9232C76.0948 79.9076 76.093 79.8918 76.0882 79.8768C76.0833 79.8618 76.0755 79.848 76.0651 79.8362C76.0547 79.8243 76.042 79.8147 76.0278 79.808L76.0198 79.824Z" fill="white"/>
<path d="M102.133 102C101.925 101.924 101.733 101.844 101.533 101.764C101.333 101.684 101.161 101.6 100.957 101.5C100.943 101.493 100.928 101.489 100.913 101.488C100.897 101.487 100.882 101.49 100.867 101.495C100.853 101.5 100.839 101.508 100.828 101.519C100.817 101.529 100.807 101.542 100.801 101.556C100.787 101.584 100.785 101.616 100.794 101.646C100.804 101.676 100.825 101.701 100.853 101.716C101.061 101.816 101.253 101.904 101.441 101.98C101.629 102.056 101.841 102.144 102.053 102.224H102.093C102.117 102.223 102.141 102.215 102.161 102.201C102.181 102.186 102.196 102.167 102.205 102.144C102.213 102.115 102.21 102.085 102.197 102.058C102.183 102.031 102.161 102.011 102.133 102ZM102.085 97.2718C102.083 97.241 102.07 97.212 102.047 97.1906C102.025 97.1691 101.996 97.1567 101.965 97.1558C101.477 97.1666 100.991 97.231 100.517 97.3478C100.486 97.3553 100.46 97.3747 100.443 97.4017C100.427 97.4286 100.422 97.461 100.429 97.4918C100.437 97.5168 100.452 97.5388 100.473 97.5546C100.494 97.5704 100.519 97.5792 100.545 97.5798H100.573C101.03 97.4679 101.498 97.4062 101.969 97.3958C101.985 97.3959 102.001 97.3925 102.016 97.3859C102.031 97.3794 102.045 97.3697 102.056 97.3577C102.066 97.3456 102.075 97.3313 102.08 97.3158C102.085 97.3004 102.087 97.284 102.085 97.2678V97.2718ZM104.001 102.604C103.577 102.476 103.161 102.344 102.765 102.204C102.75 102.199 102.734 102.197 102.718 102.198C102.703 102.199 102.687 102.203 102.673 102.21C102.659 102.217 102.646 102.227 102.636 102.239C102.626 102.251 102.618 102.265 102.613 102.28C102.608 102.294 102.606 102.31 102.607 102.325C102.608 102.341 102.613 102.356 102.62 102.37C102.627 102.384 102.637 102.396 102.648 102.406C102.66 102.416 102.674 102.423 102.689 102.428C103.089 102.564 103.489 102.692 103.933 102.828H103.969C103.994 102.827 104.018 102.819 104.038 102.804C104.059 102.789 104.073 102.768 104.081 102.744C104.088 102.715 104.084 102.684 104.069 102.658C104.054 102.631 104.03 102.612 104.001 102.604ZM100.401 101.204C100.032 101.004 99.6812 100.773 99.353 100.512C99.3312 100.49 99.3017 100.478 99.271 100.478C99.2402 100.478 99.2107 100.49 99.189 100.512C99.1776 100.523 99.1685 100.536 99.1623 100.55C99.1562 100.565 99.153 100.58 99.153 100.596C99.153 100.611 99.1562 100.627 99.1623 100.641C99.1685 100.656 99.1776 100.669 99.189 100.68C99.5271 100.95 99.8885 101.189 100.269 101.396C100.287 101.402 100.307 101.402 100.325 101.396C100.346 101.395 100.367 101.39 100.385 101.379C100.403 101.369 100.418 101.354 100.429 101.336C100.439 101.313 100.442 101.288 100.437 101.263C100.432 101.239 100.419 101.217 100.401 101.2V101.204ZM104.137 97.3318C103.661 97.2468 103.18 97.1907 102.697 97.1638C102.681 97.1627 102.665 97.1647 102.65 97.1698C102.635 97.1748 102.622 97.1828 102.61 97.1932C102.598 97.2036 102.588 97.2162 102.581 97.2304C102.574 97.2446 102.57 97.26 102.569 97.2758C102.569 97.3067 102.58 97.3365 102.601 97.3595C102.622 97.3824 102.65 97.3968 102.681 97.3998C103.154 97.4271 103.626 97.4818 104.093 97.5638C104.121 97.5643 104.148 97.555 104.17 97.5375C104.192 97.5199 104.207 97.4953 104.213 97.4678C104.217 97.4393 104.212 97.4102 104.197 97.3854C104.183 97.3606 104.16 97.3416 104.133 97.3318H104.137ZM105.857 103.168L104.681 102.8L104.605 102.776C104.59 102.771 104.574 102.769 104.559 102.771C104.543 102.772 104.528 102.776 104.514 102.784C104.5 102.791 104.488 102.802 104.478 102.814C104.468 102.826 104.461 102.841 104.457 102.856C104.449 102.886 104.453 102.918 104.468 102.945C104.483 102.973 104.507 102.994 104.537 103.004L104.613 103.024L105.785 103.376H105.817C105.844 103.374 105.871 103.363 105.891 103.345C105.911 103.326 105.925 103.302 105.929 103.274C105.933 103.247 105.928 103.219 105.914 103.196C105.9 103.172 105.879 103.154 105.853 103.144L105.857 103.168ZM111.393 101.328C111.415 101.349 111.445 101.36 111.475 101.36C111.505 101.36 111.535 101.349 111.557 101.328C111.578 101.306 111.589 101.276 111.589 101.246C111.589 101.215 111.578 101.186 111.557 101.164C111.197 100.876 110.837 100.588 110.481 100.312C110.456 100.293 110.424 100.284 110.392 100.289C110.36 100.293 110.332 100.31 110.313 100.336C110.304 100.348 110.297 100.362 110.293 100.377C110.289 100.392 110.288 100.408 110.291 100.423C110.293 100.438 110.298 100.453 110.306 100.466C110.314 100.479 110.324 100.491 110.337 100.5C110.673 100.756 111.029 101.04 111.389 101.328H111.393ZM98.529 99.2318C98.5291 99.1617 98.5371 99.092 98.553 99.0238C98.5572 99.0088 98.5583 98.9931 98.5563 98.9777C98.5544 98.9623 98.5493 98.9474 98.5415 98.934C98.5336 98.9205 98.5232 98.9088 98.5107 98.8995C98.4983 98.8902 98.4841 98.8835 98.469 98.8798C98.4383 98.8735 98.4064 98.8792 98.3797 98.8955C98.353 98.9118 98.3334 98.9376 98.325 98.9678C98.3046 99.0543 98.2938 99.1428 98.293 99.2318C98.3148 99.6087 98.4693 99.9657 98.729 100.24C98.7532 100.265 98.7862 100.279 98.821 100.28C98.844 100.281 98.8668 100.274 98.8863 100.262C98.9059 100.25 98.9214 100.232 98.9309 100.211C98.9403 100.19 98.9433 100.167 98.9394 100.144C98.9355 100.121 98.9249 100.1 98.909 100.084C98.6832 99.8548 98.5469 99.5526 98.525 99.2318H98.529ZM106.237 97.8718C105.785 97.7198 105.313 97.5878 104.845 97.4718C104.83 97.4676 104.814 97.4666 104.798 97.4688C104.782 97.4711 104.767 97.4765 104.754 97.4847C104.741 97.4929 104.729 97.5039 104.72 97.5168C104.711 97.5297 104.704 97.5443 104.701 97.5598C104.695 97.5905 104.701 97.6223 104.718 97.6485C104.736 97.6746 104.762 97.693 104.793 97.6998C105.253 97.8078 105.713 97.9398 106.161 98.0998H106.201C106.228 98.0982 106.255 98.0873 106.275 98.0689C106.295 98.0504 106.309 98.0255 106.313 97.9983C106.317 97.9712 106.312 97.9434 106.298 97.9196C106.284 97.8958 106.263 97.8775 106.237 97.8678V97.8718ZM114.725 103.672C115.061 103.852 115.381 104.012 115.685 104.164C115.702 104.167 115.72 104.167 115.737 104.164C115.759 104.164 115.781 104.158 115.8 104.147C115.819 104.136 115.835 104.119 115.845 104.1C115.858 104.071 115.86 104.039 115.85 104.01C115.841 103.98 115.82 103.955 115.793 103.94C115.489 103.792 115.169 103.632 114.837 103.452C114.823 103.441 114.807 103.433 114.79 103.429C114.773 103.425 114.755 103.425 114.738 103.428C114.721 103.432 114.705 103.439 114.691 103.449C114.677 103.46 114.665 103.473 114.657 103.489C114.648 103.504 114.644 103.521 114.643 103.539C114.642 103.556 114.644 103.574 114.651 103.59C114.657 103.607 114.667 103.621 114.68 103.633C114.693 103.645 114.708 103.654 114.725 103.66V103.672ZM108.657 99.2958C109.005 99.5158 109.369 99.7718 109.773 100.068C109.794 100.083 109.819 100.091 109.845 100.092C109.864 100.092 109.882 100.087 109.899 100.079C109.915 100.071 109.93 100.059 109.941 100.044C109.95 100.031 109.957 100.017 109.96 100.002C109.964 99.9868 109.964 99.9711 109.962 99.9558C109.959 99.9406 109.953 99.9259 109.945 99.9129C109.937 99.8998 109.926 99.8885 109.913 99.8798C109.513 99.5758 109.133 99.3198 108.781 99.0798C108.768 99.0711 108.754 99.0651 108.739 99.0622C108.724 99.0593 108.708 99.0595 108.693 99.0629C108.678 99.0663 108.664 99.0727 108.652 99.0818C108.639 99.0909 108.629 99.1025 108.621 99.1158C108.609 99.1289 108.601 99.1445 108.596 99.1614C108.591 99.1784 108.59 99.1962 108.593 99.2136C108.596 99.2309 108.603 99.2473 108.614 99.2616C108.624 99.2758 108.637 99.2875 108.653 99.2958H108.657ZM98.749 98.5638C98.7656 98.5636 98.782 98.5599 98.7972 98.553C98.8123 98.5461 98.8259 98.5362 98.837 98.5238C98.9745 98.3717 99.1303 98.2373 99.301 98.1238C99.4914 97.992 99.6952 97.8807 99.909 97.7918C99.9233 97.7857 99.9364 97.7768 99.9472 97.7656C99.9581 97.7544 99.9665 97.7411 99.9721 97.7265C99.9778 97.712 99.9804 97.6964 99.9798 97.6808C99.9793 97.6652 99.9756 97.6499 99.969 97.6358C99.9633 97.6215 99.9548 97.6086 99.944 97.5978C99.9332 97.5869 99.9202 97.5785 99.906 97.5728C99.8917 97.5672 99.8765 97.5646 99.8612 97.5651C99.8459 97.5656 99.8308 97.5692 99.817 97.5758C99.5898 97.6713 99.3728 97.7893 99.169 97.9278C98.9839 98.0521 98.8135 98.1971 98.661 98.3598C98.639 98.3822 98.6267 98.4124 98.6267 98.4438C98.6267 98.4752 98.639 98.5053 98.661 98.5278C98.6715 98.5395 98.6845 98.5489 98.699 98.5551C98.7135 98.5613 98.7292 98.5643 98.745 98.5638H98.749ZM117.705 105.108C117.694 105.097 117.68 105.089 117.666 105.084C117.652 105.078 117.636 105.076 117.621 105.076C117.605 105.077 117.59 105.081 117.576 105.087C117.562 105.093 117.549 105.102 117.539 105.114C117.528 105.125 117.52 105.138 117.515 105.153C117.51 105.167 117.507 105.183 117.508 105.198C117.508 105.213 117.512 105.229 117.518 105.243C117.525 105.257 117.534 105.269 117.545 105.28C117.68 105.382 117.793 105.51 117.877 105.657C117.961 105.805 118.014 105.967 118.033 106.136C118.033 106.151 118.036 106.166 118.042 106.181C118.048 106.195 118.057 106.207 118.069 106.218C118.08 106.228 118.093 106.237 118.108 106.242C118.122 106.247 118.138 106.249 118.153 106.248C118.185 106.245 118.214 106.23 118.236 106.206C118.257 106.183 118.269 106.152 118.269 106.12C118.249 105.921 118.189 105.729 118.091 105.554C117.993 105.38 117.86 105.228 117.701 105.108H117.705ZM116.105 107.428C115.611 107.47 115.113 107.436 114.629 107.328C114.6 107.327 114.573 107.335 114.55 107.353C114.528 107.37 114.512 107.395 114.506 107.423C114.5 107.451 114.505 107.48 114.519 107.505C114.532 107.53 114.554 107.55 114.581 107.56C114.948 107.639 115.322 107.681 115.697 107.684C115.841 107.684 115.986 107.676 116.129 107.66C116.16 107.657 116.188 107.641 116.207 107.617C116.227 107.593 116.236 107.563 116.233 107.532C116.23 107.501 116.215 107.473 116.191 107.453C116.167 107.434 116.136 107.425 116.105 107.428ZM114.365 103.2C114.049 103.016 113.753 102.832 113.465 102.632C113.452 102.621 113.437 102.612 113.421 102.608C113.405 102.603 113.388 102.601 113.371 102.603C113.355 102.605 113.339 102.611 113.324 102.62C113.31 102.628 113.297 102.64 113.288 102.654C113.278 102.668 113.271 102.683 113.268 102.7C113.265 102.717 113.266 102.734 113.269 102.75C113.273 102.766 113.281 102.782 113.291 102.795C113.301 102.809 113.314 102.82 113.329 102.828C113.625 103.028 113.925 103.228 114.249 103.404C114.268 103.41 114.289 103.41 114.309 103.404C114.33 103.404 114.35 103.399 114.368 103.388C114.385 103.378 114.4 103.362 114.409 103.344C114.42 103.318 114.422 103.29 114.414 103.264C114.405 103.237 114.388 103.215 114.365 103.2ZM113.897 107.128C113.66 107.049 113.428 106.957 113.201 106.852C113.037 106.776 112.877 106.692 112.713 106.604C112.685 106.59 112.653 106.588 112.624 106.597C112.594 106.606 112.569 106.625 112.553 106.652C112.545 106.665 112.54 106.68 112.539 106.696C112.537 106.711 112.538 106.727 112.543 106.742C112.547 106.757 112.555 106.771 112.565 106.783C112.575 106.795 112.587 106.805 112.601 106.812C112.769 106.904 112.937 106.988 113.101 107.064C113.336 107.173 113.576 107.269 113.821 107.352H113.857C113.882 107.353 113.906 107.345 113.927 107.331C113.947 107.317 113.962 107.296 113.969 107.272C113.977 107.244 113.974 107.214 113.96 107.188C113.947 107.162 113.924 107.142 113.897 107.132V107.128ZM117.173 104.96C117.193 104.96 117.212 104.955 117.229 104.946C117.247 104.937 117.262 104.924 117.273 104.908C117.282 104.895 117.288 104.881 117.291 104.865C117.295 104.85 117.295 104.834 117.292 104.819C117.289 104.804 117.283 104.789 117.274 104.776C117.265 104.763 117.254 104.752 117.241 104.744C117.082 104.636 116.918 104.535 116.749 104.444C116.593 104.36 116.433 104.276 116.269 104.196C116.255 104.188 116.24 104.184 116.224 104.182C116.209 104.181 116.193 104.183 116.178 104.187C116.163 104.192 116.149 104.2 116.137 104.211C116.125 104.221 116.116 104.234 116.109 104.248C116.096 104.275 116.094 104.307 116.104 104.336C116.114 104.365 116.134 104.389 116.161 104.404C116.325 104.488 116.481 104.568 116.633 104.652C116.805 104.748 116.965 104.844 117.109 104.944C117.128 104.956 117.15 104.963 117.173 104.964V104.96ZM117.853 106.592C117.739 106.73 117.604 106.851 117.453 106.948C117.251 107.083 117.032 107.19 116.801 107.268C116.772 107.279 116.749 107.302 116.735 107.33C116.722 107.358 116.72 107.39 116.729 107.42C116.737 107.443 116.752 107.463 116.772 107.477C116.792 107.492 116.816 107.5 116.841 107.5H116.877C117.13 107.417 117.37 107.298 117.589 107.148C117.757 107.039 117.907 106.904 118.033 106.748C118.052 106.723 118.061 106.691 118.058 106.66C118.054 106.628 118.038 106.599 118.013 106.58C117.989 106.563 117.959 106.555 117.93 106.558C117.901 106.561 117.873 106.575 117.853 106.596V106.592ZM112.233 106.332C111.937 106.156 111.625 105.964 111.293 105.756C111.28 105.747 111.266 105.741 111.251 105.738C111.236 105.735 111.22 105.736 111.205 105.739C111.19 105.742 111.176 105.749 111.164 105.758C111.151 105.767 111.141 105.778 111.133 105.792C111.124 105.805 111.118 105.819 111.115 105.835C111.112 105.85 111.112 105.866 111.116 105.881C111.119 105.897 111.126 105.911 111.135 105.924C111.144 105.937 111.156 105.948 111.169 105.956C111.501 106.164 111.813 106.356 112.113 106.536C112.133 106.541 112.153 106.541 112.173 106.536C112.194 106.536 112.214 106.531 112.232 106.521C112.25 106.511 112.266 106.497 112.277 106.48C112.286 106.454 112.287 106.426 112.279 106.4C112.271 106.374 112.255 106.352 112.233 106.336V106.332ZM108.189 98.7318C107.981 98.6118 107.777 98.5038 107.577 98.4078C107.381 98.3118 107.157 98.2118 106.913 98.1158C106.899 98.11 106.883 98.1072 106.868 98.1075C106.852 98.1078 106.837 98.1113 106.823 98.1176C106.808 98.1239 106.796 98.1331 106.785 98.1444C106.774 98.1558 106.766 98.1692 106.761 98.1838C106.755 98.1979 106.751 98.2131 106.751 98.2286C106.751 98.2441 106.754 98.2595 106.76 98.2738C106.766 98.2881 106.775 98.301 106.786 98.3116C106.797 98.3223 106.81 98.3305 106.825 98.3358C107.065 98.4318 107.285 98.5278 107.473 98.6198C107.661 98.7118 107.873 98.8198 108.073 98.9358C108.091 98.9416 108.111 98.9416 108.129 98.9358C108.15 98.9366 108.17 98.9318 108.189 98.922C108.207 98.9121 108.222 98.8976 108.233 98.8798C108.243 98.8543 108.244 98.8262 108.236 98.8C108.228 98.7738 108.212 98.7511 108.189 98.7358V98.7318ZM109.389 104.604L108.901 104.336C108.725 104.24 108.525 104.144 108.309 104.048C108.282 104.041 108.253 104.044 108.227 104.056C108.202 104.069 108.182 104.09 108.17 104.115C108.159 104.141 108.157 104.17 108.165 104.197C108.172 104.225 108.19 104.248 108.213 104.264C108.425 104.356 108.613 104.452 108.789 104.544C108.965 104.636 109.117 104.724 109.273 104.812C109.291 104.816 109.311 104.816 109.329 104.812C109.35 104.812 109.371 104.806 109.389 104.796C109.407 104.785 109.422 104.77 109.433 104.752C109.444 104.727 109.446 104.7 109.44 104.674C109.433 104.647 109.418 104.624 109.397 104.608L109.389 104.604ZM110.817 105.46C110.521 105.276 110.205 105.084 109.869 104.884C109.856 104.876 109.841 104.871 109.826 104.868C109.811 104.866 109.796 104.867 109.781 104.87C109.766 104.874 109.752 104.881 109.739 104.89C109.727 104.899 109.717 104.911 109.709 104.924C109.693 104.951 109.688 104.983 109.695 105.014C109.703 105.045 109.722 105.071 109.749 105.088C110.085 105.284 110.397 105.488 110.693 105.66C110.713 105.665 110.733 105.665 110.753 105.66C110.774 105.66 110.794 105.655 110.812 105.645C110.83 105.635 110.846 105.621 110.857 105.604C110.867 105.58 110.869 105.554 110.863 105.529C110.858 105.504 110.844 105.481 110.825 105.464L110.817 105.46ZM112.949 102.536C112.967 102.535 112.985 102.53 113.001 102.521C113.018 102.512 113.031 102.499 113.041 102.484C113.05 102.471 113.057 102.457 113.061 102.442C113.065 102.428 113.066 102.412 113.063 102.397C113.061 102.381 113.056 102.367 113.048 102.354C113.04 102.34 113.029 102.329 113.017 102.32L112.601 102L112.069 101.572C112.047 101.551 112.017 101.539 111.987 101.539C111.957 101.539 111.927 101.551 111.905 101.572C111.894 101.583 111.885 101.596 111.878 101.61C111.872 101.625 111.869 101.64 111.869 101.656C111.869 101.671 111.872 101.687 111.878 101.701C111.885 101.716 111.894 101.729 111.905 101.74L112.441 102.168C112.585 102.284 112.729 102.396 112.869 102.5C112.88 102.512 112.894 102.522 112.909 102.529C112.924 102.536 112.94 102.54 112.957 102.54L112.949 102.536ZM107.701 103.796C107.341 103.656 106.937 103.512 106.469 103.36C106.439 103.351 106.406 103.354 106.378 103.368C106.35 103.382 106.328 103.406 106.317 103.436C106.308 103.465 106.311 103.497 106.325 103.525C106.339 103.553 106.364 103.574 106.393 103.584C106.861 103.736 107.261 103.876 107.617 104.016H107.661C107.685 104.016 107.708 104.008 107.727 103.995C107.746 103.981 107.761 103.962 107.769 103.94C107.777 103.913 107.775 103.885 107.764 103.859C107.753 103.833 107.734 103.813 107.709 103.8L107.701 103.796Z" fill="white"/>
<path d="M148.58 169.6C151.56 168.14 154.692 170.064 155.94 171.04C157.644 172.372 158.912 174.536 160.876 175.748C162.84 176.96 164.644 177.748 165.7 178.492C166.756 179.236 167.588 180.448 165.868 181.292C164.148 182.136 162.268 181.476 161.068 180.756C159.868 180.036 158.908 179.156 156.356 178.096C153.804 177.036 151.06 175.96 149.508 174.896C147.956 173.832 145.528 171.072 148.58 169.6Z" fill="#E0E0E0"/>
<path opacity="0.8" d="M116.215 134C118.907 132.684 121.735 134.42 122.863 135.304C124.403 136.504 125.547 138.46 127.323 139.556C129.099 140.652 130.727 141.348 131.683 142.036C132.639 142.724 133.391 143.804 131.831 144.564C130.271 145.324 128.575 144.728 127.507 144.08C126.439 143.432 125.555 142.64 123.247 141.68C120.939 140.72 118.447 139.752 117.059 138.792C115.671 137.832 113.459 135.348 116.215 134Z" fill="#4070FF"/>
<path d="M152.66 156.8C150.136 158.52 153.46 160.328 155.156 161.048C157.464 162.032 161.212 162.764 163.308 163.896C165.404 165.028 166.744 166.072 168.064 166.696C169.384 167.32 171.452 167.784 172.912 166.792C174.372 165.8 173.228 164.712 171.984 164.028C170.74 163.344 169.224 162.78 167.376 161.304C165.528 159.828 163.676 158.248 161.84 157.352C160.004 156.456 155.244 155.048 152.66 156.8Z" fill="#E0E0E0"/>
<path d="M185.926 140.064L181.342 142.708L173.798 138.356V82.4042L168.77 79.5002L177.398 72.8682L181.978 70.2202L190.954 87.0162L186.37 89.6602L185.926 89.4042V140.064Z" fill="#4070FF"/>
<path opacity="0.8" d="M185.926 140.064L181.342 142.708L173.798 138.356V82.4042L168.77 79.5002L177.398 72.8682L181.978 70.2202L190.954 87.0162L186.37 89.6602L185.926 89.4042V140.064Z" fill="white"/>
<path d="M181.342 142.708L173.798 138.356V82.4042L168.77 79.5002L177.398 72.8682L186.37 89.6602L181.342 86.7562V142.708Z" fill="#4070FF"/>
<path opacity="0.7" d="M181.342 142.708L173.798 138.356V82.4042L168.77 79.5002L177.398 72.8682L186.37 89.6602L181.342 86.7562V142.708Z" fill="white"/>
<path d="M185.924 140.064L181.34 142.708V86.7563L185.924 89.4043V140.064Z" fill="#4070FF"/>
<path opacity="0.5" d="M185.924 140.064L181.34 142.708V86.7563L185.924 89.4043V140.064Z" fill="white"/>
<path d="M82.4821 167.544L86.9501 170.124L94.3061 165.876V127.792L99.2101 124.96L90.7981 118.492L86.3301 115.912L77.5781 132.288L82.0461 134.868L82.4821 134.616V167.544Z" fill="#455A64"/>
<path d="M86.9509 170.124L94.3069 165.876V127.792L99.2109 124.96L90.7989 118.492L82.0469 134.868L86.9509 132.036V170.124Z" fill="#37474F"/>
<path d="M82.4805 167.544L86.9485 170.124V132.036L82.4805 134.616V167.544Z" fill="#263238"/>
<path d="M66.301 166.684L69.649 168.616L75.161 165.432V144.172L78.837 142.052L72.529 137.204L69.181 135.272L62.625 147.544L65.973 149.476L66.301 149.288V166.684Z" fill="#4070FF"/>
<path opacity="0.1" d="M65.973 149.476L72.529 137.204L69.181 135.272L62.625 147.544L65.973 149.476Z" fill="white"/>
<path d="M69.6487 168.616L75.1607 165.432V144.172L78.8367 142.052L72.5287 137.204L65.9727 149.476L69.6487 147.356V168.616Z" fill="#4070FF"/>
<path opacity="0.1" d="M69.6487 168.616L75.1607 165.432V144.172L78.8367 142.052L72.5287 137.204L65.9727 149.476L69.6487 147.356V168.616Z" fill="black"/>
<path opacity="0.3" d="M66.3008 166.684L69.6488 168.616V147.356L66.3008 149.288V166.684Z" fill="black"/>
<path d="M15.3163 127.216V72.96L14.5843 73.384L10.4883 71.016L19.0003 55.084L23.2283 57.524L31.2963 63.732L26.6043 66.44V125.54L19.5123 129.636L15.3163 127.216Z" fill="#F5F5F5"/>
<path d="M19.1219 55.4918L23.0499 57.7598L30.7699 63.6958L26.6059 66.0958L26.3139 66.2678V125.368L19.5139 129.296L15.6019 127.044V72.4478L14.7139 72.9598L14.5739 73.0398L10.8739 70.9038L19.1219 55.4918ZM18.8859 54.6918L10.0859 71.1478L14.5779 73.7398L15.0139 73.4878V127.384L19.5059 129.976L26.8939 125.712V66.6118L31.8219 63.7678L23.3779 57.2678L18.8859 54.6758V54.6918Z" fill="#E6E6E6"/>
<path d="M19.5139 129.976L26.9019 125.712V66.6116L31.8299 63.7676L23.3779 57.2676L14.5859 73.7236L19.5139 70.8796V129.976Z" fill="#EBEBEB"/>
<path d="M15.0234 127.384L19.5154 129.976V70.8799L15.0234 73.4719V127.384Z" fill="#E0E0E0"/>
<path d="M34.7554 122.432V86.3716L34.0634 86.7716L30.1914 84.5356L38.2394 69.4756L42.2314 71.7836L49.8594 77.6476L45.4234 80.2116V120.852L38.7194 124.724L34.7554 122.432Z" fill="#F5F5F5"/>
<path d="M38.3483 69.8637L42.0603 72.0077L49.3603 77.6077L45.4243 79.8797L45.1483 80.0397V120.68L38.7203 124.4L35.0323 122.272V85.8717L34.1923 86.3557L34.0603 86.4317L30.5603 84.4117L38.3443 69.8477M38.1243 69.0757L29.8203 84.6437L34.0643 87.0917L34.4643 86.8557V122.596L38.7083 125.044L45.6923 121.012V80.3717L50.3483 77.6837L42.3483 71.5397L38.1043 69.0917L38.1243 69.0757Z" fill="#E6E6E6"/>
<path d="M38.7185 125.044L45.7025 121.012V80.3715L50.3585 77.6836L42.3705 71.5396L34.0625 87.0915L38.7185 84.4035V125.044Z" fill="#EBEBEB"/>
<path d="M34.4766 122.596L38.7206 125.044V84.4038L34.4766 86.8518V122.596Z" fill="#E0E0E0"/>
<path d="M49.9953 141.62H25.1953L27.7593 152.308C27.9553 153.596 28.9033 154.856 30.6113 155.84C34.4713 158.068 40.7273 158.068 44.5833 155.84C46.4233 154.78 47.3833 153.404 47.4633 152.012L49.9953 141.62Z" fill="#37474F"/>
<path d="M46.9593 148.948C47.4854 148.644 47.9846 148.297 48.4513 147.908L49.8473 142.196C49.1226 142.993 48.2745 143.668 47.3353 144.196C42.0993 147.216 33.7113 147.292 28.2993 144.44L28.9313 141.896L28.7353 141.628H25.1953L27.7593 152.312C27.9553 153.6 28.9033 154.86 30.6113 155.844C33.3593 157.444 37.3233 157.884 40.7713 157.208C34.5913 157.668 30.3473 154.968 29.7113 152.476C29.4593 151.48 29.0153 149.276 29.0153 149.276C34.1633 151.896 42.0273 151.792 46.9593 148.948Z" fill="#263238"/>
<path d="M51.2771 138.46C51.135 139.152 50.8532 139.808 50.4491 140.388C49.6376 141.536 48.5728 142.481 47.3371 143.152C41.9531 146.264 33.2171 146.264 27.8291 143.152C26.5947 142.485 25.53 141.543 24.7171 140.4C24.3158 139.819 24.0356 139.163 23.8931 138.472C23.4131 136.136 24.7291 133.7 27.8331 131.904C33.2211 128.792 41.9571 128.792 47.3411 131.904C50.4411 133.688 51.7571 136.124 51.2771 138.46Z" fill="#455A64"/>
<path d="M50.4505 140.4C49.639 141.548 48.5742 142.493 47.3385 143.164C41.9545 146.276 33.2185 146.276 27.8305 143.164C26.5948 142.493 25.53 141.548 24.7185 140.4C24.3173 139.819 24.037 139.163 23.8945 138.472L24.5065 142.676C24.7865 144.368 26.0465 146.02 28.2945 147.316C33.4305 150.276 41.7465 150.276 46.8825 147.316C49.0985 146.036 50.3585 144.404 50.6585 142.736L50.6905 142.52L51.2825 138.472C51.1392 139.164 50.8561 139.82 50.4505 140.4Z" fill="#37474F"/>
<path d="M45.7116 132.828C41.2196 130.236 33.9436 130.236 29.4556 132.828C26.9156 134.3 25.8156 136.28 26.1476 138.192C26.4036 139.66 27.5076 141.088 29.4556 142.192C33.9436 144.784 41.2196 144.784 45.7116 142.192C47.6556 141.068 48.7596 139.64 49.0156 138.192C49.3516 136.28 48.2516 134.3 45.7116 132.828Z" fill="#263238"/>
<path d="M26.9102 139.968C27.5817 140.896 28.4523 141.663 29.4582 142.212C33.9462 144.804 41.2222 144.804 45.7142 142.212C46.72 141.663 47.5906 140.896 48.2622 139.968C48.2302 138.416 47.1902 136.872 45.1382 135.688C40.9662 133.288 34.2022 133.288 30.0342 135.688C27.9982 136.872 26.9422 138.4 26.9102 139.968Z" fill="#FAFAFA"/>
<path d="M31.3517 100.336L37.8997 106.972L31.2837 102.88C31.0191 105.153 31.1545 107.454 31.6837 109.68C31.6837 109.68 34.8837 112.16 36.6717 114.216L31.5597 111.428C31.5597 111.428 30.7597 114.924 31.5597 120.508C31.7757 121.972 33.0357 124.868 33.7917 127.008C34.1367 127.997 34.5483 128.962 35.0237 129.896L35.1117 130.072C36.4264 129.52 37.7864 128.995 39.1917 128.496C40.2797 126.784 41.9517 122.432 42.7917 118.808C46.0597 104.928 36.3917 95.5639 28.1797 91.8159C28.2077 91.8159 30.6957 95.8599 31.3517 100.336Z" fill="#4070FF"/>
<path d="M37.3373 101.668C38.6373 103.336 39.2653 105.4 39.6893 107.44C40.0981 109.495 40.2806 111.589 40.2333 113.684C40.185 117.878 39.1446 122.001 37.1973 125.716C37.1842 125.739 37.1759 125.765 37.173 125.792C37.1701 125.819 37.1727 125.846 37.1805 125.872C37.1884 125.898 37.2014 125.922 37.2187 125.942C37.236 125.963 37.2573 125.98 37.2813 125.992C37.3291 126.017 37.385 126.023 37.4367 126.007C37.4885 125.991 37.5319 125.956 37.5573 125.908C39.4636 122.118 40.4464 117.93 40.4253 113.688C40.4382 111.58 40.2209 109.477 39.7773 107.416C39.3293 105.38 38.6653 103.316 37.3373 101.668Z" fill="white"/>
<path d="M61.2918 108.4C61.1198 108.648 58.2958 112.716 54.2678 120.496L46.5438 122.496L52.3998 122.964L49.7478 128.164L42.1798 130.472L48.2958 130.896C48.2958 130.896 47.1678 136.932 43.0958 139.784C40.8398 141.356 39.8078 141.484 38.9158 141.056C37.8238 140.536 37.1758 138.892 36.5158 136.416C35.8558 133.94 36.2678 128.772 38.1878 123.616C38.7113 122.234 39.4292 120.935 40.3198 119.756C45.4478 112.876 55.9518 108.8 61.2918 108.4Z" fill="#4070FF"/>
<path opacity="0.1" d="M61.2918 108.4C61.1198 108.648 58.2958 112.716 54.2678 120.496L46.5438 122.496L52.3998 122.964L49.7478 128.164L42.1798 130.472L48.2958 130.896C48.2958 130.896 47.1678 136.932 43.0958 139.784C40.8398 141.356 39.8078 141.484 38.9158 141.056C37.8238 140.536 37.1758 138.892 36.5158 136.416C35.8558 133.94 36.2678 128.772 38.1878 123.616C38.7113 122.234 39.4292 120.935 40.3198 119.756C45.4478 112.876 55.9518 108.8 61.2918 108.4Z" fill="black"/>
<path d="M53.3236 111.72C49.4356 113.876 45.8236 116.672 43.1156 120.264C41.7396 122.047 40.6517 124.035 39.8916 126.156C39.1676 128.281 38.7987 130.511 38.7996 132.756C38.7953 132.758 38.7916 132.761 38.7891 132.765C38.7865 132.768 38.7852 132.773 38.7852 132.778C38.7852 132.782 38.7865 132.787 38.7891 132.791C38.7916 132.795 38.7953 132.798 38.7996 132.8C38.801 132.797 38.8017 132.793 38.8017 132.79C38.8017 132.786 38.801 132.783 38.7996 132.78C39.0165 130.574 39.5124 128.405 40.2756 126.324C41.0343 124.247 42.0747 122.285 43.3676 120.492C45.9756 116.892 49.4956 114.04 53.3156 111.78C53.318 111.778 53.3201 111.775 53.3215 111.773C53.3228 111.77 53.3236 111.767 53.3236 111.764C53.3236 111.761 53.3228 111.758 53.3215 111.755C53.3201 111.752 53.318 111.75 53.3156 111.748C53.3198 111.745 53.3229 111.74 53.3243 111.735C53.3257 111.73 53.3255 111.725 53.3236 111.72Z" fill="white"/>
<path d="M13.0625 107.032C13.8412 107.084 14.616 107.184 15.3825 107.332C18.4005 107.938 21.332 108.915 24.1105 110.24C25.1425 110.724 26.1705 111.26 27.1785 111.84C27.6825 112.133 28.1812 112.44 28.6745 112.76C31.1106 114.301 33.2735 116.237 35.0745 118.488C35.9086 119.568 36.6046 120.747 37.1465 122C37.2145 122.16 37.2905 122.32 37.3545 122.484C37.5185 122.908 37.6625 123.32 37.7985 123.728C39.3985 128.344 39.3065 131.444 38.8985 134.86C38.5825 137.508 37.4265 140.46 36.8705 140.924C36.7946 140.985 36.7113 141.036 36.6225 141.076C35.8225 141.496 34.6465 141.116 32.4985 139.668C28.1985 136.772 26.9585 130.232 26.9585 130.232L33.3185 129.688L25.4025 127.416L22.5545 122.04L28.6625 121.448L20.5905 119.512C16.2625 111.484 13.2545 107.3 13.0705 107.044L13.0625 107.032Z" fill="#4070FF"/>
<path d="M15.3824 107.332C18.4004 107.938 21.3319 108.915 24.1104 110.24C25.1424 110.724 26.1704 111.26 27.1784 111.84C27.6824 112.133 28.1811 112.44 28.6744 112.76C31.1105 114.301 33.2734 116.237 35.0744 118.488C35.9085 119.568 36.6045 120.748 37.1464 122C37.2144 122.16 37.2904 122.32 37.3544 122.484C37.5184 122.908 37.6624 123.32 37.7984 123.728C39.3984 128.344 39.3064 131.444 38.8984 134.86C38.5824 137.508 37.4264 140.46 36.8704 140.924C36.7945 140.985 36.7112 141.036 36.6224 141.076C36.4624 141.156 36.2887 141.205 36.1104 141.22C37.0104 137.144 35.8504 126.536 33.1384 121.984C30.3384 117.252 23.2904 110.144 13.0664 107.044C13.8434 107.094 14.6168 107.19 15.3824 107.332Z" fill="#4070FF"/>
<path opacity="0.2" d="M15.3824 107.332C18.4004 107.938 21.3319 108.915 24.1104 110.24C25.1424 110.724 26.1704 111.26 27.1784 111.84C27.6824 112.133 28.1811 112.44 28.6744 112.76C31.1105 114.301 33.2734 116.237 35.0744 118.488C35.9085 119.568 36.6045 120.748 37.1464 122C37.2144 122.16 37.2904 122.32 37.3544 122.484C37.5184 122.908 37.6624 123.32 37.7984 123.728C39.3984 128.344 39.3064 131.444 38.8984 134.86C38.5824 137.508 37.4264 140.46 36.8704 140.924C36.7945 140.985 36.7112 141.036 36.6224 141.076C36.4624 141.156 36.2887 141.205 36.1104 141.22C37.0104 137.144 35.8504 126.536 33.1384 121.984C30.3384 117.252 23.2904 110.144 13.0664 107.044C13.8434 107.094 14.6168 107.19 15.3824 107.332Z" fill="black"/>
<path d="M36.1411 141.22C36.5897 138.188 36.6449 135.11 36.3051 132.064C36.0028 128.999 35.2241 126.001 33.9971 123.176C32.6771 120.376 30.6451 117.976 28.4491 115.84C26.2153 113.73 23.709 111.929 20.9971 110.484C20.9918 110.48 20.9855 110.479 20.9791 110.479C20.9727 110.479 20.9664 110.48 20.9611 110.484C20.9586 110.486 20.9566 110.488 20.9552 110.491C20.9538 110.494 20.9531 110.497 20.9531 110.5C20.9531 110.503 20.9538 110.506 20.9552 110.509C20.9566 110.512 20.9586 110.514 20.9611 110.516C23.5222 112.163 25.9092 114.066 28.0851 116.196C29.1815 117.244 30.2039 118.367 31.1451 119.556C32.1095 120.721 32.94 121.99 33.6211 123.34C34.87 126.113 35.6797 129.063 36.0211 132.084C36.4284 135.11 36.4418 138.175 36.0611 141.204C36.0611 141.204 36.0611 141.228 36.0611 141.232C36.0627 141.243 36.0685 141.252 36.0771 141.259C36.0857 141.265 36.0965 141.268 36.1071 141.266C36.1177 141.264 36.1273 141.259 36.1337 141.25C36.14 141.241 36.1427 141.231 36.1411 141.22Z" fill="white"/>
<path d="M105.942 17.6002C107.766 16.5442 110.29 16.6962 113.078 18.3042C118.646 21.5042 123.162 29.3402 123.158 35.7722C123.158 39.0002 122.022 41.2642 120.186 42.3122C119.706 42.5842 117.786 43.7482 117.294 44.0282C115.47 45.0842 112.95 44.9322 110.166 43.3242C104.594 40.1242 100.082 32.2882 100.082 25.8562C100.082 22.6562 101.21 20.3842 103.034 19.3322" fill="#4070FF"/>
<path opacity="0.5" d="M105.942 17.6002C107.766 16.5442 110.29 16.6962 113.078 18.3042C118.646 21.5042 123.162 29.3402 123.158 35.7722C123.158 39.0002 122.022 41.2642 120.186 42.3122C119.706 42.5842 117.786 43.7482 117.294 44.0282C115.47 45.0842 112.95 44.9322 110.166 43.3242C104.594 40.1242 100.082 32.2882 100.082 25.8562C100.082 22.6562 101.21 20.3842 103.034 19.3322" fill="white"/>
<path opacity="0.2" d="M121.69 28.8521C122.614 31.0403 123.113 33.3849 123.158 35.7601L110.166 43.3121C108.132 42.0843 106.351 40.4796 104.918 38.5841L121.69 28.8521Z" fill="white"/>
<path opacity="0.3" d="M104.918 38.5842C102.018 34.8642 100.082 30.0562 100.082 25.8442C100.082 22.6442 101.21 20.3722 103.034 19.3202L105.942 17.6002C107.766 16.5442 110.29 16.6962 113.078 18.3042C116.722 20.4122 119.918 24.4922 121.69 28.8642L104.918 38.5842Z" fill="white"/>
<path d="M110.166 20.0202C115.734 23.2402 120.25 31.0562 120.25 37.4882C120.25 43.9202 115.734 46.5282 110.166 43.3122C104.598 40.0962 100.074 32.2762 100.082 25.8442C100.09 19.4122 104.602 16.8002 110.166 20.0202Z" fill="#4070FF"/>
<path d="M110.166 22.9322C114.342 25.3322 117.73 31.2082 117.73 36.0362C117.73 40.8642 114.342 42.8362 110.166 40.4042C105.99 37.9722 102.602 32.1242 102.602 27.3002C102.602 22.4762 105.998 20.5162 110.166 22.9322Z" fill="#FAFAFA"/>
<path d="M110.167 25.6C113.079 27.28 115.439 31.368 115.439 34.732C115.439 38.096 113.075 39.456 110.167 37.772C107.259 36.088 104.895 32 104.895 28.624C104.895 25.248 107.255 23.896 110.167 25.6Z" fill="#4070FF"/>
<path d="M110.166 28.2964C111.015 28.8507 111.722 29.5973 112.228 30.4758C112.735 31.3542 113.028 32.3398 113.082 33.3524C113.082 35.2124 111.778 35.9684 110.166 35.0364C109.319 34.4845 108.613 33.7412 108.106 32.8664C107.599 31.9916 107.304 31.0099 107.246 30.0004C107.246 28.1204 108.554 27.3684 110.166 28.2964Z" fill="#FAFAFA"/>
<path d="M110.166 30.2441C110.524 30.4778 110.822 30.7926 111.036 31.163C111.25 31.5334 111.374 31.949 111.398 32.3761C111.398 33.1761 110.846 33.4801 110.166 33.0881C109.807 32.8544 109.509 32.5397 109.295 32.1693C109.081 31.7989 108.957 31.3833 108.934 30.9561C108.934 30.1721 109.486 29.8521 110.166 30.2441Z" fill="#4070FF"/>
<path d="M95.9963 39.8521C95.9963 39.8521 95.7483 42.9601 94.3123 43.7881C92.8763 44.6161 92.1003 42.1001 93.0283 41.5641L95.9963 39.8521Z" fill="#37474F"/>
<path d="M95.9987 39.8519C95.9987 39.8519 93.1987 38.5119 91.7507 39.3399C90.3027 40.1679 92.1027 42.0999 93.0307 41.5639L95.9987 39.8519Z" fill="#455A64"/>
<path d="M107.181 33.7599L90.9253 43.1479L90.6133 42.5959L107.229 33.0039L107.181 33.7599Z" fill="#263238"/>
<path d="M91.3101 41.976C91.469 42.0677 91.5971 42.2046 91.6783 42.3692C91.7595 42.5338 91.79 42.7187 91.766 42.9007C91.7421 43.0826 91.6647 43.2534 91.5437 43.3914C91.4228 43.5294 91.2636 43.6284 91.0863 43.6759C90.9091 43.7234 90.7217 43.7173 90.5479 43.6584C90.3741 43.5994 90.2217 43.4903 90.1099 43.3447C89.9982 43.1992 89.9321 43.0238 89.92 42.8406C89.9079 42.6575 89.9504 42.4749 90.0421 42.316C90.103 42.2103 90.1841 42.1178 90.2808 42.0435C90.3775 41.9693 90.4879 41.9148 90.6056 41.8832C90.7234 41.8516 90.8462 41.8436 90.9671 41.8595C91.0879 41.8754 91.2045 41.915 91.3101 41.976Z" fill="#263238"/>
<path d="M106.861 33.564C106.269 34.364 107.345 35.708 107.345 35.708L110.145 31.668L106.861 33.564Z" fill="#4070FF"/>
<path d="M106.861 33.564C106.269 34.364 107.345 35.708 107.345 35.708L110.145 31.668L106.861 33.564Z" fill="#37474F"/>
<path d="M105.25 32.076C105.25 32.076 105.886 33.676 106.85 33.564L110.138 31.668L105.25 32.076Z" fill="#455A64"/>
<path d="M115.953 43.9444C116.566 44.9369 117.407 45.7692 118.405 46.3724C119.519 47.0215 120.793 47.3432 122.081 47.3004C122.141 47.3005 122.2 47.2853 122.253 47.2564C122.449 47.1364 125.113 45.6084 125.161 45.5804C125.212 45.5513 125.254 45.5094 125.283 45.4588C125.313 45.4082 125.328 45.3508 125.328 45.2924C125.328 45.234 125.313 45.1765 125.283 45.126C125.254 45.0754 125.212 45.0335 125.161 45.0044C124.314 44.5444 123.592 43.8845 123.058 43.0822C122.524 42.2798 122.194 41.3592 122.097 40.4004L115.953 43.9444Z" fill="#4070FF"/>
<path opacity="0.3" d="M115.953 43.9444C116.566 44.9369 117.407 45.7692 118.405 46.3724C119.519 47.0215 120.793 47.3432 122.081 47.3004C122.141 47.3005 122.2 47.2853 122.253 47.2564C122.449 47.1364 125.113 45.6084 125.161 45.5804C125.212 45.5513 125.254 45.5094 125.283 45.4588C125.313 45.4082 125.328 45.3508 125.328 45.2924C125.328 45.234 125.313 45.1765 125.283 45.126C125.254 45.0754 125.212 45.0335 125.161 45.0044C124.314 44.5444 123.592 43.8845 123.058 43.0822C122.524 42.2798 122.194 41.3592 122.097 40.4004L115.953 43.9444Z" fill="white"/>
<path d="M119.217 40.6084C119.04 41.8082 119.235 43.0334 119.776 44.1185C120.318 45.2037 121.179 46.0965 122.245 46.6764C122.307 46.7138 122.356 46.7705 122.383 46.8378C122.41 46.9052 122.415 46.9796 122.397 47.0499C122.378 47.1203 122.337 47.1827 122.28 47.2279C122.223 47.273 122.153 47.2985 122.081 47.3004C120.791 47.3424 119.516 47.0208 118.401 46.3724C115.797 44.7204 115.473 42.7724 115.473 42.7724L119.217 40.6084Z" fill="#4070FF"/>
<path d="M164.294 144.5C163.758 142.94 163.47 139.112 162.926 134.98L154.738 136.948C154.738 136.948 157.854 146.428 158.23 147.368C158.85 148.916 164.294 144.5 164.294 144.5Z" fill="#FFBDA7"/>
<path d="M166.195 146.501C166.053 145.792 165.743 145.129 165.291 144.565C165.107 144.357 164.912 144.16 164.707 143.973C164.516 143.689 164.368 143.379 164.267 143.053C164.22 142.932 164.155 142.819 164.075 142.717C163.929 142.566 163.741 142.464 163.535 142.425C162.639 142.185 161.691 142.425 160.831 142.773C159.644 143.196 158.57 143.889 157.695 144.797C157.551 144.937 157.451 145.117 157.407 145.314C157.364 145.511 157.379 145.716 157.451 145.905C157.619 146.613 158.251 149.429 158.223 150.105C158.26 151.014 158.116 151.923 157.799 152.777C157.702 153.052 157.585 153.319 157.447 153.577C157.361 153.74 157.232 153.877 157.075 153.974C156.917 154.07 156.736 154.122 156.551 154.125C155.545 154.143 154.556 154.385 153.655 154.833C153.21 155.024 152.844 155.363 152.62 155.793C152.396 156.223 152.328 156.718 152.427 157.193C152.427 157.193 152.603 158.317 154.287 159.317C155.251 159.889 157.527 160.561 158.947 160.117C159.047 160.077 159.139 160.045 159.231 160.001C160.787 159.269 164.635 157.365 164.671 157.081C164.671 157.081 164.671 157.049 164.671 157.033C164.743 156.113 164.835 155.197 164.927 154.281C164.998 153.596 165.104 152.915 165.243 152.241C165.307 151.949 165.359 151.657 165.403 151.353C165.599 150.129 166.211 146.653 166.195 146.501Z" fill="#455A64"/>
<path d="M166.722 147.12C167.398 147.452 166.862 149.604 166.274 151.12C165.562 152.952 165.266 153.24 165.366 154.844C165.466 156.448 165.506 157.456 164.842 157.988C164.178 158.52 159.41 160.84 159.41 160.84C160.234 158.975 160.762 156.993 160.974 154.964C161.374 151.456 161.774 149.208 163.466 147.732C165.158 146.256 166.722 147.12 166.722 147.12Z" fill="black"/>
<path d="M152.428 157.2C152.428 157.2 153.308 159.036 156.756 159.736C158.944 160.18 160.016 159.152 160.288 156.424C160.584 153.464 160.968 149.812 162.124 148.236C163.28 146.66 165.024 146.164 166.196 146.468C166.508 146.628 166.745 146.903 166.856 147.236C166.856 147.236 165.524 146.304 163.656 147.884C162.156 149.16 161.752 152.348 161.484 155.036C161.216 157.724 160.86 160.836 158.776 161C156.692 161.164 153.956 160.132 152.68 158.836C152.474 158.623 152.339 158.351 152.294 158.058C152.249 157.765 152.296 157.465 152.428 157.2Z" fill="#37474F"/>
<path d="M157.602 153.2C157.517 153.252 157.442 153.321 157.383 153.402C157.324 153.483 157.282 153.575 157.258 153.672C157.223 153.952 157.264 154.237 157.377 154.496C157.489 154.755 157.669 154.979 157.898 155.144C158.166 155.332 158.41 155.288 158.006 154.684C157.746 154.232 157.607 153.721 157.602 153.2Z" fill="#FAFAFA"/>
<path d="M158.117 151.6C157.998 151.703 157.921 151.845 157.897 152C157.865 152.248 158.225 153.292 158.697 153.556C159.169 153.82 158.945 153.244 158.741 152.964C158.499 152.525 158.291 152.069 158.117 151.6Z" fill="#FAFAFA"/>
<path d="M158.189 149.645C158.101 149.826 158.076 150.031 158.117 150.229C158.39 150.637 158.798 150.935 159.269 151.073C159.581 151.073 159.709 150.901 159.297 150.673C158.973 150.493 158.285 149.941 158.189 149.645Z" fill="#FAFAFA"/>
<path d="M162.332 75.8281C162.916 79.5801 163.18 82.4001 162.516 91.7801C162.22 95.9081 160.98 113.684 160.98 113.684C162.063 117.426 162.703 121.281 162.888 125.172C163.128 131.656 163.612 139.62 163.612 139.62C163.612 139.62 162.248 138.704 159.568 139.472C158.19 139.923 156.982 140.783 156.104 141.936C156.104 141.936 152.72 132.072 150.776 124.968C149.42 120 148.488 118.364 147.736 111.548C146.812 103.172 145.304 91.4081 145.304 91.4081L140.672 75.8361L162.332 75.8281Z" fill="#37474F"/>
<path d="M150.656 95.5003C148.108 97.7483 147.56 99.6243 147.424 100.972C147.288 102.32 148.084 114.284 148.084 114.332C147.968 113.512 147.852 112.596 147.736 111.532C146.812 103.164 145.308 91.4083 145.304 91.3923L140.672 75.8203H155.34L154.1 84.7563C154.472 88.6043 153.2 93.2523 150.656 95.5003Z" fill="#263238"/>
<path d="M134.168 139.864C134.352 140.664 134.568 141.284 133.824 142.264C133.08 143.244 131.464 143.752 129.86 143.704C128.711 143.652 127.614 143.204 126.756 142.436C125.828 141.716 125.18 141.088 124.832 140.792C124.484 140.496 123.104 140.116 121.792 139.852C120.416 139.576 117.76 139 116.412 137.028C115.064 135.056 115.296 133.336 115.296 133.336L134.168 139.864Z" fill="#263238"/>
<path d="M124.033 132.072C126.853 133.044 131.141 133.636 133.697 134.312C134.465 135.028 134.301 138.268 134.309 140.452C133.329 142.7 130.197 143.276 128.121 142.376C127.045 141.784 126.325 140.948 125.269 140.3C124.422 139.83 123.5 139.508 122.545 139.348C121.439 139.095 120.351 138.768 119.289 138.368C116.517 137.096 115.137 134.736 115.289 132.82C115.433 131.14 116.541 129.952 119.289 130.368C120.537 130.552 122.093 131.408 124.033 132.072Z" fill="#455A64"/>
<path d="M126.917 132.801C126.417 132.149 125.453 132.533 124.701 133.453C123.949 134.373 123.749 135.853 123.841 136.129C123.933 136.405 124.293 136.625 124.397 136.245C124.501 135.865 124.681 134.569 125.277 133.781C125.64 133.297 126.143 132.937 126.717 132.749L126.917 132.801Z" fill="#E0E0E0"/>
<path d="M123.346 131.824C122.894 131.164 121.798 131.48 121.022 132.328C120.246 133.176 119.998 134.304 120.07 134.572C120.142 134.84 120.47 135.08 120.606 134.716C120.816 133.965 121.168 133.26 121.642 132.64C122.034 132.186 122.566 131.875 123.154 131.756L123.346 131.824Z" fill="#E0E0E0"/>
<path d="M124.957 132.364C124.505 131.704 123.553 132.028 122.773 132.876C122.169 133.588 121.825 134.484 121.797 135.416C121.869 135.684 122.197 135.924 122.329 135.556C122.461 135.188 122.697 133.956 123.313 133.224C123.691 132.776 124.198 132.455 124.765 132.304L124.957 132.364Z" fill="#E0E0E0"/>
<path d="M133.786 132.072C133.786 132.164 133.67 135.064 133.67 135.064C133.67 135.064 133.406 136.2 130.89 136.52C128.374 136.84 126.538 135.888 126.058 135.216C126.058 135.216 125.75 132.212 125.602 130.96L133.786 132.072Z" fill="#FFBDA7"/>
<path d="M155.339 82.6404C155.063 86.9604 153.231 92.5484 146.999 96.7644C144.159 98.9644 142.095 101.164 139.743 103.504C136.827 106.392 134.775 108.144 134.775 108.144C135.226 111.543 135.368 114.976 135.199 118.4C134.923 124.264 133.871 132.036 133.871 132.036C132.512 132.997 130.856 133.442 129.199 133.292C126.467 133.028 125.483 132.004 125.483 132.004C125.483 132.004 122.779 113.912 122.411 110.336C122.043 106.76 121.351 104.736 124.411 98.9564C126.811 94.4804 137.339 75.8364 137.339 75.8364H155.339V82.6404Z" fill="#37474F"/>
<path d="M101.005 82.7446L93.201 95.2566C93.1512 95.3363 93.1277 95.4295 93.1338 95.5233C93.1398 95.617 93.1752 95.7065 93.2349 95.779C93.2946 95.8515 93.3756 95.9034 93.4664 95.9274C93.5572 95.9514 93.6533 95.9462 93.741 95.9126L107.625 90.7126L101.005 82.7446Z" fill="#FFA8A7"/>
<path d="M93.741 95.9125C93.6533 95.9461 93.5572 95.9513 93.4664 95.9273C93.3756 95.9033 93.2946 95.8514 93.2349 95.7789C93.1752 95.7063 93.1398 95.6169 93.1338 95.5231C93.1277 95.4294 93.1512 95.3361 93.201 95.2565L94.725 92.8125C94.8114 93.2608 95.0194 93.6766 95.3263 94.0146C95.6332 94.3525 96.0271 94.5995 96.465 94.7285L96.709 94.7965L93.741 95.9125Z" fill="#263238"/>
<path d="M174.369 36.1763L173.313 37.0402L172.041 38.0883L107.641 90.7043C105.981 90.5815 104.429 89.8356 103.297 88.6162C101.517 86.8402 100.533 84.3283 101.025 82.7482L165.425 30.1562L167.861 28.1562C166.333 29.5403 172.841 37.5363 174.369 36.1763Z" fill="#4070FF"/>
<path d="M170.356 39.4764L167.996 41.4044C167.328 41.9844 165.7 40.8844 164.172 39.3244C162.14 37.2604 160.604 34.1244 161.484 33.3604L163.224 31.9364L163.856 31.4404C162.972 32.2084 164.508 35.3404 166.54 37.4084C168.004 38.9004 169.572 39.9724 170.28 39.5324C170.311 39.5228 170.338 39.5031 170.356 39.4764Z" fill="#EBEBEB"/>
<path d="M169.767 39.9526C168.223 41.3046 161.719 33.2646 163.263 31.9126L165.603 29.9766C164.059 31.3326 170.563 39.3686 172.107 38.0166L169.767 39.9526Z" fill="#4070FF"/>
<path d="M174.37 36.1766L172.042 38.0886C170.534 39.4246 164.194 31.7205 165.402 30.1565C165.424 30.1256 165.45 30.0975 165.478 30.0725L167.838 28.1646C166.334 29.5406 172.842 37.5366 174.37 36.1766Z" fill="#EBEBEB"/>
<path opacity="0.15" d="M93.2592 95.8003L93.1992 95.2563L102.307 87.4923L169.367 32.7283C169.251 32.5723 169.271 32.4923 169.399 32.4683C171.095 34.7683 173.511 36.9363 174.367 36.1763L173.311 37.0403L172.039 38.0883L107.639 90.7043L93.7552 95.9043C93.672 95.9408 93.5795 95.9504 93.4906 95.9317C93.4016 95.9131 93.3207 95.8671 93.2592 95.8003Z" fill="black"/>
<path d="M184.253 28.0723L174.369 36.1763C173.717 36.7563 172.097 35.6803 170.573 34.1403C168.533 32.0803 166.973 28.9403 167.837 28.1643L177.757 20.0403C179.737 18.4403 183.497 22.0403 184.621 25.1083C185.057 26.2403 185.029 27.3243 184.253 28.0723Z" fill="#F28F8F"/>
<path opacity="0.1" d="M180.803 27.4644C178.695 26.0004 177.127 23.2004 177.303 21.2884C177.306 20.9965 177.381 20.7099 177.52 20.4534C177.66 20.197 177.86 19.9783 178.103 19.8164C180.147 18.8084 183.571 22.1924 184.635 25.0964C185.055 26.2164 185.035 27.2804 184.299 28.0284C183.543 28.6324 182.235 28.4724 180.803 27.4644Z" fill="black"/>
<path d="M155.037 43.4841C154.093 42.6841 153.565 40.1721 154.041 38.8001C154.517 37.4281 156.441 34.1881 156.697 30.2641C156.953 26.3401 151.677 20.3281 147.129 20.8001C142.581 21.2721 140.161 23.7881 138.937 27.2001C138.193 29.2721 138.761 29.5601 138.473 30.7481C137.909 33.0961 137.361 36.3041 138.373 39.4361C138.587 40.122 138.987 40.7348 139.53 41.2054C140.073 41.6761 140.736 41.9859 141.445 42.1001C142.413 42.2926 143.406 42.325 144.385 42.1961C144.447 43.2097 144.455 44.2257 144.409 45.2401C144.4 45.5896 144.259 45.9226 144.015 46.1731C143.771 46.4236 143.442 46.5732 143.093 46.5921C143.093 46.5921 156.001 44.2841 155.037 43.4841Z" fill="#FFBDA7"/>
<path d="M141.746 37.068C141.86 37.4112 142.103 37.6969 142.423 37.8653C142.743 38.0337 143.115 38.0717 143.463 37.9714C143.81 37.8711 144.106 37.6402 144.287 37.3272C144.468 37.0141 144.52 36.6432 144.434 36.292L141.746 37.068Z" fill="#B16668"/>
<path d="M142.805 38.0402C142.936 37.6899 143.164 37.3841 143.462 37.1582C143.76 36.9323 144.116 36.7957 144.489 36.7642C144.479 36.9655 144.426 37.1623 144.332 37.3406C144.238 37.5189 144.106 37.6744 143.945 37.7961C143.785 37.9179 143.599 38.0028 143.402 38.045C143.205 38.0871 143.001 38.0855 142.805 38.0402Z" fill="#F28F8F"/>
<path d="M144.653 31.7202C144.621 31.8121 144.608 31.9093 144.615 32.0062C144.621 32.1031 144.647 32.1978 144.69 32.2848C144.733 32.3718 144.793 32.4494 144.866 32.5131C144.939 32.5769 145.025 32.6255 145.117 32.6562C145.259 32.7076 145.413 32.7154 145.559 32.6785C145.706 32.6416 145.838 32.5617 145.938 32.4491C146.039 32.3366 146.103 32.1964 146.124 32.0468C146.144 31.8972 146.119 31.7449 146.052 31.6097C145.985 31.4744 145.879 31.3623 145.747 31.2878C145.616 31.2134 145.465 31.1799 145.315 31.1918C145.164 31.2037 145.021 31.2604 144.903 31.3545C144.785 31.4487 144.698 31.5761 144.653 31.7202Z" fill="#263238"/>
<path d="M144.707 29.0085L146.367 29.6405C146.447 29.4137 146.437 29.1646 146.338 28.9455C146.238 28.7263 146.058 28.5539 145.835 28.4645C145.725 28.4231 145.609 28.4044 145.492 28.4095C145.375 28.4147 145.26 28.4436 145.154 28.4945C145.049 28.5453 144.955 28.6171 144.878 28.7055C144.801 28.7939 144.743 28.8969 144.707 29.0085Z" fill="#263238"/>
<path d="M139.204 29.4043L140.872 28.7523C140.835 28.6413 140.776 28.5391 140.698 28.4519C140.621 28.3646 140.526 28.2941 140.42 28.2447C140.314 28.1953 140.199 28.168 140.082 28.1645C139.965 28.1609 139.849 28.1813 139.74 28.2243C139.517 28.3146 139.336 28.4875 139.236 28.7071C139.137 28.9268 139.125 29.1764 139.204 29.4043Z" fill="#263238"/>
<path d="M139.528 31.3723C139.533 31.5032 139.577 31.6297 139.654 31.7359C139.731 31.8421 139.837 31.9233 139.96 31.9695C140.082 32.0156 140.216 32.0247 140.344 31.9955C140.471 31.9663 140.588 31.9002 140.678 31.8054C140.769 31.7105 140.829 31.5912 140.852 31.4622C140.876 31.3332 140.86 31.2002 140.808 31.0798C140.756 30.9595 140.67 30.857 140.561 30.7853C140.451 30.7135 140.323 30.6756 140.192 30.6763C140.102 30.6784 140.014 30.698 139.933 30.7341C139.851 30.7702 139.777 30.8221 139.715 30.8867C139.654 30.9513 139.605 31.0275 139.573 31.1108C139.541 31.1941 139.525 31.283 139.528 31.3723Z" fill="#263238"/>
<path d="M138.953 34.6405L141.545 35.8005L142.365 30.7125C141.401 30.3645 140.149 32.7005 138.953 34.6405Z" fill="#F0997A"/>
<path d="M144.402 42.1842C144.402 42.1842 146.862 41.8162 147.558 41.4202C149.45 40.3402 150.138 39.5082 150.558 38.3242C150.432 39.1316 150.111 39.8961 149.623 40.5519C149.135 41.2076 148.495 41.7349 147.758 42.0882C146.69 42.5391 145.577 42.8769 144.438 43.0962L144.402 42.1842Z" fill="#F0997A"/>
<path d="M157.818 28.2562C157.697 27.3813 157.272 26.5767 156.618 25.9842C156.515 25.9023 156.398 25.8399 156.274 25.8002C156.858 22.1562 154.049 20.6722 152.597 20.4282C151.922 20.3408 151.254 20.2071 150.597 20.0282C150.429 19.9694 150.269 19.8887 150.121 19.7882C149.669 19.4762 149.425 19.0242 148.921 18.6522C147.781 17.8082 145.962 17.9122 145.361 19.3482C144.582 18.4642 143.61 18.5482 142.502 18.9202C142.195 19.0092 141.916 19.1744 141.691 19.4003C141.466 19.6263 141.302 19.9056 141.214 20.2122C141.128 20.5319 141.114 20.8666 141.173 21.1922C140.918 21.0566 140.637 20.9758 140.349 20.9552C140.061 20.9345 139.771 20.9745 139.499 21.0724C139.227 21.1704 138.979 21.3242 138.77 21.5239C138.561 21.7237 138.396 21.9649 138.285 22.2322C138.255 22.3201 138.234 22.4115 138.226 22.5042C138.22 22.6041 138.22 22.7043 138.226 22.8042C138.226 23.3362 138.294 23.8042 137.97 24.3202C137.901 24.4291 137.816 24.5263 137.718 24.6082C137.625 24.7045 137.514 24.7801 137.39 24.83C137.267 24.88 137.134 24.903 137.001 24.8977C136.868 24.8924 136.737 24.8589 136.618 24.7993C136.499 24.7398 136.394 24.6555 136.309 24.5522C136.217 25.4882 136.626 26.1522 137.63 26.0522C137.476 26.3214 137.383 26.6214 137.359 26.9305C137.335 27.2397 137.379 27.5504 137.49 27.8402C137.585 28.0878 137.733 28.312 137.923 28.4976C138.113 28.6832 138.34 28.826 138.59 28.9162C138.638 28.329 138.773 27.7522 138.99 27.2042C139.13 26.8042 139.289 26.4362 139.461 26.0642C140.121 26.3461 140.815 26.5385 141.526 26.6362C144.111 27.0723 146.766 26.8114 149.218 25.8802C148.843 26.7276 148.565 27.6145 148.39 28.5242C148.327 28.929 148.355 29.3427 148.473 29.7351C148.591 30.1275 148.795 30.4886 149.07 30.7922C149.334 31.0362 149.238 31.4762 149.17 31.7802C149.038 32.1496 148.962 32.5365 148.945 32.9282C148.948 32.9855 148.959 33.0421 148.978 33.0962C149.01 33.1886 149.062 33.2724 149.132 33.3414C149.201 33.4103 149.285 33.4626 149.378 33.4942C149.47 33.5258 149.569 33.5359 149.666 33.5238C149.763 33.5117 149.856 33.4776 149.938 33.4242C150.211 33.1576 150.428 32.8377 150.573 32.4842C151.477 30.6122 153.425 30.5642 154.221 31.5002C155.017 32.4362 154.981 33.4042 154.221 35.1002C153.709 36.2282 152.538 36.7842 151.666 36.4202C151.507 36.3542 151.362 36.2593 151.238 36.1402C151.214 36.8682 151.402 37.8322 152.15 38.3722C152.715 38.7216 153.381 38.8723 154.042 38.8002C154.27 38.1402 154.842 37.0562 155.378 35.6682C155.778 34.9762 156.178 34.3042 156.518 33.6682C156.626 33.4682 156.722 33.2682 156.806 33.0682C157.602 31.2602 158.03 29.8802 157.818 28.2562Z" fill="#263238"/>
<path d="M156.574 43.692C161.374 43.248 163.438 44.892 164.642 46.304C165.846 47.716 171.274 56.704 173.442 61.772C174.318 63.824 174.806 65.44 172.93 67.288C170.93 69.256 161.702 77.068 161.702 77.068L158.318 71.752L164.762 63.272L159.162 54.072L156.574 43.692Z" fill="#37474F"/>
<path d="M159.283 44.4004C161.711 45.6004 163.399 50.4364 163.615 54.1124C163.783 56.9724 163.151 60.7164 162.747 66.0644C162.565 68.499 162.542 70.9429 162.679 73.3804C162.807 75.9084 163.019 80.3484 163.019 80.3484C163.019 80.3484 160.619 85.2084 151.971 86.0644C139.391 87.3124 134.371 81.1324 134.371 81.1324C134.371 81.1324 135.243 78.3324 135.343 67.9324C135.419 60.1564 134.635 52.6524 136.171 49.8804C136.835 48.9564 136.831 48.0404 138.571 47.3924C139.771 46.9444 145.231 45.6124 147.371 45.1524C154.507 43.6284 156.743 43.1484 159.283 44.4004Z" fill="#455A64"/>
<path d="M143.202 46.1883C144.298 46.4683 144.802 46.7363 146.462 47.1043C148.825 47.6904 151.319 47.4168 153.498 46.3323C155.534 45.2803 155.898 43.8803 155.898 43.8803C155.898 43.8803 155.038 42.3563 154.698 41.8563C154.358 41.3563 154.03 41.4083 154.03 41.4083L154.178 41.9883C154.178 41.9883 154.178 42.9563 151.838 43.5443C149.438 44.1483 145.562 44.1963 144.45 43.8643V43.5403C143.874 43.6923 143.69 44.1163 143.038 45.0043C142.634 45.5532 142.2 46.0794 141.738 46.5803L143.202 46.1883Z" fill="#37474F"/>
<path d="M111.251 77.8243C109.143 78.3283 108.155 79.0683 107.127 79.1883C106.524 79.2607 105.917 79.2808 105.311 79.2483L103.383 80.8003C103.383 80.8003 103.783 77.4523 104.355 76.1963C104.927 74.9403 105.447 75.6923 105.835 74.9163C106.223 74.1403 106.131 73.5843 106.967 73.2843C107.803 72.9843 107.615 72.2123 108.907 71.9763C110.199 71.7403 115.347 72.4963 115.347 72.4963L111.251 77.8243Z" fill="#FFA8A7"/>
<path d="M138.855 47.2964C133.495 48.4964 132.151 49.8604 129.611 54.6644C126.755 60.0644 123.247 66.9564 123.247 66.9564C123.247 66.9564 115.959 69.8924 111.619 71.4444C110.215 71.9484 107.551 78.5564 109.871 78.7124C109.871 78.7124 121.775 76.6364 125.299 75.9524C129.535 75.1284 130.207 74.2724 132.499 70.7804C134.791 67.2884 140.003 57.3484 140.003 57.3484C140.003 57.3484 142.467 50.0804 138.855 47.2964Z" fill="#37474F"/>
</svg>
